M48
; DRILL file {KiCad (6.0.11)} date Wed Feb  8 23:30:49 2023
; FORMAT={-:-/ absolute / metric / decimal}
; #@! TF.CreationDate,2023-02-08T23:30:49+00:00
; #@! TF.GenerationSoftware,Kicad,Pcbnew,(6.0.11)
; #@! TF.FileFunction,Plated,1,2,PTH
FMAT,2
METRIC
; #@! TA.AperFunction,Plated,PTH,ComponentDrill
T1C0.700
; #@! TA.AperFunction,Plated,PTH,ComponentDrill
T2C0.800
; #@! TA.AperFunction,Plated,PTH,ComponentDrill
T3C0.900
; #@! TA.AperFunction,Plated,PTH,ComponentDrill
T4C1.000
; #@! TA.AperFunction,Plated,PTH,ComponentDrill
T5C1.520
; #@! TA.AperFunction,Plated,PTH,ComponentDrill
T6C1.600
; #@! TA.AperFunction,Plated,PTH,ComponentDrill
T7C4.100
; #@! TA.AperFunction,Plated,PTH,ComponentDrill
T8C4.300
; #@! TA.AperFunction,Plated,PTH,ComponentDrill
T9C24.000
%
G90
G05
T1
X138.5Y-86.76
X138.5Y-91.84
X150.0Y-63.0
X155.08Y-63.0
X157.2Y-77.4
X162.28Y-77.4
X166.6Y-83.5
X166.6Y-88.58
X169.32Y-78.4
X169.42Y-74.5
X174.4Y-78.4
X174.5Y-74.5
X179.92Y-73.6
X185.0Y-73.6
T2
X90.455Y-85.0
X92.455Y-90.0
X95.535Y-85.0
X97.535Y-90.0
X131.5Y-55.42
X131.5Y-60.5
X135.5Y-55.455
X135.5Y-60.535
X163.065Y-63.2
X163.065Y-70.82
X165.605Y-63.2
X165.605Y-70.82
X168.145Y-63.2
X168.145Y-70.82
X170.685Y-63.2
X170.685Y-70.82
X173.225Y-63.2
X173.225Y-70.82
X175.765Y-63.2
X175.765Y-70.82
X178.305Y-63.2
X178.305Y-70.82
X180.845Y-63.2
X180.845Y-70.82
X182.2Y-80.4
X182.2Y-88.02
X183.385Y-63.2
X183.385Y-70.82
X185.925Y-63.2
X185.925Y-70.82
T3
X47.605Y-44.0
X47.655Y-94.0
X50.145Y-44.0
X50.195Y-94.0
X83.67Y-94.0
X83.725Y-44.0
X86.21Y-94.0
X86.265Y-44.0
T4
X105.71Y-61.0
X108.25Y-61.0
X110.79Y-61.0
X113.33Y-61.0
X115.87Y-61.0
X118.41Y-61.0
X142.42Y-64.49
X142.42Y-67.03
X142.42Y-69.57
X142.42Y-72.11
X142.42Y-74.65
X142.42Y-77.19
X142.42Y-79.73
X147.5Y-63.22
X147.5Y-65.76
X147.5Y-68.3
X147.5Y-70.84
X147.5Y-73.38
X147.5Y-75.92
X147.5Y-78.46
X147.5Y-81.0
X172.2Y-84.4
X191.025Y-59.95
X191.025Y-62.49
X191.025Y-65.03
X191.025Y-67.57
X191.025Y-70.11
T5
X105.0Y-87.0
X110.08Y-87.0
X115.16Y-87.0
X120.24Y-87.0
X145.76Y-88.0
X150.84Y-88.0
X155.92Y-88.0
X161.0Y-88.0
X191.6Y-75.52
X191.6Y-80.6
X191.6Y-85.68
T6
X98.0Y-41.88
X98.0Y-57.12
X98.0Y-65.38
X98.0Y-80.62
X107.0Y-41.88
X107.0Y-57.12
X107.0Y-65.5
X107.0Y-80.74
X116.0Y-41.88
X116.0Y-57.12
X116.0Y-65.5
X116.0Y-80.74
X125.0Y-41.88
X125.0Y-57.12
X125.0Y-65.26
X125.0Y-80.5
T7
X51.0Y-54.0
X51.0Y-85.0
X82.0Y-54.0
X82.0Y-85.0
T8
X40.0Y-44.0
X40.0Y-94.0
X195.0Y-44.0
X195.0Y-94.0
T9
X66.5Y-69.5
T0
M30
