G04 #@! TF.GenerationSoftware,KiCad,Pcbnew,(6.0.11)*
G04 #@! TF.CreationDate,2023-02-08T23:30:17+00:00*
G04 #@! TF.ProjectId,StepperDemoPCB,53746570-7065-4724-9465-6d6f5043422e,rev?*
G04 #@! TF.SameCoordinates,Original*
G04 #@! TF.FileFunction,Legend,Bot*
G04 #@! TF.FilePolarity,Positive*
%FSLAX46Y46*%
G04 Gerber Fmt 4.6, Leading zero omitted, Abs format (unit mm)*
G04 Created by KiCad (PCBNEW (6.0.11)) date 2023-02-08 23:30:17*
%MOMM*%
%LPD*%
G01*
G04 APERTURE LIST*
%ADD10C,0.100000*%
%ADD11R,1.600000X1.600000*%
%ADD12O,1.600000X1.600000*%
%ADD13C,1.400000*%
%ADD14O,1.400000X1.400000*%
%ADD15R,1.700000X1.700000*%
%ADD16O,1.700000X1.700000*%
%ADD17C,24.500000*%
%ADD18C,4.500000*%
%ADD19C,7.500000*%
%ADD20C,1.600000*%
%ADD21R,1.800000X1.800000*%
%ADD22C,1.800000*%
%ADD23R,3.200000X3.200000*%
%ADD24O,3.200000X3.200000*%
%ADD25R,3.000000X3.000000*%
%ADD26C,3.000000*%
%ADD27O,1.800000X1.800000*%
G04 APERTURE END LIST*
D10*
X180250000Y-39016666D02*
X180250000Y-39516666D01*
X180216666Y-39616666D01*
X180150000Y-39683333D01*
X180050000Y-39716666D01*
X179983333Y-39716666D01*
X180683333Y-39716666D02*
X180616666Y-39683333D01*
X180583333Y-39650000D01*
X180550000Y-39583333D01*
X180550000Y-39383333D01*
X180583333Y-39316666D01*
X180616666Y-39283333D01*
X180683333Y-39250000D01*
X180783333Y-39250000D01*
X180850000Y-39283333D01*
X180883333Y-39316666D01*
X180916666Y-39383333D01*
X180916666Y-39583333D01*
X180883333Y-39650000D01*
X180850000Y-39683333D01*
X180783333Y-39716666D01*
X180683333Y-39716666D01*
X181483333Y-39683333D02*
X181416666Y-39716666D01*
X181283333Y-39716666D01*
X181216666Y-39683333D01*
X181183333Y-39616666D01*
X181183333Y-39350000D01*
X181216666Y-39283333D01*
X181283333Y-39250000D01*
X181416666Y-39250000D01*
X181483333Y-39283333D01*
X181516666Y-39350000D01*
X181516666Y-39416666D01*
X181183333Y-39483333D01*
X181750000Y-39250000D02*
X181916666Y-39716666D01*
X182083333Y-39250000D02*
X181916666Y-39716666D01*
X181850000Y-39883333D01*
X181816666Y-39916666D01*
X181750000Y-39950000D01*
X183283333Y-39650000D02*
X183250000Y-39683333D01*
X183150000Y-39716666D01*
X183083333Y-39716666D01*
X182983333Y-39683333D01*
X182916666Y-39616666D01*
X182883333Y-39550000D01*
X182850000Y-39416666D01*
X182850000Y-39316666D01*
X182883333Y-39183333D01*
X182916666Y-39116666D01*
X182983333Y-39050000D01*
X183083333Y-39016666D01*
X183150000Y-39016666D01*
X183250000Y-39050000D01*
X183283333Y-39083333D01*
X183683333Y-39716666D02*
X183616666Y-39683333D01*
X183583333Y-39650000D01*
X183550000Y-39583333D01*
X183550000Y-39383333D01*
X183583333Y-39316666D01*
X183616666Y-39283333D01*
X183683333Y-39250000D01*
X183783333Y-39250000D01*
X183850000Y-39283333D01*
X183883333Y-39316666D01*
X183916666Y-39383333D01*
X183916666Y-39583333D01*
X183883333Y-39650000D01*
X183850000Y-39683333D01*
X183783333Y-39716666D01*
X183683333Y-39716666D01*
X184216666Y-39716666D02*
X184216666Y-39250000D01*
X184216666Y-39383333D02*
X184250000Y-39316666D01*
X184283333Y-39283333D01*
X184350000Y-39250000D01*
X184416666Y-39250000D01*
X184650000Y-39716666D02*
X184650000Y-39016666D01*
X184650000Y-39283333D02*
X184716666Y-39250000D01*
X184850000Y-39250000D01*
X184916666Y-39283333D01*
X184950000Y-39316666D01*
X184983333Y-39383333D01*
X184983333Y-39583333D01*
X184950000Y-39650000D01*
X184916666Y-39683333D01*
X184850000Y-39716666D01*
X184716666Y-39716666D01*
X184650000Y-39683333D01*
X185550000Y-39683333D02*
X185483333Y-39716666D01*
X185350000Y-39716666D01*
X185283333Y-39683333D01*
X185250000Y-39616666D01*
X185250000Y-39350000D01*
X185283333Y-39283333D01*
X185350000Y-39250000D01*
X185483333Y-39250000D01*
X185550000Y-39283333D01*
X185583333Y-39350000D01*
X185583333Y-39416666D01*
X185250000Y-39483333D01*
X185783333Y-39250000D02*
X186050000Y-39250000D01*
X185883333Y-39016666D02*
X185883333Y-39616666D01*
X185916666Y-39683333D01*
X185983333Y-39716666D01*
X186050000Y-39716666D01*
X186183333Y-39250000D02*
X186450000Y-39250000D01*
X186283333Y-39016666D02*
X186283333Y-39616666D01*
X186316666Y-39683333D01*
X186383333Y-39716666D01*
X186450000Y-39716666D01*
X187183333Y-39083333D02*
X187216666Y-39050000D01*
X187283333Y-39016666D01*
X187450000Y-39016666D01*
X187516666Y-39050000D01*
X187550000Y-39083333D01*
X187583333Y-39150000D01*
X187583333Y-39216666D01*
X187550000Y-39316666D01*
X187150000Y-39716666D01*
X187583333Y-39716666D01*
X188016666Y-39016666D02*
X188083333Y-39016666D01*
X188150000Y-39050000D01*
X188183333Y-39083333D01*
X188216666Y-39150000D01*
X188250000Y-39283333D01*
X188250000Y-39450000D01*
X188216666Y-39583333D01*
X188183333Y-39650000D01*
X188150000Y-39683333D01*
X188083333Y-39716666D01*
X188016666Y-39716666D01*
X187950000Y-39683333D01*
X187916666Y-39650000D01*
X187883333Y-39583333D01*
X187850000Y-39450000D01*
X187850000Y-39283333D01*
X187883333Y-39150000D01*
X187916666Y-39083333D01*
X187950000Y-39050000D01*
X188016666Y-39016666D01*
X188516666Y-39083333D02*
X188550000Y-39050000D01*
X188616666Y-39016666D01*
X188783333Y-39016666D01*
X188850000Y-39050000D01*
X188883333Y-39083333D01*
X188916666Y-39150000D01*
X188916666Y-39216666D01*
X188883333Y-39316666D01*
X188483333Y-39716666D01*
X188916666Y-39716666D01*
X189150000Y-39016666D02*
X189583333Y-39016666D01*
X189350000Y-39283333D01*
X189450000Y-39283333D01*
X189516666Y-39316666D01*
X189550000Y-39350000D01*
X189583333Y-39416666D01*
X189583333Y-39583333D01*
X189550000Y-39650000D01*
X189516666Y-39683333D01*
X189450000Y-39716666D01*
X189250000Y-39716666D01*
X189183333Y-39683333D01*
X189150000Y-39650000D01*
%LPC*%
D11*
X182200000Y-80400000D03*
D12*
X182200000Y-88020000D03*
D13*
X185000000Y-73600000D03*
D14*
X179920000Y-73600000D03*
D15*
X105710000Y-61000000D03*
D16*
X108250000Y-61000000D03*
X110790000Y-61000000D03*
X113330000Y-61000000D03*
X115870000Y-61000000D03*
X118410000Y-61000000D03*
D17*
X66500000Y-69500000D03*
D18*
X51000000Y-54000000D03*
X82000000Y-54000000D03*
X51000000Y-85000000D03*
X82000000Y-85000000D03*
D19*
X195000000Y-94000000D03*
X40000000Y-94000000D03*
X195000000Y-44000000D03*
X40000000Y-44000000D03*
D20*
X97535000Y-90000000D03*
X92455000Y-90000000D03*
D13*
X169420000Y-74500000D03*
D14*
X174500000Y-74500000D03*
D21*
X47655000Y-94000000D03*
D22*
X50195000Y-94000000D03*
D20*
X135500000Y-60535000D03*
X135500000Y-55455000D03*
D15*
X191025000Y-59950000D03*
D16*
X191025000Y-62490000D03*
X191025000Y-65030000D03*
X191025000Y-67570000D03*
X191025000Y-70110000D03*
D15*
X172200000Y-84400000D03*
D20*
X131500000Y-60500000D03*
X131500000Y-55420000D03*
D13*
X166600000Y-88580000D03*
D14*
X166600000Y-83500000D03*
D23*
X98000000Y-65380000D03*
D24*
X98000000Y-80620000D03*
D23*
X125000000Y-65260000D03*
D24*
X125000000Y-80500000D03*
D25*
X105000000Y-87000000D03*
D26*
X110080000Y-87000000D03*
X115160000Y-87000000D03*
X120240000Y-87000000D03*
D21*
X83670000Y-94000000D03*
D22*
X86210000Y-94000000D03*
D23*
X98000000Y-41880000D03*
D24*
X98000000Y-57120000D03*
D25*
X145760000Y-88000000D03*
D26*
X150840000Y-88000000D03*
X155920000Y-88000000D03*
X161000000Y-88000000D03*
D25*
X191600000Y-85680000D03*
D26*
X191600000Y-80600000D03*
X191600000Y-75520000D03*
D23*
X116000000Y-65500000D03*
D24*
X116000000Y-80740000D03*
D23*
X125000000Y-41880000D03*
D24*
X125000000Y-57120000D03*
D23*
X107000000Y-41880000D03*
D24*
X107000000Y-57120000D03*
D13*
X157200000Y-77400000D03*
D14*
X162280000Y-77400000D03*
D21*
X83725000Y-44000000D03*
D22*
X86265000Y-44000000D03*
D13*
X138500000Y-91840000D03*
D14*
X138500000Y-86760000D03*
D13*
X150000000Y-63000000D03*
D14*
X155080000Y-63000000D03*
D11*
X185925000Y-63200000D03*
D12*
X183385000Y-63200000D03*
X180845000Y-63200000D03*
X178305000Y-63200000D03*
X175765000Y-63200000D03*
X173225000Y-63200000D03*
X170685000Y-63200000D03*
X168145000Y-63200000D03*
X165605000Y-63200000D03*
X163065000Y-63200000D03*
X163065000Y-70820000D03*
X165605000Y-70820000D03*
X168145000Y-70820000D03*
X170685000Y-70820000D03*
X173225000Y-70820000D03*
X175765000Y-70820000D03*
X178305000Y-70820000D03*
X180845000Y-70820000D03*
X183385000Y-70820000D03*
X185925000Y-70820000D03*
D23*
X107000000Y-65500000D03*
D24*
X107000000Y-80740000D03*
D23*
X116000000Y-41880000D03*
D24*
X116000000Y-57120000D03*
D13*
X174400000Y-78400000D03*
D14*
X169320000Y-78400000D03*
D21*
X47605000Y-44000000D03*
D22*
X50145000Y-44000000D03*
D20*
X90455000Y-85000000D03*
X95535000Y-85000000D03*
D21*
X147500000Y-81000000D03*
D27*
X142420000Y-79730000D03*
X147500000Y-78460000D03*
X142420000Y-77190000D03*
X147500000Y-75920000D03*
X142420000Y-74650000D03*
X147500000Y-73380000D03*
X142420000Y-72110000D03*
X147500000Y-70840000D03*
X142420000Y-69570000D03*
X147500000Y-68300000D03*
X142420000Y-67030000D03*
X147500000Y-65760000D03*
X142420000Y-64490000D03*
X147500000Y-63220000D03*
M02*
