G04 #@! TF.GenerationSoftware,KiCad,Pcbnew,(6.0.11)*
G04 #@! TF.CreationDate,2023-02-08T23:30:17+00:00*
G04 #@! TF.ProjectId,StepperDemoPCB,53746570-7065-4724-9465-6d6f5043422e,rev?*
G04 #@! TF.SameCoordinates,Original*
G04 #@! TF.FileFunction,Legend,Top*
G04 #@! TF.FilePolarity,Positive*
%FSLAX46Y46*%
G04 Gerber Fmt 4.6, Leading zero omitted, Abs format (unit mm)*
G04 Created by KiCad (PCBNEW (6.0.11)) date 2023-02-08 23:30:17*
%MOMM*%
%LPD*%
G01*
G04 APERTURE LIST*
%ADD10C,0.150000*%
%ADD11C,0.100000*%
%ADD12C,0.300000*%
%ADD13C,0.450000*%
%ADD14C,0.120000*%
%ADD15R,1.600000X1.600000*%
%ADD16O,1.600000X1.600000*%
%ADD17C,1.400000*%
%ADD18O,1.400000X1.400000*%
%ADD19R,1.700000X1.700000*%
%ADD20O,1.700000X1.700000*%
%ADD21C,24.500000*%
%ADD22C,4.500000*%
%ADD23C,7.500000*%
%ADD24C,1.600000*%
%ADD25R,1.800000X1.800000*%
%ADD26C,1.800000*%
%ADD27R,3.200000X3.200000*%
%ADD28O,3.200000X3.200000*%
%ADD29R,3.000000X3.000000*%
%ADD30C,3.000000*%
%ADD31O,1.800000X1.800000*%
G04 APERTURE END LIST*
D10*
X178700000Y-81566666D02*
X178700000Y-82033333D01*
X179433333Y-82033333D02*
X178033333Y-82033333D01*
X178033333Y-81366666D01*
X178500000Y-80233333D02*
X179433333Y-80233333D01*
X178500000Y-80833333D02*
X179233333Y-80833333D01*
X179366666Y-80766666D01*
X179433333Y-80633333D01*
X179433333Y-80433333D01*
X179366666Y-80300000D01*
X179300000Y-80233333D01*
X179433333Y-79366666D02*
X179366666Y-79500000D01*
X179233333Y-79566666D01*
X178033333Y-79566666D01*
X179433333Y-78633333D02*
X179366666Y-78766666D01*
X179233333Y-78833333D01*
X178033333Y-78833333D01*
D11*
X115357142Y-62976190D02*
X115357142Y-62476190D01*
X115642857Y-62976190D01*
X115642857Y-62476190D01*
X116166666Y-62928571D02*
X116142857Y-62952380D01*
X116071428Y-62976190D01*
X116023809Y-62976190D01*
X115952380Y-62952380D01*
X115904761Y-62904761D01*
X115880952Y-62857142D01*
X115857142Y-62761904D01*
X115857142Y-62690476D01*
X115880952Y-62595238D01*
X115904761Y-62547619D01*
X115952380Y-62500000D01*
X116023809Y-62476190D01*
X116071428Y-62476190D01*
X116142857Y-62500000D01*
X116166666Y-62523809D01*
X107857142Y-62976190D02*
X107857142Y-62476190D01*
X108142857Y-62976190D01*
X108142857Y-62476190D01*
X108666666Y-62928571D02*
X108642857Y-62952380D01*
X108571428Y-62976190D01*
X108523809Y-62976190D01*
X108452380Y-62952380D01*
X108404761Y-62904761D01*
X108380952Y-62857142D01*
X108357142Y-62761904D01*
X108357142Y-62690476D01*
X108380952Y-62595238D01*
X108404761Y-62547619D01*
X108452380Y-62500000D01*
X108523809Y-62476190D01*
X108571428Y-62476190D01*
X108642857Y-62500000D01*
X108666666Y-62523809D01*
D10*
X118202380Y-62942857D02*
X118345238Y-62980952D01*
X118392857Y-63019047D01*
X118440476Y-63095238D01*
X118440476Y-63209523D01*
X118392857Y-63285714D01*
X118345238Y-63323809D01*
X118250000Y-63361904D01*
X117869047Y-63361904D01*
X117869047Y-62561904D01*
X118202380Y-62561904D01*
X118297619Y-62600000D01*
X118345238Y-62638095D01*
X118392857Y-62714285D01*
X118392857Y-62790476D01*
X118345238Y-62866666D01*
X118297619Y-62904761D01*
X118202380Y-62942857D01*
X117869047Y-62942857D01*
X118869047Y-63057142D02*
X119630952Y-63057142D01*
X119250000Y-63361904D02*
X119250000Y-62752380D01*
X112952380Y-62942857D02*
X113095238Y-62980952D01*
X113142857Y-63019047D01*
X113190476Y-63095238D01*
X113190476Y-63209523D01*
X113142857Y-63285714D01*
X113095238Y-63323809D01*
X113000000Y-63361904D01*
X112619047Y-63361904D01*
X112619047Y-62561904D01*
X112952380Y-62561904D01*
X113047619Y-62600000D01*
X113095238Y-62638095D01*
X113142857Y-62714285D01*
X113142857Y-62790476D01*
X113095238Y-62866666D01*
X113047619Y-62904761D01*
X112952380Y-62942857D01*
X112619047Y-62942857D01*
X113619047Y-63057142D02*
X114380952Y-63057142D01*
X110142857Y-63133333D02*
X110619047Y-63133333D01*
X110047619Y-63361904D02*
X110380952Y-62561904D01*
X110714285Y-63361904D01*
X111047619Y-63057142D02*
X111809523Y-63057142D01*
X111428571Y-63361904D02*
X111428571Y-62752380D01*
X105142857Y-63133333D02*
X105619047Y-63133333D01*
X105047619Y-63361904D02*
X105380952Y-62561904D01*
X105714285Y-63361904D01*
X106047619Y-63057142D02*
X106809523Y-63057142D01*
D12*
X196857142Y-74250000D02*
X196714285Y-74178571D01*
X196500000Y-74178571D01*
X196285714Y-74250000D01*
X196142857Y-74392857D01*
X196071428Y-74535714D01*
X196000000Y-74821428D01*
X196000000Y-75035714D01*
X196071428Y-75321428D01*
X196142857Y-75464285D01*
X196285714Y-75607142D01*
X196500000Y-75678571D01*
X196642857Y-75678571D01*
X196857142Y-75607142D01*
X196928571Y-75535714D01*
X196928571Y-75035714D01*
X196642857Y-75035714D01*
X197571428Y-75678571D02*
X197571428Y-74178571D01*
X198428571Y-75678571D01*
X198428571Y-74178571D01*
X199142857Y-75678571D02*
X199142857Y-74178571D01*
X199500000Y-74178571D01*
X199714285Y-74250000D01*
X199857142Y-74392857D01*
X199928571Y-74535714D01*
X200000000Y-74821428D01*
X200000000Y-75035714D01*
X199928571Y-75321428D01*
X199857142Y-75464285D01*
X199714285Y-75607142D01*
X199500000Y-75678571D01*
X199142857Y-75678571D01*
X196864285Y-80535714D02*
X196792857Y-80607142D01*
X196578571Y-80678571D01*
X196435714Y-80678571D01*
X196221428Y-80607142D01*
X196078571Y-80464285D01*
X196007142Y-80321428D01*
X195935714Y-80035714D01*
X195935714Y-79821428D01*
X196007142Y-79535714D01*
X196078571Y-79392857D01*
X196221428Y-79250000D01*
X196435714Y-79178571D01*
X196578571Y-79178571D01*
X196792857Y-79250000D01*
X196864285Y-79321428D01*
X197721428Y-80678571D02*
X197578571Y-80607142D01*
X197507142Y-80464285D01*
X197507142Y-79178571D01*
X198292857Y-80678571D02*
X198292857Y-79178571D01*
X198435714Y-80107142D02*
X198864285Y-80678571D01*
X198864285Y-79678571D02*
X198292857Y-80250000D01*
X115107142Y-92178571D02*
X115035714Y-92392857D01*
X114964285Y-92464285D01*
X114821428Y-92535714D01*
X114607142Y-92535714D01*
X114464285Y-92464285D01*
X114392857Y-92392857D01*
X114321428Y-92250000D01*
X114321428Y-91678571D01*
X115821428Y-91678571D01*
X115821428Y-92178571D01*
X115750000Y-92321428D01*
X115678571Y-92392857D01*
X115535714Y-92464285D01*
X115392857Y-92464285D01*
X115250000Y-92392857D01*
X115178571Y-92321428D01*
X115107142Y-92178571D01*
X115107142Y-91678571D01*
X114892857Y-93178571D02*
X114892857Y-94321428D01*
D10*
X169642857Y-86252380D02*
X169976190Y-87252380D01*
X170309523Y-86252380D01*
X170642857Y-87252380D02*
X170642857Y-86585714D01*
X170642857Y-86776190D02*
X170690476Y-86680952D01*
X170738095Y-86633333D01*
X170833333Y-86585714D01*
X170928571Y-86585714D01*
X171642857Y-87204761D02*
X171547619Y-87252380D01*
X171357142Y-87252380D01*
X171261904Y-87204761D01*
X171214285Y-87109523D01*
X171214285Y-86728571D01*
X171261904Y-86633333D01*
X171357142Y-86585714D01*
X171547619Y-86585714D01*
X171642857Y-86633333D01*
X171690476Y-86728571D01*
X171690476Y-86823809D01*
X171214285Y-86919047D01*
X171976190Y-86585714D02*
X172357142Y-86585714D01*
X172119047Y-87252380D02*
X172119047Y-86395238D01*
X172166666Y-86300000D01*
X172261904Y-86252380D01*
X172357142Y-86252380D01*
D12*
X109750000Y-91714285D02*
X109750000Y-92428571D01*
X109321428Y-91571428D02*
X110821428Y-92071428D01*
X109321428Y-92571428D01*
X109892857Y-93071428D02*
X109892857Y-94214285D01*
X109321428Y-93642857D02*
X110464285Y-93642857D01*
X104750000Y-91714285D02*
X104750000Y-92428571D01*
X104321428Y-91571428D02*
X105821428Y-92071428D01*
X104321428Y-92571428D01*
X104892857Y-93071428D02*
X104892857Y-94214285D01*
X120607142Y-92178571D02*
X120535714Y-92392857D01*
X120464285Y-92464285D01*
X120321428Y-92535714D01*
X120107142Y-92535714D01*
X119964285Y-92464285D01*
X119892857Y-92392857D01*
X119821428Y-92250000D01*
X119821428Y-91678571D01*
X121321428Y-91678571D01*
X121321428Y-92178571D01*
X121250000Y-92321428D01*
X121178571Y-92392857D01*
X121035714Y-92464285D01*
X120892857Y-92464285D01*
X120750000Y-92392857D01*
X120678571Y-92321428D01*
X120607142Y-92178571D01*
X120607142Y-91678571D01*
X120392857Y-93178571D02*
X120392857Y-94321428D01*
X119821428Y-93750000D02*
X120964285Y-93750000D01*
X146821428Y-92392857D02*
X145321428Y-92892857D01*
X146821428Y-93392857D01*
X145392857Y-93821428D02*
X145321428Y-93964285D01*
X145321428Y-94250000D01*
X145392857Y-94392857D01*
X145535714Y-94464285D01*
X145607142Y-94464285D01*
X145750000Y-94392857D01*
X145821428Y-94250000D01*
X145821428Y-94035714D01*
X145892857Y-93892857D01*
X146035714Y-93821428D01*
X146107142Y-93821428D01*
X146250000Y-93892857D01*
X146321428Y-94035714D01*
X146321428Y-94250000D01*
X146250000Y-94392857D01*
X161821428Y-93214285D02*
X161821428Y-92500000D01*
X161107142Y-92428571D01*
X161178571Y-92500000D01*
X161250000Y-92642857D01*
X161250000Y-93000000D01*
X161178571Y-93142857D01*
X161107142Y-93214285D01*
X160964285Y-93285714D01*
X160607142Y-93285714D01*
X160464285Y-93214285D01*
X160392857Y-93142857D01*
X160321428Y-93000000D01*
X160321428Y-92642857D01*
X160392857Y-92500000D01*
X160464285Y-92428571D01*
X161821428Y-93714285D02*
X160321428Y-94214285D01*
X161821428Y-94714285D01*
X156750000Y-93357142D02*
X156821428Y-93214285D01*
X156821428Y-93000000D01*
X156750000Y-92785714D01*
X156607142Y-92642857D01*
X156464285Y-92571428D01*
X156178571Y-92500000D01*
X155964285Y-92500000D01*
X155678571Y-92571428D01*
X155535714Y-92642857D01*
X155392857Y-92785714D01*
X155321428Y-93000000D01*
X155321428Y-93142857D01*
X155392857Y-93357142D01*
X155464285Y-93428571D01*
X155964285Y-93428571D01*
X155964285Y-93142857D01*
X155321428Y-94071428D02*
X156821428Y-94071428D01*
X155321428Y-94928571D01*
X156821428Y-94928571D01*
X155321428Y-95642857D02*
X156821428Y-95642857D01*
X156821428Y-96000000D01*
X156750000Y-96214285D01*
X156607142Y-96357142D01*
X156464285Y-96428571D01*
X156178571Y-96500000D01*
X155964285Y-96500000D01*
X155678571Y-96428571D01*
X155535714Y-96357142D01*
X155392857Y-96214285D01*
X155321428Y-96000000D01*
X155321428Y-95642857D01*
X151750000Y-93357142D02*
X151821428Y-93214285D01*
X151821428Y-93000000D01*
X151750000Y-92785714D01*
X151607142Y-92642857D01*
X151464285Y-92571428D01*
X151178571Y-92500000D01*
X150964285Y-92500000D01*
X150678571Y-92571428D01*
X150535714Y-92642857D01*
X150392857Y-92785714D01*
X150321428Y-93000000D01*
X150321428Y-93142857D01*
X150392857Y-93357142D01*
X150464285Y-93428571D01*
X150964285Y-93428571D01*
X150964285Y-93142857D01*
X150321428Y-94071428D02*
X151821428Y-94071428D01*
X150321428Y-94928571D01*
X151821428Y-94928571D01*
X150321428Y-95642857D02*
X151821428Y-95642857D01*
X151821428Y-96000000D01*
X151750000Y-96214285D01*
X151607142Y-96357142D01*
X151464285Y-96428571D01*
X151178571Y-96500000D01*
X150964285Y-96500000D01*
X150678571Y-96428571D01*
X150535714Y-96357142D01*
X150392857Y-96214285D01*
X150321428Y-96000000D01*
X150321428Y-95642857D01*
D13*
X138785714Y-52714285D02*
X139214285Y-52857142D01*
X139928571Y-52857142D01*
X140214285Y-52714285D01*
X140357142Y-52571428D01*
X140500000Y-52285714D01*
X140500000Y-52000000D01*
X140357142Y-51714285D01*
X140214285Y-51571428D01*
X139928571Y-51428571D01*
X139357142Y-51285714D01*
X139071428Y-51142857D01*
X138928571Y-51000000D01*
X138785714Y-50714285D01*
X138785714Y-50428571D01*
X138928571Y-50142857D01*
X139071428Y-50000000D01*
X139357142Y-49857142D01*
X140071428Y-49857142D01*
X140500000Y-50000000D01*
X141357142Y-50857142D02*
X142500000Y-50857142D01*
X141785714Y-49857142D02*
X141785714Y-52428571D01*
X141928571Y-52714285D01*
X142214285Y-52857142D01*
X142500000Y-52857142D01*
X144642857Y-52714285D02*
X144357142Y-52857142D01*
X143785714Y-52857142D01*
X143500000Y-52714285D01*
X143357142Y-52428571D01*
X143357142Y-51285714D01*
X143500000Y-51000000D01*
X143785714Y-50857142D01*
X144357142Y-50857142D01*
X144642857Y-51000000D01*
X144785714Y-51285714D01*
X144785714Y-51571428D01*
X143357142Y-51857142D01*
X146071428Y-50857142D02*
X146071428Y-53857142D01*
X146071428Y-51000000D02*
X146357142Y-50857142D01*
X146928571Y-50857142D01*
X147214285Y-51000000D01*
X147357142Y-51142857D01*
X147500000Y-51428571D01*
X147500000Y-52285714D01*
X147357142Y-52571428D01*
X147214285Y-52714285D01*
X146928571Y-52857142D01*
X146357142Y-52857142D01*
X146071428Y-52714285D01*
X148785714Y-50857142D02*
X148785714Y-53857142D01*
X148785714Y-51000000D02*
X149071428Y-50857142D01*
X149642857Y-50857142D01*
X149928571Y-51000000D01*
X150071428Y-51142857D01*
X150214285Y-51428571D01*
X150214285Y-52285714D01*
X150071428Y-52571428D01*
X149928571Y-52714285D01*
X149642857Y-52857142D01*
X149071428Y-52857142D01*
X148785714Y-52714285D01*
X152642857Y-52714285D02*
X152357142Y-52857142D01*
X151785714Y-52857142D01*
X151500000Y-52714285D01*
X151357142Y-52428571D01*
X151357142Y-51285714D01*
X151500000Y-51000000D01*
X151785714Y-50857142D01*
X152357142Y-50857142D01*
X152642857Y-51000000D01*
X152785714Y-51285714D01*
X152785714Y-51571428D01*
X151357142Y-51857142D01*
X154071428Y-52857142D02*
X154071428Y-50857142D01*
X154071428Y-51428571D02*
X154214285Y-51142857D01*
X154357142Y-51000000D01*
X154642857Y-50857142D01*
X154928571Y-50857142D01*
X158214285Y-52857142D02*
X158214285Y-49857142D01*
X159214285Y-52000000D01*
X160214285Y-49857142D01*
X160214285Y-52857142D01*
X162071428Y-52857142D02*
X161785714Y-52714285D01*
X161642857Y-52571428D01*
X161500000Y-52285714D01*
X161500000Y-51428571D01*
X161642857Y-51142857D01*
X161785714Y-51000000D01*
X162071428Y-50857142D01*
X162500000Y-50857142D01*
X162785714Y-51000000D01*
X162928571Y-51142857D01*
X163071428Y-51428571D01*
X163071428Y-52285714D01*
X162928571Y-52571428D01*
X162785714Y-52714285D01*
X162500000Y-52857142D01*
X162071428Y-52857142D01*
X163928571Y-50857142D02*
X165071428Y-50857142D01*
X164357142Y-49857142D02*
X164357142Y-52428571D01*
X164500000Y-52714285D01*
X164785714Y-52857142D01*
X165071428Y-52857142D01*
X166499999Y-52857142D02*
X166214285Y-52714285D01*
X166071428Y-52571428D01*
X165928571Y-52285714D01*
X165928571Y-51428571D01*
X166071428Y-51142857D01*
X166214285Y-51000000D01*
X166499999Y-50857142D01*
X166928571Y-50857142D01*
X167214285Y-51000000D01*
X167357142Y-51142857D01*
X167499999Y-51428571D01*
X167499999Y-52285714D01*
X167357142Y-52571428D01*
X167214285Y-52714285D01*
X166928571Y-52857142D01*
X166499999Y-52857142D01*
X168785714Y-52857142D02*
X168785714Y-50857142D01*
X168785714Y-51428571D02*
X168928571Y-51142857D01*
X169071428Y-51000000D01*
X169357142Y-50857142D01*
X169642857Y-50857142D01*
X172928571Y-52857142D02*
X172928571Y-49857142D01*
X173642857Y-49857142D01*
X174071428Y-50000000D01*
X174357142Y-50285714D01*
X174499999Y-50571428D01*
X174642857Y-51142857D01*
X174642857Y-51571428D01*
X174499999Y-52142857D01*
X174357142Y-52428571D01*
X174071428Y-52714285D01*
X173642857Y-52857142D01*
X172928571Y-52857142D01*
X177071428Y-52714285D02*
X176785714Y-52857142D01*
X176214285Y-52857142D01*
X175928571Y-52714285D01*
X175785714Y-52428571D01*
X175785714Y-51285714D01*
X175928571Y-51000000D01*
X176214285Y-50857142D01*
X176785714Y-50857142D01*
X177071428Y-51000000D01*
X177214285Y-51285714D01*
X177214285Y-51571428D01*
X175785714Y-51857142D01*
X178500000Y-52857142D02*
X178500000Y-50857142D01*
X178500000Y-51142857D02*
X178642857Y-51000000D01*
X178928571Y-50857142D01*
X179357142Y-50857142D01*
X179642857Y-51000000D01*
X179785714Y-51285714D01*
X179785714Y-52857142D01*
X179785714Y-51285714D02*
X179928571Y-51000000D01*
X180214285Y-50857142D01*
X180642857Y-50857142D01*
X180928571Y-51000000D01*
X181071428Y-51285714D01*
X181071428Y-52857142D01*
X182928571Y-52857142D02*
X182642857Y-52714285D01*
X182500000Y-52571428D01*
X182357142Y-52285714D01*
X182357142Y-51428571D01*
X182500000Y-51142857D01*
X182642857Y-51000000D01*
X182928571Y-50857142D01*
X183357142Y-50857142D01*
X183642857Y-51000000D01*
X183785714Y-51142857D01*
X183928571Y-51428571D01*
X183928571Y-52285714D01*
X183785714Y-52571428D01*
X183642857Y-52714285D01*
X183357142Y-52857142D01*
X182928571Y-52857142D01*
X188500000Y-51285714D02*
X188928571Y-51428571D01*
X189071428Y-51571428D01*
X189214285Y-51857142D01*
X189214285Y-52285714D01*
X189071428Y-52571428D01*
X188928571Y-52714285D01*
X188642857Y-52857142D01*
X187500000Y-52857142D01*
X187500000Y-49857142D01*
X188500000Y-49857142D01*
X188785714Y-50000000D01*
X188928571Y-50142857D01*
X189071428Y-50428571D01*
X189071428Y-50714285D01*
X188928571Y-51000000D01*
X188785714Y-51142857D01*
X188500000Y-51285714D01*
X187500000Y-51285714D01*
X190928571Y-52857142D02*
X190642857Y-52714285D01*
X190500000Y-52571428D01*
X190357142Y-52285714D01*
X190357142Y-51428571D01*
X190500000Y-51142857D01*
X190642857Y-51000000D01*
X190928571Y-50857142D01*
X191357142Y-50857142D01*
X191642857Y-51000000D01*
X191785714Y-51142857D01*
X191928571Y-51428571D01*
X191928571Y-52285714D01*
X191785714Y-52571428D01*
X191642857Y-52714285D01*
X191357142Y-52857142D01*
X190928571Y-52857142D01*
X194500000Y-52857142D02*
X194500000Y-51285714D01*
X194357142Y-51000000D01*
X194071428Y-50857142D01*
X193500000Y-50857142D01*
X193214285Y-51000000D01*
X194500000Y-52714285D02*
X194214285Y-52857142D01*
X193500000Y-52857142D01*
X193214285Y-52714285D01*
X193071428Y-52428571D01*
X193071428Y-52142857D01*
X193214285Y-51857142D01*
X193500000Y-51714285D01*
X194214285Y-51714285D01*
X194500000Y-51571428D01*
X195928571Y-52857142D02*
X195928571Y-50857142D01*
X195928571Y-51428571D02*
X196071428Y-51142857D01*
X196214285Y-51000000D01*
X196500000Y-50857142D01*
X196785714Y-50857142D01*
X199071428Y-52857142D02*
X199071428Y-49857142D01*
X199071428Y-52714285D02*
X198785714Y-52857142D01*
X198214285Y-52857142D01*
X197928571Y-52714285D01*
X197785714Y-52571428D01*
X197642857Y-52285714D01*
X197642857Y-51428571D01*
X197785714Y-51142857D01*
X197928571Y-51000000D01*
X198214285Y-50857142D01*
X198785714Y-50857142D01*
X199071428Y-51000000D01*
D10*
X193761904Y-70252380D02*
X193428571Y-69776190D01*
X193190476Y-70252380D02*
X193190476Y-69252380D01*
X193571428Y-69252380D01*
X193666666Y-69300000D01*
X193714285Y-69347619D01*
X193761904Y-69442857D01*
X193761904Y-69585714D01*
X193714285Y-69680952D01*
X193666666Y-69728571D01*
X193571428Y-69776190D01*
X193190476Y-69776190D01*
X194571428Y-70204761D02*
X194476190Y-70252380D01*
X194285714Y-70252380D01*
X194190476Y-70204761D01*
X194142857Y-70109523D01*
X194142857Y-69728571D01*
X194190476Y-69633333D01*
X194285714Y-69585714D01*
X194476190Y-69585714D01*
X194571428Y-69633333D01*
X194619047Y-69728571D01*
X194619047Y-69823809D01*
X194142857Y-69919047D01*
X195000000Y-70204761D02*
X195095238Y-70252380D01*
X195285714Y-70252380D01*
X195380952Y-70204761D01*
X195428571Y-70109523D01*
X195428571Y-70061904D01*
X195380952Y-69966666D01*
X195285714Y-69919047D01*
X195142857Y-69919047D01*
X195047619Y-69871428D01*
X195000000Y-69776190D01*
X195000000Y-69728571D01*
X195047619Y-69633333D01*
X195142857Y-69585714D01*
X195285714Y-69585714D01*
X195380952Y-69633333D01*
X196238095Y-70204761D02*
X196142857Y-70252380D01*
X195952380Y-70252380D01*
X195857142Y-70204761D01*
X195809523Y-70109523D01*
X195809523Y-69728571D01*
X195857142Y-69633333D01*
X195952380Y-69585714D01*
X196142857Y-69585714D01*
X196238095Y-69633333D01*
X196285714Y-69728571D01*
X196285714Y-69823809D01*
X195809523Y-69919047D01*
X196571428Y-69585714D02*
X196952380Y-69585714D01*
X196714285Y-69252380D02*
X196714285Y-70109523D01*
X196761904Y-70204761D01*
X196857142Y-70252380D01*
X196952380Y-70252380D01*
X193952380Y-67657142D02*
X193904761Y-67704761D01*
X193761904Y-67752380D01*
X193666666Y-67752380D01*
X193523809Y-67704761D01*
X193428571Y-67609523D01*
X193380952Y-67514285D01*
X193333333Y-67323809D01*
X193333333Y-67180952D01*
X193380952Y-66990476D01*
X193428571Y-66895238D01*
X193523809Y-66800000D01*
X193666666Y-66752380D01*
X193761904Y-66752380D01*
X193904761Y-66800000D01*
X193952380Y-66847619D01*
X194238095Y-67085714D02*
X194619047Y-67085714D01*
X194380952Y-66752380D02*
X194380952Y-67609523D01*
X194428571Y-67704761D01*
X194523809Y-67752380D01*
X194619047Y-67752380D01*
X194952380Y-67752380D02*
X194952380Y-67085714D01*
X194952380Y-67276190D02*
X195000000Y-67180952D01*
X195047619Y-67133333D01*
X195142857Y-67085714D01*
X195238095Y-67085714D01*
X195714285Y-67752380D02*
X195619047Y-67704761D01*
X195571428Y-67609523D01*
X195571428Y-66752380D01*
X193333333Y-64728571D02*
X193666666Y-64728571D01*
X193809523Y-65252380D02*
X193333333Y-65252380D01*
X193333333Y-64252380D01*
X193809523Y-64252380D01*
X194238095Y-64585714D02*
X194238095Y-65252380D01*
X194238095Y-64680952D02*
X194285714Y-64633333D01*
X194380952Y-64585714D01*
X194523809Y-64585714D01*
X194619047Y-64633333D01*
X194666666Y-64728571D01*
X194666666Y-65252380D01*
X193166666Y-62752380D02*
X193166666Y-61752380D01*
X193166666Y-62228571D02*
X193738095Y-62228571D01*
X193738095Y-62752380D02*
X193738095Y-61752380D01*
X194357142Y-62752380D02*
X194261904Y-62704761D01*
X194214285Y-62657142D01*
X194166666Y-62561904D01*
X194166666Y-62276190D01*
X194214285Y-62180952D01*
X194261904Y-62133333D01*
X194357142Y-62085714D01*
X194500000Y-62085714D01*
X194595238Y-62133333D01*
X194642857Y-62180952D01*
X194690476Y-62276190D01*
X194690476Y-62561904D01*
X194642857Y-62657142D01*
X194595238Y-62704761D01*
X194500000Y-62752380D01*
X194357142Y-62752380D01*
X195119047Y-62752380D02*
X195119047Y-62085714D01*
X195119047Y-62180952D02*
X195166666Y-62133333D01*
X195261904Y-62085714D01*
X195404761Y-62085714D01*
X195500000Y-62133333D01*
X195547619Y-62228571D01*
X195547619Y-62752380D01*
X195547619Y-62228571D02*
X195595238Y-62133333D01*
X195690476Y-62085714D01*
X195833333Y-62085714D01*
X195928571Y-62133333D01*
X195976190Y-62228571D01*
X195976190Y-62752380D01*
X196833333Y-62704761D02*
X196738095Y-62752380D01*
X196547619Y-62752380D01*
X196452380Y-62704761D01*
X196404761Y-62609523D01*
X196404761Y-62228571D01*
X196452380Y-62133333D01*
X196547619Y-62085714D01*
X196738095Y-62085714D01*
X196833333Y-62133333D01*
X196880952Y-62228571D01*
X196880952Y-62323809D01*
X196404761Y-62419047D01*
X193452380Y-60204761D02*
X193595238Y-60252380D01*
X193833333Y-60252380D01*
X193928571Y-60204761D01*
X193976190Y-60157142D01*
X194023809Y-60061904D01*
X194023809Y-59966666D01*
X193976190Y-59871428D01*
X193928571Y-59823809D01*
X193833333Y-59776190D01*
X193642857Y-59728571D01*
X193547619Y-59680952D01*
X193500000Y-59633333D01*
X193452380Y-59538095D01*
X193452380Y-59442857D01*
X193500000Y-59347619D01*
X193547619Y-59300000D01*
X193642857Y-59252380D01*
X193880952Y-59252380D01*
X194023809Y-59300000D01*
X194357142Y-59585714D02*
X194595238Y-60252380D01*
X194833333Y-59585714D02*
X194595238Y-60252380D01*
X194500000Y-60490476D01*
X194452380Y-60538095D01*
X194357142Y-60585714D01*
X195214285Y-59585714D02*
X195214285Y-60252380D01*
X195214285Y-59680952D02*
X195261904Y-59633333D01*
X195357142Y-59585714D01*
X195500000Y-59585714D01*
X195595238Y-59633333D01*
X195642857Y-59728571D01*
X195642857Y-60252380D01*
X196547619Y-60204761D02*
X196452380Y-60252380D01*
X196261904Y-60252380D01*
X196166666Y-60204761D01*
X196119047Y-60157142D01*
X196071428Y-60061904D01*
X196071428Y-59776190D01*
X196119047Y-59680952D01*
X196166666Y-59633333D01*
X196261904Y-59585714D01*
X196452380Y-59585714D01*
X196547619Y-59633333D01*
D12*
X196185714Y-85678571D02*
X196185714Y-84178571D01*
X196542857Y-84178571D01*
X196757142Y-84250000D01*
X196900000Y-84392857D01*
X196971428Y-84535714D01*
X197042857Y-84821428D01*
X197042857Y-85035714D01*
X196971428Y-85321428D01*
X196900000Y-85464285D01*
X196757142Y-85607142D01*
X196542857Y-85678571D01*
X196185714Y-85678571D01*
X197685714Y-85678571D02*
X197685714Y-84678571D01*
X197685714Y-84178571D02*
X197614285Y-84250000D01*
X197685714Y-84321428D01*
X197757142Y-84250000D01*
X197685714Y-84178571D01*
X197685714Y-84321428D01*
X198400000Y-85678571D02*
X198400000Y-84678571D01*
X198400000Y-84964285D02*
X198471428Y-84821428D01*
X198542857Y-84750000D01*
X198685714Y-84678571D01*
X198828571Y-84678571D01*
D10*
X179433333Y-89800000D02*
X178033333Y-89800000D01*
X178700000Y-89800000D02*
X178700000Y-89000000D01*
X179433333Y-89000000D02*
X178033333Y-89000000D01*
X179433333Y-87733333D02*
X178700000Y-87733333D01*
X178566666Y-87800000D01*
X178500000Y-87933333D01*
X178500000Y-88200000D01*
X178566666Y-88333333D01*
X179366666Y-87733333D02*
X179433333Y-87866666D01*
X179433333Y-88200000D01*
X179366666Y-88333333D01*
X179233333Y-88400000D01*
X179100000Y-88400000D01*
X178966666Y-88333333D01*
X178900000Y-88200000D01*
X178900000Y-87866666D01*
X178833333Y-87733333D01*
X179433333Y-86866666D02*
X179366666Y-87000000D01*
X179233333Y-87066666D01*
X178033333Y-87066666D01*
X178500000Y-86533333D02*
X178500000Y-86000000D01*
X179433333Y-86333333D02*
X178233333Y-86333333D01*
X178100000Y-86266666D01*
X178033333Y-86133333D01*
X178033333Y-86000000D01*
X53857142Y-88607142D02*
X54071428Y-88678571D01*
X54428571Y-88678571D01*
X54571428Y-88607142D01*
X54642857Y-88535714D01*
X54714285Y-88392857D01*
X54714285Y-88250000D01*
X54642857Y-88107142D01*
X54571428Y-88035714D01*
X54428571Y-87964285D01*
X54142857Y-87892857D01*
X53999999Y-87821428D01*
X53928571Y-87750000D01*
X53857142Y-87607142D01*
X53857142Y-87464285D01*
X53928571Y-87321428D01*
X53999999Y-87250000D01*
X54142857Y-87178571D01*
X54499999Y-87178571D01*
X54714285Y-87250000D01*
X55142857Y-87678571D02*
X55714285Y-87678571D01*
X55357142Y-87178571D02*
X55357142Y-88464285D01*
X55428571Y-88607142D01*
X55571428Y-88678571D01*
X55714285Y-88678571D01*
X56785714Y-88607142D02*
X56642857Y-88678571D01*
X56357142Y-88678571D01*
X56214285Y-88607142D01*
X56142857Y-88464285D01*
X56142857Y-87892857D01*
X56214285Y-87750000D01*
X56357142Y-87678571D01*
X56642857Y-87678571D01*
X56785714Y-87750000D01*
X56857142Y-87892857D01*
X56857142Y-88035714D01*
X56142857Y-88178571D01*
X57499999Y-87678571D02*
X57499999Y-89178571D01*
X57499999Y-87750000D02*
X57642857Y-87678571D01*
X57928571Y-87678571D01*
X58071428Y-87750000D01*
X58142857Y-87821428D01*
X58214285Y-87964285D01*
X58214285Y-88392857D01*
X58142857Y-88535714D01*
X58071428Y-88607142D01*
X57928571Y-88678571D01*
X57642857Y-88678571D01*
X57499999Y-88607142D01*
X58857142Y-87678571D02*
X58857142Y-89178571D01*
X58857142Y-87750000D02*
X58999999Y-87678571D01*
X59285714Y-87678571D01*
X59428571Y-87750000D01*
X59499999Y-87821428D01*
X59571428Y-87964285D01*
X59571428Y-88392857D01*
X59499999Y-88535714D01*
X59428571Y-88607142D01*
X59285714Y-88678571D01*
X58999999Y-88678571D01*
X58857142Y-88607142D01*
X60785714Y-88607142D02*
X60642857Y-88678571D01*
X60357142Y-88678571D01*
X60214285Y-88607142D01*
X60142857Y-88464285D01*
X60142857Y-87892857D01*
X60214285Y-87750000D01*
X60357142Y-87678571D01*
X60642857Y-87678571D01*
X60785714Y-87750000D01*
X60857142Y-87892857D01*
X60857142Y-88035714D01*
X60142857Y-88178571D01*
X61499999Y-88678571D02*
X61499999Y-87678571D01*
X61499999Y-87964285D02*
X61571428Y-87821428D01*
X61642857Y-87750000D01*
X61785714Y-87678571D01*
X61928571Y-87678571D01*
X63499999Y-88607142D02*
X63642857Y-88678571D01*
X63928571Y-88678571D01*
X64071428Y-88607142D01*
X64142857Y-88464285D01*
X64142857Y-88392857D01*
X64071428Y-88250000D01*
X63928571Y-88178571D01*
X63714285Y-88178571D01*
X63571428Y-88107142D01*
X63499999Y-87964285D01*
X63499999Y-87892857D01*
X63571428Y-87750000D01*
X63714285Y-87678571D01*
X63928571Y-87678571D01*
X64071428Y-87750000D01*
X64785714Y-88678571D02*
X64785714Y-87678571D01*
X64785714Y-87178571D02*
X64714285Y-87250000D01*
X64785714Y-87321428D01*
X64857142Y-87250000D01*
X64785714Y-87178571D01*
X64785714Y-87321428D01*
X65357142Y-87678571D02*
X66142857Y-87678571D01*
X65357142Y-88678571D01*
X66142857Y-88678571D01*
X67285714Y-88607142D02*
X67142857Y-88678571D01*
X66857142Y-88678571D01*
X66714285Y-88607142D01*
X66642857Y-88464285D01*
X66642857Y-87892857D01*
X66714285Y-87750000D01*
X66857142Y-87678571D01*
X67142857Y-87678571D01*
X67285714Y-87750000D01*
X67357142Y-87892857D01*
X67357142Y-88035714D01*
X66642857Y-88178571D01*
X68000000Y-88535714D02*
X68071428Y-88607142D01*
X68000000Y-88678571D01*
X67928571Y-88607142D01*
X68000000Y-88535714D01*
X68000000Y-88678571D01*
X68000000Y-87750000D02*
X68071428Y-87821428D01*
X68000000Y-87892857D01*
X67928571Y-87821428D01*
X68000000Y-87750000D01*
X68000000Y-87892857D01*
X69857142Y-88678571D02*
X69857142Y-87178571D01*
X70714285Y-88678571D01*
X70714285Y-87178571D01*
X71428571Y-87892857D02*
X71928571Y-87892857D01*
X72142857Y-88678571D02*
X71428571Y-88678571D01*
X71428571Y-87178571D01*
X72142857Y-87178571D01*
X72785714Y-88678571D02*
X72785714Y-87178571D01*
X73285714Y-88250000D01*
X73785714Y-87178571D01*
X73785714Y-88678571D01*
X74428571Y-88250000D02*
X75142857Y-88250000D01*
X74285714Y-88678571D02*
X74785714Y-87178571D01*
X75285714Y-88678571D01*
X77714285Y-88678571D02*
X76857142Y-88678571D01*
X77285714Y-88678571D02*
X77285714Y-87178571D01*
X77142857Y-87392857D01*
X77000000Y-87535714D01*
X76857142Y-87607142D01*
X78214285Y-87178571D02*
X79214285Y-87178571D01*
X78571428Y-88678571D01*
X182604761Y-91933333D02*
X182652380Y-91790476D01*
X182652380Y-91552380D01*
X182604761Y-91457142D01*
X182557142Y-91409523D01*
X182461904Y-91361904D01*
X182366666Y-91361904D01*
X182271428Y-91409523D01*
X182223809Y-91457142D01*
X182176190Y-91552380D01*
X182128571Y-91742857D01*
X182080952Y-91838095D01*
X182033333Y-91885714D01*
X181938095Y-91933333D01*
X181842857Y-91933333D01*
X181747619Y-91885714D01*
X181700000Y-91838095D01*
X181652380Y-91742857D01*
X181652380Y-91504761D01*
X181700000Y-91361904D01*
X181652380Y-91028571D02*
X182652380Y-90790476D01*
X181938095Y-90600000D01*
X182652380Y-90409523D01*
X181652380Y-90171428D01*
X182652380Y-89266666D02*
X182652380Y-89838095D01*
X182652380Y-89552380D02*
X181652380Y-89552380D01*
X181795238Y-89647619D01*
X181890476Y-89742857D01*
X181938095Y-89838095D01*
X182233333Y-75852380D02*
X181900000Y-75376190D01*
X181661904Y-75852380D02*
X181661904Y-74852380D01*
X182042857Y-74852380D01*
X182138095Y-74900000D01*
X182185714Y-74947619D01*
X182233333Y-75042857D01*
X182233333Y-75185714D01*
X182185714Y-75280952D01*
X182138095Y-75328571D01*
X182042857Y-75376190D01*
X181661904Y-75376190D01*
X182804761Y-75280952D02*
X182709523Y-75233333D01*
X182661904Y-75185714D01*
X182614285Y-75090476D01*
X182614285Y-75042857D01*
X182661904Y-74947619D01*
X182709523Y-74900000D01*
X182804761Y-74852380D01*
X182995238Y-74852380D01*
X183090476Y-74900000D01*
X183138095Y-74947619D01*
X183185714Y-75042857D01*
X183185714Y-75090476D01*
X183138095Y-75185714D01*
X183090476Y-75233333D01*
X182995238Y-75280952D01*
X182804761Y-75280952D01*
X182709523Y-75328571D01*
X182661904Y-75376190D01*
X182614285Y-75471428D01*
X182614285Y-75661904D01*
X182661904Y-75757142D01*
X182709523Y-75804761D01*
X182804761Y-75852380D01*
X182995238Y-75852380D01*
X183090476Y-75804761D01*
X183138095Y-75757142D01*
X183185714Y-75661904D01*
X183185714Y-75471428D01*
X183138095Y-75376190D01*
X183090476Y-75328571D01*
X182995238Y-75280952D01*
X102832380Y-61333333D02*
X103546666Y-61333333D01*
X103689523Y-61380952D01*
X103784761Y-61476190D01*
X103832380Y-61619047D01*
X103832380Y-61714285D01*
X102832380Y-60428571D02*
X102832380Y-60619047D01*
X102880000Y-60714285D01*
X102927619Y-60761904D01*
X103070476Y-60857142D01*
X103260952Y-60904761D01*
X103641904Y-60904761D01*
X103737142Y-60857142D01*
X103784761Y-60809523D01*
X103832380Y-60714285D01*
X103832380Y-60523809D01*
X103784761Y-60428571D01*
X103737142Y-60380952D01*
X103641904Y-60333333D01*
X103403809Y-60333333D01*
X103308571Y-60380952D01*
X103260952Y-60428571D01*
X103213333Y-60523809D01*
X103213333Y-60714285D01*
X103260952Y-60809523D01*
X103308571Y-60857142D01*
X103403809Y-60904761D01*
X188738095Y-96452380D02*
X188738095Y-95452380D01*
X188738095Y-95928571D02*
X189309523Y-95928571D01*
X189309523Y-96452380D02*
X189309523Y-95452380D01*
X190214285Y-95785714D02*
X190214285Y-96452380D01*
X189976190Y-95404761D02*
X189738095Y-96119047D01*
X190357142Y-96119047D01*
X39238095Y-89702380D02*
X39238095Y-88702380D01*
X39238095Y-89178571D02*
X39809523Y-89178571D01*
X39809523Y-89702380D02*
X39809523Y-88702380D01*
X40190476Y-88702380D02*
X40809523Y-88702380D01*
X40476190Y-89083333D01*
X40619047Y-89083333D01*
X40714285Y-89130952D01*
X40761904Y-89178571D01*
X40809523Y-89273809D01*
X40809523Y-89511904D01*
X40761904Y-89607142D01*
X40714285Y-89654761D01*
X40619047Y-89702380D01*
X40333333Y-89702380D01*
X40238095Y-89654761D01*
X40190476Y-89607142D01*
X188238095Y-43952380D02*
X188238095Y-42952380D01*
X188238095Y-43428571D02*
X188809523Y-43428571D01*
X188809523Y-43952380D02*
X188809523Y-42952380D01*
X189238095Y-43047619D02*
X189285714Y-43000000D01*
X189380952Y-42952380D01*
X189619047Y-42952380D01*
X189714285Y-43000000D01*
X189761904Y-43047619D01*
X189809523Y-43142857D01*
X189809523Y-43238095D01*
X189761904Y-43380952D01*
X189190476Y-43952380D01*
X189809523Y-43952380D01*
X39238095Y-39702380D02*
X39238095Y-38702380D01*
X39238095Y-39178571D02*
X39809523Y-39178571D01*
X39809523Y-39702380D02*
X39809523Y-38702380D01*
X40809523Y-39702380D02*
X40238095Y-39702380D01*
X40523809Y-39702380D02*
X40523809Y-38702380D01*
X40428571Y-38845238D01*
X40333333Y-38940476D01*
X40238095Y-38988095D01*
X95333333Y-92952380D02*
X95000000Y-92476190D01*
X94761904Y-92952380D02*
X94761904Y-91952380D01*
X95142857Y-91952380D01*
X95238095Y-92000000D01*
X95285714Y-92047619D01*
X95333333Y-92142857D01*
X95333333Y-92285714D01*
X95285714Y-92380952D01*
X95238095Y-92428571D01*
X95142857Y-92476190D01*
X94761904Y-92476190D01*
X96238095Y-91952380D02*
X95761904Y-91952380D01*
X95714285Y-92428571D01*
X95761904Y-92380952D01*
X95857142Y-92333333D01*
X96095238Y-92333333D01*
X96190476Y-92380952D01*
X96238095Y-92428571D01*
X96285714Y-92523809D01*
X96285714Y-92761904D01*
X96238095Y-92857142D01*
X96190476Y-92904761D01*
X96095238Y-92952380D01*
X95857142Y-92952380D01*
X95761904Y-92904761D01*
X95714285Y-92857142D01*
X171793333Y-73032380D02*
X171460000Y-72556190D01*
X171221904Y-73032380D02*
X171221904Y-72032380D01*
X171602857Y-72032380D01*
X171698095Y-72080000D01*
X171745714Y-72127619D01*
X171793333Y-72222857D01*
X171793333Y-72365714D01*
X171745714Y-72460952D01*
X171698095Y-72508571D01*
X171602857Y-72556190D01*
X171221904Y-72556190D01*
X172745714Y-73032380D02*
X172174285Y-73032380D01*
X172460000Y-73032380D02*
X172460000Y-72032380D01*
X172364761Y-72175238D01*
X172269523Y-72270476D01*
X172174285Y-72318095D01*
X53261904Y-93952380D02*
X53261904Y-92952380D01*
X53500000Y-92952380D01*
X53642857Y-93000000D01*
X53738095Y-93095238D01*
X53785714Y-93190476D01*
X53833333Y-93380952D01*
X53833333Y-93523809D01*
X53785714Y-93714285D01*
X53738095Y-93809523D01*
X53642857Y-93904761D01*
X53500000Y-93952380D01*
X53261904Y-93952380D01*
X54309523Y-93952380D02*
X54500000Y-93952380D01*
X54595238Y-93904761D01*
X54642857Y-93857142D01*
X54738095Y-93714285D01*
X54785714Y-93523809D01*
X54785714Y-93142857D01*
X54738095Y-93047619D01*
X54690476Y-93000000D01*
X54595238Y-92952380D01*
X54404761Y-92952380D01*
X54309523Y-93000000D01*
X54261904Y-93047619D01*
X54214285Y-93142857D01*
X54214285Y-93380952D01*
X54261904Y-93476190D01*
X54309523Y-93523809D01*
X54404761Y-93571428D01*
X54595238Y-93571428D01*
X54690476Y-93523809D01*
X54738095Y-93476190D01*
X54785714Y-93380952D01*
X138452380Y-57166666D02*
X137976190Y-57500000D01*
X138452380Y-57738095D02*
X137452380Y-57738095D01*
X137452380Y-57357142D01*
X137500000Y-57261904D01*
X137547619Y-57214285D01*
X137642857Y-57166666D01*
X137785714Y-57166666D01*
X137880952Y-57214285D01*
X137928571Y-57261904D01*
X137976190Y-57357142D01*
X137976190Y-57738095D01*
X137452380Y-56309523D02*
X137452380Y-56500000D01*
X137500000Y-56595238D01*
X137547619Y-56642857D01*
X137690476Y-56738095D01*
X137880952Y-56785714D01*
X138261904Y-56785714D01*
X138357142Y-56738095D01*
X138404761Y-56690476D01*
X138452380Y-56595238D01*
X138452380Y-56404761D01*
X138404761Y-56309523D01*
X138357142Y-56261904D01*
X138261904Y-56214285D01*
X138023809Y-56214285D01*
X137928571Y-56261904D01*
X137880952Y-56309523D01*
X137833333Y-56404761D01*
X137833333Y-56595238D01*
X137880952Y-56690476D01*
X137928571Y-56738095D01*
X138023809Y-56785714D01*
X190691666Y-56632380D02*
X190691666Y-57346666D01*
X190644047Y-57489523D01*
X190548809Y-57584761D01*
X190405952Y-57632380D01*
X190310714Y-57632380D01*
X191691666Y-57632380D02*
X191120238Y-57632380D01*
X191405952Y-57632380D02*
X191405952Y-56632380D01*
X191310714Y-56775238D01*
X191215476Y-56870476D01*
X191120238Y-56918095D01*
X171666666Y-81452380D02*
X171666666Y-82166666D01*
X171619047Y-82309523D01*
X171523809Y-82404761D01*
X171380952Y-82452380D01*
X171285714Y-82452380D01*
X172095238Y-81547619D02*
X172142857Y-81500000D01*
X172238095Y-81452380D01*
X172476190Y-81452380D01*
X172571428Y-81500000D01*
X172619047Y-81547619D01*
X172666666Y-81642857D01*
X172666666Y-81738095D01*
X172619047Y-81880952D01*
X172047619Y-82452380D01*
X172666666Y-82452380D01*
X129432380Y-58126666D02*
X128956190Y-58460000D01*
X129432380Y-58698095D02*
X128432380Y-58698095D01*
X128432380Y-58317142D01*
X128480000Y-58221904D01*
X128527619Y-58174285D01*
X128622857Y-58126666D01*
X128765714Y-58126666D01*
X128860952Y-58174285D01*
X128908571Y-58221904D01*
X128956190Y-58317142D01*
X128956190Y-58698095D01*
X128432380Y-57793333D02*
X128432380Y-57126666D01*
X129432380Y-57555238D01*
X168557142Y-85896666D02*
X168604761Y-85944285D01*
X168652380Y-86087142D01*
X168652380Y-86182380D01*
X168604761Y-86325238D01*
X168509523Y-86420476D01*
X168414285Y-86468095D01*
X168223809Y-86515714D01*
X168080952Y-86515714D01*
X167890476Y-86468095D01*
X167795238Y-86420476D01*
X167700000Y-86325238D01*
X167652380Y-86182380D01*
X167652380Y-86087142D01*
X167700000Y-85944285D01*
X167747619Y-85896666D01*
X167747619Y-85515714D02*
X167700000Y-85468095D01*
X167652380Y-85372857D01*
X167652380Y-85134761D01*
X167700000Y-85039523D01*
X167747619Y-84991904D01*
X167842857Y-84944285D01*
X167938095Y-84944285D01*
X168080952Y-84991904D01*
X168652380Y-85563333D01*
X168652380Y-84944285D01*
X102172380Y-73738095D02*
X101172380Y-73738095D01*
X101172380Y-73500000D01*
X101220000Y-73357142D01*
X101315238Y-73261904D01*
X101410476Y-73214285D01*
X101600952Y-73166666D01*
X101743809Y-73166666D01*
X101934285Y-73214285D01*
X102029523Y-73261904D01*
X102124761Y-73357142D01*
X102172380Y-73500000D01*
X102172380Y-73738095D01*
X101267619Y-72785714D02*
X101220000Y-72738095D01*
X101172380Y-72642857D01*
X101172380Y-72404761D01*
X101220000Y-72309523D01*
X101267619Y-72261904D01*
X101362857Y-72214285D01*
X101458095Y-72214285D01*
X101600952Y-72261904D01*
X102172380Y-72833333D01*
X102172380Y-72214285D01*
X101052380Y-65641904D02*
X100052380Y-65641904D01*
X101052380Y-65070476D02*
X100480952Y-65499047D01*
X100052380Y-65070476D02*
X100623809Y-65641904D01*
X129172380Y-73618095D02*
X128172380Y-73618095D01*
X128172380Y-73380000D01*
X128220000Y-73237142D01*
X128315238Y-73141904D01*
X128410476Y-73094285D01*
X128600952Y-73046666D01*
X128743809Y-73046666D01*
X128934285Y-73094285D01*
X129029523Y-73141904D01*
X129124761Y-73237142D01*
X129172380Y-73380000D01*
X129172380Y-73618095D01*
X128600952Y-72475238D02*
X128553333Y-72570476D01*
X128505714Y-72618095D01*
X128410476Y-72665714D01*
X128362857Y-72665714D01*
X128267619Y-72618095D01*
X128220000Y-72570476D01*
X128172380Y-72475238D01*
X128172380Y-72284761D01*
X128220000Y-72189523D01*
X128267619Y-72141904D01*
X128362857Y-72094285D01*
X128410476Y-72094285D01*
X128505714Y-72141904D01*
X128553333Y-72189523D01*
X128600952Y-72284761D01*
X128600952Y-72475238D01*
X128648571Y-72570476D01*
X128696190Y-72618095D01*
X128791428Y-72665714D01*
X128981904Y-72665714D01*
X129077142Y-72618095D01*
X129124761Y-72570476D01*
X129172380Y-72475238D01*
X129172380Y-72284761D01*
X129124761Y-72189523D01*
X129077142Y-72141904D01*
X128981904Y-72094285D01*
X128791428Y-72094285D01*
X128696190Y-72141904D01*
X128648571Y-72189523D01*
X128600952Y-72284761D01*
X128052380Y-65521904D02*
X127052380Y-65521904D01*
X128052380Y-64950476D02*
X127480952Y-65379047D01*
X127052380Y-64950476D02*
X127623809Y-65521904D01*
X112266666Y-81652380D02*
X112266666Y-82366666D01*
X112219047Y-82509523D01*
X112123809Y-82604761D01*
X111980952Y-82652380D01*
X111885714Y-82652380D01*
X113171428Y-81985714D02*
X113171428Y-82652380D01*
X112933333Y-81604761D02*
X112695238Y-82319047D01*
X113314285Y-82319047D01*
X79285714Y-94452380D02*
X79285714Y-93452380D01*
X79523809Y-93452380D01*
X79666666Y-93500000D01*
X79761904Y-93595238D01*
X79809523Y-93690476D01*
X79857142Y-93880952D01*
X79857142Y-94023809D01*
X79809523Y-94214285D01*
X79761904Y-94309523D01*
X79666666Y-94404761D01*
X79523809Y-94452380D01*
X79285714Y-94452380D01*
X80809523Y-94452380D02*
X80238095Y-94452380D01*
X80523809Y-94452380D02*
X80523809Y-93452380D01*
X80428571Y-93595238D01*
X80333333Y-93690476D01*
X80238095Y-93738095D01*
X81428571Y-93452380D02*
X81523809Y-93452380D01*
X81619047Y-93500000D01*
X81666666Y-93547619D01*
X81714285Y-93642857D01*
X81761904Y-93833333D01*
X81761904Y-94071428D01*
X81714285Y-94261904D01*
X81666666Y-94357142D01*
X81619047Y-94404761D01*
X81523809Y-94452380D01*
X81428571Y-94452380D01*
X81333333Y-94404761D01*
X81285714Y-94357142D01*
X81238095Y-94261904D01*
X81190476Y-94071428D01*
X81190476Y-93833333D01*
X81238095Y-93642857D01*
X81285714Y-93547619D01*
X81333333Y-93500000D01*
X81428571Y-93452380D01*
X102172380Y-50238095D02*
X101172380Y-50238095D01*
X101172380Y-50000000D01*
X101220000Y-49857142D01*
X101315238Y-49761904D01*
X101410476Y-49714285D01*
X101600952Y-49666666D01*
X101743809Y-49666666D01*
X101934285Y-49714285D01*
X102029523Y-49761904D01*
X102124761Y-49857142D01*
X102172380Y-50000000D01*
X102172380Y-50238095D01*
X102172380Y-48714285D02*
X102172380Y-49285714D01*
X102172380Y-49000000D02*
X101172380Y-49000000D01*
X101315238Y-49095238D01*
X101410476Y-49190476D01*
X101458095Y-49285714D01*
X101052380Y-42141904D02*
X100052380Y-42141904D01*
X101052380Y-41570476D02*
X100480952Y-41999047D01*
X100052380Y-41570476D02*
X100623809Y-42141904D01*
X153026666Y-82652380D02*
X153026666Y-83366666D01*
X152979047Y-83509523D01*
X152883809Y-83604761D01*
X152740952Y-83652380D01*
X152645714Y-83652380D01*
X153979047Y-82652380D02*
X153502857Y-82652380D01*
X153455238Y-83128571D01*
X153502857Y-83080952D01*
X153598095Y-83033333D01*
X153836190Y-83033333D01*
X153931428Y-83080952D01*
X153979047Y-83128571D01*
X154026666Y-83223809D01*
X154026666Y-83461904D01*
X153979047Y-83557142D01*
X153931428Y-83604761D01*
X153836190Y-83652380D01*
X153598095Y-83652380D01*
X153502857Y-83604761D01*
X153455238Y-83557142D01*
X194052380Y-89513333D02*
X194766666Y-89513333D01*
X194909523Y-89560952D01*
X195004761Y-89656190D01*
X195052380Y-89799047D01*
X195052380Y-89894285D01*
X194052380Y-89132380D02*
X194052380Y-88513333D01*
X194433333Y-88846666D01*
X194433333Y-88703809D01*
X194480952Y-88608571D01*
X194528571Y-88560952D01*
X194623809Y-88513333D01*
X194861904Y-88513333D01*
X194957142Y-88560952D01*
X195004761Y-88608571D01*
X195052380Y-88703809D01*
X195052380Y-88989523D01*
X195004761Y-89084761D01*
X194957142Y-89132380D01*
X120172380Y-73858095D02*
X119172380Y-73858095D01*
X119172380Y-73620000D01*
X119220000Y-73477142D01*
X119315238Y-73381904D01*
X119410476Y-73334285D01*
X119600952Y-73286666D01*
X119743809Y-73286666D01*
X119934285Y-73334285D01*
X120029523Y-73381904D01*
X120124761Y-73477142D01*
X120172380Y-73620000D01*
X120172380Y-73858095D01*
X119172380Y-72429523D02*
X119172380Y-72620000D01*
X119220000Y-72715238D01*
X119267619Y-72762857D01*
X119410476Y-72858095D01*
X119600952Y-72905714D01*
X119981904Y-72905714D01*
X120077142Y-72858095D01*
X120124761Y-72810476D01*
X120172380Y-72715238D01*
X120172380Y-72524761D01*
X120124761Y-72429523D01*
X120077142Y-72381904D01*
X119981904Y-72334285D01*
X119743809Y-72334285D01*
X119648571Y-72381904D01*
X119600952Y-72429523D01*
X119553333Y-72524761D01*
X119553333Y-72715238D01*
X119600952Y-72810476D01*
X119648571Y-72858095D01*
X119743809Y-72905714D01*
X119052380Y-65761904D02*
X118052380Y-65761904D01*
X119052380Y-65190476D02*
X118480952Y-65619047D01*
X118052380Y-65190476D02*
X118623809Y-65761904D01*
X129172380Y-50238095D02*
X128172380Y-50238095D01*
X128172380Y-50000000D01*
X128220000Y-49857142D01*
X128315238Y-49761904D01*
X128410476Y-49714285D01*
X128600952Y-49666666D01*
X128743809Y-49666666D01*
X128934285Y-49714285D01*
X129029523Y-49761904D01*
X129124761Y-49857142D01*
X129172380Y-50000000D01*
X129172380Y-50238095D01*
X128172380Y-49333333D02*
X128172380Y-48666666D01*
X129172380Y-49095238D01*
X128052380Y-42141904D02*
X127052380Y-42141904D01*
X128052380Y-41570476D02*
X127480952Y-41999047D01*
X127052380Y-41570476D02*
X127623809Y-42141904D01*
X111172380Y-50238095D02*
X110172380Y-50238095D01*
X110172380Y-50000000D01*
X110220000Y-49857142D01*
X110315238Y-49761904D01*
X110410476Y-49714285D01*
X110600952Y-49666666D01*
X110743809Y-49666666D01*
X110934285Y-49714285D01*
X111029523Y-49761904D01*
X111124761Y-49857142D01*
X111172380Y-50000000D01*
X111172380Y-50238095D01*
X110172380Y-49333333D02*
X110172380Y-48714285D01*
X110553333Y-49047619D01*
X110553333Y-48904761D01*
X110600952Y-48809523D01*
X110648571Y-48761904D01*
X110743809Y-48714285D01*
X110981904Y-48714285D01*
X111077142Y-48761904D01*
X111124761Y-48809523D01*
X111172380Y-48904761D01*
X111172380Y-49190476D01*
X111124761Y-49285714D01*
X111077142Y-49333333D01*
X110052380Y-42141904D02*
X109052380Y-42141904D01*
X110052380Y-41570476D02*
X109480952Y-41999047D01*
X109052380Y-41570476D02*
X109623809Y-42141904D01*
X159573333Y-75932380D02*
X159240000Y-75456190D01*
X159001904Y-75932380D02*
X159001904Y-74932380D01*
X159382857Y-74932380D01*
X159478095Y-74980000D01*
X159525714Y-75027619D01*
X159573333Y-75122857D01*
X159573333Y-75265714D01*
X159525714Y-75360952D01*
X159478095Y-75408571D01*
X159382857Y-75456190D01*
X159001904Y-75456190D01*
X159954285Y-75027619D02*
X160001904Y-74980000D01*
X160097142Y-74932380D01*
X160335238Y-74932380D01*
X160430476Y-74980000D01*
X160478095Y-75027619D01*
X160525714Y-75122857D01*
X160525714Y-75218095D01*
X160478095Y-75360952D01*
X159906666Y-75932380D01*
X160525714Y-75932380D01*
X83780714Y-40492380D02*
X83780714Y-39492380D01*
X84018809Y-39492380D01*
X84161666Y-39540000D01*
X84256904Y-39635238D01*
X84304523Y-39730476D01*
X84352142Y-39920952D01*
X84352142Y-40063809D01*
X84304523Y-40254285D01*
X84256904Y-40349523D01*
X84161666Y-40444761D01*
X84018809Y-40492380D01*
X83780714Y-40492380D01*
X85304523Y-40492380D02*
X84733095Y-40492380D01*
X85018809Y-40492380D02*
X85018809Y-39492380D01*
X84923571Y-39635238D01*
X84828333Y-39730476D01*
X84733095Y-39778095D01*
X85685476Y-39587619D02*
X85733095Y-39540000D01*
X85828333Y-39492380D01*
X86066428Y-39492380D01*
X86161666Y-39540000D01*
X86209285Y-39587619D01*
X86256904Y-39682857D01*
X86256904Y-39778095D01*
X86209285Y-39920952D01*
X85637857Y-40492380D01*
X86256904Y-40492380D01*
X136937142Y-89466666D02*
X136984761Y-89514285D01*
X137032380Y-89657142D01*
X137032380Y-89752380D01*
X136984761Y-89895238D01*
X136889523Y-89990476D01*
X136794285Y-90038095D01*
X136603809Y-90085714D01*
X136460952Y-90085714D01*
X136270476Y-90038095D01*
X136175238Y-89990476D01*
X136080000Y-89895238D01*
X136032380Y-89752380D01*
X136032380Y-89657142D01*
X136080000Y-89514285D01*
X136127619Y-89466666D01*
X136032380Y-89133333D02*
X136032380Y-88514285D01*
X136413333Y-88847619D01*
X136413333Y-88704761D01*
X136460952Y-88609523D01*
X136508571Y-88561904D01*
X136603809Y-88514285D01*
X136841904Y-88514285D01*
X136937142Y-88561904D01*
X136984761Y-88609523D01*
X137032380Y-88704761D01*
X137032380Y-88990476D01*
X136984761Y-89085714D01*
X136937142Y-89133333D01*
X152373333Y-61532380D02*
X152040000Y-61056190D01*
X151801904Y-61532380D02*
X151801904Y-60532380D01*
X152182857Y-60532380D01*
X152278095Y-60580000D01*
X152325714Y-60627619D01*
X152373333Y-60722857D01*
X152373333Y-60865714D01*
X152325714Y-60960952D01*
X152278095Y-61008571D01*
X152182857Y-61056190D01*
X151801904Y-61056190D01*
X152706666Y-60532380D02*
X153325714Y-60532380D01*
X152992380Y-60913333D01*
X153135238Y-60913333D01*
X153230476Y-60960952D01*
X153278095Y-61008571D01*
X153325714Y-61103809D01*
X153325714Y-61341904D01*
X153278095Y-61437142D01*
X153230476Y-61484761D01*
X153135238Y-61532380D01*
X152849523Y-61532380D01*
X152754285Y-61484761D01*
X152706666Y-61437142D01*
X187707380Y-67771904D02*
X188516904Y-67771904D01*
X188612142Y-67724285D01*
X188659761Y-67676666D01*
X188707380Y-67581428D01*
X188707380Y-67390952D01*
X188659761Y-67295714D01*
X188612142Y-67248095D01*
X188516904Y-67200476D01*
X187707380Y-67200476D01*
X188707380Y-66200476D02*
X188707380Y-66771904D01*
X188707380Y-66486190D02*
X187707380Y-66486190D01*
X187850238Y-66581428D01*
X187945476Y-66676666D01*
X187993095Y-66771904D01*
X111172380Y-73858095D02*
X110172380Y-73858095D01*
X110172380Y-73620000D01*
X110220000Y-73477142D01*
X110315238Y-73381904D01*
X110410476Y-73334285D01*
X110600952Y-73286666D01*
X110743809Y-73286666D01*
X110934285Y-73334285D01*
X111029523Y-73381904D01*
X111124761Y-73477142D01*
X111172380Y-73620000D01*
X111172380Y-73858095D01*
X110505714Y-72429523D02*
X111172380Y-72429523D01*
X110124761Y-72667619D02*
X110839047Y-72905714D01*
X110839047Y-72286666D01*
X110052380Y-65761904D02*
X109052380Y-65761904D01*
X110052380Y-65190476D02*
X109480952Y-65619047D01*
X109052380Y-65190476D02*
X109623809Y-65761904D01*
X120172380Y-50238095D02*
X119172380Y-50238095D01*
X119172380Y-50000000D01*
X119220000Y-49857142D01*
X119315238Y-49761904D01*
X119410476Y-49714285D01*
X119600952Y-49666666D01*
X119743809Y-49666666D01*
X119934285Y-49714285D01*
X120029523Y-49761904D01*
X120124761Y-49857142D01*
X120172380Y-50000000D01*
X120172380Y-50238095D01*
X119172380Y-48761904D02*
X119172380Y-49238095D01*
X119648571Y-49285714D01*
X119600952Y-49238095D01*
X119553333Y-49142857D01*
X119553333Y-48904761D01*
X119600952Y-48809523D01*
X119648571Y-48761904D01*
X119743809Y-48714285D01*
X119981904Y-48714285D01*
X120077142Y-48761904D01*
X120124761Y-48809523D01*
X120172380Y-48904761D01*
X120172380Y-49142857D01*
X120124761Y-49238095D01*
X120077142Y-49285714D01*
X119052380Y-42141904D02*
X118052380Y-42141904D01*
X119052380Y-41570476D02*
X118480952Y-41999047D01*
X118052380Y-41570476D02*
X118623809Y-42141904D01*
X171733333Y-76757142D02*
X171685714Y-76804761D01*
X171542857Y-76852380D01*
X171447619Y-76852380D01*
X171304761Y-76804761D01*
X171209523Y-76709523D01*
X171161904Y-76614285D01*
X171114285Y-76423809D01*
X171114285Y-76280952D01*
X171161904Y-76090476D01*
X171209523Y-75995238D01*
X171304761Y-75900000D01*
X171447619Y-75852380D01*
X171542857Y-75852380D01*
X171685714Y-75900000D01*
X171733333Y-75947619D01*
X172685714Y-76852380D02*
X172114285Y-76852380D01*
X172400000Y-76852380D02*
X172400000Y-75852380D01*
X172304761Y-75995238D01*
X172209523Y-76090476D01*
X172114285Y-76138095D01*
X47660714Y-40492380D02*
X47660714Y-39492380D01*
X47898809Y-39492380D01*
X48041666Y-39540000D01*
X48136904Y-39635238D01*
X48184523Y-39730476D01*
X48232142Y-39920952D01*
X48232142Y-40063809D01*
X48184523Y-40254285D01*
X48136904Y-40349523D01*
X48041666Y-40444761D01*
X47898809Y-40492380D01*
X47660714Y-40492380D01*
X49184523Y-40492380D02*
X48613095Y-40492380D01*
X48898809Y-40492380D02*
X48898809Y-39492380D01*
X48803571Y-39635238D01*
X48708333Y-39730476D01*
X48613095Y-39778095D01*
X50136904Y-40492380D02*
X49565476Y-40492380D01*
X49851190Y-40492380D02*
X49851190Y-39492380D01*
X49755952Y-39635238D01*
X49660714Y-39730476D01*
X49565476Y-39778095D01*
X92833333Y-82952380D02*
X92500000Y-82476190D01*
X92261904Y-82952380D02*
X92261904Y-81952380D01*
X92642857Y-81952380D01*
X92738095Y-82000000D01*
X92785714Y-82047619D01*
X92833333Y-82142857D01*
X92833333Y-82285714D01*
X92785714Y-82380952D01*
X92738095Y-82428571D01*
X92642857Y-82476190D01*
X92261904Y-82476190D01*
X93690476Y-82285714D02*
X93690476Y-82952380D01*
X93452380Y-81904761D02*
X93214285Y-82619047D01*
X93833333Y-82619047D01*
X136252380Y-72871904D02*
X137061904Y-72871904D01*
X137157142Y-72824285D01*
X137204761Y-72776666D01*
X137252380Y-72681428D01*
X137252380Y-72490952D01*
X137204761Y-72395714D01*
X137157142Y-72348095D01*
X137061904Y-72300476D01*
X136252380Y-72300476D01*
X136347619Y-71871904D02*
X136300000Y-71824285D01*
X136252380Y-71729047D01*
X136252380Y-71490952D01*
X136300000Y-71395714D01*
X136347619Y-71348095D01*
X136442857Y-71300476D01*
X136538095Y-71300476D01*
X136680952Y-71348095D01*
X137252380Y-71919523D01*
X137252380Y-71300476D01*
D14*
X182475000Y-82400000D02*
X182475000Y-83606667D01*
X181565000Y-82400000D02*
X181565000Y-86020000D01*
X184550000Y-80560000D02*
X184550000Y-81943000D01*
X184310000Y-80800000D02*
X183240000Y-80800000D01*
X184310000Y-87621000D02*
X183190000Y-87621000D01*
X184550000Y-80560000D02*
X183240000Y-80560000D01*
X181565000Y-86020000D02*
X182835000Y-86020000D01*
X184310000Y-80800000D02*
X184310000Y-87621000D01*
X182835000Y-83606667D02*
X181565000Y-83606667D01*
X181635000Y-82400000D02*
X181635000Y-83606667D01*
X182235000Y-82400000D02*
X182235000Y-83606667D01*
X181160000Y-80800000D02*
X180090000Y-80800000D01*
X181995000Y-82400000D02*
X181995000Y-83606667D01*
X180090000Y-80800000D02*
X180090000Y-87621000D01*
X182835000Y-82400000D02*
X181565000Y-82400000D01*
X181210000Y-87621000D02*
X180090000Y-87621000D01*
X181875000Y-82400000D02*
X181875000Y-83606667D01*
X182115000Y-82400000D02*
X182115000Y-83606667D01*
X181755000Y-82400000D02*
X181755000Y-83606667D01*
X182835000Y-86020000D02*
X182835000Y-82400000D01*
X182595000Y-82400000D02*
X182595000Y-83606667D01*
X182355000Y-82400000D02*
X182355000Y-83606667D01*
X182715000Y-82400000D02*
X182715000Y-83606667D01*
X184080000Y-73600000D02*
X180920000Y-73600000D01*
X185920000Y-73600000D02*
G75*
G03*
X185920000Y-73600000I-920000J0D01*
G01*
X106980000Y-62330000D02*
X119740000Y-62330000D01*
X105710000Y-62330000D02*
X104380000Y-62330000D01*
X104380000Y-62330000D02*
X104380000Y-61000000D01*
X106980000Y-62330000D02*
X106980000Y-59670000D01*
X119740000Y-62330000D02*
X119740000Y-59670000D01*
X106980000Y-59670000D02*
X119740000Y-59670000D01*
X46000000Y-48000000D02*
X88000000Y-48000000D01*
X88000000Y-48000000D02*
X88000000Y-90000000D01*
X88000000Y-90000000D02*
X46000000Y-90000000D01*
X46000000Y-90000000D02*
X46000000Y-48000000D01*
X90685000Y-91390000D02*
X90685000Y-88610000D01*
X99305000Y-91390000D02*
X90685000Y-91390000D01*
X99305000Y-91390000D02*
X99305000Y-88610000D01*
X99305000Y-88610000D02*
X90685000Y-88610000D01*
X170340000Y-74500000D02*
X173500000Y-74500000D01*
X170340000Y-74500000D02*
G75*
G03*
X170340000Y-74500000I-920000J0D01*
G01*
X46365000Y-92455000D02*
X46365000Y-95545000D01*
X51915000Y-94000462D02*
G75*
G03*
X46365000Y-92455170I-2990000J462D01*
G01*
X46365000Y-95544830D02*
G75*
G03*
X51915000Y-93999538I2560000J1544830D01*
G01*
X51425000Y-94000000D02*
G75*
G03*
X51425000Y-94000000I-2500000J0D01*
G01*
X134110000Y-53685000D02*
X136890000Y-53685000D01*
X134110000Y-62305000D02*
X134110000Y-53685000D01*
X136890000Y-62305000D02*
X136890000Y-53685000D01*
X134110000Y-62305000D02*
X136890000Y-62305000D01*
X189695000Y-61220000D02*
X192355000Y-61220000D01*
X191025000Y-58620000D02*
X192355000Y-58620000D01*
X192355000Y-61220000D02*
X192355000Y-71440000D01*
X189695000Y-71440000D02*
X192355000Y-71440000D01*
X189695000Y-61220000D02*
X189695000Y-71440000D01*
X192355000Y-58620000D02*
X192355000Y-59950000D01*
X173530000Y-85610000D02*
X173530000Y-85730000D01*
X173530000Y-83070000D02*
X173530000Y-84400000D01*
X170870000Y-85730000D02*
X173530000Y-85730000D01*
X172200000Y-83070000D02*
X173530000Y-83070000D01*
X170870000Y-85610000D02*
X170870000Y-85730000D01*
X132890000Y-62270000D02*
X132890000Y-53650000D01*
X130110000Y-53650000D02*
X132890000Y-53650000D01*
X130110000Y-62270000D02*
X130110000Y-53650000D01*
X130110000Y-62270000D02*
X132890000Y-62270000D01*
X166600000Y-87660000D02*
X166600000Y-84500000D01*
X167520000Y-88580000D02*
G75*
G03*
X167520000Y-88580000I-920000J0D01*
G01*
X95280000Y-68130000D02*
X95280000Y-77870000D01*
X100720000Y-77870000D02*
X100720000Y-68130000D01*
X100720000Y-68130000D02*
X95280000Y-68130000D01*
X95280000Y-77870000D02*
X100720000Y-77870000D01*
X98000000Y-78780000D02*
X98000000Y-77870000D01*
X100720000Y-69555000D02*
X95280000Y-69555000D01*
X100720000Y-69795000D02*
X95280000Y-69795000D01*
X98000000Y-67220000D02*
X98000000Y-68130000D01*
X100720000Y-69675000D02*
X95280000Y-69675000D01*
X127720000Y-69675000D02*
X122280000Y-69675000D01*
X125000000Y-78660000D02*
X125000000Y-77750000D01*
X127720000Y-77750000D02*
X127720000Y-68010000D01*
X127720000Y-69435000D02*
X122280000Y-69435000D01*
X125000000Y-67100000D02*
X125000000Y-68010000D01*
X122280000Y-68010000D02*
X122280000Y-77750000D01*
X127720000Y-69555000D02*
X122280000Y-69555000D01*
X127720000Y-68010000D02*
X122280000Y-68010000D01*
X122280000Y-77750000D02*
X127720000Y-77750000D01*
X122780000Y-89540000D02*
X102460000Y-89540000D01*
X102460000Y-83190000D02*
X102460000Y-90810000D01*
X102460000Y-90810000D02*
X122780000Y-90810000D01*
X102460000Y-83190000D02*
X122780000Y-83190000D01*
X122780000Y-90810000D02*
X122780000Y-83190000D01*
X82380000Y-92455000D02*
X82380000Y-95545000D01*
X87930000Y-94000462D02*
G75*
G03*
X82380000Y-92455170I-2990000J462D01*
G01*
X82380000Y-95544830D02*
G75*
G03*
X87930000Y-93999538I2560000J1544830D01*
G01*
X87440000Y-94000000D02*
G75*
G03*
X87440000Y-94000000I-2500000J0D01*
G01*
X98000000Y-43720000D02*
X98000000Y-44630000D01*
X95280000Y-44630000D02*
X95280000Y-54370000D01*
X98000000Y-55280000D02*
X98000000Y-54370000D01*
X100720000Y-46175000D02*
X95280000Y-46175000D01*
X100720000Y-44630000D02*
X95280000Y-44630000D01*
X95280000Y-54370000D02*
X100720000Y-54370000D01*
X100720000Y-54370000D02*
X100720000Y-44630000D01*
X100720000Y-46295000D02*
X95280000Y-46295000D01*
X100720000Y-46055000D02*
X95280000Y-46055000D01*
X163540000Y-91810000D02*
X163540000Y-84190000D01*
X143220000Y-84190000D02*
X163540000Y-84190000D01*
X143220000Y-84190000D02*
X143220000Y-91810000D01*
X163540000Y-90540000D02*
X143220000Y-90540000D01*
X143220000Y-91810000D02*
X163540000Y-91810000D01*
X195410000Y-88220000D02*
X187790000Y-88220000D01*
X195410000Y-72980000D02*
X187790000Y-72980000D01*
X194140000Y-88220000D02*
X194140000Y-72980000D01*
X187790000Y-88220000D02*
X187790000Y-72980000D01*
X195410000Y-88220000D02*
X195410000Y-72980000D01*
X113280000Y-68250000D02*
X113280000Y-77990000D01*
X118720000Y-69915000D02*
X113280000Y-69915000D01*
X118720000Y-69675000D02*
X113280000Y-69675000D01*
X113280000Y-77990000D02*
X118720000Y-77990000D01*
X118720000Y-68250000D02*
X113280000Y-68250000D01*
X118720000Y-69795000D02*
X113280000Y-69795000D01*
X118720000Y-77990000D02*
X118720000Y-68250000D01*
X116000000Y-78900000D02*
X116000000Y-77990000D01*
X116000000Y-67340000D02*
X116000000Y-68250000D01*
X125000000Y-43720000D02*
X125000000Y-44630000D01*
X127720000Y-54370000D02*
X127720000Y-44630000D01*
X127720000Y-46175000D02*
X122280000Y-46175000D01*
X125000000Y-55280000D02*
X125000000Y-54370000D01*
X122280000Y-44630000D02*
X122280000Y-54370000D01*
X127720000Y-46055000D02*
X122280000Y-46055000D01*
X127720000Y-46295000D02*
X122280000Y-46295000D01*
X127720000Y-44630000D02*
X122280000Y-44630000D01*
X122280000Y-54370000D02*
X127720000Y-54370000D01*
X109720000Y-46175000D02*
X104280000Y-46175000D01*
X109720000Y-54370000D02*
X109720000Y-44630000D01*
X109720000Y-46055000D02*
X104280000Y-46055000D01*
X109720000Y-44630000D02*
X104280000Y-44630000D01*
X104280000Y-44630000D02*
X104280000Y-54370000D01*
X104280000Y-54370000D02*
X109720000Y-54370000D01*
X107000000Y-43720000D02*
X107000000Y-44630000D01*
X109720000Y-46295000D02*
X104280000Y-46295000D01*
X107000000Y-55280000D02*
X107000000Y-54370000D01*
X158120000Y-77400000D02*
X161280000Y-77400000D01*
X158120000Y-77400000D02*
G75*
G03*
X158120000Y-77400000I-920000J0D01*
G01*
X82435000Y-42455000D02*
X82435000Y-45545000D01*
X82435000Y-45544830D02*
G75*
G03*
X87985000Y-43999538I2560000J1544830D01*
G01*
X87985000Y-44000462D02*
G75*
G03*
X82435000Y-42455170I-2990000J462D01*
G01*
X87495000Y-44000000D02*
G75*
G03*
X87495000Y-44000000I-2500000J0D01*
G01*
X138500000Y-90920000D02*
X138500000Y-87760000D01*
X139420000Y-91840000D02*
G75*
G03*
X139420000Y-91840000I-920000J0D01*
G01*
X150920000Y-63000000D02*
X154080000Y-63000000D01*
X150920000Y-63000000D02*
G75*
G03*
X150920000Y-63000000I-920000J0D01*
G01*
X161735000Y-64360000D02*
X161735000Y-69660000D01*
X161735000Y-69660000D02*
X187255000Y-69660000D01*
X187255000Y-64360000D02*
X161735000Y-64360000D01*
X187255000Y-69660000D02*
X187255000Y-68010000D01*
X187255000Y-66010000D02*
X187255000Y-64360000D01*
X187255000Y-66010000D02*
G75*
G03*
X187255000Y-68010000I0J-1000000D01*
G01*
X109720000Y-69915000D02*
X104280000Y-69915000D01*
X104280000Y-68250000D02*
X104280000Y-77990000D01*
X104280000Y-77990000D02*
X109720000Y-77990000D01*
X109720000Y-77990000D02*
X109720000Y-68250000D01*
X109720000Y-69675000D02*
X104280000Y-69675000D01*
X107000000Y-78900000D02*
X107000000Y-77990000D01*
X107000000Y-67340000D02*
X107000000Y-68250000D01*
X109720000Y-68250000D02*
X104280000Y-68250000D01*
X109720000Y-69795000D02*
X104280000Y-69795000D01*
X118720000Y-46175000D02*
X113280000Y-46175000D01*
X118720000Y-44630000D02*
X113280000Y-44630000D01*
X116000000Y-43720000D02*
X116000000Y-44630000D01*
X113280000Y-44630000D02*
X113280000Y-54370000D01*
X118720000Y-46295000D02*
X113280000Y-46295000D01*
X118720000Y-54370000D02*
X118720000Y-44630000D01*
X116000000Y-55280000D02*
X116000000Y-54370000D01*
X113280000Y-54370000D02*
X118720000Y-54370000D01*
X118720000Y-46055000D02*
X113280000Y-46055000D01*
X173480000Y-78400000D02*
X170320000Y-78400000D01*
X175320000Y-78400000D02*
G75*
G03*
X175320000Y-78400000I-920000J0D01*
G01*
X46315000Y-42455000D02*
X46315000Y-45545000D01*
X51865000Y-44000462D02*
G75*
G03*
X46315000Y-42455170I-2990000J462D01*
G01*
X46315000Y-45544830D02*
G75*
G03*
X51865000Y-43999538I2560000J1544830D01*
G01*
X51375000Y-44000000D02*
G75*
G03*
X51375000Y-44000000I-2500000J0D01*
G01*
X97305000Y-83610000D02*
X88685000Y-83610000D01*
X88685000Y-86390000D02*
X88685000Y-83610000D01*
X97305000Y-86390000D02*
X97305000Y-83610000D01*
X97305000Y-86390000D02*
X88685000Y-86390000D01*
X137800000Y-70260000D02*
X139640000Y-70260000D01*
X143041000Y-70840000D02*
X146435000Y-70840000D01*
X137800000Y-73959000D02*
X139640000Y-73959000D01*
X143041000Y-65760000D02*
X146435000Y-65760000D01*
X143041000Y-73725000D02*
X143041000Y-73034000D01*
X143041000Y-75920000D02*
X146435000Y-75920000D01*
X143041000Y-68300000D02*
X146435000Y-68300000D01*
X143041000Y-68645000D02*
X143041000Y-67954000D01*
X143041000Y-78460000D02*
X146435000Y-78460000D01*
X143041000Y-73380000D02*
X146435000Y-73380000D01*
X137800000Y-82330000D02*
X143041000Y-82330000D01*
X143041000Y-63565000D02*
X143041000Y-61890000D01*
X143041000Y-76265000D02*
X143041000Y-75574000D01*
X143041000Y-82330000D02*
X143041000Y-80654000D01*
X143041000Y-66105000D02*
X143041000Y-65414000D01*
X137800000Y-61890000D02*
X143041000Y-61890000D01*
X137800000Y-82330000D02*
X137800000Y-61890000D01*
X143041000Y-81000000D02*
X146450000Y-81000000D01*
X143041000Y-71185000D02*
X143041000Y-70494000D01*
X139640000Y-82330000D02*
X139640000Y-61890000D01*
X143041000Y-63220000D02*
X146435000Y-63220000D01*
X143041000Y-78805000D02*
X143041000Y-78114000D01*
%LPC*%
D15*
X182200000Y-80400000D03*
D16*
X182200000Y-88020000D03*
D17*
X185000000Y-73600000D03*
D18*
X179920000Y-73600000D03*
D19*
X105710000Y-61000000D03*
D20*
X108250000Y-61000000D03*
X110790000Y-61000000D03*
X113330000Y-61000000D03*
X115870000Y-61000000D03*
X118410000Y-61000000D03*
D21*
X66500000Y-69500000D03*
D22*
X51000000Y-54000000D03*
X82000000Y-54000000D03*
X51000000Y-85000000D03*
X82000000Y-85000000D03*
D23*
X195000000Y-94000000D03*
X40000000Y-94000000D03*
X195000000Y-44000000D03*
X40000000Y-44000000D03*
D24*
X97535000Y-90000000D03*
X92455000Y-90000000D03*
D17*
X169420000Y-74500000D03*
D18*
X174500000Y-74500000D03*
D25*
X47655000Y-94000000D03*
D26*
X50195000Y-94000000D03*
D24*
X135500000Y-60535000D03*
X135500000Y-55455000D03*
D19*
X191025000Y-59950000D03*
D20*
X191025000Y-62490000D03*
X191025000Y-65030000D03*
X191025000Y-67570000D03*
X191025000Y-70110000D03*
D19*
X172200000Y-84400000D03*
D24*
X131500000Y-60500000D03*
X131500000Y-55420000D03*
D17*
X166600000Y-88580000D03*
D18*
X166600000Y-83500000D03*
D27*
X98000000Y-65380000D03*
D28*
X98000000Y-80620000D03*
D27*
X125000000Y-65260000D03*
D28*
X125000000Y-80500000D03*
D29*
X105000000Y-87000000D03*
D30*
X110080000Y-87000000D03*
X115160000Y-87000000D03*
X120240000Y-87000000D03*
D25*
X83670000Y-94000000D03*
D26*
X86210000Y-94000000D03*
D27*
X98000000Y-41880000D03*
D28*
X98000000Y-57120000D03*
D29*
X145760000Y-88000000D03*
D30*
X150840000Y-88000000D03*
X155920000Y-88000000D03*
X161000000Y-88000000D03*
D29*
X191600000Y-85680000D03*
D30*
X191600000Y-80600000D03*
X191600000Y-75520000D03*
D27*
X116000000Y-65500000D03*
D28*
X116000000Y-80740000D03*
D27*
X125000000Y-41880000D03*
D28*
X125000000Y-57120000D03*
D27*
X107000000Y-41880000D03*
D28*
X107000000Y-57120000D03*
D17*
X157200000Y-77400000D03*
D18*
X162280000Y-77400000D03*
D25*
X83725000Y-44000000D03*
D26*
X86265000Y-44000000D03*
D17*
X138500000Y-91840000D03*
D18*
X138500000Y-86760000D03*
D17*
X150000000Y-63000000D03*
D18*
X155080000Y-63000000D03*
D15*
X185925000Y-63200000D03*
D16*
X183385000Y-63200000D03*
X180845000Y-63200000D03*
X178305000Y-63200000D03*
X175765000Y-63200000D03*
X173225000Y-63200000D03*
X170685000Y-63200000D03*
X168145000Y-63200000D03*
X165605000Y-63200000D03*
X163065000Y-63200000D03*
X163065000Y-70820000D03*
X165605000Y-70820000D03*
X168145000Y-70820000D03*
X170685000Y-70820000D03*
X173225000Y-70820000D03*
X175765000Y-70820000D03*
X178305000Y-70820000D03*
X180845000Y-70820000D03*
X183385000Y-70820000D03*
X185925000Y-70820000D03*
D27*
X107000000Y-65500000D03*
D28*
X107000000Y-80740000D03*
D27*
X116000000Y-41880000D03*
D28*
X116000000Y-57120000D03*
D17*
X174400000Y-78400000D03*
D18*
X169320000Y-78400000D03*
D25*
X47605000Y-44000000D03*
D26*
X50145000Y-44000000D03*
D24*
X90455000Y-85000000D03*
X95535000Y-85000000D03*
D25*
X147500000Y-81000000D03*
D31*
X142420000Y-79730000D03*
X147500000Y-78460000D03*
X142420000Y-77190000D03*
X147500000Y-75920000D03*
X142420000Y-74650000D03*
X147500000Y-73380000D03*
X142420000Y-72110000D03*
X147500000Y-70840000D03*
X142420000Y-69570000D03*
X147500000Y-68300000D03*
X142420000Y-67030000D03*
X147500000Y-65760000D03*
X142420000Y-64490000D03*
X147500000Y-63220000D03*
M02*
