G04 #@! TF.GenerationSoftware,KiCad,Pcbnew,(6.0.11)*
G04 #@! TF.CreationDate,2023-02-08T23:30:17+00:00*
G04 #@! TF.ProjectId,StepperDemoPCB,53746570-7065-4724-9465-6d6f5043422e,rev?*
G04 #@! TF.SameCoordinates,Original*
G04 #@! TF.FileFunction,Soldermask,Bot*
G04 #@! TF.FilePolarity,Negative*
%FSLAX46Y46*%
G04 Gerber Fmt 4.6, Leading zero omitted, Abs format (unit mm)*
G04 Created by KiCad (PCBNEW (6.0.11)) date 2023-02-08 23:30:17*
%MOMM*%
%LPD*%
G01*
G04 APERTURE LIST*
%ADD10R,1.600000X1.600000*%
%ADD11O,1.600000X1.600000*%
%ADD12C,1.400000*%
%ADD13O,1.400000X1.400000*%
%ADD14R,1.700000X1.700000*%
%ADD15O,1.700000X1.700000*%
%ADD16C,24.500000*%
%ADD17C,4.500000*%
%ADD18C,7.500000*%
%ADD19C,1.600000*%
%ADD20R,1.800000X1.800000*%
%ADD21C,1.800000*%
%ADD22R,3.200000X3.200000*%
%ADD23O,3.200000X3.200000*%
%ADD24R,3.000000X3.000000*%
%ADD25C,3.000000*%
%ADD26O,1.800000X1.800000*%
G04 APERTURE END LIST*
D10*
X182200000Y-80400000D03*
D11*
X182200000Y-88020000D03*
D12*
X185000000Y-73600000D03*
D13*
X179920000Y-73600000D03*
D14*
X105710000Y-61000000D03*
D15*
X108250000Y-61000000D03*
X110790000Y-61000000D03*
X113330000Y-61000000D03*
X115870000Y-61000000D03*
X118410000Y-61000000D03*
D16*
X66500000Y-69500000D03*
D17*
X51000000Y-54000000D03*
X82000000Y-54000000D03*
X51000000Y-85000000D03*
X82000000Y-85000000D03*
D18*
X195000000Y-94000000D03*
X40000000Y-94000000D03*
X195000000Y-44000000D03*
X40000000Y-44000000D03*
D19*
X97535000Y-90000000D03*
X92455000Y-90000000D03*
D12*
X169420000Y-74500000D03*
D13*
X174500000Y-74500000D03*
D20*
X47655000Y-94000000D03*
D21*
X50195000Y-94000000D03*
D19*
X135500000Y-60535000D03*
X135500000Y-55455000D03*
D14*
X191025000Y-59950000D03*
D15*
X191025000Y-62490000D03*
X191025000Y-65030000D03*
X191025000Y-67570000D03*
X191025000Y-70110000D03*
D14*
X172200000Y-84400000D03*
D19*
X131500000Y-60500000D03*
X131500000Y-55420000D03*
D12*
X166600000Y-88580000D03*
D13*
X166600000Y-83500000D03*
D22*
X98000000Y-65380000D03*
D23*
X98000000Y-80620000D03*
D22*
X125000000Y-65260000D03*
D23*
X125000000Y-80500000D03*
D24*
X105000000Y-87000000D03*
D25*
X110080000Y-87000000D03*
X115160000Y-87000000D03*
X120240000Y-87000000D03*
D20*
X83670000Y-94000000D03*
D21*
X86210000Y-94000000D03*
D22*
X98000000Y-41880000D03*
D23*
X98000000Y-57120000D03*
D24*
X145760000Y-88000000D03*
D25*
X150840000Y-88000000D03*
X155920000Y-88000000D03*
X161000000Y-88000000D03*
D24*
X191600000Y-85680000D03*
D25*
X191600000Y-80600000D03*
X191600000Y-75520000D03*
D22*
X116000000Y-65500000D03*
D23*
X116000000Y-80740000D03*
D22*
X125000000Y-41880000D03*
D23*
X125000000Y-57120000D03*
D22*
X107000000Y-41880000D03*
D23*
X107000000Y-57120000D03*
D12*
X157200000Y-77400000D03*
D13*
X162280000Y-77400000D03*
D20*
X83725000Y-44000000D03*
D21*
X86265000Y-44000000D03*
D12*
X138500000Y-91840000D03*
D13*
X138500000Y-86760000D03*
D12*
X150000000Y-63000000D03*
D13*
X155080000Y-63000000D03*
D10*
X185925000Y-63200000D03*
D11*
X183385000Y-63200000D03*
X180845000Y-63200000D03*
X178305000Y-63200000D03*
X175765000Y-63200000D03*
X173225000Y-63200000D03*
X170685000Y-63200000D03*
X168145000Y-63200000D03*
X165605000Y-63200000D03*
X163065000Y-63200000D03*
X163065000Y-70820000D03*
X165605000Y-70820000D03*
X168145000Y-70820000D03*
X170685000Y-70820000D03*
X173225000Y-70820000D03*
X175765000Y-70820000D03*
X178305000Y-70820000D03*
X180845000Y-70820000D03*
X183385000Y-70820000D03*
X185925000Y-70820000D03*
D22*
X107000000Y-65500000D03*
D23*
X107000000Y-80740000D03*
D22*
X116000000Y-41880000D03*
D23*
X116000000Y-57120000D03*
D12*
X174400000Y-78400000D03*
D13*
X169320000Y-78400000D03*
D20*
X47605000Y-44000000D03*
D21*
X50145000Y-44000000D03*
D19*
X90455000Y-85000000D03*
X95535000Y-85000000D03*
D20*
X147500000Y-81000000D03*
D26*
X142420000Y-79730000D03*
X147500000Y-78460000D03*
X142420000Y-77190000D03*
X147500000Y-75920000D03*
X142420000Y-74650000D03*
X147500000Y-73380000D03*
X142420000Y-72110000D03*
X147500000Y-70840000D03*
X142420000Y-69570000D03*
X147500000Y-68300000D03*
X142420000Y-67030000D03*
X147500000Y-65760000D03*
X142420000Y-64490000D03*
X147500000Y-63220000D03*
M02*
