%TF.GenerationSoftware,KiCad,Pcbnew,(6.0.11)*%
%TF.CreationDate,2023-02-08T22:05:09+00:00*%
%TF.ProjectId,StepperDemoPCB,53746570-7065-4724-9465-6d6f5043422e,rev?*%
%TF.SameCoordinates,Original*%
%TF.FileFunction,Drillmap*%
%TF.FilePolarity,Positive*%
%FSLAX45Y45*%
G04 Gerber Fmt 4.5, Leading zero omitted, Abs format (unit mm)*
G04 Created by KiCad (PCBNEW (6.0.11)) date 2023-02-08 22:05:09*
%MOMM*%
%LPD*%
G01*
G04 APERTURE LIST*
%ADD10C,0.100000*%
%ADD11C,0.200000*%
%ADD12C,0.070000*%
%ADD13C,0.080000*%
%ADD14C,0.090000*%
%ADD15C,0.152000*%
%ADD16C,0.160000*%
%ADD17C,0.410000*%
%ADD18C,0.430000*%
%ADD19C,2.400000*%
G04 APERTURE END LIST*
D10*
X3300000Y-3600000D02*
X20550000Y-3600000D01*
X20550000Y-3600000D02*
X20550000Y-10100000D01*
X20550000Y-10100000D02*
X3300000Y-10100000D01*
X3300000Y-10100000D02*
X3300000Y-3600000D01*
D11*
D12*
X13815000Y-8641000D02*
X13885000Y-8711000D01*
X13885000Y-8641000D02*
X13815000Y-8711000D01*
X13815000Y-9149000D02*
X13885000Y-9219000D01*
X13885000Y-9149000D02*
X13815000Y-9219000D01*
X14965000Y-6265000D02*
X15035000Y-6335000D01*
X15035000Y-6265000D02*
X14965000Y-6335000D01*
X15473000Y-6265000D02*
X15543000Y-6335000D01*
X15543000Y-6265000D02*
X15473000Y-6335000D01*
X16465000Y-7715000D02*
X16535000Y-7785000D01*
X16535000Y-7715000D02*
X16465000Y-7785000D01*
X16465000Y-8223000D02*
X16535000Y-8293000D01*
X16535000Y-8223000D02*
X16465000Y-8293000D01*
X16907000Y-7415000D02*
X16977000Y-7485000D01*
X16977000Y-7415000D02*
X16907000Y-7485000D01*
X17056000Y-8815000D02*
X17126000Y-8885000D01*
X17126000Y-8815000D02*
X17056000Y-8885000D01*
X17415000Y-7415000D02*
X17485000Y-7485000D01*
X17485000Y-7415000D02*
X17415000Y-7485000D01*
X17415000Y-7865000D02*
X17485000Y-7935000D01*
X17485000Y-7865000D02*
X17415000Y-7935000D01*
X17415000Y-8373000D02*
X17485000Y-8443000D01*
X17485000Y-8373000D02*
X17415000Y-8443000D01*
X17564000Y-8815000D02*
X17634000Y-8885000D01*
X17634000Y-8815000D02*
X17564000Y-8885000D01*
D13*
X9085500Y-8500000D02*
G75*
G03*
X9085500Y-8500000I-40000J0D01*
G01*
X9285500Y-9000000D02*
G75*
G03*
X9285500Y-9000000I-40000J0D01*
G01*
X9593500Y-8500000D02*
G75*
G03*
X9593500Y-8500000I-40000J0D01*
G01*
X9793500Y-9000000D02*
G75*
G03*
X9793500Y-9000000I-40000J0D01*
G01*
X13190000Y-5542000D02*
G75*
G03*
X13190000Y-5542000I-40000J0D01*
G01*
X13190000Y-6050000D02*
G75*
G03*
X13190000Y-6050000I-40000J0D01*
G01*
X13590000Y-5545500D02*
G75*
G03*
X13590000Y-5545500I-40000J0D01*
G01*
X13590000Y-6053500D02*
G75*
G03*
X13590000Y-6053500I-40000J0D01*
G01*
X16346500Y-6320000D02*
G75*
G03*
X16346500Y-6320000I-40000J0D01*
G01*
X16346500Y-7082000D02*
G75*
G03*
X16346500Y-7082000I-40000J0D01*
G01*
X16600500Y-6320000D02*
G75*
G03*
X16600500Y-6320000I-40000J0D01*
G01*
X16600500Y-7082000D02*
G75*
G03*
X16600500Y-7082000I-40000J0D01*
G01*
X16854500Y-6320000D02*
G75*
G03*
X16854500Y-6320000I-40000J0D01*
G01*
X16854500Y-7082000D02*
G75*
G03*
X16854500Y-7082000I-40000J0D01*
G01*
X17108500Y-6320000D02*
G75*
G03*
X17108500Y-6320000I-40000J0D01*
G01*
X17108500Y-7082000D02*
G75*
G03*
X17108500Y-7082000I-40000J0D01*
G01*
X17362500Y-6320000D02*
G75*
G03*
X17362500Y-6320000I-40000J0D01*
G01*
X17362500Y-7082000D02*
G75*
G03*
X17362500Y-7082000I-40000J0D01*
G01*
X17616500Y-6320000D02*
G75*
G03*
X17616500Y-6320000I-40000J0D01*
G01*
X17616500Y-7082000D02*
G75*
G03*
X17616500Y-7082000I-40000J0D01*
G01*
X17870500Y-6320000D02*
G75*
G03*
X17870500Y-6320000I-40000J0D01*
G01*
X17870500Y-7082000D02*
G75*
G03*
X17870500Y-7082000I-40000J0D01*
G01*
X18124500Y-6320000D02*
G75*
G03*
X18124500Y-6320000I-40000J0D01*
G01*
X18124500Y-7082000D02*
G75*
G03*
X18124500Y-7082000I-40000J0D01*
G01*
X18136000Y-7400000D02*
G75*
G03*
X18136000Y-7400000I-40000J0D01*
G01*
X18136000Y-8162000D02*
G75*
G03*
X18136000Y-8162000I-40000J0D01*
G01*
X18378500Y-6320000D02*
G75*
G03*
X18378500Y-6320000I-40000J0D01*
G01*
X18378500Y-7082000D02*
G75*
G03*
X18378500Y-7082000I-40000J0D01*
G01*
X18390000Y-7400000D02*
G75*
G03*
X18390000Y-7400000I-40000J0D01*
G01*
X18390000Y-8162000D02*
G75*
G03*
X18390000Y-8162000I-40000J0D01*
G01*
X18632500Y-6320000D02*
G75*
G03*
X18632500Y-6320000I-40000J0D01*
G01*
X18632500Y-7082000D02*
G75*
G03*
X18632500Y-7082000I-40000J0D01*
G01*
X18644000Y-7400000D02*
G75*
G03*
X18644000Y-7400000I-40000J0D01*
G01*
X18644000Y-8162000D02*
G75*
G03*
X18644000Y-8162000I-40000J0D01*
G01*
X18898000Y-7400000D02*
G75*
G03*
X18898000Y-7400000I-40000J0D01*
G01*
X18898000Y-8162000D02*
G75*
G03*
X18898000Y-8162000I-40000J0D01*
G01*
D14*
X4760500Y-4355000D02*
X4760500Y-4445000D01*
X4715500Y-4400000D02*
X4805500Y-4400000D01*
X4765500Y-9355000D02*
X4765500Y-9445000D01*
X4720500Y-9400000D02*
X4810500Y-9400000D01*
X5014500Y-4355000D02*
X5014500Y-4445000D01*
X4969500Y-4400000D02*
X5059500Y-4400000D01*
X5019500Y-9355000D02*
X5019500Y-9445000D01*
X4974500Y-9400000D02*
X5064500Y-9400000D01*
X8367000Y-9355000D02*
X8367000Y-9445000D01*
X8322000Y-9400000D02*
X8412000Y-9400000D01*
X8372500Y-4355000D02*
X8372500Y-4445000D01*
X8327500Y-4400000D02*
X8417500Y-4400000D01*
X8621000Y-9355000D02*
X8621000Y-9445000D01*
X8576000Y-9400000D02*
X8666000Y-9400000D01*
X8626500Y-4355000D02*
X8626500Y-4445000D01*
X8581500Y-4400000D02*
X8671500Y-4400000D01*
D10*
X10600356Y-6135356D02*
X10600356Y-6064644D01*
X10529644Y-6064644D01*
X10529644Y-6135356D01*
X10600356Y-6135356D01*
X10854356Y-6135356D02*
X10854356Y-6064644D01*
X10783644Y-6064644D01*
X10783644Y-6135356D01*
X10854356Y-6135356D01*
X11108356Y-6135356D02*
X11108356Y-6064644D01*
X11037644Y-6064644D01*
X11037644Y-6135356D01*
X11108356Y-6135356D01*
X11362356Y-6135356D02*
X11362356Y-6064644D01*
X11291644Y-6064644D01*
X11291644Y-6135356D01*
X11362356Y-6135356D01*
X11616356Y-6135356D02*
X11616356Y-6064644D01*
X11545644Y-6064644D01*
X11545644Y-6135356D01*
X11616356Y-6135356D01*
X11870356Y-6135356D02*
X11870356Y-6064644D01*
X11799644Y-6064644D01*
X11799644Y-6135356D01*
X11870356Y-6135356D01*
X14277356Y-6484356D02*
X14277356Y-6413644D01*
X14206644Y-6413644D01*
X14206644Y-6484356D01*
X14277356Y-6484356D01*
X14277356Y-6738356D02*
X14277356Y-6667644D01*
X14206644Y-6667644D01*
X14206644Y-6738356D01*
X14277356Y-6738356D01*
X14277356Y-6992356D02*
X14277356Y-6921644D01*
X14206644Y-6921644D01*
X14206644Y-6992356D01*
X14277356Y-6992356D01*
X14277356Y-7246356D02*
X14277356Y-7175644D01*
X14206644Y-7175644D01*
X14206644Y-7246356D01*
X14277356Y-7246356D01*
X14277356Y-7500356D02*
X14277356Y-7429644D01*
X14206644Y-7429644D01*
X14206644Y-7500356D01*
X14277356Y-7500356D01*
X14277356Y-7754356D02*
X14277356Y-7683644D01*
X14206644Y-7683644D01*
X14206644Y-7754356D01*
X14277356Y-7754356D01*
X14277356Y-8008356D02*
X14277356Y-7937644D01*
X14206644Y-7937644D01*
X14206644Y-8008356D01*
X14277356Y-8008356D01*
X14785356Y-6357356D02*
X14785356Y-6286644D01*
X14714644Y-6286644D01*
X14714644Y-6357356D01*
X14785356Y-6357356D01*
X14785356Y-6611356D02*
X14785356Y-6540644D01*
X14714644Y-6540644D01*
X14714644Y-6611356D01*
X14785356Y-6611356D01*
X14785356Y-6865356D02*
X14785356Y-6794644D01*
X14714644Y-6794644D01*
X14714644Y-6865356D01*
X14785356Y-6865356D01*
X14785356Y-7119356D02*
X14785356Y-7048644D01*
X14714644Y-7048644D01*
X14714644Y-7119356D01*
X14785356Y-7119356D01*
X14785356Y-7373356D02*
X14785356Y-7302644D01*
X14714644Y-7302644D01*
X14714644Y-7373356D01*
X14785356Y-7373356D01*
X14785356Y-7627356D02*
X14785356Y-7556644D01*
X14714644Y-7556644D01*
X14714644Y-7627356D01*
X14785356Y-7627356D01*
X14785356Y-7881356D02*
X14785356Y-7810644D01*
X14714644Y-7810644D01*
X14714644Y-7881356D01*
X14785356Y-7881356D01*
X14785356Y-8135356D02*
X14785356Y-8064644D01*
X14714644Y-8064644D01*
X14714644Y-8135356D01*
X14785356Y-8135356D01*
X18735356Y-8835356D02*
X18735356Y-8764644D01*
X18664644Y-8764644D01*
X18664644Y-8835356D01*
X18735356Y-8835356D01*
X19137856Y-6030356D02*
X19137856Y-5959644D01*
X19067144Y-5959644D01*
X19067144Y-6030356D01*
X19137856Y-6030356D01*
X19137856Y-6284356D02*
X19137856Y-6213644D01*
X19067144Y-6213644D01*
X19067144Y-6284356D01*
X19137856Y-6284356D01*
X19137856Y-6538356D02*
X19137856Y-6467644D01*
X19067144Y-6467644D01*
X19067144Y-6538356D01*
X19137856Y-6538356D01*
X19137856Y-6792356D02*
X19137856Y-6721644D01*
X19067144Y-6721644D01*
X19067144Y-6792356D01*
X19137856Y-6792356D01*
X19137856Y-7046356D02*
X19137856Y-6975644D01*
X19067144Y-6975644D01*
X19067144Y-7046356D01*
X19137856Y-7046356D01*
D15*
X10500000Y-8776000D02*
X10576000Y-8700000D01*
X10500000Y-8624000D01*
X10424000Y-8700000D01*
X10500000Y-8776000D01*
X11008000Y-8776000D02*
X11084000Y-8700000D01*
X11008000Y-8624000D01*
X10932000Y-8700000D01*
X11008000Y-8776000D01*
X11516000Y-8776000D02*
X11592000Y-8700000D01*
X11516000Y-8624000D01*
X11440000Y-8700000D01*
X11516000Y-8776000D01*
X12024000Y-8776000D02*
X12100000Y-8700000D01*
X12024000Y-8624000D01*
X11948000Y-8700000D01*
X12024000Y-8776000D01*
X14576000Y-8876000D02*
X14652000Y-8800000D01*
X14576000Y-8724000D01*
X14500000Y-8800000D01*
X14576000Y-8876000D01*
X15084000Y-8876000D02*
X15160000Y-8800000D01*
X15084000Y-8724000D01*
X15008000Y-8800000D01*
X15084000Y-8876000D01*
X15592000Y-8876000D02*
X15668000Y-8800000D01*
X15592000Y-8724000D01*
X15516000Y-8800000D01*
X15592000Y-8876000D01*
X16100000Y-8876000D02*
X16176000Y-8800000D01*
X16100000Y-8724000D01*
X16024000Y-8800000D01*
X16100000Y-8876000D01*
X19500000Y-7560000D02*
X19576000Y-7484000D01*
X19500000Y-7408000D01*
X19424000Y-7484000D01*
X19500000Y-7560000D01*
X19500000Y-8068000D02*
X19576000Y-7992000D01*
X19500000Y-7916000D01*
X19424000Y-7992000D01*
X19500000Y-8068000D01*
X19500000Y-8576000D02*
X19576000Y-8500000D01*
X19500000Y-8424000D01*
X19424000Y-8500000D01*
X19500000Y-8576000D01*
D16*
X9720000Y-4108000D02*
X9880000Y-4268000D01*
X9880000Y-4108000D02*
X9720000Y-4268000D01*
X9880000Y-4188000D02*
G75*
G03*
X9880000Y-4188000I-80000J0D01*
G01*
X9720000Y-5632000D02*
X9880000Y-5792000D01*
X9880000Y-5632000D02*
X9720000Y-5792000D01*
X9880000Y-5712000D02*
G75*
G03*
X9880000Y-5712000I-80000J0D01*
G01*
X9720000Y-6458000D02*
X9880000Y-6618000D01*
X9880000Y-6458000D02*
X9720000Y-6618000D01*
X9880000Y-6538000D02*
G75*
G03*
X9880000Y-6538000I-80000J0D01*
G01*
X9720000Y-7982000D02*
X9880000Y-8142000D01*
X9880000Y-7982000D02*
X9720000Y-8142000D01*
X9880000Y-8062000D02*
G75*
G03*
X9880000Y-8062000I-80000J0D01*
G01*
X10620000Y-4108000D02*
X10780000Y-4268000D01*
X10780000Y-4108000D02*
X10620000Y-4268000D01*
X10780000Y-4188000D02*
G75*
G03*
X10780000Y-4188000I-80000J0D01*
G01*
X10620000Y-5632000D02*
X10780000Y-5792000D01*
X10780000Y-5632000D02*
X10620000Y-5792000D01*
X10780000Y-5712000D02*
G75*
G03*
X10780000Y-5712000I-80000J0D01*
G01*
X10620000Y-6470000D02*
X10780000Y-6630000D01*
X10780000Y-6470000D02*
X10620000Y-6630000D01*
X10780000Y-6550000D02*
G75*
G03*
X10780000Y-6550000I-80000J0D01*
G01*
X10620000Y-7994000D02*
X10780000Y-8154000D01*
X10780000Y-7994000D02*
X10620000Y-8154000D01*
X10780000Y-8074000D02*
G75*
G03*
X10780000Y-8074000I-80000J0D01*
G01*
X11520000Y-4108000D02*
X11680000Y-4268000D01*
X11680000Y-4108000D02*
X11520000Y-4268000D01*
X11680000Y-4188000D02*
G75*
G03*
X11680000Y-4188000I-80000J0D01*
G01*
X11520000Y-5632000D02*
X11680000Y-5792000D01*
X11680000Y-5632000D02*
X11520000Y-5792000D01*
X11680000Y-5712000D02*
G75*
G03*
X11680000Y-5712000I-80000J0D01*
G01*
X11520000Y-6470000D02*
X11680000Y-6630000D01*
X11680000Y-6470000D02*
X11520000Y-6630000D01*
X11680000Y-6550000D02*
G75*
G03*
X11680000Y-6550000I-80000J0D01*
G01*
X11520000Y-7994000D02*
X11680000Y-8154000D01*
X11680000Y-7994000D02*
X11520000Y-8154000D01*
X11680000Y-8074000D02*
G75*
G03*
X11680000Y-8074000I-80000J0D01*
G01*
X12420000Y-4108000D02*
X12580000Y-4268000D01*
X12580000Y-4108000D02*
X12420000Y-4268000D01*
X12580000Y-4188000D02*
G75*
G03*
X12580000Y-4188000I-80000J0D01*
G01*
X12420000Y-5632000D02*
X12580000Y-5792000D01*
X12580000Y-5632000D02*
X12420000Y-5792000D01*
X12580000Y-5712000D02*
G75*
G03*
X12580000Y-5712000I-80000J0D01*
G01*
X12420000Y-6446000D02*
X12580000Y-6606000D01*
X12580000Y-6446000D02*
X12420000Y-6606000D01*
X12580000Y-6526000D02*
G75*
G03*
X12580000Y-6526000I-80000J0D01*
G01*
X12420000Y-7970000D02*
X12580000Y-8130000D01*
X12580000Y-7970000D02*
X12420000Y-8130000D01*
X12580000Y-8050000D02*
G75*
G03*
X12580000Y-8050000I-80000J0D01*
G01*
D17*
X4895000Y-5195000D02*
X5305000Y-5605000D01*
X5305000Y-5195000D02*
X4895000Y-5605000D01*
X5100000Y-5195000D02*
X5100000Y-5605000D01*
X4895000Y-5400000D02*
X5305000Y-5400000D01*
X4895000Y-8295000D02*
X5305000Y-8705000D01*
X5305000Y-8295000D02*
X4895000Y-8705000D01*
X5100000Y-8295000D02*
X5100000Y-8705000D01*
X4895000Y-8500000D02*
X5305000Y-8500000D01*
X7995000Y-5195000D02*
X8405000Y-5605000D01*
X8405000Y-5195000D02*
X7995000Y-5605000D01*
X8200000Y-5195000D02*
X8200000Y-5605000D01*
X7995000Y-5400000D02*
X8405000Y-5400000D01*
X7995000Y-8295000D02*
X8405000Y-8705000D01*
X8405000Y-8295000D02*
X7995000Y-8705000D01*
X8200000Y-8295000D02*
X8200000Y-8705000D01*
X7995000Y-8500000D02*
X8405000Y-8500000D01*
D18*
X3785000Y-4185000D02*
X4215000Y-4615000D01*
X4215000Y-4185000D02*
X3785000Y-4615000D01*
X4152029Y-4552029D02*
X4152029Y-4247971D01*
X3847971Y-4247971D01*
X3847971Y-4552029D01*
X4152029Y-4552029D01*
X3785000Y-9185000D02*
X4215000Y-9615000D01*
X4215000Y-9185000D02*
X3785000Y-9615000D01*
X4152029Y-9552029D02*
X4152029Y-9247971D01*
X3847971Y-9247971D01*
X3847971Y-9552029D01*
X4152029Y-9552029D01*
X19285000Y-4185000D02*
X19715000Y-4615000D01*
X19715000Y-4185000D02*
X19285000Y-4615000D01*
X19652029Y-4552029D02*
X19652029Y-4247971D01*
X19347971Y-4247971D01*
X19347971Y-4552029D01*
X19652029Y-4552029D01*
X19285000Y-9185000D02*
X19715000Y-9615000D01*
X19715000Y-9185000D02*
X19285000Y-9615000D01*
X19652029Y-9552029D02*
X19652029Y-9247971D01*
X19347971Y-9247971D01*
X19347971Y-9552029D01*
X19652029Y-9552029D01*
D19*
X5450000Y-5750000D02*
X7850000Y-8150000D01*
X7850000Y-5750000D02*
X5450000Y-8150000D01*
X6650000Y-8150000D02*
X7850000Y-6950000D01*
X6650000Y-5750000D01*
X5450000Y-6950000D01*
X6650000Y-8150000D01*
D11*
X3552619Y-10415476D02*
X3552619Y-10215476D01*
X3600238Y-10215476D01*
X3628809Y-10225000D01*
X3647857Y-10244048D01*
X3657381Y-10263095D01*
X3666905Y-10301190D01*
X3666905Y-10329762D01*
X3657381Y-10367857D01*
X3647857Y-10386905D01*
X3628809Y-10405952D01*
X3600238Y-10415476D01*
X3552619Y-10415476D01*
X3752619Y-10415476D02*
X3752619Y-10282143D01*
X3752619Y-10320238D02*
X3762143Y-10301190D01*
X3771667Y-10291667D01*
X3790714Y-10282143D01*
X3809762Y-10282143D01*
X3876428Y-10415476D02*
X3876428Y-10282143D01*
X3876428Y-10215476D02*
X3866905Y-10225000D01*
X3876428Y-10234524D01*
X3885952Y-10225000D01*
X3876428Y-10215476D01*
X3876428Y-10234524D01*
X4000238Y-10415476D02*
X3981190Y-10405952D01*
X3971667Y-10386905D01*
X3971667Y-10215476D01*
X4105000Y-10415476D02*
X4085952Y-10405952D01*
X4076428Y-10386905D01*
X4076428Y-10215476D01*
X4333571Y-10415476D02*
X4333571Y-10215476D01*
X4400238Y-10358333D01*
X4466905Y-10215476D01*
X4466905Y-10415476D01*
X4647857Y-10415476D02*
X4647857Y-10310714D01*
X4638333Y-10291667D01*
X4619286Y-10282143D01*
X4581190Y-10282143D01*
X4562143Y-10291667D01*
X4647857Y-10405952D02*
X4628810Y-10415476D01*
X4581190Y-10415476D01*
X4562143Y-10405952D01*
X4552619Y-10386905D01*
X4552619Y-10367857D01*
X4562143Y-10348810D01*
X4581190Y-10339286D01*
X4628810Y-10339286D01*
X4647857Y-10329762D01*
X4743095Y-10282143D02*
X4743095Y-10482143D01*
X4743095Y-10291667D02*
X4762143Y-10282143D01*
X4800238Y-10282143D01*
X4819286Y-10291667D01*
X4828810Y-10301190D01*
X4838333Y-10320238D01*
X4838333Y-10377381D01*
X4828810Y-10396429D01*
X4819286Y-10405952D01*
X4800238Y-10415476D01*
X4762143Y-10415476D01*
X4743095Y-10405952D01*
X4924048Y-10396429D02*
X4933571Y-10405952D01*
X4924048Y-10415476D01*
X4914524Y-10405952D01*
X4924048Y-10396429D01*
X4924048Y-10415476D01*
X4924048Y-10291667D02*
X4933571Y-10301190D01*
X4924048Y-10310714D01*
X4914524Y-10301190D01*
X4924048Y-10291667D01*
X4924048Y-10310714D01*
D12*
X3225000Y-10710000D02*
X3295000Y-10780000D01*
X3295000Y-10710000D02*
X3225000Y-10780000D01*
D11*
X3590714Y-10635476D02*
X3609762Y-10635476D01*
X3628809Y-10645000D01*
X3638333Y-10654524D01*
X3647857Y-10673571D01*
X3657381Y-10711667D01*
X3657381Y-10759286D01*
X3647857Y-10797381D01*
X3638333Y-10816429D01*
X3628809Y-10825952D01*
X3609762Y-10835476D01*
X3590714Y-10835476D01*
X3571667Y-10825952D01*
X3562143Y-10816429D01*
X3552619Y-10797381D01*
X3543095Y-10759286D01*
X3543095Y-10711667D01*
X3552619Y-10673571D01*
X3562143Y-10654524D01*
X3571667Y-10645000D01*
X3590714Y-10635476D01*
X3743095Y-10816429D02*
X3752619Y-10825952D01*
X3743095Y-10835476D01*
X3733571Y-10825952D01*
X3743095Y-10816429D01*
X3743095Y-10835476D01*
X3819286Y-10635476D02*
X3952619Y-10635476D01*
X3866905Y-10835476D01*
X4066905Y-10635476D02*
X4085952Y-10635476D01*
X4105000Y-10645000D01*
X4114524Y-10654524D01*
X4124048Y-10673571D01*
X4133571Y-10711667D01*
X4133571Y-10759286D01*
X4124048Y-10797381D01*
X4114524Y-10816429D01*
X4105000Y-10825952D01*
X4085952Y-10835476D01*
X4066905Y-10835476D01*
X4047857Y-10825952D01*
X4038333Y-10816429D01*
X4028809Y-10797381D01*
X4019286Y-10759286D01*
X4019286Y-10711667D01*
X4028809Y-10673571D01*
X4038333Y-10654524D01*
X4047857Y-10645000D01*
X4066905Y-10635476D01*
X4257381Y-10635476D02*
X4276429Y-10635476D01*
X4295476Y-10645000D01*
X4305000Y-10654524D01*
X4314524Y-10673571D01*
X4324048Y-10711667D01*
X4324048Y-10759286D01*
X4314524Y-10797381D01*
X4305000Y-10816429D01*
X4295476Y-10825952D01*
X4276429Y-10835476D01*
X4257381Y-10835476D01*
X4238333Y-10825952D01*
X4228810Y-10816429D01*
X4219286Y-10797381D01*
X4209762Y-10759286D01*
X4209762Y-10711667D01*
X4219286Y-10673571D01*
X4228810Y-10654524D01*
X4238333Y-10645000D01*
X4257381Y-10635476D01*
X4409762Y-10835476D02*
X4409762Y-10702143D01*
X4409762Y-10721190D02*
X4419286Y-10711667D01*
X4438333Y-10702143D01*
X4466905Y-10702143D01*
X4485952Y-10711667D01*
X4495476Y-10730714D01*
X4495476Y-10835476D01*
X4495476Y-10730714D02*
X4505000Y-10711667D01*
X4524048Y-10702143D01*
X4552619Y-10702143D01*
X4571667Y-10711667D01*
X4581190Y-10730714D01*
X4581190Y-10835476D01*
X4676429Y-10835476D02*
X4676429Y-10702143D01*
X4676429Y-10721190D02*
X4685952Y-10711667D01*
X4705000Y-10702143D01*
X4733571Y-10702143D01*
X4752619Y-10711667D01*
X4762143Y-10730714D01*
X4762143Y-10835476D01*
X4762143Y-10730714D02*
X4771667Y-10711667D01*
X4790714Y-10702143D01*
X4819286Y-10702143D01*
X4838333Y-10711667D01*
X4847857Y-10730714D01*
X4847857Y-10835476D01*
X5238333Y-10625952D02*
X5066905Y-10883095D01*
X5495476Y-10635476D02*
X5514524Y-10635476D01*
X5533571Y-10645000D01*
X5543095Y-10654524D01*
X5552619Y-10673571D01*
X5562143Y-10711667D01*
X5562143Y-10759286D01*
X5552619Y-10797381D01*
X5543095Y-10816429D01*
X5533571Y-10825952D01*
X5514524Y-10835476D01*
X5495476Y-10835476D01*
X5476429Y-10825952D01*
X5466905Y-10816429D01*
X5457381Y-10797381D01*
X5447857Y-10759286D01*
X5447857Y-10711667D01*
X5457381Y-10673571D01*
X5466905Y-10654524D01*
X5476429Y-10645000D01*
X5495476Y-10635476D01*
X5647857Y-10816429D02*
X5657381Y-10825952D01*
X5647857Y-10835476D01*
X5638333Y-10825952D01*
X5647857Y-10816429D01*
X5647857Y-10835476D01*
X5781190Y-10635476D02*
X5800238Y-10635476D01*
X5819286Y-10645000D01*
X5828809Y-10654524D01*
X5838333Y-10673571D01*
X5847857Y-10711667D01*
X5847857Y-10759286D01*
X5838333Y-10797381D01*
X5828809Y-10816429D01*
X5819286Y-10825952D01*
X5800238Y-10835476D01*
X5781190Y-10835476D01*
X5762143Y-10825952D01*
X5752619Y-10816429D01*
X5743095Y-10797381D01*
X5733571Y-10759286D01*
X5733571Y-10711667D01*
X5743095Y-10673571D01*
X5752619Y-10654524D01*
X5762143Y-10645000D01*
X5781190Y-10635476D01*
X5924048Y-10654524D02*
X5933571Y-10645000D01*
X5952619Y-10635476D01*
X6000238Y-10635476D01*
X6019286Y-10645000D01*
X6028809Y-10654524D01*
X6038333Y-10673571D01*
X6038333Y-10692619D01*
X6028809Y-10721190D01*
X5914524Y-10835476D01*
X6038333Y-10835476D01*
X6105000Y-10635476D02*
X6238333Y-10635476D01*
X6152619Y-10835476D01*
X6400238Y-10635476D02*
X6362143Y-10635476D01*
X6343095Y-10645000D01*
X6333571Y-10654524D01*
X6314524Y-10683095D01*
X6305000Y-10721190D01*
X6305000Y-10797381D01*
X6314524Y-10816429D01*
X6324048Y-10825952D01*
X6343095Y-10835476D01*
X6381190Y-10835476D01*
X6400238Y-10825952D01*
X6409762Y-10816429D01*
X6419286Y-10797381D01*
X6419286Y-10749762D01*
X6409762Y-10730714D01*
X6400238Y-10721190D01*
X6381190Y-10711667D01*
X6343095Y-10711667D01*
X6324048Y-10721190D01*
X6314524Y-10730714D01*
X6305000Y-10749762D01*
X6495476Y-10635476D02*
X6495476Y-10673571D01*
X6571667Y-10635476D02*
X6571667Y-10673571D01*
X6866905Y-10911667D02*
X6857381Y-10902143D01*
X6838333Y-10873571D01*
X6828809Y-10854524D01*
X6819286Y-10825952D01*
X6809762Y-10778333D01*
X6809762Y-10740238D01*
X6819286Y-10692619D01*
X6828809Y-10664048D01*
X6838333Y-10645000D01*
X6857381Y-10616429D01*
X6866905Y-10606905D01*
X7047857Y-10835476D02*
X6933571Y-10835476D01*
X6990714Y-10835476D02*
X6990714Y-10635476D01*
X6971667Y-10664048D01*
X6952619Y-10683095D01*
X6933571Y-10692619D01*
X7124048Y-10654524D02*
X7133571Y-10645000D01*
X7152619Y-10635476D01*
X7200238Y-10635476D01*
X7219286Y-10645000D01*
X7228809Y-10654524D01*
X7238333Y-10673571D01*
X7238333Y-10692619D01*
X7228809Y-10721190D01*
X7114524Y-10835476D01*
X7238333Y-10835476D01*
X7476428Y-10835476D02*
X7476428Y-10635476D01*
X7562143Y-10835476D02*
X7562143Y-10730714D01*
X7552619Y-10711667D01*
X7533571Y-10702143D01*
X7505000Y-10702143D01*
X7485952Y-10711667D01*
X7476428Y-10721190D01*
X7685952Y-10835476D02*
X7666905Y-10825952D01*
X7657381Y-10816429D01*
X7647857Y-10797381D01*
X7647857Y-10740238D01*
X7657381Y-10721190D01*
X7666905Y-10711667D01*
X7685952Y-10702143D01*
X7714524Y-10702143D01*
X7733571Y-10711667D01*
X7743095Y-10721190D01*
X7752619Y-10740238D01*
X7752619Y-10797381D01*
X7743095Y-10816429D01*
X7733571Y-10825952D01*
X7714524Y-10835476D01*
X7685952Y-10835476D01*
X7866905Y-10835476D02*
X7847857Y-10825952D01*
X7838333Y-10806905D01*
X7838333Y-10635476D01*
X8019286Y-10825952D02*
X8000238Y-10835476D01*
X7962143Y-10835476D01*
X7943095Y-10825952D01*
X7933571Y-10806905D01*
X7933571Y-10730714D01*
X7943095Y-10711667D01*
X7962143Y-10702143D01*
X8000238Y-10702143D01*
X8019286Y-10711667D01*
X8028809Y-10730714D01*
X8028809Y-10749762D01*
X7933571Y-10768810D01*
X8105000Y-10825952D02*
X8124048Y-10835476D01*
X8162143Y-10835476D01*
X8181190Y-10825952D01*
X8190714Y-10806905D01*
X8190714Y-10797381D01*
X8181190Y-10778333D01*
X8162143Y-10768810D01*
X8133571Y-10768810D01*
X8114524Y-10759286D01*
X8105000Y-10740238D01*
X8105000Y-10730714D01*
X8114524Y-10711667D01*
X8133571Y-10702143D01*
X8162143Y-10702143D01*
X8181190Y-10711667D01*
X8257381Y-10911667D02*
X8266905Y-10902143D01*
X8285952Y-10873571D01*
X8295476Y-10854524D01*
X8305000Y-10825952D01*
X8314524Y-10778333D01*
X8314524Y-10740238D01*
X8305000Y-10692619D01*
X8295476Y-10664048D01*
X8285952Y-10645000D01*
X8266905Y-10616429D01*
X8257381Y-10606905D01*
D13*
X3295000Y-11009000D02*
G75*
G03*
X3295000Y-11009000I-40000J0D01*
G01*
D11*
X3590714Y-10899476D02*
X3609762Y-10899476D01*
X3628809Y-10909000D01*
X3638333Y-10918524D01*
X3647857Y-10937571D01*
X3657381Y-10975667D01*
X3657381Y-11023286D01*
X3647857Y-11061381D01*
X3638333Y-11080429D01*
X3628809Y-11089952D01*
X3609762Y-11099476D01*
X3590714Y-11099476D01*
X3571667Y-11089952D01*
X3562143Y-11080429D01*
X3552619Y-11061381D01*
X3543095Y-11023286D01*
X3543095Y-10975667D01*
X3552619Y-10937571D01*
X3562143Y-10918524D01*
X3571667Y-10909000D01*
X3590714Y-10899476D01*
X3743095Y-11080429D02*
X3752619Y-11089952D01*
X3743095Y-11099476D01*
X3733571Y-11089952D01*
X3743095Y-11080429D01*
X3743095Y-11099476D01*
X3866905Y-10985190D02*
X3847857Y-10975667D01*
X3838333Y-10966143D01*
X3828809Y-10947095D01*
X3828809Y-10937571D01*
X3838333Y-10918524D01*
X3847857Y-10909000D01*
X3866905Y-10899476D01*
X3905000Y-10899476D01*
X3924048Y-10909000D01*
X3933571Y-10918524D01*
X3943095Y-10937571D01*
X3943095Y-10947095D01*
X3933571Y-10966143D01*
X3924048Y-10975667D01*
X3905000Y-10985190D01*
X3866905Y-10985190D01*
X3847857Y-10994714D01*
X3838333Y-11004238D01*
X3828809Y-11023286D01*
X3828809Y-11061381D01*
X3838333Y-11080429D01*
X3847857Y-11089952D01*
X3866905Y-11099476D01*
X3905000Y-11099476D01*
X3924048Y-11089952D01*
X3933571Y-11080429D01*
X3943095Y-11061381D01*
X3943095Y-11023286D01*
X3933571Y-11004238D01*
X3924048Y-10994714D01*
X3905000Y-10985190D01*
X4066905Y-10899476D02*
X4085952Y-10899476D01*
X4105000Y-10909000D01*
X4114524Y-10918524D01*
X4124048Y-10937571D01*
X4133571Y-10975667D01*
X4133571Y-11023286D01*
X4124048Y-11061381D01*
X4114524Y-11080429D01*
X4105000Y-11089952D01*
X4085952Y-11099476D01*
X4066905Y-11099476D01*
X4047857Y-11089952D01*
X4038333Y-11080429D01*
X4028809Y-11061381D01*
X4019286Y-11023286D01*
X4019286Y-10975667D01*
X4028809Y-10937571D01*
X4038333Y-10918524D01*
X4047857Y-10909000D01*
X4066905Y-10899476D01*
X4257381Y-10899476D02*
X4276429Y-10899476D01*
X4295476Y-10909000D01*
X4305000Y-10918524D01*
X4314524Y-10937571D01*
X4324048Y-10975667D01*
X4324048Y-11023286D01*
X4314524Y-11061381D01*
X4305000Y-11080429D01*
X4295476Y-11089952D01*
X4276429Y-11099476D01*
X4257381Y-11099476D01*
X4238333Y-11089952D01*
X4228810Y-11080429D01*
X4219286Y-11061381D01*
X4209762Y-11023286D01*
X4209762Y-10975667D01*
X4219286Y-10937571D01*
X4228810Y-10918524D01*
X4238333Y-10909000D01*
X4257381Y-10899476D01*
X4409762Y-11099476D02*
X4409762Y-10966143D01*
X4409762Y-10985190D02*
X4419286Y-10975667D01*
X4438333Y-10966143D01*
X4466905Y-10966143D01*
X4485952Y-10975667D01*
X4495476Y-10994714D01*
X4495476Y-11099476D01*
X4495476Y-10994714D02*
X4505000Y-10975667D01*
X4524048Y-10966143D01*
X4552619Y-10966143D01*
X4571667Y-10975667D01*
X4581190Y-10994714D01*
X4581190Y-11099476D01*
X4676429Y-11099476D02*
X4676429Y-10966143D01*
X4676429Y-10985190D02*
X4685952Y-10975667D01*
X4705000Y-10966143D01*
X4733571Y-10966143D01*
X4752619Y-10975667D01*
X4762143Y-10994714D01*
X4762143Y-11099476D01*
X4762143Y-10994714D02*
X4771667Y-10975667D01*
X4790714Y-10966143D01*
X4819286Y-10966143D01*
X4838333Y-10975667D01*
X4847857Y-10994714D01*
X4847857Y-11099476D01*
X5238333Y-10889952D02*
X5066905Y-11147095D01*
X5495476Y-10899476D02*
X5514524Y-10899476D01*
X5533571Y-10909000D01*
X5543095Y-10918524D01*
X5552619Y-10937571D01*
X5562143Y-10975667D01*
X5562143Y-11023286D01*
X5552619Y-11061381D01*
X5543095Y-11080429D01*
X5533571Y-11089952D01*
X5514524Y-11099476D01*
X5495476Y-11099476D01*
X5476429Y-11089952D01*
X5466905Y-11080429D01*
X5457381Y-11061381D01*
X5447857Y-11023286D01*
X5447857Y-10975667D01*
X5457381Y-10937571D01*
X5466905Y-10918524D01*
X5476429Y-10909000D01*
X5495476Y-10899476D01*
X5647857Y-11080429D02*
X5657381Y-11089952D01*
X5647857Y-11099476D01*
X5638333Y-11089952D01*
X5647857Y-11080429D01*
X5647857Y-11099476D01*
X5781190Y-10899476D02*
X5800238Y-10899476D01*
X5819286Y-10909000D01*
X5828809Y-10918524D01*
X5838333Y-10937571D01*
X5847857Y-10975667D01*
X5847857Y-11023286D01*
X5838333Y-11061381D01*
X5828809Y-11080429D01*
X5819286Y-11089952D01*
X5800238Y-11099476D01*
X5781190Y-11099476D01*
X5762143Y-11089952D01*
X5752619Y-11080429D01*
X5743095Y-11061381D01*
X5733571Y-11023286D01*
X5733571Y-10975667D01*
X5743095Y-10937571D01*
X5752619Y-10918524D01*
X5762143Y-10909000D01*
X5781190Y-10899476D01*
X5914524Y-10899476D02*
X6038333Y-10899476D01*
X5971667Y-10975667D01*
X6000238Y-10975667D01*
X6019286Y-10985190D01*
X6028809Y-10994714D01*
X6038333Y-11013762D01*
X6038333Y-11061381D01*
X6028809Y-11080429D01*
X6019286Y-11089952D01*
X6000238Y-11099476D01*
X5943095Y-11099476D01*
X5924048Y-11089952D01*
X5914524Y-11080429D01*
X6228809Y-11099476D02*
X6114524Y-11099476D01*
X6171667Y-11099476D02*
X6171667Y-10899476D01*
X6152619Y-10928048D01*
X6133571Y-10947095D01*
X6114524Y-10956619D01*
X6409762Y-10899476D02*
X6314524Y-10899476D01*
X6305000Y-10994714D01*
X6314524Y-10985190D01*
X6333571Y-10975667D01*
X6381190Y-10975667D01*
X6400238Y-10985190D01*
X6409762Y-10994714D01*
X6419286Y-11013762D01*
X6419286Y-11061381D01*
X6409762Y-11080429D01*
X6400238Y-11089952D01*
X6381190Y-11099476D01*
X6333571Y-11099476D01*
X6314524Y-11089952D01*
X6305000Y-11080429D01*
X6495476Y-10899476D02*
X6495476Y-10937571D01*
X6571667Y-10899476D02*
X6571667Y-10937571D01*
X6866905Y-11175667D02*
X6857381Y-11166143D01*
X6838333Y-11137571D01*
X6828809Y-11118524D01*
X6819286Y-11089952D01*
X6809762Y-11042333D01*
X6809762Y-11004238D01*
X6819286Y-10956619D01*
X6828809Y-10928048D01*
X6838333Y-10909000D01*
X6857381Y-10880429D01*
X6866905Y-10870905D01*
X6924048Y-10899476D02*
X7047857Y-10899476D01*
X6981190Y-10975667D01*
X7009762Y-10975667D01*
X7028809Y-10985190D01*
X7038333Y-10994714D01*
X7047857Y-11013762D01*
X7047857Y-11061381D01*
X7038333Y-11080429D01*
X7028809Y-11089952D01*
X7009762Y-11099476D01*
X6952619Y-11099476D01*
X6933571Y-11089952D01*
X6924048Y-11080429D01*
X7219286Y-10899476D02*
X7181190Y-10899476D01*
X7162143Y-10909000D01*
X7152619Y-10918524D01*
X7133571Y-10947095D01*
X7124048Y-10985190D01*
X7124048Y-11061381D01*
X7133571Y-11080429D01*
X7143095Y-11089952D01*
X7162143Y-11099476D01*
X7200238Y-11099476D01*
X7219286Y-11089952D01*
X7228809Y-11080429D01*
X7238333Y-11061381D01*
X7238333Y-11013762D01*
X7228809Y-10994714D01*
X7219286Y-10985190D01*
X7200238Y-10975667D01*
X7162143Y-10975667D01*
X7143095Y-10985190D01*
X7133571Y-10994714D01*
X7124048Y-11013762D01*
X7476428Y-11099476D02*
X7476428Y-10899476D01*
X7562143Y-11099476D02*
X7562143Y-10994714D01*
X7552619Y-10975667D01*
X7533571Y-10966143D01*
X7505000Y-10966143D01*
X7485952Y-10975667D01*
X7476428Y-10985190D01*
X7685952Y-11099476D02*
X7666905Y-11089952D01*
X7657381Y-11080429D01*
X7647857Y-11061381D01*
X7647857Y-11004238D01*
X7657381Y-10985190D01*
X7666905Y-10975667D01*
X7685952Y-10966143D01*
X7714524Y-10966143D01*
X7733571Y-10975667D01*
X7743095Y-10985190D01*
X7752619Y-11004238D01*
X7752619Y-11061381D01*
X7743095Y-11080429D01*
X7733571Y-11089952D01*
X7714524Y-11099476D01*
X7685952Y-11099476D01*
X7866905Y-11099476D02*
X7847857Y-11089952D01*
X7838333Y-11070905D01*
X7838333Y-10899476D01*
X8019286Y-11089952D02*
X8000238Y-11099476D01*
X7962143Y-11099476D01*
X7943095Y-11089952D01*
X7933571Y-11070905D01*
X7933571Y-10994714D01*
X7943095Y-10975667D01*
X7962143Y-10966143D01*
X8000238Y-10966143D01*
X8019286Y-10975667D01*
X8028809Y-10994714D01*
X8028809Y-11013762D01*
X7933571Y-11032810D01*
X8105000Y-11089952D02*
X8124048Y-11099476D01*
X8162143Y-11099476D01*
X8181190Y-11089952D01*
X8190714Y-11070905D01*
X8190714Y-11061381D01*
X8181190Y-11042333D01*
X8162143Y-11032810D01*
X8133571Y-11032810D01*
X8114524Y-11023286D01*
X8105000Y-11004238D01*
X8105000Y-10994714D01*
X8114524Y-10975667D01*
X8133571Y-10966143D01*
X8162143Y-10966143D01*
X8181190Y-10975667D01*
X8257381Y-11175667D02*
X8266905Y-11166143D01*
X8285952Y-11137571D01*
X8295476Y-11118524D01*
X8305000Y-11089952D01*
X8314524Y-11042333D01*
X8314524Y-11004238D01*
X8305000Y-10956619D01*
X8295476Y-10928048D01*
X8285952Y-10909000D01*
X8266905Y-10880429D01*
X8257381Y-10870905D01*
D14*
X3250000Y-11228000D02*
X3250000Y-11318000D01*
X3205000Y-11273000D02*
X3295000Y-11273000D01*
D11*
X3590714Y-11163476D02*
X3609762Y-11163476D01*
X3628809Y-11173000D01*
X3638333Y-11182524D01*
X3647857Y-11201571D01*
X3657381Y-11239667D01*
X3657381Y-11287286D01*
X3647857Y-11325381D01*
X3638333Y-11344428D01*
X3628809Y-11353952D01*
X3609762Y-11363476D01*
X3590714Y-11363476D01*
X3571667Y-11353952D01*
X3562143Y-11344428D01*
X3552619Y-11325381D01*
X3543095Y-11287286D01*
X3543095Y-11239667D01*
X3552619Y-11201571D01*
X3562143Y-11182524D01*
X3571667Y-11173000D01*
X3590714Y-11163476D01*
X3743095Y-11344428D02*
X3752619Y-11353952D01*
X3743095Y-11363476D01*
X3733571Y-11353952D01*
X3743095Y-11344428D01*
X3743095Y-11363476D01*
X3847857Y-11363476D02*
X3885952Y-11363476D01*
X3905000Y-11353952D01*
X3914524Y-11344428D01*
X3933571Y-11315857D01*
X3943095Y-11277762D01*
X3943095Y-11201571D01*
X3933571Y-11182524D01*
X3924048Y-11173000D01*
X3905000Y-11163476D01*
X3866905Y-11163476D01*
X3847857Y-11173000D01*
X3838333Y-11182524D01*
X3828809Y-11201571D01*
X3828809Y-11249190D01*
X3838333Y-11268238D01*
X3847857Y-11277762D01*
X3866905Y-11287286D01*
X3905000Y-11287286D01*
X3924048Y-11277762D01*
X3933571Y-11268238D01*
X3943095Y-11249190D01*
X4066905Y-11163476D02*
X4085952Y-11163476D01*
X4105000Y-11173000D01*
X4114524Y-11182524D01*
X4124048Y-11201571D01*
X4133571Y-11239667D01*
X4133571Y-11287286D01*
X4124048Y-11325381D01*
X4114524Y-11344428D01*
X4105000Y-11353952D01*
X4085952Y-11363476D01*
X4066905Y-11363476D01*
X4047857Y-11353952D01*
X4038333Y-11344428D01*
X4028809Y-11325381D01*
X4019286Y-11287286D01*
X4019286Y-11239667D01*
X4028809Y-11201571D01*
X4038333Y-11182524D01*
X4047857Y-11173000D01*
X4066905Y-11163476D01*
X4257381Y-11163476D02*
X4276429Y-11163476D01*
X4295476Y-11173000D01*
X4305000Y-11182524D01*
X4314524Y-11201571D01*
X4324048Y-11239667D01*
X4324048Y-11287286D01*
X4314524Y-11325381D01*
X4305000Y-11344428D01*
X4295476Y-11353952D01*
X4276429Y-11363476D01*
X4257381Y-11363476D01*
X4238333Y-11353952D01*
X4228810Y-11344428D01*
X4219286Y-11325381D01*
X4209762Y-11287286D01*
X4209762Y-11239667D01*
X4219286Y-11201571D01*
X4228810Y-11182524D01*
X4238333Y-11173000D01*
X4257381Y-11163476D01*
X4409762Y-11363476D02*
X4409762Y-11230143D01*
X4409762Y-11249190D02*
X4419286Y-11239667D01*
X4438333Y-11230143D01*
X4466905Y-11230143D01*
X4485952Y-11239667D01*
X4495476Y-11258714D01*
X4495476Y-11363476D01*
X4495476Y-11258714D02*
X4505000Y-11239667D01*
X4524048Y-11230143D01*
X4552619Y-11230143D01*
X4571667Y-11239667D01*
X4581190Y-11258714D01*
X4581190Y-11363476D01*
X4676429Y-11363476D02*
X4676429Y-11230143D01*
X4676429Y-11249190D02*
X4685952Y-11239667D01*
X4705000Y-11230143D01*
X4733571Y-11230143D01*
X4752619Y-11239667D01*
X4762143Y-11258714D01*
X4762143Y-11363476D01*
X4762143Y-11258714D02*
X4771667Y-11239667D01*
X4790714Y-11230143D01*
X4819286Y-11230143D01*
X4838333Y-11239667D01*
X4847857Y-11258714D01*
X4847857Y-11363476D01*
X5238333Y-11153952D02*
X5066905Y-11411095D01*
X5495476Y-11163476D02*
X5514524Y-11163476D01*
X5533571Y-11173000D01*
X5543095Y-11182524D01*
X5552619Y-11201571D01*
X5562143Y-11239667D01*
X5562143Y-11287286D01*
X5552619Y-11325381D01*
X5543095Y-11344428D01*
X5533571Y-11353952D01*
X5514524Y-11363476D01*
X5495476Y-11363476D01*
X5476429Y-11353952D01*
X5466905Y-11344428D01*
X5457381Y-11325381D01*
X5447857Y-11287286D01*
X5447857Y-11239667D01*
X5457381Y-11201571D01*
X5466905Y-11182524D01*
X5476429Y-11173000D01*
X5495476Y-11163476D01*
X5647857Y-11344428D02*
X5657381Y-11353952D01*
X5647857Y-11363476D01*
X5638333Y-11353952D01*
X5647857Y-11344428D01*
X5647857Y-11363476D01*
X5781190Y-11163476D02*
X5800238Y-11163476D01*
X5819286Y-11173000D01*
X5828809Y-11182524D01*
X5838333Y-11201571D01*
X5847857Y-11239667D01*
X5847857Y-11287286D01*
X5838333Y-11325381D01*
X5828809Y-11344428D01*
X5819286Y-11353952D01*
X5800238Y-11363476D01*
X5781190Y-11363476D01*
X5762143Y-11353952D01*
X5752619Y-11344428D01*
X5743095Y-11325381D01*
X5733571Y-11287286D01*
X5733571Y-11239667D01*
X5743095Y-11201571D01*
X5752619Y-11182524D01*
X5762143Y-11173000D01*
X5781190Y-11163476D01*
X5914524Y-11163476D02*
X6038333Y-11163476D01*
X5971667Y-11239667D01*
X6000238Y-11239667D01*
X6019286Y-11249190D01*
X6028809Y-11258714D01*
X6038333Y-11277762D01*
X6038333Y-11325381D01*
X6028809Y-11344428D01*
X6019286Y-11353952D01*
X6000238Y-11363476D01*
X5943095Y-11363476D01*
X5924048Y-11353952D01*
X5914524Y-11344428D01*
X6219286Y-11163476D02*
X6124048Y-11163476D01*
X6114524Y-11258714D01*
X6124048Y-11249190D01*
X6143095Y-11239667D01*
X6190714Y-11239667D01*
X6209762Y-11249190D01*
X6219286Y-11258714D01*
X6228809Y-11277762D01*
X6228809Y-11325381D01*
X6219286Y-11344428D01*
X6209762Y-11353952D01*
X6190714Y-11363476D01*
X6143095Y-11363476D01*
X6124048Y-11353952D01*
X6114524Y-11344428D01*
X6400238Y-11230143D02*
X6400238Y-11363476D01*
X6352619Y-11153952D02*
X6305000Y-11296809D01*
X6428809Y-11296809D01*
X6495476Y-11163476D02*
X6495476Y-11201571D01*
X6571667Y-11163476D02*
X6571667Y-11201571D01*
X6866905Y-11439667D02*
X6857381Y-11430143D01*
X6838333Y-11401571D01*
X6828809Y-11382524D01*
X6819286Y-11353952D01*
X6809762Y-11306333D01*
X6809762Y-11268238D01*
X6819286Y-11220619D01*
X6828809Y-11192048D01*
X6838333Y-11173000D01*
X6857381Y-11144429D01*
X6866905Y-11134905D01*
X6971667Y-11249190D02*
X6952619Y-11239667D01*
X6943095Y-11230143D01*
X6933571Y-11211095D01*
X6933571Y-11201571D01*
X6943095Y-11182524D01*
X6952619Y-11173000D01*
X6971667Y-11163476D01*
X7009762Y-11163476D01*
X7028809Y-11173000D01*
X7038333Y-11182524D01*
X7047857Y-11201571D01*
X7047857Y-11211095D01*
X7038333Y-11230143D01*
X7028809Y-11239667D01*
X7009762Y-11249190D01*
X6971667Y-11249190D01*
X6952619Y-11258714D01*
X6943095Y-11268238D01*
X6933571Y-11287286D01*
X6933571Y-11325381D01*
X6943095Y-11344428D01*
X6952619Y-11353952D01*
X6971667Y-11363476D01*
X7009762Y-11363476D01*
X7028809Y-11353952D01*
X7038333Y-11344428D01*
X7047857Y-11325381D01*
X7047857Y-11287286D01*
X7038333Y-11268238D01*
X7028809Y-11258714D01*
X7009762Y-11249190D01*
X7285952Y-11363476D02*
X7285952Y-11163476D01*
X7371667Y-11363476D02*
X7371667Y-11258714D01*
X7362143Y-11239667D01*
X7343095Y-11230143D01*
X7314524Y-11230143D01*
X7295476Y-11239667D01*
X7285952Y-11249190D01*
X7495476Y-11363476D02*
X7476428Y-11353952D01*
X7466905Y-11344428D01*
X7457381Y-11325381D01*
X7457381Y-11268238D01*
X7466905Y-11249190D01*
X7476428Y-11239667D01*
X7495476Y-11230143D01*
X7524048Y-11230143D01*
X7543095Y-11239667D01*
X7552619Y-11249190D01*
X7562143Y-11268238D01*
X7562143Y-11325381D01*
X7552619Y-11344428D01*
X7543095Y-11353952D01*
X7524048Y-11363476D01*
X7495476Y-11363476D01*
X7676428Y-11363476D02*
X7657381Y-11353952D01*
X7647857Y-11334905D01*
X7647857Y-11163476D01*
X7828809Y-11353952D02*
X7809762Y-11363476D01*
X7771667Y-11363476D01*
X7752619Y-11353952D01*
X7743095Y-11334905D01*
X7743095Y-11258714D01*
X7752619Y-11239667D01*
X7771667Y-11230143D01*
X7809762Y-11230143D01*
X7828809Y-11239667D01*
X7838333Y-11258714D01*
X7838333Y-11277762D01*
X7743095Y-11296809D01*
X7914524Y-11353952D02*
X7933571Y-11363476D01*
X7971667Y-11363476D01*
X7990714Y-11353952D01*
X8000238Y-11334905D01*
X8000238Y-11325381D01*
X7990714Y-11306333D01*
X7971667Y-11296809D01*
X7943095Y-11296809D01*
X7924048Y-11287286D01*
X7914524Y-11268238D01*
X7914524Y-11258714D01*
X7924048Y-11239667D01*
X7943095Y-11230143D01*
X7971667Y-11230143D01*
X7990714Y-11239667D01*
X8066905Y-11439667D02*
X8076428Y-11430143D01*
X8095476Y-11401571D01*
X8105000Y-11382524D01*
X8114524Y-11353952D01*
X8124048Y-11306333D01*
X8124048Y-11268238D01*
X8114524Y-11220619D01*
X8105000Y-11192048D01*
X8095476Y-11173000D01*
X8076428Y-11144429D01*
X8066905Y-11134905D01*
D10*
X3280356Y-11572356D02*
X3280356Y-11501644D01*
X3209644Y-11501644D01*
X3209644Y-11572356D01*
X3280356Y-11572356D01*
D11*
X3657381Y-11627476D02*
X3543095Y-11627476D01*
X3600238Y-11627476D02*
X3600238Y-11427476D01*
X3581190Y-11456048D01*
X3562143Y-11475095D01*
X3543095Y-11484619D01*
X3743095Y-11608428D02*
X3752619Y-11617952D01*
X3743095Y-11627476D01*
X3733571Y-11617952D01*
X3743095Y-11608428D01*
X3743095Y-11627476D01*
X3876428Y-11427476D02*
X3895476Y-11427476D01*
X3914524Y-11437000D01*
X3924048Y-11446524D01*
X3933571Y-11465571D01*
X3943095Y-11503667D01*
X3943095Y-11551286D01*
X3933571Y-11589381D01*
X3924048Y-11608428D01*
X3914524Y-11617952D01*
X3895476Y-11627476D01*
X3876428Y-11627476D01*
X3857381Y-11617952D01*
X3847857Y-11608428D01*
X3838333Y-11589381D01*
X3828809Y-11551286D01*
X3828809Y-11503667D01*
X3838333Y-11465571D01*
X3847857Y-11446524D01*
X3857381Y-11437000D01*
X3876428Y-11427476D01*
X4066905Y-11427476D02*
X4085952Y-11427476D01*
X4105000Y-11437000D01*
X4114524Y-11446524D01*
X4124048Y-11465571D01*
X4133571Y-11503667D01*
X4133571Y-11551286D01*
X4124048Y-11589381D01*
X4114524Y-11608428D01*
X4105000Y-11617952D01*
X4085952Y-11627476D01*
X4066905Y-11627476D01*
X4047857Y-11617952D01*
X4038333Y-11608428D01*
X4028809Y-11589381D01*
X4019286Y-11551286D01*
X4019286Y-11503667D01*
X4028809Y-11465571D01*
X4038333Y-11446524D01*
X4047857Y-11437000D01*
X4066905Y-11427476D01*
X4257381Y-11427476D02*
X4276429Y-11427476D01*
X4295476Y-11437000D01*
X4305000Y-11446524D01*
X4314524Y-11465571D01*
X4324048Y-11503667D01*
X4324048Y-11551286D01*
X4314524Y-11589381D01*
X4305000Y-11608428D01*
X4295476Y-11617952D01*
X4276429Y-11627476D01*
X4257381Y-11627476D01*
X4238333Y-11617952D01*
X4228810Y-11608428D01*
X4219286Y-11589381D01*
X4209762Y-11551286D01*
X4209762Y-11503667D01*
X4219286Y-11465571D01*
X4228810Y-11446524D01*
X4238333Y-11437000D01*
X4257381Y-11427476D01*
X4409762Y-11627476D02*
X4409762Y-11494143D01*
X4409762Y-11513190D02*
X4419286Y-11503667D01*
X4438333Y-11494143D01*
X4466905Y-11494143D01*
X4485952Y-11503667D01*
X4495476Y-11522714D01*
X4495476Y-11627476D01*
X4495476Y-11522714D02*
X4505000Y-11503667D01*
X4524048Y-11494143D01*
X4552619Y-11494143D01*
X4571667Y-11503667D01*
X4581190Y-11522714D01*
X4581190Y-11627476D01*
X4676429Y-11627476D02*
X4676429Y-11494143D01*
X4676429Y-11513190D02*
X4685952Y-11503667D01*
X4705000Y-11494143D01*
X4733571Y-11494143D01*
X4752619Y-11503667D01*
X4762143Y-11522714D01*
X4762143Y-11627476D01*
X4762143Y-11522714D02*
X4771667Y-11503667D01*
X4790714Y-11494143D01*
X4819286Y-11494143D01*
X4838333Y-11503667D01*
X4847857Y-11522714D01*
X4847857Y-11627476D01*
X5238333Y-11417952D02*
X5066905Y-11675095D01*
X5495476Y-11427476D02*
X5514524Y-11427476D01*
X5533571Y-11437000D01*
X5543095Y-11446524D01*
X5552619Y-11465571D01*
X5562143Y-11503667D01*
X5562143Y-11551286D01*
X5552619Y-11589381D01*
X5543095Y-11608428D01*
X5533571Y-11617952D01*
X5514524Y-11627476D01*
X5495476Y-11627476D01*
X5476429Y-11617952D01*
X5466905Y-11608428D01*
X5457381Y-11589381D01*
X5447857Y-11551286D01*
X5447857Y-11503667D01*
X5457381Y-11465571D01*
X5466905Y-11446524D01*
X5476429Y-11437000D01*
X5495476Y-11427476D01*
X5647857Y-11608428D02*
X5657381Y-11617952D01*
X5647857Y-11627476D01*
X5638333Y-11617952D01*
X5647857Y-11608428D01*
X5647857Y-11627476D01*
X5781190Y-11427476D02*
X5800238Y-11427476D01*
X5819286Y-11437000D01*
X5828809Y-11446524D01*
X5838333Y-11465571D01*
X5847857Y-11503667D01*
X5847857Y-11551286D01*
X5838333Y-11589381D01*
X5828809Y-11608428D01*
X5819286Y-11617952D01*
X5800238Y-11627476D01*
X5781190Y-11627476D01*
X5762143Y-11617952D01*
X5752619Y-11608428D01*
X5743095Y-11589381D01*
X5733571Y-11551286D01*
X5733571Y-11503667D01*
X5743095Y-11465571D01*
X5752619Y-11446524D01*
X5762143Y-11437000D01*
X5781190Y-11427476D01*
X5914524Y-11427476D02*
X6038333Y-11427476D01*
X5971667Y-11503667D01*
X6000238Y-11503667D01*
X6019286Y-11513190D01*
X6028809Y-11522714D01*
X6038333Y-11541762D01*
X6038333Y-11589381D01*
X6028809Y-11608428D01*
X6019286Y-11617952D01*
X6000238Y-11627476D01*
X5943095Y-11627476D01*
X5924048Y-11617952D01*
X5914524Y-11608428D01*
X6133571Y-11627476D02*
X6171667Y-11627476D01*
X6190714Y-11617952D01*
X6200238Y-11608428D01*
X6219286Y-11579857D01*
X6228809Y-11541762D01*
X6228809Y-11465571D01*
X6219286Y-11446524D01*
X6209762Y-11437000D01*
X6190714Y-11427476D01*
X6152619Y-11427476D01*
X6133571Y-11437000D01*
X6124048Y-11446524D01*
X6114524Y-11465571D01*
X6114524Y-11513190D01*
X6124048Y-11532238D01*
X6133571Y-11541762D01*
X6152619Y-11551286D01*
X6190714Y-11551286D01*
X6209762Y-11541762D01*
X6219286Y-11532238D01*
X6228809Y-11513190D01*
X6400238Y-11494143D02*
X6400238Y-11627476D01*
X6352619Y-11417952D02*
X6305000Y-11560809D01*
X6428809Y-11560809D01*
X6495476Y-11427476D02*
X6495476Y-11465571D01*
X6571667Y-11427476D02*
X6571667Y-11465571D01*
X6866905Y-11703667D02*
X6857381Y-11694143D01*
X6838333Y-11665571D01*
X6828809Y-11646524D01*
X6819286Y-11617952D01*
X6809762Y-11570333D01*
X6809762Y-11532238D01*
X6819286Y-11484619D01*
X6828809Y-11456048D01*
X6838333Y-11437000D01*
X6857381Y-11408428D01*
X6866905Y-11398905D01*
X6933571Y-11446524D02*
X6943095Y-11437000D01*
X6962143Y-11427476D01*
X7009762Y-11427476D01*
X7028809Y-11437000D01*
X7038333Y-11446524D01*
X7047857Y-11465571D01*
X7047857Y-11484619D01*
X7038333Y-11513190D01*
X6924048Y-11627476D01*
X7047857Y-11627476D01*
X7114524Y-11427476D02*
X7247857Y-11427476D01*
X7162143Y-11627476D01*
X7476428Y-11627476D02*
X7476428Y-11427476D01*
X7562143Y-11627476D02*
X7562143Y-11522714D01*
X7552619Y-11503667D01*
X7533571Y-11494143D01*
X7505000Y-11494143D01*
X7485952Y-11503667D01*
X7476428Y-11513190D01*
X7685952Y-11627476D02*
X7666905Y-11617952D01*
X7657381Y-11608428D01*
X7647857Y-11589381D01*
X7647857Y-11532238D01*
X7657381Y-11513190D01*
X7666905Y-11503667D01*
X7685952Y-11494143D01*
X7714524Y-11494143D01*
X7733571Y-11503667D01*
X7743095Y-11513190D01*
X7752619Y-11532238D01*
X7752619Y-11589381D01*
X7743095Y-11608428D01*
X7733571Y-11617952D01*
X7714524Y-11627476D01*
X7685952Y-11627476D01*
X7866905Y-11627476D02*
X7847857Y-11617952D01*
X7838333Y-11598905D01*
X7838333Y-11427476D01*
X8019286Y-11617952D02*
X8000238Y-11627476D01*
X7962143Y-11627476D01*
X7943095Y-11617952D01*
X7933571Y-11598905D01*
X7933571Y-11522714D01*
X7943095Y-11503667D01*
X7962143Y-11494143D01*
X8000238Y-11494143D01*
X8019286Y-11503667D01*
X8028809Y-11522714D01*
X8028809Y-11541762D01*
X7933571Y-11560809D01*
X8105000Y-11617952D02*
X8124048Y-11627476D01*
X8162143Y-11627476D01*
X8181190Y-11617952D01*
X8190714Y-11598905D01*
X8190714Y-11589381D01*
X8181190Y-11570333D01*
X8162143Y-11560809D01*
X8133571Y-11560809D01*
X8114524Y-11551286D01*
X8105000Y-11532238D01*
X8105000Y-11522714D01*
X8114524Y-11503667D01*
X8133571Y-11494143D01*
X8162143Y-11494143D01*
X8181190Y-11503667D01*
X8257381Y-11703667D02*
X8266905Y-11694143D01*
X8285952Y-11665571D01*
X8295476Y-11646524D01*
X8305000Y-11617952D01*
X8314524Y-11570333D01*
X8314524Y-11532238D01*
X8305000Y-11484619D01*
X8295476Y-11456048D01*
X8285952Y-11437000D01*
X8266905Y-11408428D01*
X8257381Y-11398905D01*
D15*
X3219000Y-11877000D02*
X3295000Y-11801000D01*
X3219000Y-11725000D01*
X3143000Y-11801000D01*
X3219000Y-11877000D01*
D11*
X3657381Y-11891476D02*
X3543095Y-11891476D01*
X3600238Y-11891476D02*
X3600238Y-11691476D01*
X3581190Y-11720048D01*
X3562143Y-11739095D01*
X3543095Y-11748619D01*
X3743095Y-11872428D02*
X3752619Y-11881952D01*
X3743095Y-11891476D01*
X3733571Y-11881952D01*
X3743095Y-11872428D01*
X3743095Y-11891476D01*
X3933571Y-11691476D02*
X3838333Y-11691476D01*
X3828809Y-11786714D01*
X3838333Y-11777190D01*
X3857381Y-11767667D01*
X3905000Y-11767667D01*
X3924048Y-11777190D01*
X3933571Y-11786714D01*
X3943095Y-11805762D01*
X3943095Y-11853381D01*
X3933571Y-11872428D01*
X3924048Y-11881952D01*
X3905000Y-11891476D01*
X3857381Y-11891476D01*
X3838333Y-11881952D01*
X3828809Y-11872428D01*
X4019286Y-11710524D02*
X4028809Y-11701000D01*
X4047857Y-11691476D01*
X4095476Y-11691476D01*
X4114524Y-11701000D01*
X4124048Y-11710524D01*
X4133571Y-11729571D01*
X4133571Y-11748619D01*
X4124048Y-11777190D01*
X4009762Y-11891476D01*
X4133571Y-11891476D01*
X4257381Y-11691476D02*
X4276429Y-11691476D01*
X4295476Y-11701000D01*
X4305000Y-11710524D01*
X4314524Y-11729571D01*
X4324048Y-11767667D01*
X4324048Y-11815286D01*
X4314524Y-11853381D01*
X4305000Y-11872428D01*
X4295476Y-11881952D01*
X4276429Y-11891476D01*
X4257381Y-11891476D01*
X4238333Y-11881952D01*
X4228810Y-11872428D01*
X4219286Y-11853381D01*
X4209762Y-11815286D01*
X4209762Y-11767667D01*
X4219286Y-11729571D01*
X4228810Y-11710524D01*
X4238333Y-11701000D01*
X4257381Y-11691476D01*
X4409762Y-11891476D02*
X4409762Y-11758143D01*
X4409762Y-11777190D02*
X4419286Y-11767667D01*
X4438333Y-11758143D01*
X4466905Y-11758143D01*
X4485952Y-11767667D01*
X4495476Y-11786714D01*
X4495476Y-11891476D01*
X4495476Y-11786714D02*
X4505000Y-11767667D01*
X4524048Y-11758143D01*
X4552619Y-11758143D01*
X4571667Y-11767667D01*
X4581190Y-11786714D01*
X4581190Y-11891476D01*
X4676429Y-11891476D02*
X4676429Y-11758143D01*
X4676429Y-11777190D02*
X4685952Y-11767667D01*
X4705000Y-11758143D01*
X4733571Y-11758143D01*
X4752619Y-11767667D01*
X4762143Y-11786714D01*
X4762143Y-11891476D01*
X4762143Y-11786714D02*
X4771667Y-11767667D01*
X4790714Y-11758143D01*
X4819286Y-11758143D01*
X4838333Y-11767667D01*
X4847857Y-11786714D01*
X4847857Y-11891476D01*
X5238333Y-11681952D02*
X5066905Y-11939095D01*
X5495476Y-11691476D02*
X5514524Y-11691476D01*
X5533571Y-11701000D01*
X5543095Y-11710524D01*
X5552619Y-11729571D01*
X5562143Y-11767667D01*
X5562143Y-11815286D01*
X5552619Y-11853381D01*
X5543095Y-11872428D01*
X5533571Y-11881952D01*
X5514524Y-11891476D01*
X5495476Y-11891476D01*
X5476429Y-11881952D01*
X5466905Y-11872428D01*
X5457381Y-11853381D01*
X5447857Y-11815286D01*
X5447857Y-11767667D01*
X5457381Y-11729571D01*
X5466905Y-11710524D01*
X5476429Y-11701000D01*
X5495476Y-11691476D01*
X5647857Y-11872428D02*
X5657381Y-11881952D01*
X5647857Y-11891476D01*
X5638333Y-11881952D01*
X5647857Y-11872428D01*
X5647857Y-11891476D01*
X5781190Y-11691476D02*
X5800238Y-11691476D01*
X5819286Y-11701000D01*
X5828809Y-11710524D01*
X5838333Y-11729571D01*
X5847857Y-11767667D01*
X5847857Y-11815286D01*
X5838333Y-11853381D01*
X5828809Y-11872428D01*
X5819286Y-11881952D01*
X5800238Y-11891476D01*
X5781190Y-11891476D01*
X5762143Y-11881952D01*
X5752619Y-11872428D01*
X5743095Y-11853381D01*
X5733571Y-11815286D01*
X5733571Y-11767667D01*
X5743095Y-11729571D01*
X5752619Y-11710524D01*
X5762143Y-11701000D01*
X5781190Y-11691476D01*
X6028809Y-11691476D02*
X5933571Y-11691476D01*
X5924048Y-11786714D01*
X5933571Y-11777190D01*
X5952619Y-11767667D01*
X6000238Y-11767667D01*
X6019286Y-11777190D01*
X6028809Y-11786714D01*
X6038333Y-11805762D01*
X6038333Y-11853381D01*
X6028809Y-11872428D01*
X6019286Y-11881952D01*
X6000238Y-11891476D01*
X5952619Y-11891476D01*
X5933571Y-11881952D01*
X5924048Y-11872428D01*
X6133571Y-11891476D02*
X6171667Y-11891476D01*
X6190714Y-11881952D01*
X6200238Y-11872428D01*
X6219286Y-11843857D01*
X6228809Y-11805762D01*
X6228809Y-11729571D01*
X6219286Y-11710524D01*
X6209762Y-11701000D01*
X6190714Y-11691476D01*
X6152619Y-11691476D01*
X6133571Y-11701000D01*
X6124048Y-11710524D01*
X6114524Y-11729571D01*
X6114524Y-11777190D01*
X6124048Y-11796238D01*
X6133571Y-11805762D01*
X6152619Y-11815286D01*
X6190714Y-11815286D01*
X6209762Y-11805762D01*
X6219286Y-11796238D01*
X6228809Y-11777190D01*
X6343095Y-11777190D02*
X6324048Y-11767667D01*
X6314524Y-11758143D01*
X6305000Y-11739095D01*
X6305000Y-11729571D01*
X6314524Y-11710524D01*
X6324048Y-11701000D01*
X6343095Y-11691476D01*
X6381190Y-11691476D01*
X6400238Y-11701000D01*
X6409762Y-11710524D01*
X6419286Y-11729571D01*
X6419286Y-11739095D01*
X6409762Y-11758143D01*
X6400238Y-11767667D01*
X6381190Y-11777190D01*
X6343095Y-11777190D01*
X6324048Y-11786714D01*
X6314524Y-11796238D01*
X6305000Y-11815286D01*
X6305000Y-11853381D01*
X6314524Y-11872428D01*
X6324048Y-11881952D01*
X6343095Y-11891476D01*
X6381190Y-11891476D01*
X6400238Y-11881952D01*
X6409762Y-11872428D01*
X6419286Y-11853381D01*
X6419286Y-11815286D01*
X6409762Y-11796238D01*
X6400238Y-11786714D01*
X6381190Y-11777190D01*
X6495476Y-11691476D02*
X6495476Y-11729571D01*
X6571667Y-11691476D02*
X6571667Y-11729571D01*
X6866905Y-11967667D02*
X6857381Y-11958143D01*
X6838333Y-11929571D01*
X6828809Y-11910524D01*
X6819286Y-11881952D01*
X6809762Y-11834333D01*
X6809762Y-11796238D01*
X6819286Y-11748619D01*
X6828809Y-11720048D01*
X6838333Y-11701000D01*
X6857381Y-11672428D01*
X6866905Y-11662905D01*
X7047857Y-11891476D02*
X6933571Y-11891476D01*
X6990714Y-11891476D02*
X6990714Y-11691476D01*
X6971667Y-11720048D01*
X6952619Y-11739095D01*
X6933571Y-11748619D01*
X7238333Y-11891476D02*
X7124048Y-11891476D01*
X7181190Y-11891476D02*
X7181190Y-11691476D01*
X7162143Y-11720048D01*
X7143095Y-11739095D01*
X7124048Y-11748619D01*
X7476428Y-11891476D02*
X7476428Y-11691476D01*
X7562143Y-11891476D02*
X7562143Y-11786714D01*
X7552619Y-11767667D01*
X7533571Y-11758143D01*
X7505000Y-11758143D01*
X7485952Y-11767667D01*
X7476428Y-11777190D01*
X7685952Y-11891476D02*
X7666905Y-11881952D01*
X7657381Y-11872428D01*
X7647857Y-11853381D01*
X7647857Y-11796238D01*
X7657381Y-11777190D01*
X7666905Y-11767667D01*
X7685952Y-11758143D01*
X7714524Y-11758143D01*
X7733571Y-11767667D01*
X7743095Y-11777190D01*
X7752619Y-11796238D01*
X7752619Y-11853381D01*
X7743095Y-11872428D01*
X7733571Y-11881952D01*
X7714524Y-11891476D01*
X7685952Y-11891476D01*
X7866905Y-11891476D02*
X7847857Y-11881952D01*
X7838333Y-11862905D01*
X7838333Y-11691476D01*
X8019286Y-11881952D02*
X8000238Y-11891476D01*
X7962143Y-11891476D01*
X7943095Y-11881952D01*
X7933571Y-11862905D01*
X7933571Y-11786714D01*
X7943095Y-11767667D01*
X7962143Y-11758143D01*
X8000238Y-11758143D01*
X8019286Y-11767667D01*
X8028809Y-11786714D01*
X8028809Y-11805762D01*
X7933571Y-11824809D01*
X8105000Y-11881952D02*
X8124048Y-11891476D01*
X8162143Y-11891476D01*
X8181190Y-11881952D01*
X8190714Y-11862905D01*
X8190714Y-11853381D01*
X8181190Y-11834333D01*
X8162143Y-11824809D01*
X8133571Y-11824809D01*
X8114524Y-11815286D01*
X8105000Y-11796238D01*
X8105000Y-11786714D01*
X8114524Y-11767667D01*
X8133571Y-11758143D01*
X8162143Y-11758143D01*
X8181190Y-11767667D01*
X8257381Y-11967667D02*
X8266905Y-11958143D01*
X8285952Y-11929571D01*
X8295476Y-11910524D01*
X8305000Y-11881952D01*
X8314524Y-11834333D01*
X8314524Y-11796238D01*
X8305000Y-11748619D01*
X8295476Y-11720048D01*
X8285952Y-11701000D01*
X8266905Y-11672428D01*
X8257381Y-11662905D01*
D16*
X3135000Y-11993000D02*
X3295000Y-12153000D01*
X3295000Y-11993000D02*
X3135000Y-12153000D01*
X3295000Y-12073000D02*
G75*
G03*
X3295000Y-12073000I-80000J0D01*
G01*
D11*
X3657381Y-12163476D02*
X3543095Y-12163476D01*
X3600238Y-12163476D02*
X3600238Y-11963476D01*
X3581190Y-11992048D01*
X3562143Y-12011095D01*
X3543095Y-12020619D01*
X3743095Y-12144428D02*
X3752619Y-12153952D01*
X3743095Y-12163476D01*
X3733571Y-12153952D01*
X3743095Y-12144428D01*
X3743095Y-12163476D01*
X3924048Y-11963476D02*
X3885952Y-11963476D01*
X3866905Y-11973000D01*
X3857381Y-11982524D01*
X3838333Y-12011095D01*
X3828809Y-12049190D01*
X3828809Y-12125381D01*
X3838333Y-12144428D01*
X3847857Y-12153952D01*
X3866905Y-12163476D01*
X3905000Y-12163476D01*
X3924048Y-12153952D01*
X3933571Y-12144428D01*
X3943095Y-12125381D01*
X3943095Y-12077762D01*
X3933571Y-12058714D01*
X3924048Y-12049190D01*
X3905000Y-12039667D01*
X3866905Y-12039667D01*
X3847857Y-12049190D01*
X3838333Y-12058714D01*
X3828809Y-12077762D01*
X4066905Y-11963476D02*
X4085952Y-11963476D01*
X4105000Y-11973000D01*
X4114524Y-11982524D01*
X4124048Y-12001571D01*
X4133571Y-12039667D01*
X4133571Y-12087286D01*
X4124048Y-12125381D01*
X4114524Y-12144428D01*
X4105000Y-12153952D01*
X4085952Y-12163476D01*
X4066905Y-12163476D01*
X4047857Y-12153952D01*
X4038333Y-12144428D01*
X4028809Y-12125381D01*
X4019286Y-12087286D01*
X4019286Y-12039667D01*
X4028809Y-12001571D01*
X4038333Y-11982524D01*
X4047857Y-11973000D01*
X4066905Y-11963476D01*
X4257381Y-11963476D02*
X4276429Y-11963476D01*
X4295476Y-11973000D01*
X4305000Y-11982524D01*
X4314524Y-12001571D01*
X4324048Y-12039667D01*
X4324048Y-12087286D01*
X4314524Y-12125381D01*
X4305000Y-12144428D01*
X4295476Y-12153952D01*
X4276429Y-12163476D01*
X4257381Y-12163476D01*
X4238333Y-12153952D01*
X4228810Y-12144428D01*
X4219286Y-12125381D01*
X4209762Y-12087286D01*
X4209762Y-12039667D01*
X4219286Y-12001571D01*
X4228810Y-11982524D01*
X4238333Y-11973000D01*
X4257381Y-11963476D01*
X4409762Y-12163476D02*
X4409762Y-12030143D01*
X4409762Y-12049190D02*
X4419286Y-12039667D01*
X4438333Y-12030143D01*
X4466905Y-12030143D01*
X4485952Y-12039667D01*
X4495476Y-12058714D01*
X4495476Y-12163476D01*
X4495476Y-12058714D02*
X4505000Y-12039667D01*
X4524048Y-12030143D01*
X4552619Y-12030143D01*
X4571667Y-12039667D01*
X4581190Y-12058714D01*
X4581190Y-12163476D01*
X4676429Y-12163476D02*
X4676429Y-12030143D01*
X4676429Y-12049190D02*
X4685952Y-12039667D01*
X4705000Y-12030143D01*
X4733571Y-12030143D01*
X4752619Y-12039667D01*
X4762143Y-12058714D01*
X4762143Y-12163476D01*
X4762143Y-12058714D02*
X4771667Y-12039667D01*
X4790714Y-12030143D01*
X4819286Y-12030143D01*
X4838333Y-12039667D01*
X4847857Y-12058714D01*
X4847857Y-12163476D01*
X5238333Y-11953952D02*
X5066905Y-12211095D01*
X5495476Y-11963476D02*
X5514524Y-11963476D01*
X5533571Y-11973000D01*
X5543095Y-11982524D01*
X5552619Y-12001571D01*
X5562143Y-12039667D01*
X5562143Y-12087286D01*
X5552619Y-12125381D01*
X5543095Y-12144428D01*
X5533571Y-12153952D01*
X5514524Y-12163476D01*
X5495476Y-12163476D01*
X5476429Y-12153952D01*
X5466905Y-12144428D01*
X5457381Y-12125381D01*
X5447857Y-12087286D01*
X5447857Y-12039667D01*
X5457381Y-12001571D01*
X5466905Y-11982524D01*
X5476429Y-11973000D01*
X5495476Y-11963476D01*
X5647857Y-12144428D02*
X5657381Y-12153952D01*
X5647857Y-12163476D01*
X5638333Y-12153952D01*
X5647857Y-12144428D01*
X5647857Y-12163476D01*
X5781190Y-11963476D02*
X5800238Y-11963476D01*
X5819286Y-11973000D01*
X5828809Y-11982524D01*
X5838333Y-12001571D01*
X5847857Y-12039667D01*
X5847857Y-12087286D01*
X5838333Y-12125381D01*
X5828809Y-12144428D01*
X5819286Y-12153952D01*
X5800238Y-12163476D01*
X5781190Y-12163476D01*
X5762143Y-12153952D01*
X5752619Y-12144428D01*
X5743095Y-12125381D01*
X5733571Y-12087286D01*
X5733571Y-12039667D01*
X5743095Y-12001571D01*
X5752619Y-11982524D01*
X5762143Y-11973000D01*
X5781190Y-11963476D01*
X6019286Y-11963476D02*
X5981190Y-11963476D01*
X5962143Y-11973000D01*
X5952619Y-11982524D01*
X5933571Y-12011095D01*
X5924048Y-12049190D01*
X5924048Y-12125381D01*
X5933571Y-12144428D01*
X5943095Y-12153952D01*
X5962143Y-12163476D01*
X6000238Y-12163476D01*
X6019286Y-12153952D01*
X6028809Y-12144428D01*
X6038333Y-12125381D01*
X6038333Y-12077762D01*
X6028809Y-12058714D01*
X6019286Y-12049190D01*
X6000238Y-12039667D01*
X5962143Y-12039667D01*
X5943095Y-12049190D01*
X5933571Y-12058714D01*
X5924048Y-12077762D01*
X6105000Y-11963476D02*
X6228809Y-11963476D01*
X6162143Y-12039667D01*
X6190714Y-12039667D01*
X6209762Y-12049190D01*
X6219286Y-12058714D01*
X6228809Y-12077762D01*
X6228809Y-12125381D01*
X6219286Y-12144428D01*
X6209762Y-12153952D01*
X6190714Y-12163476D01*
X6133571Y-12163476D01*
X6114524Y-12153952D01*
X6105000Y-12144428D01*
X6352619Y-11963476D02*
X6371667Y-11963476D01*
X6390714Y-11973000D01*
X6400238Y-11982524D01*
X6409762Y-12001571D01*
X6419286Y-12039667D01*
X6419286Y-12087286D01*
X6409762Y-12125381D01*
X6400238Y-12144428D01*
X6390714Y-12153952D01*
X6371667Y-12163476D01*
X6352619Y-12163476D01*
X6333571Y-12153952D01*
X6324048Y-12144428D01*
X6314524Y-12125381D01*
X6305000Y-12087286D01*
X6305000Y-12039667D01*
X6314524Y-12001571D01*
X6324048Y-11982524D01*
X6333571Y-11973000D01*
X6352619Y-11963476D01*
X6495476Y-11963476D02*
X6495476Y-12001571D01*
X6571667Y-11963476D02*
X6571667Y-12001571D01*
X6866905Y-12239667D02*
X6857381Y-12230143D01*
X6838333Y-12201571D01*
X6828809Y-12182524D01*
X6819286Y-12153952D01*
X6809762Y-12106333D01*
X6809762Y-12068238D01*
X6819286Y-12020619D01*
X6828809Y-11992048D01*
X6838333Y-11973000D01*
X6857381Y-11944428D01*
X6866905Y-11934905D01*
X7047857Y-12163476D02*
X6933571Y-12163476D01*
X6990714Y-12163476D02*
X6990714Y-11963476D01*
X6971667Y-11992048D01*
X6952619Y-12011095D01*
X6933571Y-12020619D01*
X7219286Y-11963476D02*
X7181190Y-11963476D01*
X7162143Y-11973000D01*
X7152619Y-11982524D01*
X7133571Y-12011095D01*
X7124048Y-12049190D01*
X7124048Y-12125381D01*
X7133571Y-12144428D01*
X7143095Y-12153952D01*
X7162143Y-12163476D01*
X7200238Y-12163476D01*
X7219286Y-12153952D01*
X7228809Y-12144428D01*
X7238333Y-12125381D01*
X7238333Y-12077762D01*
X7228809Y-12058714D01*
X7219286Y-12049190D01*
X7200238Y-12039667D01*
X7162143Y-12039667D01*
X7143095Y-12049190D01*
X7133571Y-12058714D01*
X7124048Y-12077762D01*
X7476428Y-12163476D02*
X7476428Y-11963476D01*
X7562143Y-12163476D02*
X7562143Y-12058714D01*
X7552619Y-12039667D01*
X7533571Y-12030143D01*
X7505000Y-12030143D01*
X7485952Y-12039667D01*
X7476428Y-12049190D01*
X7685952Y-12163476D02*
X7666905Y-12153952D01*
X7657381Y-12144428D01*
X7647857Y-12125381D01*
X7647857Y-12068238D01*
X7657381Y-12049190D01*
X7666905Y-12039667D01*
X7685952Y-12030143D01*
X7714524Y-12030143D01*
X7733571Y-12039667D01*
X7743095Y-12049190D01*
X7752619Y-12068238D01*
X7752619Y-12125381D01*
X7743095Y-12144428D01*
X7733571Y-12153952D01*
X7714524Y-12163476D01*
X7685952Y-12163476D01*
X7866905Y-12163476D02*
X7847857Y-12153952D01*
X7838333Y-12134905D01*
X7838333Y-11963476D01*
X8019286Y-12153952D02*
X8000238Y-12163476D01*
X7962143Y-12163476D01*
X7943095Y-12153952D01*
X7933571Y-12134905D01*
X7933571Y-12058714D01*
X7943095Y-12039667D01*
X7962143Y-12030143D01*
X8000238Y-12030143D01*
X8019286Y-12039667D01*
X8028809Y-12058714D01*
X8028809Y-12077762D01*
X7933571Y-12096809D01*
X8105000Y-12153952D02*
X8124048Y-12163476D01*
X8162143Y-12163476D01*
X8181190Y-12153952D01*
X8190714Y-12134905D01*
X8190714Y-12125381D01*
X8181190Y-12106333D01*
X8162143Y-12096809D01*
X8133571Y-12096809D01*
X8114524Y-12087286D01*
X8105000Y-12068238D01*
X8105000Y-12058714D01*
X8114524Y-12039667D01*
X8133571Y-12030143D01*
X8162143Y-12030143D01*
X8181190Y-12039667D01*
X8257381Y-12239667D02*
X8266905Y-12230143D01*
X8285952Y-12201571D01*
X8295476Y-12182524D01*
X8305000Y-12153952D01*
X8314524Y-12106333D01*
X8314524Y-12068238D01*
X8305000Y-12020619D01*
X8295476Y-11992048D01*
X8285952Y-11973000D01*
X8266905Y-11944428D01*
X8257381Y-11934905D01*
X3095000Y-12253000D02*
X3295000Y-12453000D01*
X3295000Y-12253000D02*
X3095000Y-12453000D01*
X3195000Y-12253000D02*
X3195000Y-12453000D01*
X3095000Y-12353000D02*
X3295000Y-12353000D01*
X3638333Y-12310143D02*
X3638333Y-12443476D01*
X3590714Y-12233952D02*
X3543095Y-12376809D01*
X3666905Y-12376809D01*
X3743095Y-12424428D02*
X3752619Y-12433952D01*
X3743095Y-12443476D01*
X3733571Y-12433952D01*
X3743095Y-12424428D01*
X3743095Y-12443476D01*
X3943095Y-12443476D02*
X3828809Y-12443476D01*
X3885952Y-12443476D02*
X3885952Y-12243476D01*
X3866905Y-12272048D01*
X3847857Y-12291095D01*
X3828809Y-12300619D01*
X4066905Y-12243476D02*
X4085952Y-12243476D01*
X4105000Y-12253000D01*
X4114524Y-12262524D01*
X4124048Y-12281571D01*
X4133571Y-12319667D01*
X4133571Y-12367286D01*
X4124048Y-12405381D01*
X4114524Y-12424428D01*
X4105000Y-12433952D01*
X4085952Y-12443476D01*
X4066905Y-12443476D01*
X4047857Y-12433952D01*
X4038333Y-12424428D01*
X4028809Y-12405381D01*
X4019286Y-12367286D01*
X4019286Y-12319667D01*
X4028809Y-12281571D01*
X4038333Y-12262524D01*
X4047857Y-12253000D01*
X4066905Y-12243476D01*
X4257381Y-12243476D02*
X4276429Y-12243476D01*
X4295476Y-12253000D01*
X4305000Y-12262524D01*
X4314524Y-12281571D01*
X4324048Y-12319667D01*
X4324048Y-12367286D01*
X4314524Y-12405381D01*
X4305000Y-12424428D01*
X4295476Y-12433952D01*
X4276429Y-12443476D01*
X4257381Y-12443476D01*
X4238333Y-12433952D01*
X4228810Y-12424428D01*
X4219286Y-12405381D01*
X4209762Y-12367286D01*
X4209762Y-12319667D01*
X4219286Y-12281571D01*
X4228810Y-12262524D01*
X4238333Y-12253000D01*
X4257381Y-12243476D01*
X4409762Y-12443476D02*
X4409762Y-12310143D01*
X4409762Y-12329190D02*
X4419286Y-12319667D01*
X4438333Y-12310143D01*
X4466905Y-12310143D01*
X4485952Y-12319667D01*
X4495476Y-12338714D01*
X4495476Y-12443476D01*
X4495476Y-12338714D02*
X4505000Y-12319667D01*
X4524048Y-12310143D01*
X4552619Y-12310143D01*
X4571667Y-12319667D01*
X4581190Y-12338714D01*
X4581190Y-12443476D01*
X4676429Y-12443476D02*
X4676429Y-12310143D01*
X4676429Y-12329190D02*
X4685952Y-12319667D01*
X4705000Y-12310143D01*
X4733571Y-12310143D01*
X4752619Y-12319667D01*
X4762143Y-12338714D01*
X4762143Y-12443476D01*
X4762143Y-12338714D02*
X4771667Y-12319667D01*
X4790714Y-12310143D01*
X4819286Y-12310143D01*
X4838333Y-12319667D01*
X4847857Y-12338714D01*
X4847857Y-12443476D01*
X5238333Y-12233952D02*
X5066905Y-12491095D01*
X5495476Y-12243476D02*
X5514524Y-12243476D01*
X5533571Y-12253000D01*
X5543095Y-12262524D01*
X5552619Y-12281571D01*
X5562143Y-12319667D01*
X5562143Y-12367286D01*
X5552619Y-12405381D01*
X5543095Y-12424428D01*
X5533571Y-12433952D01*
X5514524Y-12443476D01*
X5495476Y-12443476D01*
X5476429Y-12433952D01*
X5466905Y-12424428D01*
X5457381Y-12405381D01*
X5447857Y-12367286D01*
X5447857Y-12319667D01*
X5457381Y-12281571D01*
X5466905Y-12262524D01*
X5476429Y-12253000D01*
X5495476Y-12243476D01*
X5647857Y-12424428D02*
X5657381Y-12433952D01*
X5647857Y-12443476D01*
X5638333Y-12433952D01*
X5647857Y-12424428D01*
X5647857Y-12443476D01*
X5847857Y-12443476D02*
X5733571Y-12443476D01*
X5790714Y-12443476D02*
X5790714Y-12243476D01*
X5771667Y-12272048D01*
X5752619Y-12291095D01*
X5733571Y-12300619D01*
X6019286Y-12243476D02*
X5981190Y-12243476D01*
X5962143Y-12253000D01*
X5952619Y-12262524D01*
X5933571Y-12291095D01*
X5924048Y-12329190D01*
X5924048Y-12405381D01*
X5933571Y-12424428D01*
X5943095Y-12433952D01*
X5962143Y-12443476D01*
X6000238Y-12443476D01*
X6019286Y-12433952D01*
X6028809Y-12424428D01*
X6038333Y-12405381D01*
X6038333Y-12357762D01*
X6028809Y-12338714D01*
X6019286Y-12329190D01*
X6000238Y-12319667D01*
X5962143Y-12319667D01*
X5943095Y-12329190D01*
X5933571Y-12338714D01*
X5924048Y-12357762D01*
X6228809Y-12443476D02*
X6114524Y-12443476D01*
X6171667Y-12443476D02*
X6171667Y-12243476D01*
X6152619Y-12272048D01*
X6133571Y-12291095D01*
X6114524Y-12300619D01*
X6400238Y-12310143D02*
X6400238Y-12443476D01*
X6352619Y-12233952D02*
X6305000Y-12376809D01*
X6428809Y-12376809D01*
X6495476Y-12243476D02*
X6495476Y-12281571D01*
X6571667Y-12243476D02*
X6571667Y-12281571D01*
X6866905Y-12519667D02*
X6857381Y-12510143D01*
X6838333Y-12481571D01*
X6828809Y-12462524D01*
X6819286Y-12433952D01*
X6809762Y-12386333D01*
X6809762Y-12348238D01*
X6819286Y-12300619D01*
X6828809Y-12272048D01*
X6838333Y-12253000D01*
X6857381Y-12224428D01*
X6866905Y-12214905D01*
X7028809Y-12310143D02*
X7028809Y-12443476D01*
X6981190Y-12233952D02*
X6933571Y-12376809D01*
X7057381Y-12376809D01*
X7285952Y-12443476D02*
X7285952Y-12243476D01*
X7371667Y-12443476D02*
X7371667Y-12338714D01*
X7362143Y-12319667D01*
X7343095Y-12310143D01*
X7314524Y-12310143D01*
X7295476Y-12319667D01*
X7285952Y-12329190D01*
X7495476Y-12443476D02*
X7476428Y-12433952D01*
X7466905Y-12424428D01*
X7457381Y-12405381D01*
X7457381Y-12348238D01*
X7466905Y-12329190D01*
X7476428Y-12319667D01*
X7495476Y-12310143D01*
X7524048Y-12310143D01*
X7543095Y-12319667D01*
X7552619Y-12329190D01*
X7562143Y-12348238D01*
X7562143Y-12405381D01*
X7552619Y-12424428D01*
X7543095Y-12433952D01*
X7524048Y-12443476D01*
X7495476Y-12443476D01*
X7676428Y-12443476D02*
X7657381Y-12433952D01*
X7647857Y-12414905D01*
X7647857Y-12243476D01*
X7828809Y-12433952D02*
X7809762Y-12443476D01*
X7771667Y-12443476D01*
X7752619Y-12433952D01*
X7743095Y-12414905D01*
X7743095Y-12338714D01*
X7752619Y-12319667D01*
X7771667Y-12310143D01*
X7809762Y-12310143D01*
X7828809Y-12319667D01*
X7838333Y-12338714D01*
X7838333Y-12357762D01*
X7743095Y-12376809D01*
X7914524Y-12433952D02*
X7933571Y-12443476D01*
X7971667Y-12443476D01*
X7990714Y-12433952D01*
X8000238Y-12414905D01*
X8000238Y-12405381D01*
X7990714Y-12386333D01*
X7971667Y-12376809D01*
X7943095Y-12376809D01*
X7924048Y-12367286D01*
X7914524Y-12348238D01*
X7914524Y-12338714D01*
X7924048Y-12319667D01*
X7943095Y-12310143D01*
X7971667Y-12310143D01*
X7990714Y-12319667D01*
X8066905Y-12519667D02*
X8076428Y-12510143D01*
X8095476Y-12481571D01*
X8105000Y-12462524D01*
X8114524Y-12433952D01*
X8124048Y-12386333D01*
X8124048Y-12348238D01*
X8114524Y-12300619D01*
X8105000Y-12272048D01*
X8095476Y-12253000D01*
X8076428Y-12224428D01*
X8066905Y-12214905D01*
X3095000Y-12573000D02*
X3295000Y-12773000D01*
X3295000Y-12573000D02*
X3095000Y-12773000D01*
X3265711Y-12743711D02*
X3265711Y-12602289D01*
X3124289Y-12602289D01*
X3124289Y-12743711D01*
X3265711Y-12743711D01*
X3638333Y-12630143D02*
X3638333Y-12763476D01*
X3590714Y-12553952D02*
X3543095Y-12696809D01*
X3666905Y-12696809D01*
X3743095Y-12744428D02*
X3752619Y-12753952D01*
X3743095Y-12763476D01*
X3733571Y-12753952D01*
X3743095Y-12744428D01*
X3743095Y-12763476D01*
X3819286Y-12563476D02*
X3943095Y-12563476D01*
X3876428Y-12639667D01*
X3905000Y-12639667D01*
X3924048Y-12649190D01*
X3933571Y-12658714D01*
X3943095Y-12677762D01*
X3943095Y-12725381D01*
X3933571Y-12744428D01*
X3924048Y-12753952D01*
X3905000Y-12763476D01*
X3847857Y-12763476D01*
X3828809Y-12753952D01*
X3819286Y-12744428D01*
X4066905Y-12563476D02*
X4085952Y-12563476D01*
X4105000Y-12573000D01*
X4114524Y-12582524D01*
X4124048Y-12601571D01*
X4133571Y-12639667D01*
X4133571Y-12687286D01*
X4124048Y-12725381D01*
X4114524Y-12744428D01*
X4105000Y-12753952D01*
X4085952Y-12763476D01*
X4066905Y-12763476D01*
X4047857Y-12753952D01*
X4038333Y-12744428D01*
X4028809Y-12725381D01*
X4019286Y-12687286D01*
X4019286Y-12639667D01*
X4028809Y-12601571D01*
X4038333Y-12582524D01*
X4047857Y-12573000D01*
X4066905Y-12563476D01*
X4257381Y-12563476D02*
X4276429Y-12563476D01*
X4295476Y-12573000D01*
X4305000Y-12582524D01*
X4314524Y-12601571D01*
X4324048Y-12639667D01*
X4324048Y-12687286D01*
X4314524Y-12725381D01*
X4305000Y-12744428D01*
X4295476Y-12753952D01*
X4276429Y-12763476D01*
X4257381Y-12763476D01*
X4238333Y-12753952D01*
X4228810Y-12744428D01*
X4219286Y-12725381D01*
X4209762Y-12687286D01*
X4209762Y-12639667D01*
X4219286Y-12601571D01*
X4228810Y-12582524D01*
X4238333Y-12573000D01*
X4257381Y-12563476D01*
X4409762Y-12763476D02*
X4409762Y-12630143D01*
X4409762Y-12649190D02*
X4419286Y-12639667D01*
X4438333Y-12630143D01*
X4466905Y-12630143D01*
X4485952Y-12639667D01*
X4495476Y-12658714D01*
X4495476Y-12763476D01*
X4495476Y-12658714D02*
X4505000Y-12639667D01*
X4524048Y-12630143D01*
X4552619Y-12630143D01*
X4571667Y-12639667D01*
X4581190Y-12658714D01*
X4581190Y-12763476D01*
X4676429Y-12763476D02*
X4676429Y-12630143D01*
X4676429Y-12649190D02*
X4685952Y-12639667D01*
X4705000Y-12630143D01*
X4733571Y-12630143D01*
X4752619Y-12639667D01*
X4762143Y-12658714D01*
X4762143Y-12763476D01*
X4762143Y-12658714D02*
X4771667Y-12639667D01*
X4790714Y-12630143D01*
X4819286Y-12630143D01*
X4838333Y-12639667D01*
X4847857Y-12658714D01*
X4847857Y-12763476D01*
X5238333Y-12553952D02*
X5066905Y-12811095D01*
X5495476Y-12563476D02*
X5514524Y-12563476D01*
X5533571Y-12573000D01*
X5543095Y-12582524D01*
X5552619Y-12601571D01*
X5562143Y-12639667D01*
X5562143Y-12687286D01*
X5552619Y-12725381D01*
X5543095Y-12744428D01*
X5533571Y-12753952D01*
X5514524Y-12763476D01*
X5495476Y-12763476D01*
X5476429Y-12753952D01*
X5466905Y-12744428D01*
X5457381Y-12725381D01*
X5447857Y-12687286D01*
X5447857Y-12639667D01*
X5457381Y-12601571D01*
X5466905Y-12582524D01*
X5476429Y-12573000D01*
X5495476Y-12563476D01*
X5647857Y-12744428D02*
X5657381Y-12753952D01*
X5647857Y-12763476D01*
X5638333Y-12753952D01*
X5647857Y-12744428D01*
X5647857Y-12763476D01*
X5847857Y-12763476D02*
X5733571Y-12763476D01*
X5790714Y-12763476D02*
X5790714Y-12563476D01*
X5771667Y-12592048D01*
X5752619Y-12611095D01*
X5733571Y-12620619D01*
X6019286Y-12563476D02*
X5981190Y-12563476D01*
X5962143Y-12573000D01*
X5952619Y-12582524D01*
X5933571Y-12611095D01*
X5924048Y-12649190D01*
X5924048Y-12725381D01*
X5933571Y-12744428D01*
X5943095Y-12753952D01*
X5962143Y-12763476D01*
X6000238Y-12763476D01*
X6019286Y-12753952D01*
X6028809Y-12744428D01*
X6038333Y-12725381D01*
X6038333Y-12677762D01*
X6028809Y-12658714D01*
X6019286Y-12649190D01*
X6000238Y-12639667D01*
X5962143Y-12639667D01*
X5943095Y-12649190D01*
X5933571Y-12658714D01*
X5924048Y-12677762D01*
X6133571Y-12763476D02*
X6171667Y-12763476D01*
X6190714Y-12753952D01*
X6200238Y-12744428D01*
X6219286Y-12715857D01*
X6228809Y-12677762D01*
X6228809Y-12601571D01*
X6219286Y-12582524D01*
X6209762Y-12573000D01*
X6190714Y-12563476D01*
X6152619Y-12563476D01*
X6133571Y-12573000D01*
X6124048Y-12582524D01*
X6114524Y-12601571D01*
X6114524Y-12649190D01*
X6124048Y-12668238D01*
X6133571Y-12677762D01*
X6152619Y-12687286D01*
X6190714Y-12687286D01*
X6209762Y-12677762D01*
X6219286Y-12668238D01*
X6228809Y-12649190D01*
X6295476Y-12563476D02*
X6419286Y-12563476D01*
X6352619Y-12639667D01*
X6381190Y-12639667D01*
X6400238Y-12649190D01*
X6409762Y-12658714D01*
X6419286Y-12677762D01*
X6419286Y-12725381D01*
X6409762Y-12744428D01*
X6400238Y-12753952D01*
X6381190Y-12763476D01*
X6324048Y-12763476D01*
X6305000Y-12753952D01*
X6295476Y-12744428D01*
X6495476Y-12563476D02*
X6495476Y-12601571D01*
X6571667Y-12563476D02*
X6571667Y-12601571D01*
X6866905Y-12839667D02*
X6857381Y-12830143D01*
X6838333Y-12801571D01*
X6828809Y-12782524D01*
X6819286Y-12753952D01*
X6809762Y-12706333D01*
X6809762Y-12668238D01*
X6819286Y-12620619D01*
X6828809Y-12592048D01*
X6838333Y-12573000D01*
X6857381Y-12544428D01*
X6866905Y-12534905D01*
X7028809Y-12630143D02*
X7028809Y-12763476D01*
X6981190Y-12553952D02*
X6933571Y-12696809D01*
X7057381Y-12696809D01*
X7285952Y-12763476D02*
X7285952Y-12563476D01*
X7371667Y-12763476D02*
X7371667Y-12658714D01*
X7362143Y-12639667D01*
X7343095Y-12630143D01*
X7314524Y-12630143D01*
X7295476Y-12639667D01*
X7285952Y-12649190D01*
X7495476Y-12763476D02*
X7476428Y-12753952D01*
X7466905Y-12744428D01*
X7457381Y-12725381D01*
X7457381Y-12668238D01*
X7466905Y-12649190D01*
X7476428Y-12639667D01*
X7495476Y-12630143D01*
X7524048Y-12630143D01*
X7543095Y-12639667D01*
X7552619Y-12649190D01*
X7562143Y-12668238D01*
X7562143Y-12725381D01*
X7552619Y-12744428D01*
X7543095Y-12753952D01*
X7524048Y-12763476D01*
X7495476Y-12763476D01*
X7676428Y-12763476D02*
X7657381Y-12753952D01*
X7647857Y-12734905D01*
X7647857Y-12563476D01*
X7828809Y-12753952D02*
X7809762Y-12763476D01*
X7771667Y-12763476D01*
X7752619Y-12753952D01*
X7743095Y-12734905D01*
X7743095Y-12658714D01*
X7752619Y-12639667D01*
X7771667Y-12630143D01*
X7809762Y-12630143D01*
X7828809Y-12639667D01*
X7838333Y-12658714D01*
X7838333Y-12677762D01*
X7743095Y-12696809D01*
X7914524Y-12753952D02*
X7933571Y-12763476D01*
X7971667Y-12763476D01*
X7990714Y-12753952D01*
X8000238Y-12734905D01*
X8000238Y-12725381D01*
X7990714Y-12706333D01*
X7971667Y-12696809D01*
X7943095Y-12696809D01*
X7924048Y-12687286D01*
X7914524Y-12668238D01*
X7914524Y-12658714D01*
X7924048Y-12639667D01*
X7943095Y-12630143D01*
X7971667Y-12630143D01*
X7990714Y-12639667D01*
X8066905Y-12839667D02*
X8076428Y-12830143D01*
X8095476Y-12801571D01*
X8105000Y-12782524D01*
X8114524Y-12753952D01*
X8124048Y-12706333D01*
X8124048Y-12668238D01*
X8114524Y-12620619D01*
X8105000Y-12592048D01*
X8095476Y-12573000D01*
X8076428Y-12544428D01*
X8066905Y-12534905D01*
X3095000Y-12893000D02*
X3295000Y-13093000D01*
X3295000Y-12893000D02*
X3095000Y-13093000D01*
X3195000Y-13093000D02*
X3295000Y-12993000D01*
X3195000Y-12893000D01*
X3095000Y-12993000D01*
X3195000Y-13093000D01*
X3543095Y-12902524D02*
X3552619Y-12893000D01*
X3571667Y-12883476D01*
X3619286Y-12883476D01*
X3638333Y-12893000D01*
X3647857Y-12902524D01*
X3657381Y-12921571D01*
X3657381Y-12940619D01*
X3647857Y-12969190D01*
X3533571Y-13083476D01*
X3657381Y-13083476D01*
X3828809Y-12950143D02*
X3828809Y-13083476D01*
X3781190Y-12873952D02*
X3733571Y-13016809D01*
X3857381Y-13016809D01*
X3933571Y-13064428D02*
X3943095Y-13073952D01*
X3933571Y-13083476D01*
X3924048Y-13073952D01*
X3933571Y-13064428D01*
X3933571Y-13083476D01*
X4066905Y-12883476D02*
X4085952Y-12883476D01*
X4105000Y-12893000D01*
X4114524Y-12902524D01*
X4124048Y-12921571D01*
X4133571Y-12959667D01*
X4133571Y-13007286D01*
X4124048Y-13045381D01*
X4114524Y-13064428D01*
X4105000Y-13073952D01*
X4085952Y-13083476D01*
X4066905Y-13083476D01*
X4047857Y-13073952D01*
X4038333Y-13064428D01*
X4028809Y-13045381D01*
X4019286Y-13007286D01*
X4019286Y-12959667D01*
X4028809Y-12921571D01*
X4038333Y-12902524D01*
X4047857Y-12893000D01*
X4066905Y-12883476D01*
X4257381Y-12883476D02*
X4276429Y-12883476D01*
X4295476Y-12893000D01*
X4305000Y-12902524D01*
X4314524Y-12921571D01*
X4324048Y-12959667D01*
X4324048Y-13007286D01*
X4314524Y-13045381D01*
X4305000Y-13064428D01*
X4295476Y-13073952D01*
X4276429Y-13083476D01*
X4257381Y-13083476D01*
X4238333Y-13073952D01*
X4228810Y-13064428D01*
X4219286Y-13045381D01*
X4209762Y-13007286D01*
X4209762Y-12959667D01*
X4219286Y-12921571D01*
X4228810Y-12902524D01*
X4238333Y-12893000D01*
X4257381Y-12883476D01*
X4447857Y-12883476D02*
X4466905Y-12883476D01*
X4485952Y-12893000D01*
X4495476Y-12902524D01*
X4505000Y-12921571D01*
X4514524Y-12959667D01*
X4514524Y-13007286D01*
X4505000Y-13045381D01*
X4495476Y-13064428D01*
X4485952Y-13073952D01*
X4466905Y-13083476D01*
X4447857Y-13083476D01*
X4428810Y-13073952D01*
X4419286Y-13064428D01*
X4409762Y-13045381D01*
X4400238Y-13007286D01*
X4400238Y-12959667D01*
X4409762Y-12921571D01*
X4419286Y-12902524D01*
X4428810Y-12893000D01*
X4447857Y-12883476D01*
X4600238Y-13083476D02*
X4600238Y-12950143D01*
X4600238Y-12969190D02*
X4609762Y-12959667D01*
X4628810Y-12950143D01*
X4657381Y-12950143D01*
X4676429Y-12959667D01*
X4685952Y-12978714D01*
X4685952Y-13083476D01*
X4685952Y-12978714D02*
X4695476Y-12959667D01*
X4714524Y-12950143D01*
X4743095Y-12950143D01*
X4762143Y-12959667D01*
X4771667Y-12978714D01*
X4771667Y-13083476D01*
X4866905Y-13083476D02*
X4866905Y-12950143D01*
X4866905Y-12969190D02*
X4876429Y-12959667D01*
X4895476Y-12950143D01*
X4924048Y-12950143D01*
X4943095Y-12959667D01*
X4952619Y-12978714D01*
X4952619Y-13083476D01*
X4952619Y-12978714D02*
X4962143Y-12959667D01*
X4981190Y-12950143D01*
X5009762Y-12950143D01*
X5028810Y-12959667D01*
X5038333Y-12978714D01*
X5038333Y-13083476D01*
X5428810Y-12873952D02*
X5257381Y-13131095D01*
X5685952Y-12883476D02*
X5705000Y-12883476D01*
X5724048Y-12893000D01*
X5733571Y-12902524D01*
X5743095Y-12921571D01*
X5752619Y-12959667D01*
X5752619Y-13007286D01*
X5743095Y-13045381D01*
X5733571Y-13064428D01*
X5724048Y-13073952D01*
X5705000Y-13083476D01*
X5685952Y-13083476D01*
X5666905Y-13073952D01*
X5657381Y-13064428D01*
X5647857Y-13045381D01*
X5638333Y-13007286D01*
X5638333Y-12959667D01*
X5647857Y-12921571D01*
X5657381Y-12902524D01*
X5666905Y-12893000D01*
X5685952Y-12883476D01*
X5838333Y-13064428D02*
X5847857Y-13073952D01*
X5838333Y-13083476D01*
X5828809Y-13073952D01*
X5838333Y-13064428D01*
X5838333Y-13083476D01*
X5943095Y-13083476D02*
X5981190Y-13083476D01*
X6000238Y-13073952D01*
X6009762Y-13064428D01*
X6028809Y-13035857D01*
X6038333Y-12997762D01*
X6038333Y-12921571D01*
X6028809Y-12902524D01*
X6019286Y-12893000D01*
X6000238Y-12883476D01*
X5962143Y-12883476D01*
X5943095Y-12893000D01*
X5933571Y-12902524D01*
X5924048Y-12921571D01*
X5924048Y-12969190D01*
X5933571Y-12988238D01*
X5943095Y-12997762D01*
X5962143Y-13007286D01*
X6000238Y-13007286D01*
X6019286Y-12997762D01*
X6028809Y-12988238D01*
X6038333Y-12969190D01*
X6209762Y-12950143D02*
X6209762Y-13083476D01*
X6162143Y-12873952D02*
X6114524Y-13016809D01*
X6238333Y-13016809D01*
X6400238Y-12950143D02*
X6400238Y-13083476D01*
X6352619Y-12873952D02*
X6305000Y-13016809D01*
X6428809Y-13016809D01*
X6514524Y-13083476D02*
X6552619Y-13083476D01*
X6571667Y-13073952D01*
X6581190Y-13064428D01*
X6600238Y-13035857D01*
X6609762Y-12997762D01*
X6609762Y-12921571D01*
X6600238Y-12902524D01*
X6590714Y-12893000D01*
X6571667Y-12883476D01*
X6533571Y-12883476D01*
X6514524Y-12893000D01*
X6505000Y-12902524D01*
X6495476Y-12921571D01*
X6495476Y-12969190D01*
X6505000Y-12988238D01*
X6514524Y-12997762D01*
X6533571Y-13007286D01*
X6571667Y-13007286D01*
X6590714Y-12997762D01*
X6600238Y-12988238D01*
X6609762Y-12969190D01*
X6685952Y-12883476D02*
X6685952Y-12921571D01*
X6762143Y-12883476D02*
X6762143Y-12921571D01*
X7057381Y-13159667D02*
X7047857Y-13150143D01*
X7028809Y-13121571D01*
X7019286Y-13102524D01*
X7009762Y-13073952D01*
X7000238Y-13026333D01*
X7000238Y-12988238D01*
X7009762Y-12940619D01*
X7019286Y-12912048D01*
X7028809Y-12893000D01*
X7047857Y-12864428D01*
X7057381Y-12854905D01*
X7238333Y-13083476D02*
X7124048Y-13083476D01*
X7181190Y-13083476D02*
X7181190Y-12883476D01*
X7162143Y-12912048D01*
X7143095Y-12931095D01*
X7124048Y-12940619D01*
X7476428Y-13083476D02*
X7476428Y-12883476D01*
X7562143Y-13083476D02*
X7562143Y-12978714D01*
X7552619Y-12959667D01*
X7533571Y-12950143D01*
X7505000Y-12950143D01*
X7485952Y-12959667D01*
X7476428Y-12969190D01*
X7685952Y-13083476D02*
X7666905Y-13073952D01*
X7657381Y-13064428D01*
X7647857Y-13045381D01*
X7647857Y-12988238D01*
X7657381Y-12969190D01*
X7666905Y-12959667D01*
X7685952Y-12950143D01*
X7714524Y-12950143D01*
X7733571Y-12959667D01*
X7743095Y-12969190D01*
X7752619Y-12988238D01*
X7752619Y-13045381D01*
X7743095Y-13064428D01*
X7733571Y-13073952D01*
X7714524Y-13083476D01*
X7685952Y-13083476D01*
X7866905Y-13083476D02*
X7847857Y-13073952D01*
X7838333Y-13054905D01*
X7838333Y-12883476D01*
X8019286Y-13073952D02*
X8000238Y-13083476D01*
X7962143Y-13083476D01*
X7943095Y-13073952D01*
X7933571Y-13054905D01*
X7933571Y-12978714D01*
X7943095Y-12959667D01*
X7962143Y-12950143D01*
X8000238Y-12950143D01*
X8019286Y-12959667D01*
X8028809Y-12978714D01*
X8028809Y-12997762D01*
X7933571Y-13016809D01*
X8095476Y-13159667D02*
X8105000Y-13150143D01*
X8124048Y-13121571D01*
X8133571Y-13102524D01*
X8143095Y-13073952D01*
X8152619Y-13026333D01*
X8152619Y-12988238D01*
X8143095Y-12940619D01*
X8133571Y-12912048D01*
X8124048Y-12893000D01*
X8105000Y-12864428D01*
X8095476Y-12854905D01*
M02*
