G04 #@! TF.GenerationSoftware,KiCad,Pcbnew,(6.0.11)*
G04 #@! TF.CreationDate,2023-02-08T22:03:16+00:00*
G04 #@! TF.ProjectId,StepperDemoPCB,53746570-7065-4724-9465-6d6f5043422e,rev?*
G04 #@! TF.SameCoordinates,Original*
G04 #@! TF.FileFunction,Copper,L1,Top*
G04 #@! TF.FilePolarity,Positive*
%FSLAX46Y46*%
G04 Gerber Fmt 4.6, Leading zero omitted, Abs format (unit mm)*
G04 Created by KiCad (PCBNEW (6.0.11)) date 2023-02-08 22:03:16*
%MOMM*%
%LPD*%
G01*
G04 APERTURE LIST*
G04 #@! TA.AperFunction,NonConductor*
%ADD10C,0.200000*%
G04 #@! TD*
G04 #@! TA.AperFunction,ComponentPad*
%ADD11C,24.500000*%
G04 #@! TD*
G04 #@! TA.AperFunction,ComponentPad*
%ADD12C,4.500000*%
G04 #@! TD*
G04 #@! TA.AperFunction,ComponentPad*
%ADD13O,1.700000X1.700000*%
G04 #@! TD*
G04 #@! TA.AperFunction,ComponentPad*
%ADD14R,1.700000X1.700000*%
G04 #@! TD*
G04 #@! TA.AperFunction,ComponentPad*
%ADD15C,7.500000*%
G04 #@! TD*
G04 #@! TA.AperFunction,ComponentPad*
%ADD16C,1.600000*%
G04 #@! TD*
G04 #@! TA.AperFunction,ComponentPad*
%ADD17C,1.400000*%
G04 #@! TD*
G04 #@! TA.AperFunction,ComponentPad*
%ADD18O,1.400000X1.400000*%
G04 #@! TD*
G04 #@! TA.AperFunction,ComponentPad*
%ADD19R,1.800000X1.800000*%
G04 #@! TD*
G04 #@! TA.AperFunction,ComponentPad*
%ADD20C,1.800000*%
G04 #@! TD*
G04 #@! TA.AperFunction,ComponentPad*
%ADD21R,3.200000X3.200000*%
G04 #@! TD*
G04 #@! TA.AperFunction,ComponentPad*
%ADD22O,3.200000X3.200000*%
G04 #@! TD*
G04 #@! TA.AperFunction,ComponentPad*
%ADD23R,3.000000X3.000000*%
G04 #@! TD*
G04 #@! TA.AperFunction,ComponentPad*
%ADD24C,3.000000*%
G04 #@! TD*
G04 #@! TA.AperFunction,ComponentPad*
%ADD25R,1.600000X1.600000*%
G04 #@! TD*
G04 #@! TA.AperFunction,ComponentPad*
%ADD26O,1.600000X1.600000*%
G04 #@! TD*
G04 #@! TA.AperFunction,ComponentPad*
%ADD27O,1.800000X1.800000*%
G04 #@! TD*
G04 #@! TA.AperFunction,Conductor*
%ADD28C,0.250000*%
G04 #@! TD*
G04 #@! TA.AperFunction,Conductor*
%ADD29C,0.500000*%
G04 #@! TD*
G04 #@! TA.AperFunction,Conductor*
%ADD30C,0.400000*%
G04 #@! TD*
G04 #@! TA.AperFunction,Conductor*
%ADD31C,0.300000*%
G04 #@! TD*
G04 #@! TA.AperFunction,Conductor*
%ADD32C,0.200000*%
G04 #@! TD*
G04 APERTURE END LIST*
D10*
X34000000Y-100000000D02*
X204500000Y-100000000D01*
X204500000Y-100000000D02*
X204500000Y-37000000D01*
X204500000Y-37000000D02*
X34000000Y-37000000D01*
X34000000Y-37000000D02*
X34000000Y-100000000D01*
D11*
X66500000Y-69500000D03*
D12*
X51000000Y-54000000D03*
X82000000Y-54000000D03*
X51000000Y-85000000D03*
X82000000Y-85000000D03*
D13*
X118350000Y-61000000D03*
X115810000Y-61000000D03*
X113270000Y-61000000D03*
X110730000Y-61000000D03*
X108190000Y-61000000D03*
D14*
X105650000Y-61000000D03*
D15*
X195000000Y-94000000D03*
X40000000Y-94000000D03*
X195000000Y-44000000D03*
X40000000Y-44000000D03*
D16*
X97535000Y-90000000D03*
X92455000Y-90000000D03*
D17*
X169420000Y-74500000D03*
D18*
X174500000Y-74500000D03*
D19*
X47655000Y-94000000D03*
D20*
X50195000Y-94000000D03*
D16*
X135500000Y-60535000D03*
X135500000Y-55455000D03*
D14*
X191025000Y-59950000D03*
D13*
X191025000Y-62490000D03*
X191025000Y-65030000D03*
X191025000Y-67570000D03*
X191025000Y-70110000D03*
D14*
X187000000Y-88000000D03*
D16*
X131500000Y-60500000D03*
X131500000Y-55420000D03*
D17*
X175990000Y-88500000D03*
D18*
X170910000Y-88500000D03*
D21*
X98000000Y-65380000D03*
D22*
X98000000Y-80620000D03*
D21*
X125000000Y-65260000D03*
D22*
X125000000Y-80500000D03*
D23*
X105000000Y-87000000D03*
D24*
X110080000Y-87000000D03*
X115160000Y-87000000D03*
X120240000Y-87000000D03*
D19*
X83670000Y-94000000D03*
D20*
X86210000Y-94000000D03*
D21*
X98000000Y-41880000D03*
D22*
X98000000Y-57120000D03*
D23*
X145760000Y-88000000D03*
D24*
X150840000Y-88000000D03*
X155920000Y-88000000D03*
X161000000Y-88000000D03*
D23*
X195000000Y-85000000D03*
D24*
X195000000Y-79920000D03*
X195000000Y-74840000D03*
D21*
X116000000Y-65500000D03*
D22*
X116000000Y-80740000D03*
D21*
X125000000Y-41880000D03*
D22*
X125000000Y-57120000D03*
D21*
X107000000Y-41880000D03*
D22*
X107000000Y-57120000D03*
D17*
X165000000Y-77500000D03*
D18*
X165000000Y-82580000D03*
D19*
X83725000Y-44000000D03*
D20*
X86265000Y-44000000D03*
D17*
X138500000Y-91840000D03*
D18*
X138500000Y-86760000D03*
D17*
X150000000Y-63000000D03*
D18*
X155080000Y-63000000D03*
D25*
X185925000Y-63200000D03*
D26*
X183385000Y-63200000D03*
X180845000Y-63200000D03*
X178305000Y-63200000D03*
X175765000Y-63200000D03*
X173225000Y-63200000D03*
X170685000Y-63200000D03*
X168145000Y-63200000D03*
X165605000Y-63200000D03*
X163065000Y-63200000D03*
X163065000Y-70820000D03*
X165605000Y-70820000D03*
X168145000Y-70820000D03*
X170685000Y-70820000D03*
X173225000Y-70820000D03*
X175765000Y-70820000D03*
X178305000Y-70820000D03*
X180845000Y-70820000D03*
X183385000Y-70820000D03*
X185925000Y-70820000D03*
D25*
X180960000Y-81620000D03*
D26*
X183500000Y-81620000D03*
X186040000Y-81620000D03*
X188580000Y-81620000D03*
X188580000Y-74000000D03*
X186040000Y-74000000D03*
X183500000Y-74000000D03*
X180960000Y-74000000D03*
D21*
X107000000Y-65500000D03*
D22*
X107000000Y-80740000D03*
D21*
X116000000Y-41880000D03*
D22*
X116000000Y-57120000D03*
D17*
X174500000Y-79000000D03*
D18*
X174500000Y-84080000D03*
D19*
X47605000Y-44000000D03*
D20*
X50145000Y-44000000D03*
D16*
X90455000Y-85000000D03*
X95535000Y-85000000D03*
D19*
X147500000Y-81000000D03*
D27*
X142420000Y-79730000D03*
X147500000Y-78460000D03*
X142420000Y-77190000D03*
X147500000Y-75920000D03*
X142420000Y-74650000D03*
X147500000Y-73380000D03*
X142420000Y-72110000D03*
X147500000Y-70840000D03*
X142420000Y-69570000D03*
X147500000Y-68300000D03*
X142420000Y-67030000D03*
X147500000Y-65760000D03*
X142420000Y-64490000D03*
X147500000Y-63220000D03*
D28*
X193992500Y-85000000D02*
X195000000Y-85000000D01*
X184117500Y-75125000D02*
X193992500Y-85000000D01*
X190580000Y-75500000D02*
X195000000Y-79920000D01*
X185525000Y-75500000D02*
X190580000Y-75500000D01*
X185925000Y-70820000D02*
X190315000Y-70820000D01*
X190315000Y-70820000D02*
X191025000Y-70110000D01*
X169884188Y-68450000D02*
X190145000Y-68450000D01*
X164640000Y-69245000D02*
X167206396Y-69245000D01*
X167206396Y-69245000D02*
X167461396Y-69500000D01*
X163065000Y-70820000D02*
X164640000Y-69245000D01*
X167461396Y-69500000D02*
X168834188Y-69500000D01*
X168834188Y-69500000D02*
X169884188Y-68450000D01*
X190145000Y-68450000D02*
X191025000Y-67570000D01*
X189050000Y-59950000D02*
X191025000Y-59950000D01*
X188885000Y-62490000D02*
X191025000Y-62490000D01*
X198000000Y-62636396D02*
X195606396Y-65030000D01*
X198000000Y-55500000D02*
X198000000Y-62636396D01*
X195500000Y-53000000D02*
X198000000Y-55500000D01*
X173265000Y-53000000D02*
X195500000Y-53000000D01*
X163065000Y-63200000D02*
X173265000Y-53000000D01*
X195606396Y-65030000D02*
X191025000Y-65030000D01*
X191000000Y-88000000D02*
X190000000Y-88000000D01*
X192000000Y-87000000D02*
X191000000Y-88000000D01*
X197705000Y-66205000D02*
X202500000Y-71000000D01*
X189705000Y-66205000D02*
X197705000Y-66205000D01*
X189000000Y-65500000D02*
X189705000Y-66205000D01*
X189585000Y-63665000D02*
X189000000Y-64250000D01*
X196335000Y-63665000D02*
X189585000Y-63665000D01*
X197500000Y-62500000D02*
X196335000Y-63665000D01*
X197500000Y-56500000D02*
X197500000Y-62500000D01*
X195000000Y-54000000D02*
X197500000Y-56500000D01*
X202500000Y-86500000D02*
X202000000Y-87000000D01*
X178294010Y-54000000D02*
X195000000Y-54000000D01*
X175500000Y-56794010D02*
X178294010Y-54000000D01*
X175500000Y-57000000D02*
X175500000Y-56794010D01*
X174352995Y-58147005D02*
X175500000Y-57000000D01*
X174147005Y-58147005D02*
X174352995Y-58147005D01*
X189000000Y-64250000D02*
X189000000Y-65500000D01*
X169560000Y-63440000D02*
X169560000Y-62734009D01*
X166005000Y-66995000D02*
X169560000Y-63440000D01*
X202000000Y-87000000D02*
X192000000Y-87000000D01*
X151345000Y-66995000D02*
X166005000Y-66995000D01*
X169560000Y-62734009D02*
X174147005Y-58147005D01*
X147500000Y-70840000D02*
X151345000Y-66995000D01*
X202500000Y-71000000D02*
X202500000Y-86500000D01*
X86210000Y-92500000D02*
X86210000Y-94000000D01*
X72000000Y-94000000D02*
X50195000Y-94000000D01*
X93960000Y-91040000D02*
X87000000Y-98000000D01*
X87000000Y-98000000D02*
X76000000Y-98000000D01*
X76000000Y-98000000D02*
X72000000Y-94000000D01*
X93960000Y-88505000D02*
X93960000Y-91040000D01*
X90455000Y-85000000D02*
X93960000Y-88505000D01*
X50145000Y-42500000D02*
X50145000Y-44000000D01*
X86265000Y-42555000D02*
X89370000Y-39450000D01*
X91050000Y-39450000D02*
X89260000Y-39450000D01*
X89370000Y-39450000D02*
X91050000Y-39450000D01*
X128813604Y-39450000D02*
X91050000Y-39450000D01*
X86265000Y-42555000D02*
X86265000Y-44000000D01*
D29*
X101770000Y-57120000D02*
X105650000Y-61000000D01*
D30*
X110730000Y-61000000D02*
X107000000Y-57270000D01*
X107000000Y-64730000D02*
X110730000Y-61000000D01*
D29*
X113270000Y-59850000D02*
X113270000Y-61000000D01*
X113270000Y-61000000D02*
X113270000Y-62770000D01*
X116000000Y-57120000D02*
X113270000Y-59850000D01*
X113270000Y-62770000D02*
X116000000Y-65500000D01*
X121120000Y-61000000D02*
X118350000Y-61000000D01*
D30*
X112020000Y-60482233D02*
X112020000Y-61517767D01*
X112020000Y-61517767D02*
X112500000Y-61997767D01*
X112500000Y-60002233D02*
X112020000Y-60482233D01*
X136810000Y-77190000D02*
X142420000Y-77190000D01*
X112500000Y-44000000D02*
X112500000Y-60002233D01*
X124500000Y-89500000D02*
X136810000Y-77190000D01*
X114000000Y-89500000D02*
X124500000Y-89500000D01*
X112500000Y-61997767D02*
X112500000Y-88000000D01*
X112500000Y-88000000D02*
X114000000Y-89500000D01*
D31*
X147500000Y-78460000D02*
X139540000Y-78460000D01*
X139540000Y-78460000D02*
X138500000Y-79500000D01*
D30*
X128000000Y-90000000D02*
X138500000Y-79500000D01*
D29*
X114620000Y-41880000D02*
X112500000Y-44000000D01*
X116000000Y-41880000D02*
X114620000Y-41880000D01*
D28*
X145000000Y-64450000D02*
X142420000Y-67030000D01*
X149000000Y-60000000D02*
X146500000Y-60000000D01*
X145000000Y-61500000D02*
X145000000Y-64450000D01*
X163805000Y-65000000D02*
X154000000Y-65000000D01*
X146500000Y-60000000D02*
X145000000Y-61500000D01*
X165605000Y-63200000D02*
X163805000Y-65000000D01*
X154000000Y-65000000D02*
X149000000Y-60000000D01*
D30*
X138535000Y-57500000D02*
X135500000Y-60535000D01*
X161000000Y-64475000D02*
X154025000Y-57500000D01*
X163500000Y-64475000D02*
X161000000Y-64475000D01*
X164265000Y-63710000D02*
X163500000Y-64475000D01*
X164265000Y-62742462D02*
X164265000Y-63710000D01*
X154025000Y-57500000D02*
X138535000Y-57500000D01*
X165007462Y-62000000D02*
X164265000Y-62742462D01*
X166102057Y-62000000D02*
X165007462Y-62000000D01*
X166805000Y-62702943D02*
X166102057Y-62000000D01*
X166805000Y-63697057D02*
X166805000Y-62702943D01*
X164927057Y-65575000D02*
X166805000Y-63697057D01*
X147685000Y-65575000D02*
X164927057Y-65575000D01*
D28*
X149300000Y-66500000D02*
X147500000Y-68300000D01*
X164845000Y-66500000D02*
X149300000Y-66500000D01*
X168145000Y-63200000D02*
X164845000Y-66500000D01*
D30*
X139770000Y-79730000D02*
X142420000Y-79730000D01*
X128000000Y-91500000D02*
X139770000Y-79730000D01*
X111000000Y-91500000D02*
X128000000Y-91500000D01*
X106500000Y-87000000D02*
X111000000Y-91500000D01*
X105000000Y-87000000D02*
X106500000Y-87000000D01*
X127900000Y-90100000D02*
X128000000Y-90000000D01*
X111500000Y-90000000D02*
X111600000Y-90100000D01*
X110080000Y-88580000D02*
X111500000Y-90000000D01*
X111600000Y-90100000D02*
X127900000Y-90100000D01*
X110080000Y-87000000D02*
X110080000Y-88580000D01*
X123500000Y-87000000D02*
X120240000Y-87000000D01*
X134500000Y-76000000D02*
X123500000Y-87000000D01*
X139010000Y-73990000D02*
X139010000Y-64490000D01*
X137000000Y-76000000D02*
X139010000Y-73990000D01*
X134500000Y-76000000D02*
X137000000Y-76000000D01*
X131585000Y-56620000D02*
X135500000Y-60535000D01*
X107000000Y-65500000D02*
X107000000Y-64730000D01*
X95500000Y-90750000D02*
X95500000Y-88500000D01*
X95500000Y-88500000D02*
X97000000Y-87000000D01*
X100000000Y-92000000D02*
X96750000Y-92000000D01*
X105000000Y-87000000D02*
X100000000Y-92000000D01*
X96750000Y-92000000D02*
X95500000Y-90750000D01*
X107080000Y-84000000D02*
X110080000Y-87000000D01*
X104500000Y-84000000D02*
X107080000Y-84000000D01*
D32*
X100000000Y-87535000D02*
X97535000Y-90000000D01*
X100000000Y-86000000D02*
X100000000Y-87535000D01*
D30*
X107000000Y-71840000D02*
X107000000Y-65500000D01*
D32*
X104500000Y-84000000D02*
X102000000Y-84000000D01*
D30*
X103000000Y-82500000D02*
X103000000Y-75840000D01*
D32*
X102000000Y-84000000D02*
X100000000Y-86000000D01*
D30*
X104500000Y-84000000D02*
X103000000Y-82500000D01*
X103000000Y-75840000D02*
X107000000Y-71840000D01*
D32*
X107000000Y-57270000D02*
X107000000Y-57120000D01*
D28*
X186000000Y-84000000D02*
X190000000Y-88000000D01*
X182000000Y-84000000D02*
X186000000Y-84000000D01*
X185000000Y-93000000D02*
X190000000Y-88000000D01*
X177000000Y-93000000D02*
X185000000Y-93000000D01*
D30*
X118620000Y-54500000D02*
X116000000Y-57120000D01*
X128620000Y-56620000D02*
X126500000Y-54500000D01*
X131585000Y-56620000D02*
X128620000Y-56620000D01*
X126500000Y-54500000D02*
X118620000Y-54500000D01*
D29*
X116000000Y-41880000D02*
X113620000Y-41880000D01*
X113620000Y-41880000D02*
X107000000Y-41880000D01*
X125000000Y-57120000D02*
X121120000Y-61000000D01*
X125000000Y-57120000D02*
X125000000Y-65260000D01*
X139010000Y-64490000D02*
X142420000Y-64490000D01*
X138240000Y-65260000D02*
X139010000Y-64490000D01*
X138240000Y-65260000D02*
X125000000Y-65260000D01*
D32*
X128120000Y-57120000D02*
X131500000Y-60500000D01*
X125000000Y-57120000D02*
X128120000Y-57120000D01*
D29*
X98000000Y-57120000D02*
X101770000Y-57120000D01*
X98000000Y-57120000D02*
X98000000Y-65380000D01*
X116000000Y-41880000D02*
X125000000Y-41880000D01*
X98000000Y-41880000D02*
X107000000Y-41880000D01*
X95120000Y-41880000D02*
X98000000Y-41880000D01*
X92000000Y-45000000D02*
X95120000Y-41880000D01*
X92000000Y-83500000D02*
X92000000Y-45000000D01*
X94535000Y-86035000D02*
X92000000Y-83500000D01*
X94535000Y-91035000D02*
X94535000Y-86035000D01*
X96500000Y-93000000D02*
X94535000Y-91035000D01*
X130000000Y-93000000D02*
X96500000Y-93000000D01*
X135000000Y-88000000D02*
X130000000Y-93000000D01*
X145760000Y-88000000D02*
X135000000Y-88000000D01*
D28*
X131500000Y-42136396D02*
X128813604Y-39450000D01*
X131500000Y-55420000D02*
X131500000Y-42136396D01*
X129000000Y-39000000D02*
X55000000Y-39000000D01*
X51645000Y-41000000D02*
X50145000Y-42500000D01*
X135500000Y-45500000D02*
X129000000Y-39000000D01*
X53000000Y-41000000D02*
X51645000Y-41000000D01*
X135500000Y-55455000D02*
X135500000Y-45500000D01*
X55000000Y-39000000D02*
X53000000Y-41000000D01*
X180845000Y-63200000D02*
X181970000Y-64325000D01*
X181970000Y-64325000D02*
X187050000Y-64325000D01*
X187050000Y-64325000D02*
X188885000Y-62490000D01*
X185925000Y-63075000D02*
X189050000Y-59950000D01*
X185925000Y-63200000D02*
X185925000Y-63075000D01*
X148007412Y-72065000D02*
X144915000Y-72065000D01*
X152572412Y-67500000D02*
X148007412Y-72065000D01*
X144915000Y-72065000D02*
X142420000Y-69570000D01*
X159090812Y-67500000D02*
X152572412Y-67500000D01*
X159145812Y-67445000D02*
X159090812Y-67500000D01*
X166440000Y-67445000D02*
X159145812Y-67445000D01*
X170685000Y-63200000D02*
X166440000Y-67445000D01*
D32*
X96500000Y-85965000D02*
X95535000Y-85000000D01*
X96500000Y-86500000D02*
X96500000Y-85965000D01*
X97000000Y-87000000D02*
X96500000Y-86500000D01*
D28*
X166000000Y-93000000D02*
X177000000Y-93000000D01*
X161000000Y-88000000D02*
X166000000Y-93000000D01*
X176500000Y-93000000D02*
X177000000Y-93000000D01*
X176000000Y-92500000D02*
X176500000Y-93000000D01*
X176000000Y-88510000D02*
X176000000Y-92500000D01*
X175990000Y-88500000D02*
X176000000Y-88510000D01*
X173225000Y-79725000D02*
X181500000Y-88000000D01*
X173225000Y-70820000D02*
X173225000Y-79725000D01*
X181500000Y-88000000D02*
X187000000Y-88000000D01*
X86210000Y-92500000D02*
X88710000Y-90000000D01*
X88710000Y-90000000D02*
X92455000Y-90000000D01*
D30*
X97000000Y-87000000D02*
X97000000Y-85000000D01*
X97000000Y-85000000D02*
X97000000Y-83000000D01*
X96000000Y-67380000D02*
X98000000Y-65380000D01*
X97000000Y-83000000D02*
X96000000Y-82000000D01*
X96000000Y-82000000D02*
X96000000Y-67380000D01*
D32*
X143535000Y-90225000D02*
X145760000Y-88000000D01*
D28*
X138500000Y-91840000D02*
X140115000Y-90225000D01*
X140115000Y-90225000D02*
X143535000Y-90225000D01*
X169285000Y-74500000D02*
X169420000Y-74500000D01*
X169755000Y-69695000D02*
X176695000Y-69695000D01*
X180960000Y-82960000D02*
X182000000Y-84000000D01*
X165605000Y-70820000D02*
X167642500Y-72857500D01*
X167642500Y-72857500D02*
X169285000Y-74500000D01*
X176695000Y-69695000D02*
X177000000Y-70000000D01*
X167698491Y-72857500D02*
X169500000Y-71055991D01*
X177000000Y-81500000D02*
X179500000Y-84000000D01*
X180960000Y-81620000D02*
X180960000Y-82960000D01*
X169500000Y-71055991D02*
X169500000Y-69950000D01*
X169500000Y-69950000D02*
X169755000Y-69695000D01*
X179500000Y-84000000D02*
X182000000Y-84000000D01*
X177000000Y-70000000D02*
X177000000Y-81500000D01*
X167642500Y-72857500D02*
X167698491Y-72857500D01*
X174500000Y-74500000D02*
X175765000Y-73235000D01*
X175765000Y-73235000D02*
X175765000Y-70820000D01*
X174500000Y-74500000D02*
X174500000Y-79000000D01*
X167000000Y-77500000D02*
X163500000Y-81000000D01*
X170685000Y-70820000D02*
X170685000Y-76315000D01*
X165000000Y-77500000D02*
X167000000Y-77500000D01*
X169500000Y-77500000D02*
X167000000Y-77500000D01*
X170685000Y-76315000D02*
X169500000Y-77500000D01*
X163500000Y-81000000D02*
X147500000Y-81000000D01*
X143182588Y-75875000D02*
X141912588Y-75875000D01*
X167020000Y-69695000D02*
X165139009Y-69695000D01*
X168145000Y-70820000D02*
X167020000Y-69695000D01*
X158975991Y-76500000D02*
X148652412Y-76500000D01*
X164190000Y-71285991D02*
X158975991Y-76500000D01*
X148007412Y-77145000D02*
X144452588Y-77145000D01*
X141912588Y-75875000D02*
X140000000Y-73962412D01*
X148652412Y-76500000D02*
X148007412Y-77145000D01*
X144452588Y-77145000D02*
X143182588Y-75875000D01*
X140000000Y-73962412D02*
X140000000Y-70167588D01*
X164190000Y-70644009D02*
X164190000Y-71285991D01*
X149780000Y-63220000D02*
X150000000Y-63000000D01*
X165139009Y-69695000D02*
X164190000Y-70644009D01*
X147500000Y-63780000D02*
X147500000Y-63220000D01*
X141912588Y-68255000D02*
X143025000Y-68255000D01*
X143025000Y-68255000D02*
X147500000Y-63780000D01*
X147500000Y-63220000D02*
X149780000Y-63220000D01*
X140000000Y-70167588D02*
X141912588Y-68255000D01*
X164267208Y-68345000D02*
X164112208Y-68500000D01*
X167579188Y-68345000D02*
X164267208Y-68345000D01*
X157363604Y-70500000D02*
X155000000Y-70500000D01*
X171465000Y-67500000D02*
X169561396Y-67500000D01*
X155000000Y-70500000D02*
X150850000Y-74650000D01*
X168461396Y-68600000D02*
X167834188Y-68600000D01*
X167834188Y-68600000D02*
X167579188Y-68345000D01*
X159363604Y-68500000D02*
X157363604Y-70500000D01*
X169561396Y-67500000D02*
X168461396Y-68600000D01*
X175765000Y-63200000D02*
X171465000Y-67500000D01*
X164112208Y-68500000D02*
X159363604Y-68500000D01*
X150850000Y-74650000D02*
X142420000Y-74650000D01*
X183385000Y-70820000D02*
X186040000Y-73475000D01*
X186040000Y-73475000D02*
X186040000Y-74000000D01*
D30*
X120500000Y-81660000D02*
X120500000Y-70000000D01*
D32*
X147500000Y-65760000D02*
X147685000Y-65575000D01*
D30*
X115160000Y-87000000D02*
X120500000Y-81660000D01*
X120500000Y-70000000D02*
X116000000Y-65500000D01*
D28*
X183034009Y-75125000D02*
X184117500Y-75125000D01*
X179430000Y-71945000D02*
X180937500Y-71945000D01*
X178305000Y-70820000D02*
X179430000Y-71945000D01*
X182375000Y-74465991D02*
X183034009Y-75125000D01*
X182375000Y-73382500D02*
X182375000Y-74465991D01*
X180937500Y-71945000D02*
X182375000Y-73382500D01*
X183965991Y-72875000D02*
X183034009Y-72875000D01*
X184625000Y-74465991D02*
X184625000Y-73534009D01*
X183034009Y-72875000D02*
X182967004Y-72942004D01*
X185525000Y-75500000D02*
X184557995Y-74532995D01*
X182967004Y-72942004D02*
X180845000Y-70820000D01*
X184625000Y-73534009D02*
X183965991Y-72875000D01*
X184557995Y-74532995D02*
X184625000Y-74465991D01*
X167647792Y-69050000D02*
X167392792Y-68795000D01*
X173505000Y-68000000D02*
X169697792Y-68000000D01*
X159500000Y-69000000D02*
X153000000Y-75500000D01*
X152000000Y-75500000D02*
X151580000Y-75920000D01*
X164248604Y-69000000D02*
X159500000Y-69000000D01*
X164453604Y-68795000D02*
X164248604Y-69000000D01*
X169697792Y-68000000D02*
X168647792Y-69050000D01*
X151580000Y-75920000D02*
X147500000Y-75920000D01*
X153000000Y-75500000D02*
X152000000Y-75500000D01*
X168647792Y-69050000D02*
X167647792Y-69050000D01*
X167392792Y-68795000D02*
X164453604Y-68795000D01*
X178305000Y-63200000D02*
X173505000Y-68000000D01*
X147500000Y-73363604D02*
X147500000Y-73380000D01*
X168275000Y-68150000D02*
X168020584Y-68150000D01*
X157727208Y-69500000D02*
X151363604Y-69500000D01*
X159332208Y-67895000D02*
X157727208Y-69500000D01*
X168020584Y-68150000D02*
X167765584Y-67895000D01*
X151363604Y-69500000D02*
X147500000Y-73363604D01*
X167765584Y-67895000D02*
X159332208Y-67895000D01*
X173225000Y-63200000D02*
X168275000Y-68150000D01*
M02*
