%TF.GenerationSoftware,KiCad,Pcbnew,(6.0.11)*%
%TF.CreationDate,2023-02-08T22:05:09+00:00*%
%TF.ProjectId,StepperDemoPCB,53746570-7065-4724-9465-6d6f5043422e,rev?*%
%TF.SameCoordinates,Original*%
%TF.FileFunction,Drillmap*%
%TF.FilePolarity,Positive*%
%FSLAX45Y45*%
G04 Gerber Fmt 4.5, Leading zero omitted, Abs format (unit mm)*
G04 Created by KiCad (PCBNEW (6.0.11)) date 2023-02-08 22:05:09*
%MOMM*%
%LPD*%
G01*
G04 APERTURE LIST*
%ADD10C,0.100000*%
%ADD11C,0.200000*%
G04 APERTURE END LIST*
D10*
X3300000Y-3600000D02*
X20550000Y-3600000D01*
X20550000Y-3600000D02*
X20550000Y-10100000D01*
X20550000Y-10100000D02*
X3300000Y-10100000D01*
X3300000Y-10100000D02*
X3300000Y-3600000D01*
D11*
X3552619Y-10415476D02*
X3552619Y-10215476D01*
X3600238Y-10215476D01*
X3628809Y-10225000D01*
X3647857Y-10244048D01*
X3657381Y-10263095D01*
X3666905Y-10301190D01*
X3666905Y-10329762D01*
X3657381Y-10367857D01*
X3647857Y-10386905D01*
X3628809Y-10405952D01*
X3600238Y-10415476D01*
X3552619Y-10415476D01*
X3752619Y-10415476D02*
X3752619Y-10282143D01*
X3752619Y-10320238D02*
X3762143Y-10301190D01*
X3771667Y-10291667D01*
X3790714Y-10282143D01*
X3809762Y-10282143D01*
X3876428Y-10415476D02*
X3876428Y-10282143D01*
X3876428Y-10215476D02*
X3866905Y-10225000D01*
X3876428Y-10234524D01*
X3885952Y-10225000D01*
X3876428Y-10215476D01*
X3876428Y-10234524D01*
X4000238Y-10415476D02*
X3981190Y-10405952D01*
X3971667Y-10386905D01*
X3971667Y-10215476D01*
X4105000Y-10415476D02*
X4085952Y-10405952D01*
X4076428Y-10386905D01*
X4076428Y-10215476D01*
X4333571Y-10415476D02*
X4333571Y-10215476D01*
X4400238Y-10358333D01*
X4466905Y-10215476D01*
X4466905Y-10415476D01*
X4647857Y-10415476D02*
X4647857Y-10310714D01*
X4638333Y-10291667D01*
X4619286Y-10282143D01*
X4581190Y-10282143D01*
X4562143Y-10291667D01*
X4647857Y-10405952D02*
X4628810Y-10415476D01*
X4581190Y-10415476D01*
X4562143Y-10405952D01*
X4552619Y-10386905D01*
X4552619Y-10367857D01*
X4562143Y-10348810D01*
X4581190Y-10339286D01*
X4628810Y-10339286D01*
X4647857Y-10329762D01*
X4743095Y-10282143D02*
X4743095Y-10482143D01*
X4743095Y-10291667D02*
X4762143Y-10282143D01*
X4800238Y-10282143D01*
X4819286Y-10291667D01*
X4828810Y-10301190D01*
X4838333Y-10320238D01*
X4838333Y-10377381D01*
X4828810Y-10396429D01*
X4819286Y-10405952D01*
X4800238Y-10415476D01*
X4762143Y-10415476D01*
X4743095Y-10405952D01*
X4924048Y-10396429D02*
X4933571Y-10405952D01*
X4924048Y-10415476D01*
X4914524Y-10405952D01*
X4924048Y-10396429D01*
X4924048Y-10415476D01*
X4924048Y-10291667D02*
X4933571Y-10301190D01*
X4924048Y-10310714D01*
X4914524Y-10301190D01*
X4924048Y-10291667D01*
X4924048Y-10310714D01*
M02*
