%TF.GenerationSoftware,KiCad,Pcbnew,(6.0.11)*%
%TF.CreationDate,2023-02-08T16:01:08+00:00*%
%TF.ProjectId,StepperDemoPCB,53746570-7065-4724-9465-6d6f5043422e,rev?*%
%TF.SameCoordinates,Original*%
%TF.FileFunction,Drillmap*%
%TF.FilePolarity,Positive*%
%FSLAX45Y45*%
G04 Gerber Fmt 4.5, Leading zero omitted, Abs format (unit mm)*
G04 Created by KiCad (PCBNEW (6.0.11)) date 2023-02-08 16:01:08*
%MOMM*%
%LPD*%
G01*
G04 APERTURE LIST*
%ADD10C,0.100000*%
%ADD11C,0.200000*%
%ADD12C,0.070000*%
%ADD13C,0.080000*%
%ADD14C,0.090000*%
%ADD15C,0.152000*%
%ADD16C,0.160000*%
%ADD17C,0.410000*%
%ADD18C,0.430000*%
%ADD19C,0.900000*%
G04 APERTURE END LIST*
D10*
X3300000Y-3450000D02*
X20700000Y-3450000D01*
X20700000Y-3450000D02*
X20700000Y-10300000D01*
X20700000Y-10300000D02*
X3300000Y-10300000D01*
X3300000Y-10300000D02*
X3300000Y-3450000D01*
D11*
D12*
X13815000Y-8641000D02*
X13885000Y-8711000D01*
X13885000Y-8641000D02*
X13815000Y-8711000D01*
X13815000Y-9149000D02*
X13885000Y-9219000D01*
X13885000Y-9149000D02*
X13815000Y-9219000D01*
X14965000Y-6265000D02*
X15035000Y-6335000D01*
X15035000Y-6265000D02*
X14965000Y-6335000D01*
X15473000Y-6265000D02*
X15543000Y-6335000D01*
X15543000Y-6265000D02*
X15473000Y-6335000D01*
X16465000Y-7715000D02*
X16535000Y-7785000D01*
X16535000Y-7715000D02*
X16465000Y-7785000D01*
X16465000Y-8223000D02*
X16535000Y-8293000D01*
X16535000Y-8223000D02*
X16465000Y-8293000D01*
X16907000Y-7415000D02*
X16977000Y-7485000D01*
X16977000Y-7415000D02*
X16907000Y-7485000D01*
X17056000Y-8815000D02*
X17126000Y-8885000D01*
X17126000Y-8815000D02*
X17056000Y-8885000D01*
X17415000Y-7415000D02*
X17485000Y-7485000D01*
X17485000Y-7415000D02*
X17415000Y-7485000D01*
X17415000Y-7865000D02*
X17485000Y-7935000D01*
X17485000Y-7865000D02*
X17415000Y-7935000D01*
X17415000Y-8373000D02*
X17485000Y-8443000D01*
X17485000Y-8373000D02*
X17415000Y-8443000D01*
X17564000Y-8815000D02*
X17634000Y-8885000D01*
X17634000Y-8815000D02*
X17564000Y-8885000D01*
D13*
X9085500Y-8500000D02*
G75*
G03*
X9085500Y-8500000I-40000J0D01*
G01*
X9285500Y-9000000D02*
G75*
G03*
X9285500Y-9000000I-40000J0D01*
G01*
X9593500Y-8500000D02*
G75*
G03*
X9593500Y-8500000I-40000J0D01*
G01*
X9793500Y-9000000D02*
G75*
G03*
X9793500Y-9000000I-40000J0D01*
G01*
X13190000Y-5542000D02*
G75*
G03*
X13190000Y-5542000I-40000J0D01*
G01*
X13190000Y-6050000D02*
G75*
G03*
X13190000Y-6050000I-40000J0D01*
G01*
X13590000Y-5545500D02*
G75*
G03*
X13590000Y-5545500I-40000J0D01*
G01*
X13590000Y-6053500D02*
G75*
G03*
X13590000Y-6053500I-40000J0D01*
G01*
X16346500Y-6320000D02*
G75*
G03*
X16346500Y-6320000I-40000J0D01*
G01*
X16346500Y-7082000D02*
G75*
G03*
X16346500Y-7082000I-40000J0D01*
G01*
X16600500Y-6320000D02*
G75*
G03*
X16600500Y-6320000I-40000J0D01*
G01*
X16600500Y-7082000D02*
G75*
G03*
X16600500Y-7082000I-40000J0D01*
G01*
X16854500Y-6320000D02*
G75*
G03*
X16854500Y-6320000I-40000J0D01*
G01*
X16854500Y-7082000D02*
G75*
G03*
X16854500Y-7082000I-40000J0D01*
G01*
X17108500Y-6320000D02*
G75*
G03*
X17108500Y-6320000I-40000J0D01*
G01*
X17108500Y-7082000D02*
G75*
G03*
X17108500Y-7082000I-40000J0D01*
G01*
X17362500Y-6320000D02*
G75*
G03*
X17362500Y-6320000I-40000J0D01*
G01*
X17362500Y-7082000D02*
G75*
G03*
X17362500Y-7082000I-40000J0D01*
G01*
X17616500Y-6320000D02*
G75*
G03*
X17616500Y-6320000I-40000J0D01*
G01*
X17616500Y-7082000D02*
G75*
G03*
X17616500Y-7082000I-40000J0D01*
G01*
X17870500Y-6320000D02*
G75*
G03*
X17870500Y-6320000I-40000J0D01*
G01*
X17870500Y-7082000D02*
G75*
G03*
X17870500Y-7082000I-40000J0D01*
G01*
X18124500Y-6320000D02*
G75*
G03*
X18124500Y-6320000I-40000J0D01*
G01*
X18124500Y-7082000D02*
G75*
G03*
X18124500Y-7082000I-40000J0D01*
G01*
X18136000Y-7400000D02*
G75*
G03*
X18136000Y-7400000I-40000J0D01*
G01*
X18136000Y-8162000D02*
G75*
G03*
X18136000Y-8162000I-40000J0D01*
G01*
X18378500Y-6320000D02*
G75*
G03*
X18378500Y-6320000I-40000J0D01*
G01*
X18378500Y-7082000D02*
G75*
G03*
X18378500Y-7082000I-40000J0D01*
G01*
X18390000Y-7400000D02*
G75*
G03*
X18390000Y-7400000I-40000J0D01*
G01*
X18390000Y-8162000D02*
G75*
G03*
X18390000Y-8162000I-40000J0D01*
G01*
X18632500Y-6320000D02*
G75*
G03*
X18632500Y-6320000I-40000J0D01*
G01*
X18632500Y-7082000D02*
G75*
G03*
X18632500Y-7082000I-40000J0D01*
G01*
X18644000Y-7400000D02*
G75*
G03*
X18644000Y-7400000I-40000J0D01*
G01*
X18644000Y-8162000D02*
G75*
G03*
X18644000Y-8162000I-40000J0D01*
G01*
X18898000Y-7400000D02*
G75*
G03*
X18898000Y-7400000I-40000J0D01*
G01*
X18898000Y-8162000D02*
G75*
G03*
X18898000Y-8162000I-40000J0D01*
G01*
D14*
X4760500Y-4205000D02*
X4760500Y-4295000D01*
X4715500Y-4250000D02*
X4805500Y-4250000D01*
X4765500Y-9205000D02*
X4765500Y-9295000D01*
X4720500Y-9250000D02*
X4810500Y-9250000D01*
X5014500Y-4205000D02*
X5014500Y-4295000D01*
X4969500Y-4250000D02*
X5059500Y-4250000D01*
X5019500Y-9205000D02*
X5019500Y-9295000D01*
X4974500Y-9250000D02*
X5064500Y-9250000D01*
X8367000Y-4205000D02*
X8367000Y-4295000D01*
X8322000Y-4250000D02*
X8412000Y-4250000D01*
X8367000Y-9205000D02*
X8367000Y-9295000D01*
X8322000Y-9250000D02*
X8412000Y-9250000D01*
X8621000Y-4205000D02*
X8621000Y-4295000D01*
X8576000Y-4250000D02*
X8666000Y-4250000D01*
X8621000Y-9205000D02*
X8621000Y-9295000D01*
X8576000Y-9250000D02*
X8666000Y-9250000D01*
D10*
X14277356Y-6484356D02*
X14277356Y-6413644D01*
X14206644Y-6413644D01*
X14206644Y-6484356D01*
X14277356Y-6484356D01*
X14277356Y-6738356D02*
X14277356Y-6667644D01*
X14206644Y-6667644D01*
X14206644Y-6738356D01*
X14277356Y-6738356D01*
X14277356Y-6992356D02*
X14277356Y-6921644D01*
X14206644Y-6921644D01*
X14206644Y-6992356D01*
X14277356Y-6992356D01*
X14277356Y-7246356D02*
X14277356Y-7175644D01*
X14206644Y-7175644D01*
X14206644Y-7246356D01*
X14277356Y-7246356D01*
X14277356Y-7500356D02*
X14277356Y-7429644D01*
X14206644Y-7429644D01*
X14206644Y-7500356D01*
X14277356Y-7500356D01*
X14277356Y-7754356D02*
X14277356Y-7683644D01*
X14206644Y-7683644D01*
X14206644Y-7754356D01*
X14277356Y-7754356D01*
X14277356Y-8008356D02*
X14277356Y-7937644D01*
X14206644Y-7937644D01*
X14206644Y-8008356D01*
X14277356Y-8008356D01*
X14785356Y-6357356D02*
X14785356Y-6286644D01*
X14714644Y-6286644D01*
X14714644Y-6357356D01*
X14785356Y-6357356D01*
X14785356Y-6611356D02*
X14785356Y-6540644D01*
X14714644Y-6540644D01*
X14714644Y-6611356D01*
X14785356Y-6611356D01*
X14785356Y-6865356D02*
X14785356Y-6794644D01*
X14714644Y-6794644D01*
X14714644Y-6865356D01*
X14785356Y-6865356D01*
X14785356Y-7119356D02*
X14785356Y-7048644D01*
X14714644Y-7048644D01*
X14714644Y-7119356D01*
X14785356Y-7119356D01*
X14785356Y-7373356D02*
X14785356Y-7302644D01*
X14714644Y-7302644D01*
X14714644Y-7373356D01*
X14785356Y-7373356D01*
X14785356Y-7627356D02*
X14785356Y-7556644D01*
X14714644Y-7556644D01*
X14714644Y-7627356D01*
X14785356Y-7627356D01*
X14785356Y-7881356D02*
X14785356Y-7810644D01*
X14714644Y-7810644D01*
X14714644Y-7881356D01*
X14785356Y-7881356D01*
X14785356Y-8135356D02*
X14785356Y-8064644D01*
X14714644Y-8064644D01*
X14714644Y-8135356D01*
X14785356Y-8135356D01*
X18735356Y-8835356D02*
X18735356Y-8764644D01*
X18664644Y-8764644D01*
X18664644Y-8835356D01*
X18735356Y-8835356D01*
X20087856Y-6030356D02*
X20087856Y-5959644D01*
X20017144Y-5959644D01*
X20017144Y-6030356D01*
X20087856Y-6030356D01*
X20087856Y-6284356D02*
X20087856Y-6213644D01*
X20017144Y-6213644D01*
X20017144Y-6284356D01*
X20087856Y-6284356D01*
X20087856Y-6538356D02*
X20087856Y-6467644D01*
X20017144Y-6467644D01*
X20017144Y-6538356D01*
X20087856Y-6538356D01*
X20087856Y-6792356D02*
X20087856Y-6721644D01*
X20017144Y-6721644D01*
X20017144Y-6792356D01*
X20087856Y-6792356D01*
X20087856Y-7046356D02*
X20087856Y-6975644D01*
X20017144Y-6975644D01*
X20017144Y-7046356D01*
X20087856Y-7046356D01*
D15*
X10500000Y-8776000D02*
X10576000Y-8700000D01*
X10500000Y-8624000D01*
X10424000Y-8700000D01*
X10500000Y-8776000D01*
X11008000Y-8776000D02*
X11084000Y-8700000D01*
X11008000Y-8624000D01*
X10932000Y-8700000D01*
X11008000Y-8776000D01*
X11516000Y-8776000D02*
X11592000Y-8700000D01*
X11516000Y-8624000D01*
X11440000Y-8700000D01*
X11516000Y-8776000D01*
X12024000Y-8776000D02*
X12100000Y-8700000D01*
X12024000Y-8624000D01*
X11948000Y-8700000D01*
X12024000Y-8776000D01*
X14576000Y-8876000D02*
X14652000Y-8800000D01*
X14576000Y-8724000D01*
X14500000Y-8800000D01*
X14576000Y-8876000D01*
X15084000Y-8876000D02*
X15160000Y-8800000D01*
X15084000Y-8724000D01*
X15008000Y-8800000D01*
X15084000Y-8876000D01*
X15592000Y-8876000D02*
X15668000Y-8800000D01*
X15592000Y-8724000D01*
X15516000Y-8800000D01*
X15592000Y-8876000D01*
X16100000Y-8876000D02*
X16176000Y-8800000D01*
X16100000Y-8724000D01*
X16024000Y-8800000D01*
X16100000Y-8876000D01*
X19700000Y-7560000D02*
X19776000Y-7484000D01*
X19700000Y-7408000D01*
X19624000Y-7484000D01*
X19700000Y-7560000D01*
X19700000Y-8068000D02*
X19776000Y-7992000D01*
X19700000Y-7916000D01*
X19624000Y-7992000D01*
X19700000Y-8068000D01*
X19700000Y-8576000D02*
X19776000Y-8500000D01*
X19700000Y-8424000D01*
X19624000Y-8500000D01*
X19700000Y-8576000D01*
D16*
X9720000Y-4446000D02*
X9880000Y-4606000D01*
X9880000Y-4446000D02*
X9720000Y-4606000D01*
X9880000Y-4526000D02*
G75*
G03*
X9880000Y-4526000I-80000J0D01*
G01*
X9720000Y-5970000D02*
X9880000Y-6130000D01*
X9880000Y-5970000D02*
X9720000Y-6130000D01*
X9880000Y-6050000D02*
G75*
G03*
X9880000Y-6050000I-80000J0D01*
G01*
X9720000Y-6458000D02*
X9880000Y-6618000D01*
X9880000Y-6458000D02*
X9720000Y-6618000D01*
X9880000Y-6538000D02*
G75*
G03*
X9880000Y-6538000I-80000J0D01*
G01*
X9720000Y-7982000D02*
X9880000Y-8142000D01*
X9880000Y-7982000D02*
X9720000Y-8142000D01*
X9880000Y-8062000D02*
G75*
G03*
X9880000Y-8062000I-80000J0D01*
G01*
X10620000Y-4458000D02*
X10780000Y-4618000D01*
X10780000Y-4458000D02*
X10620000Y-4618000D01*
X10780000Y-4538000D02*
G75*
G03*
X10780000Y-4538000I-80000J0D01*
G01*
X10620000Y-5982000D02*
X10780000Y-6142000D01*
X10780000Y-5982000D02*
X10620000Y-6142000D01*
X10780000Y-6062000D02*
G75*
G03*
X10780000Y-6062000I-80000J0D01*
G01*
X10620000Y-6470000D02*
X10780000Y-6630000D01*
X10780000Y-6470000D02*
X10620000Y-6630000D01*
X10780000Y-6550000D02*
G75*
G03*
X10780000Y-6550000I-80000J0D01*
G01*
X10620000Y-7994000D02*
X10780000Y-8154000D01*
X10780000Y-7994000D02*
X10620000Y-8154000D01*
X10780000Y-8074000D02*
G75*
G03*
X10780000Y-8074000I-80000J0D01*
G01*
X11520000Y-4446000D02*
X11680000Y-4606000D01*
X11680000Y-4446000D02*
X11520000Y-4606000D01*
X11680000Y-4526000D02*
G75*
G03*
X11680000Y-4526000I-80000J0D01*
G01*
X11520000Y-5970000D02*
X11680000Y-6130000D01*
X11680000Y-5970000D02*
X11520000Y-6130000D01*
X11680000Y-6050000D02*
G75*
G03*
X11680000Y-6050000I-80000J0D01*
G01*
X11520000Y-6470000D02*
X11680000Y-6630000D01*
X11680000Y-6470000D02*
X11520000Y-6630000D01*
X11680000Y-6550000D02*
G75*
G03*
X11680000Y-6550000I-80000J0D01*
G01*
X11520000Y-7994000D02*
X11680000Y-8154000D01*
X11680000Y-7994000D02*
X11520000Y-8154000D01*
X11680000Y-8074000D02*
G75*
G03*
X11680000Y-8074000I-80000J0D01*
G01*
X12420000Y-4458000D02*
X12580000Y-4618000D01*
X12580000Y-4458000D02*
X12420000Y-4618000D01*
X12580000Y-4538000D02*
G75*
G03*
X12580000Y-4538000I-80000J0D01*
G01*
X12420000Y-5982000D02*
X12580000Y-6142000D01*
X12580000Y-5982000D02*
X12420000Y-6142000D01*
X12580000Y-6062000D02*
G75*
G03*
X12580000Y-6062000I-80000J0D01*
G01*
X12420000Y-6446000D02*
X12580000Y-6606000D01*
X12580000Y-6446000D02*
X12420000Y-6606000D01*
X12580000Y-6526000D02*
G75*
G03*
X12580000Y-6526000I-80000J0D01*
G01*
X12420000Y-7970000D02*
X12580000Y-8130000D01*
X12580000Y-7970000D02*
X12420000Y-8130000D01*
X12580000Y-8050000D02*
G75*
G03*
X12580000Y-8050000I-80000J0D01*
G01*
D17*
X4895000Y-5045000D02*
X5305000Y-5455000D01*
X5305000Y-5045000D02*
X4895000Y-5455000D01*
X5100000Y-5045000D02*
X5100000Y-5455000D01*
X4895000Y-5250000D02*
X5305000Y-5250000D01*
X4895000Y-8145000D02*
X5305000Y-8555000D01*
X5305000Y-8145000D02*
X4895000Y-8555000D01*
X5100000Y-8145000D02*
X5100000Y-8555000D01*
X4895000Y-8350000D02*
X5305000Y-8350000D01*
X7995000Y-5045000D02*
X8405000Y-5455000D01*
X8405000Y-5045000D02*
X7995000Y-5455000D01*
X8200000Y-5045000D02*
X8200000Y-5455000D01*
X7995000Y-5250000D02*
X8405000Y-5250000D01*
X7995000Y-8145000D02*
X8405000Y-8555000D01*
X8405000Y-8145000D02*
X7995000Y-8555000D01*
X8200000Y-8145000D02*
X8200000Y-8555000D01*
X7995000Y-8350000D02*
X8405000Y-8350000D01*
D18*
X3785000Y-4185000D02*
X4215000Y-4615000D01*
X4215000Y-4185000D02*
X3785000Y-4615000D01*
X4152029Y-4552029D02*
X4152029Y-4247971D01*
X3847971Y-4247971D01*
X3847971Y-4552029D01*
X4152029Y-4552029D01*
X3785000Y-9185000D02*
X4215000Y-9615000D01*
X4215000Y-9185000D02*
X3785000Y-9615000D01*
X4152029Y-9552029D02*
X4152029Y-9247971D01*
X3847971Y-9247971D01*
X3847971Y-9552029D01*
X4152029Y-9552029D01*
X19285000Y-4185000D02*
X19715000Y-4615000D01*
X19715000Y-4185000D02*
X19285000Y-4615000D01*
X19652029Y-4552029D02*
X19652029Y-4247971D01*
X19347971Y-4247971D01*
X19347971Y-4552029D01*
X19652029Y-4552029D01*
X19285000Y-9185000D02*
X19715000Y-9615000D01*
X19715000Y-9185000D02*
X19285000Y-9615000D01*
X19652029Y-9552029D02*
X19652029Y-9247971D01*
X19347971Y-9247971D01*
X19347971Y-9552029D01*
X19652029Y-9552029D01*
D19*
X6200000Y-6350000D02*
X7100000Y-7250000D01*
X7100000Y-6350000D02*
X6200000Y-7250000D01*
X6650000Y-7250000D02*
X7100000Y-6800000D01*
X6650000Y-6350000D01*
X6200000Y-6800000D01*
X6650000Y-7250000D01*
D11*
X3552619Y-10615476D02*
X3552619Y-10415476D01*
X3600238Y-10415476D01*
X3628809Y-10425000D01*
X3647857Y-10444048D01*
X3657381Y-10463095D01*
X3666905Y-10501190D01*
X3666905Y-10529762D01*
X3657381Y-10567857D01*
X3647857Y-10586905D01*
X3628809Y-10605952D01*
X3600238Y-10615476D01*
X3552619Y-10615476D01*
X3752619Y-10615476D02*
X3752619Y-10482143D01*
X3752619Y-10520238D02*
X3762143Y-10501190D01*
X3771667Y-10491667D01*
X3790714Y-10482143D01*
X3809762Y-10482143D01*
X3876428Y-10615476D02*
X3876428Y-10482143D01*
X3876428Y-10415476D02*
X3866905Y-10425000D01*
X3876428Y-10434524D01*
X3885952Y-10425000D01*
X3876428Y-10415476D01*
X3876428Y-10434524D01*
X4000238Y-10615476D02*
X3981190Y-10605952D01*
X3971667Y-10586905D01*
X3971667Y-10415476D01*
X4105000Y-10615476D02*
X4085952Y-10605952D01*
X4076428Y-10586905D01*
X4076428Y-10415476D01*
X4333571Y-10615476D02*
X4333571Y-10415476D01*
X4400238Y-10558333D01*
X4466905Y-10415476D01*
X4466905Y-10615476D01*
X4647857Y-10615476D02*
X4647857Y-10510714D01*
X4638333Y-10491667D01*
X4619286Y-10482143D01*
X4581190Y-10482143D01*
X4562143Y-10491667D01*
X4647857Y-10605952D02*
X4628810Y-10615476D01*
X4581190Y-10615476D01*
X4562143Y-10605952D01*
X4552619Y-10586905D01*
X4552619Y-10567857D01*
X4562143Y-10548810D01*
X4581190Y-10539286D01*
X4628810Y-10539286D01*
X4647857Y-10529762D01*
X4743095Y-10482143D02*
X4743095Y-10682143D01*
X4743095Y-10491667D02*
X4762143Y-10482143D01*
X4800238Y-10482143D01*
X4819286Y-10491667D01*
X4828810Y-10501190D01*
X4838333Y-10520238D01*
X4838333Y-10577381D01*
X4828810Y-10596429D01*
X4819286Y-10605952D01*
X4800238Y-10615476D01*
X4762143Y-10615476D01*
X4743095Y-10605952D01*
X4924048Y-10596429D02*
X4933571Y-10605952D01*
X4924048Y-10615476D01*
X4914524Y-10605952D01*
X4924048Y-10596429D01*
X4924048Y-10615476D01*
X4924048Y-10491667D02*
X4933571Y-10501190D01*
X4924048Y-10510714D01*
X4914524Y-10501190D01*
X4924048Y-10491667D01*
X4924048Y-10510714D01*
D12*
X3225000Y-10910000D02*
X3295000Y-10980000D01*
X3295000Y-10910000D02*
X3225000Y-10980000D01*
D11*
X3590714Y-10835476D02*
X3609762Y-10835476D01*
X3628809Y-10845000D01*
X3638333Y-10854524D01*
X3647857Y-10873571D01*
X3657381Y-10911667D01*
X3657381Y-10959286D01*
X3647857Y-10997381D01*
X3638333Y-11016429D01*
X3628809Y-11025952D01*
X3609762Y-11035476D01*
X3590714Y-11035476D01*
X3571667Y-11025952D01*
X3562143Y-11016429D01*
X3552619Y-10997381D01*
X3543095Y-10959286D01*
X3543095Y-10911667D01*
X3552619Y-10873571D01*
X3562143Y-10854524D01*
X3571667Y-10845000D01*
X3590714Y-10835476D01*
X3743095Y-11016429D02*
X3752619Y-11025952D01*
X3743095Y-11035476D01*
X3733571Y-11025952D01*
X3743095Y-11016429D01*
X3743095Y-11035476D01*
X3819286Y-10835476D02*
X3952619Y-10835476D01*
X3866905Y-11035476D01*
X4066905Y-10835476D02*
X4085952Y-10835476D01*
X4105000Y-10845000D01*
X4114524Y-10854524D01*
X4124048Y-10873571D01*
X4133571Y-10911667D01*
X4133571Y-10959286D01*
X4124048Y-10997381D01*
X4114524Y-11016429D01*
X4105000Y-11025952D01*
X4085952Y-11035476D01*
X4066905Y-11035476D01*
X4047857Y-11025952D01*
X4038333Y-11016429D01*
X4028809Y-10997381D01*
X4019286Y-10959286D01*
X4019286Y-10911667D01*
X4028809Y-10873571D01*
X4038333Y-10854524D01*
X4047857Y-10845000D01*
X4066905Y-10835476D01*
X4257381Y-10835476D02*
X4276429Y-10835476D01*
X4295476Y-10845000D01*
X4305000Y-10854524D01*
X4314524Y-10873571D01*
X4324048Y-10911667D01*
X4324048Y-10959286D01*
X4314524Y-10997381D01*
X4305000Y-11016429D01*
X4295476Y-11025952D01*
X4276429Y-11035476D01*
X4257381Y-11035476D01*
X4238333Y-11025952D01*
X4228810Y-11016429D01*
X4219286Y-10997381D01*
X4209762Y-10959286D01*
X4209762Y-10911667D01*
X4219286Y-10873571D01*
X4228810Y-10854524D01*
X4238333Y-10845000D01*
X4257381Y-10835476D01*
X4409762Y-11035476D02*
X4409762Y-10902143D01*
X4409762Y-10921190D02*
X4419286Y-10911667D01*
X4438333Y-10902143D01*
X4466905Y-10902143D01*
X4485952Y-10911667D01*
X4495476Y-10930714D01*
X4495476Y-11035476D01*
X4495476Y-10930714D02*
X4505000Y-10911667D01*
X4524048Y-10902143D01*
X4552619Y-10902143D01*
X4571667Y-10911667D01*
X4581190Y-10930714D01*
X4581190Y-11035476D01*
X4676429Y-11035476D02*
X4676429Y-10902143D01*
X4676429Y-10921190D02*
X4685952Y-10911667D01*
X4705000Y-10902143D01*
X4733571Y-10902143D01*
X4752619Y-10911667D01*
X4762143Y-10930714D01*
X4762143Y-11035476D01*
X4762143Y-10930714D02*
X4771667Y-10911667D01*
X4790714Y-10902143D01*
X4819286Y-10902143D01*
X4838333Y-10911667D01*
X4847857Y-10930714D01*
X4847857Y-11035476D01*
X5238333Y-10825952D02*
X5066905Y-11083095D01*
X5495476Y-10835476D02*
X5514524Y-10835476D01*
X5533571Y-10845000D01*
X5543095Y-10854524D01*
X5552619Y-10873571D01*
X5562143Y-10911667D01*
X5562143Y-10959286D01*
X5552619Y-10997381D01*
X5543095Y-11016429D01*
X5533571Y-11025952D01*
X5514524Y-11035476D01*
X5495476Y-11035476D01*
X5476429Y-11025952D01*
X5466905Y-11016429D01*
X5457381Y-10997381D01*
X5447857Y-10959286D01*
X5447857Y-10911667D01*
X5457381Y-10873571D01*
X5466905Y-10854524D01*
X5476429Y-10845000D01*
X5495476Y-10835476D01*
X5647857Y-11016429D02*
X5657381Y-11025952D01*
X5647857Y-11035476D01*
X5638333Y-11025952D01*
X5647857Y-11016429D01*
X5647857Y-11035476D01*
X5781190Y-10835476D02*
X5800238Y-10835476D01*
X5819286Y-10845000D01*
X5828809Y-10854524D01*
X5838333Y-10873571D01*
X5847857Y-10911667D01*
X5847857Y-10959286D01*
X5838333Y-10997381D01*
X5828809Y-11016429D01*
X5819286Y-11025952D01*
X5800238Y-11035476D01*
X5781190Y-11035476D01*
X5762143Y-11025952D01*
X5752619Y-11016429D01*
X5743095Y-10997381D01*
X5733571Y-10959286D01*
X5733571Y-10911667D01*
X5743095Y-10873571D01*
X5752619Y-10854524D01*
X5762143Y-10845000D01*
X5781190Y-10835476D01*
X5924048Y-10854524D02*
X5933571Y-10845000D01*
X5952619Y-10835476D01*
X6000238Y-10835476D01*
X6019286Y-10845000D01*
X6028809Y-10854524D01*
X6038333Y-10873571D01*
X6038333Y-10892619D01*
X6028809Y-10921190D01*
X5914524Y-11035476D01*
X6038333Y-11035476D01*
X6105000Y-10835476D02*
X6238333Y-10835476D01*
X6152619Y-11035476D01*
X6400238Y-10835476D02*
X6362143Y-10835476D01*
X6343095Y-10845000D01*
X6333571Y-10854524D01*
X6314524Y-10883095D01*
X6305000Y-10921190D01*
X6305000Y-10997381D01*
X6314524Y-11016429D01*
X6324048Y-11025952D01*
X6343095Y-11035476D01*
X6381190Y-11035476D01*
X6400238Y-11025952D01*
X6409762Y-11016429D01*
X6419286Y-10997381D01*
X6419286Y-10949762D01*
X6409762Y-10930714D01*
X6400238Y-10921190D01*
X6381190Y-10911667D01*
X6343095Y-10911667D01*
X6324048Y-10921190D01*
X6314524Y-10930714D01*
X6305000Y-10949762D01*
X6495476Y-10835476D02*
X6495476Y-10873571D01*
X6571667Y-10835476D02*
X6571667Y-10873571D01*
X6866905Y-11111667D02*
X6857381Y-11102143D01*
X6838333Y-11073571D01*
X6828809Y-11054524D01*
X6819286Y-11025952D01*
X6809762Y-10978333D01*
X6809762Y-10940238D01*
X6819286Y-10892619D01*
X6828809Y-10864048D01*
X6838333Y-10845000D01*
X6857381Y-10816429D01*
X6866905Y-10806905D01*
X7047857Y-11035476D02*
X6933571Y-11035476D01*
X6990714Y-11035476D02*
X6990714Y-10835476D01*
X6971667Y-10864048D01*
X6952619Y-10883095D01*
X6933571Y-10892619D01*
X7124048Y-10854524D02*
X7133571Y-10845000D01*
X7152619Y-10835476D01*
X7200238Y-10835476D01*
X7219286Y-10845000D01*
X7228809Y-10854524D01*
X7238333Y-10873571D01*
X7238333Y-10892619D01*
X7228809Y-10921190D01*
X7114524Y-11035476D01*
X7238333Y-11035476D01*
X7476428Y-11035476D02*
X7476428Y-10835476D01*
X7562143Y-11035476D02*
X7562143Y-10930714D01*
X7552619Y-10911667D01*
X7533571Y-10902143D01*
X7505000Y-10902143D01*
X7485952Y-10911667D01*
X7476428Y-10921190D01*
X7685952Y-11035476D02*
X7666905Y-11025952D01*
X7657381Y-11016429D01*
X7647857Y-10997381D01*
X7647857Y-10940238D01*
X7657381Y-10921190D01*
X7666905Y-10911667D01*
X7685952Y-10902143D01*
X7714524Y-10902143D01*
X7733571Y-10911667D01*
X7743095Y-10921190D01*
X7752619Y-10940238D01*
X7752619Y-10997381D01*
X7743095Y-11016429D01*
X7733571Y-11025952D01*
X7714524Y-11035476D01*
X7685952Y-11035476D01*
X7866905Y-11035476D02*
X7847857Y-11025952D01*
X7838333Y-11006905D01*
X7838333Y-10835476D01*
X8019286Y-11025952D02*
X8000238Y-11035476D01*
X7962143Y-11035476D01*
X7943095Y-11025952D01*
X7933571Y-11006905D01*
X7933571Y-10930714D01*
X7943095Y-10911667D01*
X7962143Y-10902143D01*
X8000238Y-10902143D01*
X8019286Y-10911667D01*
X8028809Y-10930714D01*
X8028809Y-10949762D01*
X7933571Y-10968810D01*
X8105000Y-11025952D02*
X8124048Y-11035476D01*
X8162143Y-11035476D01*
X8181190Y-11025952D01*
X8190714Y-11006905D01*
X8190714Y-10997381D01*
X8181190Y-10978333D01*
X8162143Y-10968810D01*
X8133571Y-10968810D01*
X8114524Y-10959286D01*
X8105000Y-10940238D01*
X8105000Y-10930714D01*
X8114524Y-10911667D01*
X8133571Y-10902143D01*
X8162143Y-10902143D01*
X8181190Y-10911667D01*
X8257381Y-11111667D02*
X8266905Y-11102143D01*
X8285952Y-11073571D01*
X8295476Y-11054524D01*
X8305000Y-11025952D01*
X8314524Y-10978333D01*
X8314524Y-10940238D01*
X8305000Y-10892619D01*
X8295476Y-10864048D01*
X8285952Y-10845000D01*
X8266905Y-10816429D01*
X8257381Y-10806905D01*
D13*
X3295000Y-11209000D02*
G75*
G03*
X3295000Y-11209000I-40000J0D01*
G01*
D11*
X3590714Y-11099476D02*
X3609762Y-11099476D01*
X3628809Y-11109000D01*
X3638333Y-11118524D01*
X3647857Y-11137571D01*
X3657381Y-11175667D01*
X3657381Y-11223286D01*
X3647857Y-11261381D01*
X3638333Y-11280428D01*
X3628809Y-11289952D01*
X3609762Y-11299476D01*
X3590714Y-11299476D01*
X3571667Y-11289952D01*
X3562143Y-11280428D01*
X3552619Y-11261381D01*
X3543095Y-11223286D01*
X3543095Y-11175667D01*
X3552619Y-11137571D01*
X3562143Y-11118524D01*
X3571667Y-11109000D01*
X3590714Y-11099476D01*
X3743095Y-11280428D02*
X3752619Y-11289952D01*
X3743095Y-11299476D01*
X3733571Y-11289952D01*
X3743095Y-11280428D01*
X3743095Y-11299476D01*
X3866905Y-11185190D02*
X3847857Y-11175667D01*
X3838333Y-11166143D01*
X3828809Y-11147095D01*
X3828809Y-11137571D01*
X3838333Y-11118524D01*
X3847857Y-11109000D01*
X3866905Y-11099476D01*
X3905000Y-11099476D01*
X3924048Y-11109000D01*
X3933571Y-11118524D01*
X3943095Y-11137571D01*
X3943095Y-11147095D01*
X3933571Y-11166143D01*
X3924048Y-11175667D01*
X3905000Y-11185190D01*
X3866905Y-11185190D01*
X3847857Y-11194714D01*
X3838333Y-11204238D01*
X3828809Y-11223286D01*
X3828809Y-11261381D01*
X3838333Y-11280428D01*
X3847857Y-11289952D01*
X3866905Y-11299476D01*
X3905000Y-11299476D01*
X3924048Y-11289952D01*
X3933571Y-11280428D01*
X3943095Y-11261381D01*
X3943095Y-11223286D01*
X3933571Y-11204238D01*
X3924048Y-11194714D01*
X3905000Y-11185190D01*
X4066905Y-11099476D02*
X4085952Y-11099476D01*
X4105000Y-11109000D01*
X4114524Y-11118524D01*
X4124048Y-11137571D01*
X4133571Y-11175667D01*
X4133571Y-11223286D01*
X4124048Y-11261381D01*
X4114524Y-11280428D01*
X4105000Y-11289952D01*
X4085952Y-11299476D01*
X4066905Y-11299476D01*
X4047857Y-11289952D01*
X4038333Y-11280428D01*
X4028809Y-11261381D01*
X4019286Y-11223286D01*
X4019286Y-11175667D01*
X4028809Y-11137571D01*
X4038333Y-11118524D01*
X4047857Y-11109000D01*
X4066905Y-11099476D01*
X4257381Y-11099476D02*
X4276429Y-11099476D01*
X4295476Y-11109000D01*
X4305000Y-11118524D01*
X4314524Y-11137571D01*
X4324048Y-11175667D01*
X4324048Y-11223286D01*
X4314524Y-11261381D01*
X4305000Y-11280428D01*
X4295476Y-11289952D01*
X4276429Y-11299476D01*
X4257381Y-11299476D01*
X4238333Y-11289952D01*
X4228810Y-11280428D01*
X4219286Y-11261381D01*
X4209762Y-11223286D01*
X4209762Y-11175667D01*
X4219286Y-11137571D01*
X4228810Y-11118524D01*
X4238333Y-11109000D01*
X4257381Y-11099476D01*
X4409762Y-11299476D02*
X4409762Y-11166143D01*
X4409762Y-11185190D02*
X4419286Y-11175667D01*
X4438333Y-11166143D01*
X4466905Y-11166143D01*
X4485952Y-11175667D01*
X4495476Y-11194714D01*
X4495476Y-11299476D01*
X4495476Y-11194714D02*
X4505000Y-11175667D01*
X4524048Y-11166143D01*
X4552619Y-11166143D01*
X4571667Y-11175667D01*
X4581190Y-11194714D01*
X4581190Y-11299476D01*
X4676429Y-11299476D02*
X4676429Y-11166143D01*
X4676429Y-11185190D02*
X4685952Y-11175667D01*
X4705000Y-11166143D01*
X4733571Y-11166143D01*
X4752619Y-11175667D01*
X4762143Y-11194714D01*
X4762143Y-11299476D01*
X4762143Y-11194714D02*
X4771667Y-11175667D01*
X4790714Y-11166143D01*
X4819286Y-11166143D01*
X4838333Y-11175667D01*
X4847857Y-11194714D01*
X4847857Y-11299476D01*
X5238333Y-11089952D02*
X5066905Y-11347095D01*
X5495476Y-11099476D02*
X5514524Y-11099476D01*
X5533571Y-11109000D01*
X5543095Y-11118524D01*
X5552619Y-11137571D01*
X5562143Y-11175667D01*
X5562143Y-11223286D01*
X5552619Y-11261381D01*
X5543095Y-11280428D01*
X5533571Y-11289952D01*
X5514524Y-11299476D01*
X5495476Y-11299476D01*
X5476429Y-11289952D01*
X5466905Y-11280428D01*
X5457381Y-11261381D01*
X5447857Y-11223286D01*
X5447857Y-11175667D01*
X5457381Y-11137571D01*
X5466905Y-11118524D01*
X5476429Y-11109000D01*
X5495476Y-11099476D01*
X5647857Y-11280428D02*
X5657381Y-11289952D01*
X5647857Y-11299476D01*
X5638333Y-11289952D01*
X5647857Y-11280428D01*
X5647857Y-11299476D01*
X5781190Y-11099476D02*
X5800238Y-11099476D01*
X5819286Y-11109000D01*
X5828809Y-11118524D01*
X5838333Y-11137571D01*
X5847857Y-11175667D01*
X5847857Y-11223286D01*
X5838333Y-11261381D01*
X5828809Y-11280428D01*
X5819286Y-11289952D01*
X5800238Y-11299476D01*
X5781190Y-11299476D01*
X5762143Y-11289952D01*
X5752619Y-11280428D01*
X5743095Y-11261381D01*
X5733571Y-11223286D01*
X5733571Y-11175667D01*
X5743095Y-11137571D01*
X5752619Y-11118524D01*
X5762143Y-11109000D01*
X5781190Y-11099476D01*
X5914524Y-11099476D02*
X6038333Y-11099476D01*
X5971667Y-11175667D01*
X6000238Y-11175667D01*
X6019286Y-11185190D01*
X6028809Y-11194714D01*
X6038333Y-11213762D01*
X6038333Y-11261381D01*
X6028809Y-11280428D01*
X6019286Y-11289952D01*
X6000238Y-11299476D01*
X5943095Y-11299476D01*
X5924048Y-11289952D01*
X5914524Y-11280428D01*
X6228809Y-11299476D02*
X6114524Y-11299476D01*
X6171667Y-11299476D02*
X6171667Y-11099476D01*
X6152619Y-11128048D01*
X6133571Y-11147095D01*
X6114524Y-11156619D01*
X6409762Y-11099476D02*
X6314524Y-11099476D01*
X6305000Y-11194714D01*
X6314524Y-11185190D01*
X6333571Y-11175667D01*
X6381190Y-11175667D01*
X6400238Y-11185190D01*
X6409762Y-11194714D01*
X6419286Y-11213762D01*
X6419286Y-11261381D01*
X6409762Y-11280428D01*
X6400238Y-11289952D01*
X6381190Y-11299476D01*
X6333571Y-11299476D01*
X6314524Y-11289952D01*
X6305000Y-11280428D01*
X6495476Y-11099476D02*
X6495476Y-11137571D01*
X6571667Y-11099476D02*
X6571667Y-11137571D01*
X6866905Y-11375667D02*
X6857381Y-11366143D01*
X6838333Y-11337571D01*
X6828809Y-11318524D01*
X6819286Y-11289952D01*
X6809762Y-11242333D01*
X6809762Y-11204238D01*
X6819286Y-11156619D01*
X6828809Y-11128048D01*
X6838333Y-11109000D01*
X6857381Y-11080429D01*
X6866905Y-11070905D01*
X6924048Y-11099476D02*
X7047857Y-11099476D01*
X6981190Y-11175667D01*
X7009762Y-11175667D01*
X7028809Y-11185190D01*
X7038333Y-11194714D01*
X7047857Y-11213762D01*
X7047857Y-11261381D01*
X7038333Y-11280428D01*
X7028809Y-11289952D01*
X7009762Y-11299476D01*
X6952619Y-11299476D01*
X6933571Y-11289952D01*
X6924048Y-11280428D01*
X7219286Y-11099476D02*
X7181190Y-11099476D01*
X7162143Y-11109000D01*
X7152619Y-11118524D01*
X7133571Y-11147095D01*
X7124048Y-11185190D01*
X7124048Y-11261381D01*
X7133571Y-11280428D01*
X7143095Y-11289952D01*
X7162143Y-11299476D01*
X7200238Y-11299476D01*
X7219286Y-11289952D01*
X7228809Y-11280428D01*
X7238333Y-11261381D01*
X7238333Y-11213762D01*
X7228809Y-11194714D01*
X7219286Y-11185190D01*
X7200238Y-11175667D01*
X7162143Y-11175667D01*
X7143095Y-11185190D01*
X7133571Y-11194714D01*
X7124048Y-11213762D01*
X7476428Y-11299476D02*
X7476428Y-11099476D01*
X7562143Y-11299476D02*
X7562143Y-11194714D01*
X7552619Y-11175667D01*
X7533571Y-11166143D01*
X7505000Y-11166143D01*
X7485952Y-11175667D01*
X7476428Y-11185190D01*
X7685952Y-11299476D02*
X7666905Y-11289952D01*
X7657381Y-11280428D01*
X7647857Y-11261381D01*
X7647857Y-11204238D01*
X7657381Y-11185190D01*
X7666905Y-11175667D01*
X7685952Y-11166143D01*
X7714524Y-11166143D01*
X7733571Y-11175667D01*
X7743095Y-11185190D01*
X7752619Y-11204238D01*
X7752619Y-11261381D01*
X7743095Y-11280428D01*
X7733571Y-11289952D01*
X7714524Y-11299476D01*
X7685952Y-11299476D01*
X7866905Y-11299476D02*
X7847857Y-11289952D01*
X7838333Y-11270905D01*
X7838333Y-11099476D01*
X8019286Y-11289952D02*
X8000238Y-11299476D01*
X7962143Y-11299476D01*
X7943095Y-11289952D01*
X7933571Y-11270905D01*
X7933571Y-11194714D01*
X7943095Y-11175667D01*
X7962143Y-11166143D01*
X8000238Y-11166143D01*
X8019286Y-11175667D01*
X8028809Y-11194714D01*
X8028809Y-11213762D01*
X7933571Y-11232809D01*
X8105000Y-11289952D02*
X8124048Y-11299476D01*
X8162143Y-11299476D01*
X8181190Y-11289952D01*
X8190714Y-11270905D01*
X8190714Y-11261381D01*
X8181190Y-11242333D01*
X8162143Y-11232809D01*
X8133571Y-11232809D01*
X8114524Y-11223286D01*
X8105000Y-11204238D01*
X8105000Y-11194714D01*
X8114524Y-11175667D01*
X8133571Y-11166143D01*
X8162143Y-11166143D01*
X8181190Y-11175667D01*
X8257381Y-11375667D02*
X8266905Y-11366143D01*
X8285952Y-11337571D01*
X8295476Y-11318524D01*
X8305000Y-11289952D01*
X8314524Y-11242333D01*
X8314524Y-11204238D01*
X8305000Y-11156619D01*
X8295476Y-11128048D01*
X8285952Y-11109000D01*
X8266905Y-11080429D01*
X8257381Y-11070905D01*
D14*
X3250000Y-11428000D02*
X3250000Y-11518000D01*
X3205000Y-11473000D02*
X3295000Y-11473000D01*
D11*
X3590714Y-11363476D02*
X3609762Y-11363476D01*
X3628809Y-11373000D01*
X3638333Y-11382524D01*
X3647857Y-11401571D01*
X3657381Y-11439667D01*
X3657381Y-11487286D01*
X3647857Y-11525381D01*
X3638333Y-11544428D01*
X3628809Y-11553952D01*
X3609762Y-11563476D01*
X3590714Y-11563476D01*
X3571667Y-11553952D01*
X3562143Y-11544428D01*
X3552619Y-11525381D01*
X3543095Y-11487286D01*
X3543095Y-11439667D01*
X3552619Y-11401571D01*
X3562143Y-11382524D01*
X3571667Y-11373000D01*
X3590714Y-11363476D01*
X3743095Y-11544428D02*
X3752619Y-11553952D01*
X3743095Y-11563476D01*
X3733571Y-11553952D01*
X3743095Y-11544428D01*
X3743095Y-11563476D01*
X3847857Y-11563476D02*
X3885952Y-11563476D01*
X3905000Y-11553952D01*
X3914524Y-11544428D01*
X3933571Y-11515857D01*
X3943095Y-11477762D01*
X3943095Y-11401571D01*
X3933571Y-11382524D01*
X3924048Y-11373000D01*
X3905000Y-11363476D01*
X3866905Y-11363476D01*
X3847857Y-11373000D01*
X3838333Y-11382524D01*
X3828809Y-11401571D01*
X3828809Y-11449190D01*
X3838333Y-11468238D01*
X3847857Y-11477762D01*
X3866905Y-11487286D01*
X3905000Y-11487286D01*
X3924048Y-11477762D01*
X3933571Y-11468238D01*
X3943095Y-11449190D01*
X4066905Y-11363476D02*
X4085952Y-11363476D01*
X4105000Y-11373000D01*
X4114524Y-11382524D01*
X4124048Y-11401571D01*
X4133571Y-11439667D01*
X4133571Y-11487286D01*
X4124048Y-11525381D01*
X4114524Y-11544428D01*
X4105000Y-11553952D01*
X4085952Y-11563476D01*
X4066905Y-11563476D01*
X4047857Y-11553952D01*
X4038333Y-11544428D01*
X4028809Y-11525381D01*
X4019286Y-11487286D01*
X4019286Y-11439667D01*
X4028809Y-11401571D01*
X4038333Y-11382524D01*
X4047857Y-11373000D01*
X4066905Y-11363476D01*
X4257381Y-11363476D02*
X4276429Y-11363476D01*
X4295476Y-11373000D01*
X4305000Y-11382524D01*
X4314524Y-11401571D01*
X4324048Y-11439667D01*
X4324048Y-11487286D01*
X4314524Y-11525381D01*
X4305000Y-11544428D01*
X4295476Y-11553952D01*
X4276429Y-11563476D01*
X4257381Y-11563476D01*
X4238333Y-11553952D01*
X4228810Y-11544428D01*
X4219286Y-11525381D01*
X4209762Y-11487286D01*
X4209762Y-11439667D01*
X4219286Y-11401571D01*
X4228810Y-11382524D01*
X4238333Y-11373000D01*
X4257381Y-11363476D01*
X4409762Y-11563476D02*
X4409762Y-11430143D01*
X4409762Y-11449190D02*
X4419286Y-11439667D01*
X4438333Y-11430143D01*
X4466905Y-11430143D01*
X4485952Y-11439667D01*
X4495476Y-11458714D01*
X4495476Y-11563476D01*
X4495476Y-11458714D02*
X4505000Y-11439667D01*
X4524048Y-11430143D01*
X4552619Y-11430143D01*
X4571667Y-11439667D01*
X4581190Y-11458714D01*
X4581190Y-11563476D01*
X4676429Y-11563476D02*
X4676429Y-11430143D01*
X4676429Y-11449190D02*
X4685952Y-11439667D01*
X4705000Y-11430143D01*
X4733571Y-11430143D01*
X4752619Y-11439667D01*
X4762143Y-11458714D01*
X4762143Y-11563476D01*
X4762143Y-11458714D02*
X4771667Y-11439667D01*
X4790714Y-11430143D01*
X4819286Y-11430143D01*
X4838333Y-11439667D01*
X4847857Y-11458714D01*
X4847857Y-11563476D01*
X5238333Y-11353952D02*
X5066905Y-11611095D01*
X5495476Y-11363476D02*
X5514524Y-11363476D01*
X5533571Y-11373000D01*
X5543095Y-11382524D01*
X5552619Y-11401571D01*
X5562143Y-11439667D01*
X5562143Y-11487286D01*
X5552619Y-11525381D01*
X5543095Y-11544428D01*
X5533571Y-11553952D01*
X5514524Y-11563476D01*
X5495476Y-11563476D01*
X5476429Y-11553952D01*
X5466905Y-11544428D01*
X5457381Y-11525381D01*
X5447857Y-11487286D01*
X5447857Y-11439667D01*
X5457381Y-11401571D01*
X5466905Y-11382524D01*
X5476429Y-11373000D01*
X5495476Y-11363476D01*
X5647857Y-11544428D02*
X5657381Y-11553952D01*
X5647857Y-11563476D01*
X5638333Y-11553952D01*
X5647857Y-11544428D01*
X5647857Y-11563476D01*
X5781190Y-11363476D02*
X5800238Y-11363476D01*
X5819286Y-11373000D01*
X5828809Y-11382524D01*
X5838333Y-11401571D01*
X5847857Y-11439667D01*
X5847857Y-11487286D01*
X5838333Y-11525381D01*
X5828809Y-11544428D01*
X5819286Y-11553952D01*
X5800238Y-11563476D01*
X5781190Y-11563476D01*
X5762143Y-11553952D01*
X5752619Y-11544428D01*
X5743095Y-11525381D01*
X5733571Y-11487286D01*
X5733571Y-11439667D01*
X5743095Y-11401571D01*
X5752619Y-11382524D01*
X5762143Y-11373000D01*
X5781190Y-11363476D01*
X5914524Y-11363476D02*
X6038333Y-11363476D01*
X5971667Y-11439667D01*
X6000238Y-11439667D01*
X6019286Y-11449190D01*
X6028809Y-11458714D01*
X6038333Y-11477762D01*
X6038333Y-11525381D01*
X6028809Y-11544428D01*
X6019286Y-11553952D01*
X6000238Y-11563476D01*
X5943095Y-11563476D01*
X5924048Y-11553952D01*
X5914524Y-11544428D01*
X6219286Y-11363476D02*
X6124048Y-11363476D01*
X6114524Y-11458714D01*
X6124048Y-11449190D01*
X6143095Y-11439667D01*
X6190714Y-11439667D01*
X6209762Y-11449190D01*
X6219286Y-11458714D01*
X6228809Y-11477762D01*
X6228809Y-11525381D01*
X6219286Y-11544428D01*
X6209762Y-11553952D01*
X6190714Y-11563476D01*
X6143095Y-11563476D01*
X6124048Y-11553952D01*
X6114524Y-11544428D01*
X6400238Y-11430143D02*
X6400238Y-11563476D01*
X6352619Y-11353952D02*
X6305000Y-11496809D01*
X6428809Y-11496809D01*
X6495476Y-11363476D02*
X6495476Y-11401571D01*
X6571667Y-11363476D02*
X6571667Y-11401571D01*
X6866905Y-11639667D02*
X6857381Y-11630143D01*
X6838333Y-11601571D01*
X6828809Y-11582524D01*
X6819286Y-11553952D01*
X6809762Y-11506333D01*
X6809762Y-11468238D01*
X6819286Y-11420619D01*
X6828809Y-11392048D01*
X6838333Y-11373000D01*
X6857381Y-11344428D01*
X6866905Y-11334905D01*
X6971667Y-11449190D02*
X6952619Y-11439667D01*
X6943095Y-11430143D01*
X6933571Y-11411095D01*
X6933571Y-11401571D01*
X6943095Y-11382524D01*
X6952619Y-11373000D01*
X6971667Y-11363476D01*
X7009762Y-11363476D01*
X7028809Y-11373000D01*
X7038333Y-11382524D01*
X7047857Y-11401571D01*
X7047857Y-11411095D01*
X7038333Y-11430143D01*
X7028809Y-11439667D01*
X7009762Y-11449190D01*
X6971667Y-11449190D01*
X6952619Y-11458714D01*
X6943095Y-11468238D01*
X6933571Y-11487286D01*
X6933571Y-11525381D01*
X6943095Y-11544428D01*
X6952619Y-11553952D01*
X6971667Y-11563476D01*
X7009762Y-11563476D01*
X7028809Y-11553952D01*
X7038333Y-11544428D01*
X7047857Y-11525381D01*
X7047857Y-11487286D01*
X7038333Y-11468238D01*
X7028809Y-11458714D01*
X7009762Y-11449190D01*
X7285952Y-11563476D02*
X7285952Y-11363476D01*
X7371667Y-11563476D02*
X7371667Y-11458714D01*
X7362143Y-11439667D01*
X7343095Y-11430143D01*
X7314524Y-11430143D01*
X7295476Y-11439667D01*
X7285952Y-11449190D01*
X7495476Y-11563476D02*
X7476428Y-11553952D01*
X7466905Y-11544428D01*
X7457381Y-11525381D01*
X7457381Y-11468238D01*
X7466905Y-11449190D01*
X7476428Y-11439667D01*
X7495476Y-11430143D01*
X7524048Y-11430143D01*
X7543095Y-11439667D01*
X7552619Y-11449190D01*
X7562143Y-11468238D01*
X7562143Y-11525381D01*
X7552619Y-11544428D01*
X7543095Y-11553952D01*
X7524048Y-11563476D01*
X7495476Y-11563476D01*
X7676428Y-11563476D02*
X7657381Y-11553952D01*
X7647857Y-11534905D01*
X7647857Y-11363476D01*
X7828809Y-11553952D02*
X7809762Y-11563476D01*
X7771667Y-11563476D01*
X7752619Y-11553952D01*
X7743095Y-11534905D01*
X7743095Y-11458714D01*
X7752619Y-11439667D01*
X7771667Y-11430143D01*
X7809762Y-11430143D01*
X7828809Y-11439667D01*
X7838333Y-11458714D01*
X7838333Y-11477762D01*
X7743095Y-11496809D01*
X7914524Y-11553952D02*
X7933571Y-11563476D01*
X7971667Y-11563476D01*
X7990714Y-11553952D01*
X8000238Y-11534905D01*
X8000238Y-11525381D01*
X7990714Y-11506333D01*
X7971667Y-11496809D01*
X7943095Y-11496809D01*
X7924048Y-11487286D01*
X7914524Y-11468238D01*
X7914524Y-11458714D01*
X7924048Y-11439667D01*
X7943095Y-11430143D01*
X7971667Y-11430143D01*
X7990714Y-11439667D01*
X8066905Y-11639667D02*
X8076428Y-11630143D01*
X8095476Y-11601571D01*
X8105000Y-11582524D01*
X8114524Y-11553952D01*
X8124048Y-11506333D01*
X8124048Y-11468238D01*
X8114524Y-11420619D01*
X8105000Y-11392048D01*
X8095476Y-11373000D01*
X8076428Y-11344428D01*
X8066905Y-11334905D01*
D10*
X3280356Y-11772356D02*
X3280356Y-11701644D01*
X3209644Y-11701644D01*
X3209644Y-11772356D01*
X3280356Y-11772356D01*
D11*
X3657381Y-11827476D02*
X3543095Y-11827476D01*
X3600238Y-11827476D02*
X3600238Y-11627476D01*
X3581190Y-11656048D01*
X3562143Y-11675095D01*
X3543095Y-11684619D01*
X3743095Y-11808428D02*
X3752619Y-11817952D01*
X3743095Y-11827476D01*
X3733571Y-11817952D01*
X3743095Y-11808428D01*
X3743095Y-11827476D01*
X3876428Y-11627476D02*
X3895476Y-11627476D01*
X3914524Y-11637000D01*
X3924048Y-11646524D01*
X3933571Y-11665571D01*
X3943095Y-11703667D01*
X3943095Y-11751286D01*
X3933571Y-11789381D01*
X3924048Y-11808428D01*
X3914524Y-11817952D01*
X3895476Y-11827476D01*
X3876428Y-11827476D01*
X3857381Y-11817952D01*
X3847857Y-11808428D01*
X3838333Y-11789381D01*
X3828809Y-11751286D01*
X3828809Y-11703667D01*
X3838333Y-11665571D01*
X3847857Y-11646524D01*
X3857381Y-11637000D01*
X3876428Y-11627476D01*
X4066905Y-11627476D02*
X4085952Y-11627476D01*
X4105000Y-11637000D01*
X4114524Y-11646524D01*
X4124048Y-11665571D01*
X4133571Y-11703667D01*
X4133571Y-11751286D01*
X4124048Y-11789381D01*
X4114524Y-11808428D01*
X4105000Y-11817952D01*
X4085952Y-11827476D01*
X4066905Y-11827476D01*
X4047857Y-11817952D01*
X4038333Y-11808428D01*
X4028809Y-11789381D01*
X4019286Y-11751286D01*
X4019286Y-11703667D01*
X4028809Y-11665571D01*
X4038333Y-11646524D01*
X4047857Y-11637000D01*
X4066905Y-11627476D01*
X4257381Y-11627476D02*
X4276429Y-11627476D01*
X4295476Y-11637000D01*
X4305000Y-11646524D01*
X4314524Y-11665571D01*
X4324048Y-11703667D01*
X4324048Y-11751286D01*
X4314524Y-11789381D01*
X4305000Y-11808428D01*
X4295476Y-11817952D01*
X4276429Y-11827476D01*
X4257381Y-11827476D01*
X4238333Y-11817952D01*
X4228810Y-11808428D01*
X4219286Y-11789381D01*
X4209762Y-11751286D01*
X4209762Y-11703667D01*
X4219286Y-11665571D01*
X4228810Y-11646524D01*
X4238333Y-11637000D01*
X4257381Y-11627476D01*
X4409762Y-11827476D02*
X4409762Y-11694143D01*
X4409762Y-11713190D02*
X4419286Y-11703667D01*
X4438333Y-11694143D01*
X4466905Y-11694143D01*
X4485952Y-11703667D01*
X4495476Y-11722714D01*
X4495476Y-11827476D01*
X4495476Y-11722714D02*
X4505000Y-11703667D01*
X4524048Y-11694143D01*
X4552619Y-11694143D01*
X4571667Y-11703667D01*
X4581190Y-11722714D01*
X4581190Y-11827476D01*
X4676429Y-11827476D02*
X4676429Y-11694143D01*
X4676429Y-11713190D02*
X4685952Y-11703667D01*
X4705000Y-11694143D01*
X4733571Y-11694143D01*
X4752619Y-11703667D01*
X4762143Y-11722714D01*
X4762143Y-11827476D01*
X4762143Y-11722714D02*
X4771667Y-11703667D01*
X4790714Y-11694143D01*
X4819286Y-11694143D01*
X4838333Y-11703667D01*
X4847857Y-11722714D01*
X4847857Y-11827476D01*
X5238333Y-11617952D02*
X5066905Y-11875095D01*
X5495476Y-11627476D02*
X5514524Y-11627476D01*
X5533571Y-11637000D01*
X5543095Y-11646524D01*
X5552619Y-11665571D01*
X5562143Y-11703667D01*
X5562143Y-11751286D01*
X5552619Y-11789381D01*
X5543095Y-11808428D01*
X5533571Y-11817952D01*
X5514524Y-11827476D01*
X5495476Y-11827476D01*
X5476429Y-11817952D01*
X5466905Y-11808428D01*
X5457381Y-11789381D01*
X5447857Y-11751286D01*
X5447857Y-11703667D01*
X5457381Y-11665571D01*
X5466905Y-11646524D01*
X5476429Y-11637000D01*
X5495476Y-11627476D01*
X5647857Y-11808428D02*
X5657381Y-11817952D01*
X5647857Y-11827476D01*
X5638333Y-11817952D01*
X5647857Y-11808428D01*
X5647857Y-11827476D01*
X5781190Y-11627476D02*
X5800238Y-11627476D01*
X5819286Y-11637000D01*
X5828809Y-11646524D01*
X5838333Y-11665571D01*
X5847857Y-11703667D01*
X5847857Y-11751286D01*
X5838333Y-11789381D01*
X5828809Y-11808428D01*
X5819286Y-11817952D01*
X5800238Y-11827476D01*
X5781190Y-11827476D01*
X5762143Y-11817952D01*
X5752619Y-11808428D01*
X5743095Y-11789381D01*
X5733571Y-11751286D01*
X5733571Y-11703667D01*
X5743095Y-11665571D01*
X5752619Y-11646524D01*
X5762143Y-11637000D01*
X5781190Y-11627476D01*
X5914524Y-11627476D02*
X6038333Y-11627476D01*
X5971667Y-11703667D01*
X6000238Y-11703667D01*
X6019286Y-11713190D01*
X6028809Y-11722714D01*
X6038333Y-11741762D01*
X6038333Y-11789381D01*
X6028809Y-11808428D01*
X6019286Y-11817952D01*
X6000238Y-11827476D01*
X5943095Y-11827476D01*
X5924048Y-11817952D01*
X5914524Y-11808428D01*
X6133571Y-11827476D02*
X6171667Y-11827476D01*
X6190714Y-11817952D01*
X6200238Y-11808428D01*
X6219286Y-11779857D01*
X6228809Y-11741762D01*
X6228809Y-11665571D01*
X6219286Y-11646524D01*
X6209762Y-11637000D01*
X6190714Y-11627476D01*
X6152619Y-11627476D01*
X6133571Y-11637000D01*
X6124048Y-11646524D01*
X6114524Y-11665571D01*
X6114524Y-11713190D01*
X6124048Y-11732238D01*
X6133571Y-11741762D01*
X6152619Y-11751286D01*
X6190714Y-11751286D01*
X6209762Y-11741762D01*
X6219286Y-11732238D01*
X6228809Y-11713190D01*
X6400238Y-11694143D02*
X6400238Y-11827476D01*
X6352619Y-11617952D02*
X6305000Y-11760809D01*
X6428809Y-11760809D01*
X6495476Y-11627476D02*
X6495476Y-11665571D01*
X6571667Y-11627476D02*
X6571667Y-11665571D01*
X6866905Y-11903667D02*
X6857381Y-11894143D01*
X6838333Y-11865571D01*
X6828809Y-11846524D01*
X6819286Y-11817952D01*
X6809762Y-11770333D01*
X6809762Y-11732238D01*
X6819286Y-11684619D01*
X6828809Y-11656048D01*
X6838333Y-11637000D01*
X6857381Y-11608428D01*
X6866905Y-11598905D01*
X6933571Y-11646524D02*
X6943095Y-11637000D01*
X6962143Y-11627476D01*
X7009762Y-11627476D01*
X7028809Y-11637000D01*
X7038333Y-11646524D01*
X7047857Y-11665571D01*
X7047857Y-11684619D01*
X7038333Y-11713190D01*
X6924048Y-11827476D01*
X7047857Y-11827476D01*
X7238333Y-11827476D02*
X7124048Y-11827476D01*
X7181190Y-11827476D02*
X7181190Y-11627476D01*
X7162143Y-11656048D01*
X7143095Y-11675095D01*
X7124048Y-11684619D01*
X7476428Y-11827476D02*
X7476428Y-11627476D01*
X7562143Y-11827476D02*
X7562143Y-11722714D01*
X7552619Y-11703667D01*
X7533571Y-11694143D01*
X7505000Y-11694143D01*
X7485952Y-11703667D01*
X7476428Y-11713190D01*
X7685952Y-11827476D02*
X7666905Y-11817952D01*
X7657381Y-11808428D01*
X7647857Y-11789381D01*
X7647857Y-11732238D01*
X7657381Y-11713190D01*
X7666905Y-11703667D01*
X7685952Y-11694143D01*
X7714524Y-11694143D01*
X7733571Y-11703667D01*
X7743095Y-11713190D01*
X7752619Y-11732238D01*
X7752619Y-11789381D01*
X7743095Y-11808428D01*
X7733571Y-11817952D01*
X7714524Y-11827476D01*
X7685952Y-11827476D01*
X7866905Y-11827476D02*
X7847857Y-11817952D01*
X7838333Y-11798905D01*
X7838333Y-11627476D01*
X8019286Y-11817952D02*
X8000238Y-11827476D01*
X7962143Y-11827476D01*
X7943095Y-11817952D01*
X7933571Y-11798905D01*
X7933571Y-11722714D01*
X7943095Y-11703667D01*
X7962143Y-11694143D01*
X8000238Y-11694143D01*
X8019286Y-11703667D01*
X8028809Y-11722714D01*
X8028809Y-11741762D01*
X7933571Y-11760809D01*
X8105000Y-11817952D02*
X8124048Y-11827476D01*
X8162143Y-11827476D01*
X8181190Y-11817952D01*
X8190714Y-11798905D01*
X8190714Y-11789381D01*
X8181190Y-11770333D01*
X8162143Y-11760809D01*
X8133571Y-11760809D01*
X8114524Y-11751286D01*
X8105000Y-11732238D01*
X8105000Y-11722714D01*
X8114524Y-11703667D01*
X8133571Y-11694143D01*
X8162143Y-11694143D01*
X8181190Y-11703667D01*
X8257381Y-11903667D02*
X8266905Y-11894143D01*
X8285952Y-11865571D01*
X8295476Y-11846524D01*
X8305000Y-11817952D01*
X8314524Y-11770333D01*
X8314524Y-11732238D01*
X8305000Y-11684619D01*
X8295476Y-11656048D01*
X8285952Y-11637000D01*
X8266905Y-11608428D01*
X8257381Y-11598905D01*
D15*
X3219000Y-12077000D02*
X3295000Y-12001000D01*
X3219000Y-11925000D01*
X3143000Y-12001000D01*
X3219000Y-12077000D01*
D11*
X3657381Y-12091476D02*
X3543095Y-12091476D01*
X3600238Y-12091476D02*
X3600238Y-11891476D01*
X3581190Y-11920048D01*
X3562143Y-11939095D01*
X3543095Y-11948619D01*
X3743095Y-12072428D02*
X3752619Y-12081952D01*
X3743095Y-12091476D01*
X3733571Y-12081952D01*
X3743095Y-12072428D01*
X3743095Y-12091476D01*
X3933571Y-11891476D02*
X3838333Y-11891476D01*
X3828809Y-11986714D01*
X3838333Y-11977190D01*
X3857381Y-11967667D01*
X3905000Y-11967667D01*
X3924048Y-11977190D01*
X3933571Y-11986714D01*
X3943095Y-12005762D01*
X3943095Y-12053381D01*
X3933571Y-12072428D01*
X3924048Y-12081952D01*
X3905000Y-12091476D01*
X3857381Y-12091476D01*
X3838333Y-12081952D01*
X3828809Y-12072428D01*
X4019286Y-11910524D02*
X4028809Y-11901000D01*
X4047857Y-11891476D01*
X4095476Y-11891476D01*
X4114524Y-11901000D01*
X4124048Y-11910524D01*
X4133571Y-11929571D01*
X4133571Y-11948619D01*
X4124048Y-11977190D01*
X4009762Y-12091476D01*
X4133571Y-12091476D01*
X4257381Y-11891476D02*
X4276429Y-11891476D01*
X4295476Y-11901000D01*
X4305000Y-11910524D01*
X4314524Y-11929571D01*
X4324048Y-11967667D01*
X4324048Y-12015286D01*
X4314524Y-12053381D01*
X4305000Y-12072428D01*
X4295476Y-12081952D01*
X4276429Y-12091476D01*
X4257381Y-12091476D01*
X4238333Y-12081952D01*
X4228810Y-12072428D01*
X4219286Y-12053381D01*
X4209762Y-12015286D01*
X4209762Y-11967667D01*
X4219286Y-11929571D01*
X4228810Y-11910524D01*
X4238333Y-11901000D01*
X4257381Y-11891476D01*
X4409762Y-12091476D02*
X4409762Y-11958143D01*
X4409762Y-11977190D02*
X4419286Y-11967667D01*
X4438333Y-11958143D01*
X4466905Y-11958143D01*
X4485952Y-11967667D01*
X4495476Y-11986714D01*
X4495476Y-12091476D01*
X4495476Y-11986714D02*
X4505000Y-11967667D01*
X4524048Y-11958143D01*
X4552619Y-11958143D01*
X4571667Y-11967667D01*
X4581190Y-11986714D01*
X4581190Y-12091476D01*
X4676429Y-12091476D02*
X4676429Y-11958143D01*
X4676429Y-11977190D02*
X4685952Y-11967667D01*
X4705000Y-11958143D01*
X4733571Y-11958143D01*
X4752619Y-11967667D01*
X4762143Y-11986714D01*
X4762143Y-12091476D01*
X4762143Y-11986714D02*
X4771667Y-11967667D01*
X4790714Y-11958143D01*
X4819286Y-11958143D01*
X4838333Y-11967667D01*
X4847857Y-11986714D01*
X4847857Y-12091476D01*
X5238333Y-11881952D02*
X5066905Y-12139095D01*
X5495476Y-11891476D02*
X5514524Y-11891476D01*
X5533571Y-11901000D01*
X5543095Y-11910524D01*
X5552619Y-11929571D01*
X5562143Y-11967667D01*
X5562143Y-12015286D01*
X5552619Y-12053381D01*
X5543095Y-12072428D01*
X5533571Y-12081952D01*
X5514524Y-12091476D01*
X5495476Y-12091476D01*
X5476429Y-12081952D01*
X5466905Y-12072428D01*
X5457381Y-12053381D01*
X5447857Y-12015286D01*
X5447857Y-11967667D01*
X5457381Y-11929571D01*
X5466905Y-11910524D01*
X5476429Y-11901000D01*
X5495476Y-11891476D01*
X5647857Y-12072428D02*
X5657381Y-12081952D01*
X5647857Y-12091476D01*
X5638333Y-12081952D01*
X5647857Y-12072428D01*
X5647857Y-12091476D01*
X5781190Y-11891476D02*
X5800238Y-11891476D01*
X5819286Y-11901000D01*
X5828809Y-11910524D01*
X5838333Y-11929571D01*
X5847857Y-11967667D01*
X5847857Y-12015286D01*
X5838333Y-12053381D01*
X5828809Y-12072428D01*
X5819286Y-12081952D01*
X5800238Y-12091476D01*
X5781190Y-12091476D01*
X5762143Y-12081952D01*
X5752619Y-12072428D01*
X5743095Y-12053381D01*
X5733571Y-12015286D01*
X5733571Y-11967667D01*
X5743095Y-11929571D01*
X5752619Y-11910524D01*
X5762143Y-11901000D01*
X5781190Y-11891476D01*
X6028809Y-11891476D02*
X5933571Y-11891476D01*
X5924048Y-11986714D01*
X5933571Y-11977190D01*
X5952619Y-11967667D01*
X6000238Y-11967667D01*
X6019286Y-11977190D01*
X6028809Y-11986714D01*
X6038333Y-12005762D01*
X6038333Y-12053381D01*
X6028809Y-12072428D01*
X6019286Y-12081952D01*
X6000238Y-12091476D01*
X5952619Y-12091476D01*
X5933571Y-12081952D01*
X5924048Y-12072428D01*
X6133571Y-12091476D02*
X6171667Y-12091476D01*
X6190714Y-12081952D01*
X6200238Y-12072428D01*
X6219286Y-12043857D01*
X6228809Y-12005762D01*
X6228809Y-11929571D01*
X6219286Y-11910524D01*
X6209762Y-11901000D01*
X6190714Y-11891476D01*
X6152619Y-11891476D01*
X6133571Y-11901000D01*
X6124048Y-11910524D01*
X6114524Y-11929571D01*
X6114524Y-11977190D01*
X6124048Y-11996238D01*
X6133571Y-12005762D01*
X6152619Y-12015286D01*
X6190714Y-12015286D01*
X6209762Y-12005762D01*
X6219286Y-11996238D01*
X6228809Y-11977190D01*
X6343095Y-11977190D02*
X6324048Y-11967667D01*
X6314524Y-11958143D01*
X6305000Y-11939095D01*
X6305000Y-11929571D01*
X6314524Y-11910524D01*
X6324048Y-11901000D01*
X6343095Y-11891476D01*
X6381190Y-11891476D01*
X6400238Y-11901000D01*
X6409762Y-11910524D01*
X6419286Y-11929571D01*
X6419286Y-11939095D01*
X6409762Y-11958143D01*
X6400238Y-11967667D01*
X6381190Y-11977190D01*
X6343095Y-11977190D01*
X6324048Y-11986714D01*
X6314524Y-11996238D01*
X6305000Y-12015286D01*
X6305000Y-12053381D01*
X6314524Y-12072428D01*
X6324048Y-12081952D01*
X6343095Y-12091476D01*
X6381190Y-12091476D01*
X6400238Y-12081952D01*
X6409762Y-12072428D01*
X6419286Y-12053381D01*
X6419286Y-12015286D01*
X6409762Y-11996238D01*
X6400238Y-11986714D01*
X6381190Y-11977190D01*
X6495476Y-11891476D02*
X6495476Y-11929571D01*
X6571667Y-11891476D02*
X6571667Y-11929571D01*
X6866905Y-12167667D02*
X6857381Y-12158143D01*
X6838333Y-12129571D01*
X6828809Y-12110524D01*
X6819286Y-12081952D01*
X6809762Y-12034333D01*
X6809762Y-11996238D01*
X6819286Y-11948619D01*
X6828809Y-11920048D01*
X6838333Y-11901000D01*
X6857381Y-11872428D01*
X6866905Y-11862905D01*
X7047857Y-12091476D02*
X6933571Y-12091476D01*
X6990714Y-12091476D02*
X6990714Y-11891476D01*
X6971667Y-11920048D01*
X6952619Y-11939095D01*
X6933571Y-11948619D01*
X7238333Y-12091476D02*
X7124048Y-12091476D01*
X7181190Y-12091476D02*
X7181190Y-11891476D01*
X7162143Y-11920048D01*
X7143095Y-11939095D01*
X7124048Y-11948619D01*
X7476428Y-12091476D02*
X7476428Y-11891476D01*
X7562143Y-12091476D02*
X7562143Y-11986714D01*
X7552619Y-11967667D01*
X7533571Y-11958143D01*
X7505000Y-11958143D01*
X7485952Y-11967667D01*
X7476428Y-11977190D01*
X7685952Y-12091476D02*
X7666905Y-12081952D01*
X7657381Y-12072428D01*
X7647857Y-12053381D01*
X7647857Y-11996238D01*
X7657381Y-11977190D01*
X7666905Y-11967667D01*
X7685952Y-11958143D01*
X7714524Y-11958143D01*
X7733571Y-11967667D01*
X7743095Y-11977190D01*
X7752619Y-11996238D01*
X7752619Y-12053381D01*
X7743095Y-12072428D01*
X7733571Y-12081952D01*
X7714524Y-12091476D01*
X7685952Y-12091476D01*
X7866905Y-12091476D02*
X7847857Y-12081952D01*
X7838333Y-12062905D01*
X7838333Y-11891476D01*
X8019286Y-12081952D02*
X8000238Y-12091476D01*
X7962143Y-12091476D01*
X7943095Y-12081952D01*
X7933571Y-12062905D01*
X7933571Y-11986714D01*
X7943095Y-11967667D01*
X7962143Y-11958143D01*
X8000238Y-11958143D01*
X8019286Y-11967667D01*
X8028809Y-11986714D01*
X8028809Y-12005762D01*
X7933571Y-12024809D01*
X8105000Y-12081952D02*
X8124048Y-12091476D01*
X8162143Y-12091476D01*
X8181190Y-12081952D01*
X8190714Y-12062905D01*
X8190714Y-12053381D01*
X8181190Y-12034333D01*
X8162143Y-12024809D01*
X8133571Y-12024809D01*
X8114524Y-12015286D01*
X8105000Y-11996238D01*
X8105000Y-11986714D01*
X8114524Y-11967667D01*
X8133571Y-11958143D01*
X8162143Y-11958143D01*
X8181190Y-11967667D01*
X8257381Y-12167667D02*
X8266905Y-12158143D01*
X8285952Y-12129571D01*
X8295476Y-12110524D01*
X8305000Y-12081952D01*
X8314524Y-12034333D01*
X8314524Y-11996238D01*
X8305000Y-11948619D01*
X8295476Y-11920048D01*
X8285952Y-11901000D01*
X8266905Y-11872428D01*
X8257381Y-11862905D01*
D16*
X3135000Y-12193000D02*
X3295000Y-12353000D01*
X3295000Y-12193000D02*
X3135000Y-12353000D01*
X3295000Y-12273000D02*
G75*
G03*
X3295000Y-12273000I-80000J0D01*
G01*
D11*
X3657381Y-12363476D02*
X3543095Y-12363476D01*
X3600238Y-12363476D02*
X3600238Y-12163476D01*
X3581190Y-12192048D01*
X3562143Y-12211095D01*
X3543095Y-12220619D01*
X3743095Y-12344428D02*
X3752619Y-12353952D01*
X3743095Y-12363476D01*
X3733571Y-12353952D01*
X3743095Y-12344428D01*
X3743095Y-12363476D01*
X3924048Y-12163476D02*
X3885952Y-12163476D01*
X3866905Y-12173000D01*
X3857381Y-12182524D01*
X3838333Y-12211095D01*
X3828809Y-12249190D01*
X3828809Y-12325381D01*
X3838333Y-12344428D01*
X3847857Y-12353952D01*
X3866905Y-12363476D01*
X3905000Y-12363476D01*
X3924048Y-12353952D01*
X3933571Y-12344428D01*
X3943095Y-12325381D01*
X3943095Y-12277762D01*
X3933571Y-12258714D01*
X3924048Y-12249190D01*
X3905000Y-12239667D01*
X3866905Y-12239667D01*
X3847857Y-12249190D01*
X3838333Y-12258714D01*
X3828809Y-12277762D01*
X4066905Y-12163476D02*
X4085952Y-12163476D01*
X4105000Y-12173000D01*
X4114524Y-12182524D01*
X4124048Y-12201571D01*
X4133571Y-12239667D01*
X4133571Y-12287286D01*
X4124048Y-12325381D01*
X4114524Y-12344428D01*
X4105000Y-12353952D01*
X4085952Y-12363476D01*
X4066905Y-12363476D01*
X4047857Y-12353952D01*
X4038333Y-12344428D01*
X4028809Y-12325381D01*
X4019286Y-12287286D01*
X4019286Y-12239667D01*
X4028809Y-12201571D01*
X4038333Y-12182524D01*
X4047857Y-12173000D01*
X4066905Y-12163476D01*
X4257381Y-12163476D02*
X4276429Y-12163476D01*
X4295476Y-12173000D01*
X4305000Y-12182524D01*
X4314524Y-12201571D01*
X4324048Y-12239667D01*
X4324048Y-12287286D01*
X4314524Y-12325381D01*
X4305000Y-12344428D01*
X4295476Y-12353952D01*
X4276429Y-12363476D01*
X4257381Y-12363476D01*
X4238333Y-12353952D01*
X4228810Y-12344428D01*
X4219286Y-12325381D01*
X4209762Y-12287286D01*
X4209762Y-12239667D01*
X4219286Y-12201571D01*
X4228810Y-12182524D01*
X4238333Y-12173000D01*
X4257381Y-12163476D01*
X4409762Y-12363476D02*
X4409762Y-12230143D01*
X4409762Y-12249190D02*
X4419286Y-12239667D01*
X4438333Y-12230143D01*
X4466905Y-12230143D01*
X4485952Y-12239667D01*
X4495476Y-12258714D01*
X4495476Y-12363476D01*
X4495476Y-12258714D02*
X4505000Y-12239667D01*
X4524048Y-12230143D01*
X4552619Y-12230143D01*
X4571667Y-12239667D01*
X4581190Y-12258714D01*
X4581190Y-12363476D01*
X4676429Y-12363476D02*
X4676429Y-12230143D01*
X4676429Y-12249190D02*
X4685952Y-12239667D01*
X4705000Y-12230143D01*
X4733571Y-12230143D01*
X4752619Y-12239667D01*
X4762143Y-12258714D01*
X4762143Y-12363476D01*
X4762143Y-12258714D02*
X4771667Y-12239667D01*
X4790714Y-12230143D01*
X4819286Y-12230143D01*
X4838333Y-12239667D01*
X4847857Y-12258714D01*
X4847857Y-12363476D01*
X5238333Y-12153952D02*
X5066905Y-12411095D01*
X5495476Y-12163476D02*
X5514524Y-12163476D01*
X5533571Y-12173000D01*
X5543095Y-12182524D01*
X5552619Y-12201571D01*
X5562143Y-12239667D01*
X5562143Y-12287286D01*
X5552619Y-12325381D01*
X5543095Y-12344428D01*
X5533571Y-12353952D01*
X5514524Y-12363476D01*
X5495476Y-12363476D01*
X5476429Y-12353952D01*
X5466905Y-12344428D01*
X5457381Y-12325381D01*
X5447857Y-12287286D01*
X5447857Y-12239667D01*
X5457381Y-12201571D01*
X5466905Y-12182524D01*
X5476429Y-12173000D01*
X5495476Y-12163476D01*
X5647857Y-12344428D02*
X5657381Y-12353952D01*
X5647857Y-12363476D01*
X5638333Y-12353952D01*
X5647857Y-12344428D01*
X5647857Y-12363476D01*
X5781190Y-12163476D02*
X5800238Y-12163476D01*
X5819286Y-12173000D01*
X5828809Y-12182524D01*
X5838333Y-12201571D01*
X5847857Y-12239667D01*
X5847857Y-12287286D01*
X5838333Y-12325381D01*
X5828809Y-12344428D01*
X5819286Y-12353952D01*
X5800238Y-12363476D01*
X5781190Y-12363476D01*
X5762143Y-12353952D01*
X5752619Y-12344428D01*
X5743095Y-12325381D01*
X5733571Y-12287286D01*
X5733571Y-12239667D01*
X5743095Y-12201571D01*
X5752619Y-12182524D01*
X5762143Y-12173000D01*
X5781190Y-12163476D01*
X6019286Y-12163476D02*
X5981190Y-12163476D01*
X5962143Y-12173000D01*
X5952619Y-12182524D01*
X5933571Y-12211095D01*
X5924048Y-12249190D01*
X5924048Y-12325381D01*
X5933571Y-12344428D01*
X5943095Y-12353952D01*
X5962143Y-12363476D01*
X6000238Y-12363476D01*
X6019286Y-12353952D01*
X6028809Y-12344428D01*
X6038333Y-12325381D01*
X6038333Y-12277762D01*
X6028809Y-12258714D01*
X6019286Y-12249190D01*
X6000238Y-12239667D01*
X5962143Y-12239667D01*
X5943095Y-12249190D01*
X5933571Y-12258714D01*
X5924048Y-12277762D01*
X6105000Y-12163476D02*
X6228809Y-12163476D01*
X6162143Y-12239667D01*
X6190714Y-12239667D01*
X6209762Y-12249190D01*
X6219286Y-12258714D01*
X6228809Y-12277762D01*
X6228809Y-12325381D01*
X6219286Y-12344428D01*
X6209762Y-12353952D01*
X6190714Y-12363476D01*
X6133571Y-12363476D01*
X6114524Y-12353952D01*
X6105000Y-12344428D01*
X6352619Y-12163476D02*
X6371667Y-12163476D01*
X6390714Y-12173000D01*
X6400238Y-12182524D01*
X6409762Y-12201571D01*
X6419286Y-12239667D01*
X6419286Y-12287286D01*
X6409762Y-12325381D01*
X6400238Y-12344428D01*
X6390714Y-12353952D01*
X6371667Y-12363476D01*
X6352619Y-12363476D01*
X6333571Y-12353952D01*
X6324048Y-12344428D01*
X6314524Y-12325381D01*
X6305000Y-12287286D01*
X6305000Y-12239667D01*
X6314524Y-12201571D01*
X6324048Y-12182524D01*
X6333571Y-12173000D01*
X6352619Y-12163476D01*
X6495476Y-12163476D02*
X6495476Y-12201571D01*
X6571667Y-12163476D02*
X6571667Y-12201571D01*
X6866905Y-12439667D02*
X6857381Y-12430143D01*
X6838333Y-12401571D01*
X6828809Y-12382524D01*
X6819286Y-12353952D01*
X6809762Y-12306333D01*
X6809762Y-12268238D01*
X6819286Y-12220619D01*
X6828809Y-12192048D01*
X6838333Y-12173000D01*
X6857381Y-12144428D01*
X6866905Y-12134905D01*
X7047857Y-12363476D02*
X6933571Y-12363476D01*
X6990714Y-12363476D02*
X6990714Y-12163476D01*
X6971667Y-12192048D01*
X6952619Y-12211095D01*
X6933571Y-12220619D01*
X7219286Y-12163476D02*
X7181190Y-12163476D01*
X7162143Y-12173000D01*
X7152619Y-12182524D01*
X7133571Y-12211095D01*
X7124048Y-12249190D01*
X7124048Y-12325381D01*
X7133571Y-12344428D01*
X7143095Y-12353952D01*
X7162143Y-12363476D01*
X7200238Y-12363476D01*
X7219286Y-12353952D01*
X7228809Y-12344428D01*
X7238333Y-12325381D01*
X7238333Y-12277762D01*
X7228809Y-12258714D01*
X7219286Y-12249190D01*
X7200238Y-12239667D01*
X7162143Y-12239667D01*
X7143095Y-12249190D01*
X7133571Y-12258714D01*
X7124048Y-12277762D01*
X7476428Y-12363476D02*
X7476428Y-12163476D01*
X7562143Y-12363476D02*
X7562143Y-12258714D01*
X7552619Y-12239667D01*
X7533571Y-12230143D01*
X7505000Y-12230143D01*
X7485952Y-12239667D01*
X7476428Y-12249190D01*
X7685952Y-12363476D02*
X7666905Y-12353952D01*
X7657381Y-12344428D01*
X7647857Y-12325381D01*
X7647857Y-12268238D01*
X7657381Y-12249190D01*
X7666905Y-12239667D01*
X7685952Y-12230143D01*
X7714524Y-12230143D01*
X7733571Y-12239667D01*
X7743095Y-12249190D01*
X7752619Y-12268238D01*
X7752619Y-12325381D01*
X7743095Y-12344428D01*
X7733571Y-12353952D01*
X7714524Y-12363476D01*
X7685952Y-12363476D01*
X7866905Y-12363476D02*
X7847857Y-12353952D01*
X7838333Y-12334905D01*
X7838333Y-12163476D01*
X8019286Y-12353952D02*
X8000238Y-12363476D01*
X7962143Y-12363476D01*
X7943095Y-12353952D01*
X7933571Y-12334905D01*
X7933571Y-12258714D01*
X7943095Y-12239667D01*
X7962143Y-12230143D01*
X8000238Y-12230143D01*
X8019286Y-12239667D01*
X8028809Y-12258714D01*
X8028809Y-12277762D01*
X7933571Y-12296809D01*
X8105000Y-12353952D02*
X8124048Y-12363476D01*
X8162143Y-12363476D01*
X8181190Y-12353952D01*
X8190714Y-12334905D01*
X8190714Y-12325381D01*
X8181190Y-12306333D01*
X8162143Y-12296809D01*
X8133571Y-12296809D01*
X8114524Y-12287286D01*
X8105000Y-12268238D01*
X8105000Y-12258714D01*
X8114524Y-12239667D01*
X8133571Y-12230143D01*
X8162143Y-12230143D01*
X8181190Y-12239667D01*
X8257381Y-12439667D02*
X8266905Y-12430143D01*
X8285952Y-12401571D01*
X8295476Y-12382524D01*
X8305000Y-12353952D01*
X8314524Y-12306333D01*
X8314524Y-12268238D01*
X8305000Y-12220619D01*
X8295476Y-12192048D01*
X8285952Y-12173000D01*
X8266905Y-12144428D01*
X8257381Y-12134905D01*
X3095000Y-12453000D02*
X3295000Y-12653000D01*
X3295000Y-12453000D02*
X3095000Y-12653000D01*
X3195000Y-12453000D02*
X3195000Y-12653000D01*
X3095000Y-12553000D02*
X3295000Y-12553000D01*
X3638333Y-12510143D02*
X3638333Y-12643476D01*
X3590714Y-12433952D02*
X3543095Y-12576809D01*
X3666905Y-12576809D01*
X3743095Y-12624428D02*
X3752619Y-12633952D01*
X3743095Y-12643476D01*
X3733571Y-12633952D01*
X3743095Y-12624428D01*
X3743095Y-12643476D01*
X3943095Y-12643476D02*
X3828809Y-12643476D01*
X3885952Y-12643476D02*
X3885952Y-12443476D01*
X3866905Y-12472048D01*
X3847857Y-12491095D01*
X3828809Y-12500619D01*
X4066905Y-12443476D02*
X4085952Y-12443476D01*
X4105000Y-12453000D01*
X4114524Y-12462524D01*
X4124048Y-12481571D01*
X4133571Y-12519667D01*
X4133571Y-12567286D01*
X4124048Y-12605381D01*
X4114524Y-12624428D01*
X4105000Y-12633952D01*
X4085952Y-12643476D01*
X4066905Y-12643476D01*
X4047857Y-12633952D01*
X4038333Y-12624428D01*
X4028809Y-12605381D01*
X4019286Y-12567286D01*
X4019286Y-12519667D01*
X4028809Y-12481571D01*
X4038333Y-12462524D01*
X4047857Y-12453000D01*
X4066905Y-12443476D01*
X4257381Y-12443476D02*
X4276429Y-12443476D01*
X4295476Y-12453000D01*
X4305000Y-12462524D01*
X4314524Y-12481571D01*
X4324048Y-12519667D01*
X4324048Y-12567286D01*
X4314524Y-12605381D01*
X4305000Y-12624428D01*
X4295476Y-12633952D01*
X4276429Y-12643476D01*
X4257381Y-12643476D01*
X4238333Y-12633952D01*
X4228810Y-12624428D01*
X4219286Y-12605381D01*
X4209762Y-12567286D01*
X4209762Y-12519667D01*
X4219286Y-12481571D01*
X4228810Y-12462524D01*
X4238333Y-12453000D01*
X4257381Y-12443476D01*
X4409762Y-12643476D02*
X4409762Y-12510143D01*
X4409762Y-12529190D02*
X4419286Y-12519667D01*
X4438333Y-12510143D01*
X4466905Y-12510143D01*
X4485952Y-12519667D01*
X4495476Y-12538714D01*
X4495476Y-12643476D01*
X4495476Y-12538714D02*
X4505000Y-12519667D01*
X4524048Y-12510143D01*
X4552619Y-12510143D01*
X4571667Y-12519667D01*
X4581190Y-12538714D01*
X4581190Y-12643476D01*
X4676429Y-12643476D02*
X4676429Y-12510143D01*
X4676429Y-12529190D02*
X4685952Y-12519667D01*
X4705000Y-12510143D01*
X4733571Y-12510143D01*
X4752619Y-12519667D01*
X4762143Y-12538714D01*
X4762143Y-12643476D01*
X4762143Y-12538714D02*
X4771667Y-12519667D01*
X4790714Y-12510143D01*
X4819286Y-12510143D01*
X4838333Y-12519667D01*
X4847857Y-12538714D01*
X4847857Y-12643476D01*
X5238333Y-12433952D02*
X5066905Y-12691095D01*
X5495476Y-12443476D02*
X5514524Y-12443476D01*
X5533571Y-12453000D01*
X5543095Y-12462524D01*
X5552619Y-12481571D01*
X5562143Y-12519667D01*
X5562143Y-12567286D01*
X5552619Y-12605381D01*
X5543095Y-12624428D01*
X5533571Y-12633952D01*
X5514524Y-12643476D01*
X5495476Y-12643476D01*
X5476429Y-12633952D01*
X5466905Y-12624428D01*
X5457381Y-12605381D01*
X5447857Y-12567286D01*
X5447857Y-12519667D01*
X5457381Y-12481571D01*
X5466905Y-12462524D01*
X5476429Y-12453000D01*
X5495476Y-12443476D01*
X5647857Y-12624428D02*
X5657381Y-12633952D01*
X5647857Y-12643476D01*
X5638333Y-12633952D01*
X5647857Y-12624428D01*
X5647857Y-12643476D01*
X5847857Y-12643476D02*
X5733571Y-12643476D01*
X5790714Y-12643476D02*
X5790714Y-12443476D01*
X5771667Y-12472048D01*
X5752619Y-12491095D01*
X5733571Y-12500619D01*
X6019286Y-12443476D02*
X5981190Y-12443476D01*
X5962143Y-12453000D01*
X5952619Y-12462524D01*
X5933571Y-12491095D01*
X5924048Y-12529190D01*
X5924048Y-12605381D01*
X5933571Y-12624428D01*
X5943095Y-12633952D01*
X5962143Y-12643476D01*
X6000238Y-12643476D01*
X6019286Y-12633952D01*
X6028809Y-12624428D01*
X6038333Y-12605381D01*
X6038333Y-12557762D01*
X6028809Y-12538714D01*
X6019286Y-12529190D01*
X6000238Y-12519667D01*
X5962143Y-12519667D01*
X5943095Y-12529190D01*
X5933571Y-12538714D01*
X5924048Y-12557762D01*
X6228809Y-12643476D02*
X6114524Y-12643476D01*
X6171667Y-12643476D02*
X6171667Y-12443476D01*
X6152619Y-12472048D01*
X6133571Y-12491095D01*
X6114524Y-12500619D01*
X6400238Y-12510143D02*
X6400238Y-12643476D01*
X6352619Y-12433952D02*
X6305000Y-12576809D01*
X6428809Y-12576809D01*
X6495476Y-12443476D02*
X6495476Y-12481571D01*
X6571667Y-12443476D02*
X6571667Y-12481571D01*
X6866905Y-12719667D02*
X6857381Y-12710143D01*
X6838333Y-12681571D01*
X6828809Y-12662524D01*
X6819286Y-12633952D01*
X6809762Y-12586333D01*
X6809762Y-12548238D01*
X6819286Y-12500619D01*
X6828809Y-12472048D01*
X6838333Y-12453000D01*
X6857381Y-12424428D01*
X6866905Y-12414905D01*
X7028809Y-12510143D02*
X7028809Y-12643476D01*
X6981190Y-12433952D02*
X6933571Y-12576809D01*
X7057381Y-12576809D01*
X7285952Y-12643476D02*
X7285952Y-12443476D01*
X7371667Y-12643476D02*
X7371667Y-12538714D01*
X7362143Y-12519667D01*
X7343095Y-12510143D01*
X7314524Y-12510143D01*
X7295476Y-12519667D01*
X7285952Y-12529190D01*
X7495476Y-12643476D02*
X7476428Y-12633952D01*
X7466905Y-12624428D01*
X7457381Y-12605381D01*
X7457381Y-12548238D01*
X7466905Y-12529190D01*
X7476428Y-12519667D01*
X7495476Y-12510143D01*
X7524048Y-12510143D01*
X7543095Y-12519667D01*
X7552619Y-12529190D01*
X7562143Y-12548238D01*
X7562143Y-12605381D01*
X7552619Y-12624428D01*
X7543095Y-12633952D01*
X7524048Y-12643476D01*
X7495476Y-12643476D01*
X7676428Y-12643476D02*
X7657381Y-12633952D01*
X7647857Y-12614905D01*
X7647857Y-12443476D01*
X7828809Y-12633952D02*
X7809762Y-12643476D01*
X7771667Y-12643476D01*
X7752619Y-12633952D01*
X7743095Y-12614905D01*
X7743095Y-12538714D01*
X7752619Y-12519667D01*
X7771667Y-12510143D01*
X7809762Y-12510143D01*
X7828809Y-12519667D01*
X7838333Y-12538714D01*
X7838333Y-12557762D01*
X7743095Y-12576809D01*
X7914524Y-12633952D02*
X7933571Y-12643476D01*
X7971667Y-12643476D01*
X7990714Y-12633952D01*
X8000238Y-12614905D01*
X8000238Y-12605381D01*
X7990714Y-12586333D01*
X7971667Y-12576809D01*
X7943095Y-12576809D01*
X7924048Y-12567286D01*
X7914524Y-12548238D01*
X7914524Y-12538714D01*
X7924048Y-12519667D01*
X7943095Y-12510143D01*
X7971667Y-12510143D01*
X7990714Y-12519667D01*
X8066905Y-12719667D02*
X8076428Y-12710143D01*
X8095476Y-12681571D01*
X8105000Y-12662524D01*
X8114524Y-12633952D01*
X8124048Y-12586333D01*
X8124048Y-12548238D01*
X8114524Y-12500619D01*
X8105000Y-12472048D01*
X8095476Y-12453000D01*
X8076428Y-12424428D01*
X8066905Y-12414905D01*
X3095000Y-12773000D02*
X3295000Y-12973000D01*
X3295000Y-12773000D02*
X3095000Y-12973000D01*
X3265711Y-12943711D02*
X3265711Y-12802289D01*
X3124289Y-12802289D01*
X3124289Y-12943711D01*
X3265711Y-12943711D01*
X3638333Y-12830143D02*
X3638333Y-12963476D01*
X3590714Y-12753952D02*
X3543095Y-12896809D01*
X3666905Y-12896809D01*
X3743095Y-12944428D02*
X3752619Y-12953952D01*
X3743095Y-12963476D01*
X3733571Y-12953952D01*
X3743095Y-12944428D01*
X3743095Y-12963476D01*
X3819286Y-12763476D02*
X3943095Y-12763476D01*
X3876428Y-12839667D01*
X3905000Y-12839667D01*
X3924048Y-12849190D01*
X3933571Y-12858714D01*
X3943095Y-12877762D01*
X3943095Y-12925381D01*
X3933571Y-12944428D01*
X3924048Y-12953952D01*
X3905000Y-12963476D01*
X3847857Y-12963476D01*
X3828809Y-12953952D01*
X3819286Y-12944428D01*
X4066905Y-12763476D02*
X4085952Y-12763476D01*
X4105000Y-12773000D01*
X4114524Y-12782524D01*
X4124048Y-12801571D01*
X4133571Y-12839667D01*
X4133571Y-12887286D01*
X4124048Y-12925381D01*
X4114524Y-12944428D01*
X4105000Y-12953952D01*
X4085952Y-12963476D01*
X4066905Y-12963476D01*
X4047857Y-12953952D01*
X4038333Y-12944428D01*
X4028809Y-12925381D01*
X4019286Y-12887286D01*
X4019286Y-12839667D01*
X4028809Y-12801571D01*
X4038333Y-12782524D01*
X4047857Y-12773000D01*
X4066905Y-12763476D01*
X4257381Y-12763476D02*
X4276429Y-12763476D01*
X4295476Y-12773000D01*
X4305000Y-12782524D01*
X4314524Y-12801571D01*
X4324048Y-12839667D01*
X4324048Y-12887286D01*
X4314524Y-12925381D01*
X4305000Y-12944428D01*
X4295476Y-12953952D01*
X4276429Y-12963476D01*
X4257381Y-12963476D01*
X4238333Y-12953952D01*
X4228810Y-12944428D01*
X4219286Y-12925381D01*
X4209762Y-12887286D01*
X4209762Y-12839667D01*
X4219286Y-12801571D01*
X4228810Y-12782524D01*
X4238333Y-12773000D01*
X4257381Y-12763476D01*
X4409762Y-12963476D02*
X4409762Y-12830143D01*
X4409762Y-12849190D02*
X4419286Y-12839667D01*
X4438333Y-12830143D01*
X4466905Y-12830143D01*
X4485952Y-12839667D01*
X4495476Y-12858714D01*
X4495476Y-12963476D01*
X4495476Y-12858714D02*
X4505000Y-12839667D01*
X4524048Y-12830143D01*
X4552619Y-12830143D01*
X4571667Y-12839667D01*
X4581190Y-12858714D01*
X4581190Y-12963476D01*
X4676429Y-12963476D02*
X4676429Y-12830143D01*
X4676429Y-12849190D02*
X4685952Y-12839667D01*
X4705000Y-12830143D01*
X4733571Y-12830143D01*
X4752619Y-12839667D01*
X4762143Y-12858714D01*
X4762143Y-12963476D01*
X4762143Y-12858714D02*
X4771667Y-12839667D01*
X4790714Y-12830143D01*
X4819286Y-12830143D01*
X4838333Y-12839667D01*
X4847857Y-12858714D01*
X4847857Y-12963476D01*
X5238333Y-12753952D02*
X5066905Y-13011095D01*
X5495476Y-12763476D02*
X5514524Y-12763476D01*
X5533571Y-12773000D01*
X5543095Y-12782524D01*
X5552619Y-12801571D01*
X5562143Y-12839667D01*
X5562143Y-12887286D01*
X5552619Y-12925381D01*
X5543095Y-12944428D01*
X5533571Y-12953952D01*
X5514524Y-12963476D01*
X5495476Y-12963476D01*
X5476429Y-12953952D01*
X5466905Y-12944428D01*
X5457381Y-12925381D01*
X5447857Y-12887286D01*
X5447857Y-12839667D01*
X5457381Y-12801571D01*
X5466905Y-12782524D01*
X5476429Y-12773000D01*
X5495476Y-12763476D01*
X5647857Y-12944428D02*
X5657381Y-12953952D01*
X5647857Y-12963476D01*
X5638333Y-12953952D01*
X5647857Y-12944428D01*
X5647857Y-12963476D01*
X5847857Y-12963476D02*
X5733571Y-12963476D01*
X5790714Y-12963476D02*
X5790714Y-12763476D01*
X5771667Y-12792048D01*
X5752619Y-12811095D01*
X5733571Y-12820619D01*
X6019286Y-12763476D02*
X5981190Y-12763476D01*
X5962143Y-12773000D01*
X5952619Y-12782524D01*
X5933571Y-12811095D01*
X5924048Y-12849190D01*
X5924048Y-12925381D01*
X5933571Y-12944428D01*
X5943095Y-12953952D01*
X5962143Y-12963476D01*
X6000238Y-12963476D01*
X6019286Y-12953952D01*
X6028809Y-12944428D01*
X6038333Y-12925381D01*
X6038333Y-12877762D01*
X6028809Y-12858714D01*
X6019286Y-12849190D01*
X6000238Y-12839667D01*
X5962143Y-12839667D01*
X5943095Y-12849190D01*
X5933571Y-12858714D01*
X5924048Y-12877762D01*
X6133571Y-12963476D02*
X6171667Y-12963476D01*
X6190714Y-12953952D01*
X6200238Y-12944428D01*
X6219286Y-12915857D01*
X6228809Y-12877762D01*
X6228809Y-12801571D01*
X6219286Y-12782524D01*
X6209762Y-12773000D01*
X6190714Y-12763476D01*
X6152619Y-12763476D01*
X6133571Y-12773000D01*
X6124048Y-12782524D01*
X6114524Y-12801571D01*
X6114524Y-12849190D01*
X6124048Y-12868238D01*
X6133571Y-12877762D01*
X6152619Y-12887286D01*
X6190714Y-12887286D01*
X6209762Y-12877762D01*
X6219286Y-12868238D01*
X6228809Y-12849190D01*
X6295476Y-12763476D02*
X6419286Y-12763476D01*
X6352619Y-12839667D01*
X6381190Y-12839667D01*
X6400238Y-12849190D01*
X6409762Y-12858714D01*
X6419286Y-12877762D01*
X6419286Y-12925381D01*
X6409762Y-12944428D01*
X6400238Y-12953952D01*
X6381190Y-12963476D01*
X6324048Y-12963476D01*
X6305000Y-12953952D01*
X6295476Y-12944428D01*
X6495476Y-12763476D02*
X6495476Y-12801571D01*
X6571667Y-12763476D02*
X6571667Y-12801571D01*
X6866905Y-13039667D02*
X6857381Y-13030143D01*
X6838333Y-13001571D01*
X6828809Y-12982524D01*
X6819286Y-12953952D01*
X6809762Y-12906333D01*
X6809762Y-12868238D01*
X6819286Y-12820619D01*
X6828809Y-12792048D01*
X6838333Y-12773000D01*
X6857381Y-12744428D01*
X6866905Y-12734905D01*
X7028809Y-12830143D02*
X7028809Y-12963476D01*
X6981190Y-12753952D02*
X6933571Y-12896809D01*
X7057381Y-12896809D01*
X7285952Y-12963476D02*
X7285952Y-12763476D01*
X7371667Y-12963476D02*
X7371667Y-12858714D01*
X7362143Y-12839667D01*
X7343095Y-12830143D01*
X7314524Y-12830143D01*
X7295476Y-12839667D01*
X7285952Y-12849190D01*
X7495476Y-12963476D02*
X7476428Y-12953952D01*
X7466905Y-12944428D01*
X7457381Y-12925381D01*
X7457381Y-12868238D01*
X7466905Y-12849190D01*
X7476428Y-12839667D01*
X7495476Y-12830143D01*
X7524048Y-12830143D01*
X7543095Y-12839667D01*
X7552619Y-12849190D01*
X7562143Y-12868238D01*
X7562143Y-12925381D01*
X7552619Y-12944428D01*
X7543095Y-12953952D01*
X7524048Y-12963476D01*
X7495476Y-12963476D01*
X7676428Y-12963476D02*
X7657381Y-12953952D01*
X7647857Y-12934905D01*
X7647857Y-12763476D01*
X7828809Y-12953952D02*
X7809762Y-12963476D01*
X7771667Y-12963476D01*
X7752619Y-12953952D01*
X7743095Y-12934905D01*
X7743095Y-12858714D01*
X7752619Y-12839667D01*
X7771667Y-12830143D01*
X7809762Y-12830143D01*
X7828809Y-12839667D01*
X7838333Y-12858714D01*
X7838333Y-12877762D01*
X7743095Y-12896809D01*
X7914524Y-12953952D02*
X7933571Y-12963476D01*
X7971667Y-12963476D01*
X7990714Y-12953952D01*
X8000238Y-12934905D01*
X8000238Y-12925381D01*
X7990714Y-12906333D01*
X7971667Y-12896809D01*
X7943095Y-12896809D01*
X7924048Y-12887286D01*
X7914524Y-12868238D01*
X7914524Y-12858714D01*
X7924048Y-12839667D01*
X7943095Y-12830143D01*
X7971667Y-12830143D01*
X7990714Y-12839667D01*
X8066905Y-13039667D02*
X8076428Y-13030143D01*
X8095476Y-13001571D01*
X8105000Y-12982524D01*
X8114524Y-12953952D01*
X8124048Y-12906333D01*
X8124048Y-12868238D01*
X8114524Y-12820619D01*
X8105000Y-12792048D01*
X8095476Y-12773000D01*
X8076428Y-12744428D01*
X8066905Y-12734905D01*
X3095000Y-13093000D02*
X3295000Y-13293000D01*
X3295000Y-13093000D02*
X3095000Y-13293000D01*
X3195000Y-13293000D02*
X3295000Y-13193000D01*
X3195000Y-13093000D01*
X3095000Y-13193000D01*
X3195000Y-13293000D01*
X3562143Y-13283476D02*
X3600238Y-13283476D01*
X3619286Y-13273952D01*
X3628809Y-13264428D01*
X3647857Y-13235857D01*
X3657381Y-13197762D01*
X3657381Y-13121571D01*
X3647857Y-13102524D01*
X3638333Y-13093000D01*
X3619286Y-13083476D01*
X3581190Y-13083476D01*
X3562143Y-13093000D01*
X3552619Y-13102524D01*
X3543095Y-13121571D01*
X3543095Y-13169190D01*
X3552619Y-13188238D01*
X3562143Y-13197762D01*
X3581190Y-13207286D01*
X3619286Y-13207286D01*
X3638333Y-13197762D01*
X3647857Y-13188238D01*
X3657381Y-13169190D01*
X3743095Y-13264428D02*
X3752619Y-13273952D01*
X3743095Y-13283476D01*
X3733571Y-13273952D01*
X3743095Y-13264428D01*
X3743095Y-13283476D01*
X3876428Y-13083476D02*
X3895476Y-13083476D01*
X3914524Y-13093000D01*
X3924048Y-13102524D01*
X3933571Y-13121571D01*
X3943095Y-13159667D01*
X3943095Y-13207286D01*
X3933571Y-13245381D01*
X3924048Y-13264428D01*
X3914524Y-13273952D01*
X3895476Y-13283476D01*
X3876428Y-13283476D01*
X3857381Y-13273952D01*
X3847857Y-13264428D01*
X3838333Y-13245381D01*
X3828809Y-13207286D01*
X3828809Y-13159667D01*
X3838333Y-13121571D01*
X3847857Y-13102524D01*
X3857381Y-13093000D01*
X3876428Y-13083476D01*
X4066905Y-13083476D02*
X4085952Y-13083476D01*
X4105000Y-13093000D01*
X4114524Y-13102524D01*
X4124048Y-13121571D01*
X4133571Y-13159667D01*
X4133571Y-13207286D01*
X4124048Y-13245381D01*
X4114524Y-13264428D01*
X4105000Y-13273952D01*
X4085952Y-13283476D01*
X4066905Y-13283476D01*
X4047857Y-13273952D01*
X4038333Y-13264428D01*
X4028809Y-13245381D01*
X4019286Y-13207286D01*
X4019286Y-13159667D01*
X4028809Y-13121571D01*
X4038333Y-13102524D01*
X4047857Y-13093000D01*
X4066905Y-13083476D01*
X4257381Y-13083476D02*
X4276429Y-13083476D01*
X4295476Y-13093000D01*
X4305000Y-13102524D01*
X4314524Y-13121571D01*
X4324048Y-13159667D01*
X4324048Y-13207286D01*
X4314524Y-13245381D01*
X4305000Y-13264428D01*
X4295476Y-13273952D01*
X4276429Y-13283476D01*
X4257381Y-13283476D01*
X4238333Y-13273952D01*
X4228810Y-13264428D01*
X4219286Y-13245381D01*
X4209762Y-13207286D01*
X4209762Y-13159667D01*
X4219286Y-13121571D01*
X4228810Y-13102524D01*
X4238333Y-13093000D01*
X4257381Y-13083476D01*
X4409762Y-13283476D02*
X4409762Y-13150143D01*
X4409762Y-13169190D02*
X4419286Y-13159667D01*
X4438333Y-13150143D01*
X4466905Y-13150143D01*
X4485952Y-13159667D01*
X4495476Y-13178714D01*
X4495476Y-13283476D01*
X4495476Y-13178714D02*
X4505000Y-13159667D01*
X4524048Y-13150143D01*
X4552619Y-13150143D01*
X4571667Y-13159667D01*
X4581190Y-13178714D01*
X4581190Y-13283476D01*
X4676429Y-13283476D02*
X4676429Y-13150143D01*
X4676429Y-13169190D02*
X4685952Y-13159667D01*
X4705000Y-13150143D01*
X4733571Y-13150143D01*
X4752619Y-13159667D01*
X4762143Y-13178714D01*
X4762143Y-13283476D01*
X4762143Y-13178714D02*
X4771667Y-13159667D01*
X4790714Y-13150143D01*
X4819286Y-13150143D01*
X4838333Y-13159667D01*
X4847857Y-13178714D01*
X4847857Y-13283476D01*
X5238333Y-13073952D02*
X5066905Y-13331095D01*
X5495476Y-13083476D02*
X5514524Y-13083476D01*
X5533571Y-13093000D01*
X5543095Y-13102524D01*
X5552619Y-13121571D01*
X5562143Y-13159667D01*
X5562143Y-13207286D01*
X5552619Y-13245381D01*
X5543095Y-13264428D01*
X5533571Y-13273952D01*
X5514524Y-13283476D01*
X5495476Y-13283476D01*
X5476429Y-13273952D01*
X5466905Y-13264428D01*
X5457381Y-13245381D01*
X5447857Y-13207286D01*
X5447857Y-13159667D01*
X5457381Y-13121571D01*
X5466905Y-13102524D01*
X5476429Y-13093000D01*
X5495476Y-13083476D01*
X5647857Y-13264428D02*
X5657381Y-13273952D01*
X5647857Y-13283476D01*
X5638333Y-13273952D01*
X5647857Y-13264428D01*
X5647857Y-13283476D01*
X5724048Y-13083476D02*
X5847857Y-13083476D01*
X5781190Y-13159667D01*
X5809762Y-13159667D01*
X5828809Y-13169190D01*
X5838333Y-13178714D01*
X5847857Y-13197762D01*
X5847857Y-13245381D01*
X5838333Y-13264428D01*
X5828809Y-13273952D01*
X5809762Y-13283476D01*
X5752619Y-13283476D01*
X5733571Y-13273952D01*
X5724048Y-13264428D01*
X6028809Y-13083476D02*
X5933571Y-13083476D01*
X5924048Y-13178714D01*
X5933571Y-13169190D01*
X5952619Y-13159667D01*
X6000238Y-13159667D01*
X6019286Y-13169190D01*
X6028809Y-13178714D01*
X6038333Y-13197762D01*
X6038333Y-13245381D01*
X6028809Y-13264428D01*
X6019286Y-13273952D01*
X6000238Y-13283476D01*
X5952619Y-13283476D01*
X5933571Y-13273952D01*
X5924048Y-13264428D01*
X6209762Y-13150143D02*
X6209762Y-13283476D01*
X6162143Y-13073952D02*
X6114524Y-13216809D01*
X6238333Y-13216809D01*
X6295476Y-13083476D02*
X6419286Y-13083476D01*
X6352619Y-13159667D01*
X6381190Y-13159667D01*
X6400238Y-13169190D01*
X6409762Y-13178714D01*
X6419286Y-13197762D01*
X6419286Y-13245381D01*
X6409762Y-13264428D01*
X6400238Y-13273952D01*
X6381190Y-13283476D01*
X6324048Y-13283476D01*
X6305000Y-13273952D01*
X6295476Y-13264428D01*
X6495476Y-13083476D02*
X6495476Y-13121571D01*
X6571667Y-13083476D02*
X6571667Y-13121571D01*
X6866905Y-13359667D02*
X6857381Y-13350143D01*
X6838333Y-13321571D01*
X6828809Y-13302524D01*
X6819286Y-13273952D01*
X6809762Y-13226333D01*
X6809762Y-13188238D01*
X6819286Y-13140619D01*
X6828809Y-13112048D01*
X6838333Y-13093000D01*
X6857381Y-13064428D01*
X6866905Y-13054905D01*
X7047857Y-13283476D02*
X6933571Y-13283476D01*
X6990714Y-13283476D02*
X6990714Y-13083476D01*
X6971667Y-13112048D01*
X6952619Y-13131095D01*
X6933571Y-13140619D01*
X7285952Y-13283476D02*
X7285952Y-13083476D01*
X7371667Y-13283476D02*
X7371667Y-13178714D01*
X7362143Y-13159667D01*
X7343095Y-13150143D01*
X7314524Y-13150143D01*
X7295476Y-13159667D01*
X7285952Y-13169190D01*
X7495476Y-13283476D02*
X7476428Y-13273952D01*
X7466905Y-13264428D01*
X7457381Y-13245381D01*
X7457381Y-13188238D01*
X7466905Y-13169190D01*
X7476428Y-13159667D01*
X7495476Y-13150143D01*
X7524048Y-13150143D01*
X7543095Y-13159667D01*
X7552619Y-13169190D01*
X7562143Y-13188238D01*
X7562143Y-13245381D01*
X7552619Y-13264428D01*
X7543095Y-13273952D01*
X7524048Y-13283476D01*
X7495476Y-13283476D01*
X7676428Y-13283476D02*
X7657381Y-13273952D01*
X7647857Y-13254905D01*
X7647857Y-13083476D01*
X7828809Y-13273952D02*
X7809762Y-13283476D01*
X7771667Y-13283476D01*
X7752619Y-13273952D01*
X7743095Y-13254905D01*
X7743095Y-13178714D01*
X7752619Y-13159667D01*
X7771667Y-13150143D01*
X7809762Y-13150143D01*
X7828809Y-13159667D01*
X7838333Y-13178714D01*
X7838333Y-13197762D01*
X7743095Y-13216809D01*
X7905000Y-13359667D02*
X7914524Y-13350143D01*
X7933571Y-13321571D01*
X7943095Y-13302524D01*
X7952619Y-13273952D01*
X7962143Y-13226333D01*
X7962143Y-13188238D01*
X7952619Y-13140619D01*
X7943095Y-13112048D01*
X7933571Y-13093000D01*
X7914524Y-13064428D01*
X7905000Y-13054905D01*
M02*
