G04 #@! TF.GenerationSoftware,KiCad,Pcbnew,(6.0.11)*
G04 #@! TF.CreationDate,2023-02-08T16:01:19+00:00*
G04 #@! TF.ProjectId,StepperDemoPCB,53746570-7065-4724-9465-6d6f5043422e,rev?*
G04 #@! TF.SameCoordinates,Original*
G04 #@! TF.FileFunction,Soldermask,Top*
G04 #@! TF.FilePolarity,Negative*
%FSLAX46Y46*%
G04 Gerber Fmt 4.6, Leading zero omitted, Abs format (unit mm)*
G04 Created by KiCad (PCBNEW (6.0.11)) date 2023-02-08 16:01:19*
%MOMM*%
%LPD*%
G01*
G04 APERTURE LIST*
%ADD10C,7.500000*%
%ADD11C,9.100000*%
%ADD12C,4.500000*%
%ADD13C,1.600000*%
%ADD14C,1.400000*%
%ADD15O,1.400000X1.400000*%
%ADD16R,1.800000X1.800000*%
%ADD17C,1.800000*%
%ADD18R,1.700000X1.700000*%
%ADD19O,1.700000X1.700000*%
%ADD20R,3.200000X3.200000*%
%ADD21O,3.200000X3.200000*%
%ADD22R,3.000000X3.000000*%
%ADD23C,3.000000*%
%ADD24R,1.600000X1.600000*%
%ADD25O,1.600000X1.600000*%
%ADD26O,1.800000X1.800000*%
G04 APERTURE END LIST*
D10*
X40000000Y-94000000D03*
X40000000Y-44000000D03*
X195000000Y-94000000D03*
X195000000Y-44000000D03*
D11*
X66500000Y-68000000D03*
D12*
X51000000Y-52500000D03*
X82000000Y-52500000D03*
X51000000Y-83500000D03*
X82000000Y-83500000D03*
D13*
X97535000Y-90000000D03*
X92455000Y-90000000D03*
D14*
X169420000Y-74500000D03*
D15*
X174500000Y-74500000D03*
D16*
X47655000Y-92500000D03*
D17*
X50195000Y-92500000D03*
D13*
X135500000Y-60535000D03*
X135500000Y-55455000D03*
D18*
X200525000Y-59950000D03*
D19*
X200525000Y-62490000D03*
X200525000Y-65030000D03*
X200525000Y-67570000D03*
X200525000Y-70110000D03*
D18*
X187000000Y-88000000D03*
D13*
X131500000Y-60500000D03*
X131500000Y-55420000D03*
D14*
X175990000Y-88500000D03*
D15*
X170910000Y-88500000D03*
D20*
X98000000Y-65380000D03*
D21*
X98000000Y-80620000D03*
D20*
X125000000Y-65260000D03*
D21*
X125000000Y-80500000D03*
D22*
X105000000Y-87000000D03*
D23*
X110080000Y-87000000D03*
X115160000Y-87000000D03*
X120240000Y-87000000D03*
D16*
X83670000Y-92500000D03*
D17*
X86210000Y-92500000D03*
D20*
X98000000Y-45260000D03*
D21*
X98000000Y-60500000D03*
D22*
X145760000Y-88000000D03*
D23*
X150840000Y-88000000D03*
X155920000Y-88000000D03*
X161000000Y-88000000D03*
D22*
X197000000Y-85000000D03*
D23*
X197000000Y-79920000D03*
X197000000Y-74840000D03*
D20*
X116000000Y-65500000D03*
D21*
X116000000Y-80740000D03*
D20*
X125000000Y-45380000D03*
D21*
X125000000Y-60620000D03*
D20*
X107000000Y-45380000D03*
D21*
X107000000Y-60620000D03*
D14*
X165000000Y-77500000D03*
D15*
X165000000Y-82580000D03*
D16*
X83670000Y-42500000D03*
D17*
X86210000Y-42500000D03*
D14*
X138500000Y-91840000D03*
D15*
X138500000Y-86760000D03*
D14*
X150000000Y-63000000D03*
D15*
X155080000Y-63000000D03*
D24*
X185925000Y-63200000D03*
D25*
X183385000Y-63200000D03*
X180845000Y-63200000D03*
X178305000Y-63200000D03*
X175765000Y-63200000D03*
X173225000Y-63200000D03*
X170685000Y-63200000D03*
X168145000Y-63200000D03*
X165605000Y-63200000D03*
X163065000Y-63200000D03*
X163065000Y-70820000D03*
X165605000Y-70820000D03*
X168145000Y-70820000D03*
X170685000Y-70820000D03*
X173225000Y-70820000D03*
X175765000Y-70820000D03*
X178305000Y-70820000D03*
X180845000Y-70820000D03*
X183385000Y-70820000D03*
X185925000Y-70820000D03*
X180960000Y-74000000D03*
X183500000Y-74000000D03*
X186040000Y-74000000D03*
X188580000Y-74000000D03*
X188580000Y-81620000D03*
X186040000Y-81620000D03*
X183500000Y-81620000D03*
D24*
X180960000Y-81620000D03*
D20*
X107000000Y-65500000D03*
D21*
X107000000Y-80740000D03*
D20*
X116000000Y-45260000D03*
D21*
X116000000Y-60500000D03*
D14*
X174500000Y-79000000D03*
D15*
X174500000Y-84080000D03*
D16*
X47605000Y-42500000D03*
D17*
X50145000Y-42500000D03*
D13*
X90455000Y-85000000D03*
X95535000Y-85000000D03*
D16*
X147500000Y-81000000D03*
D26*
X142420000Y-79730000D03*
X147500000Y-78460000D03*
X142420000Y-77190000D03*
X147500000Y-75920000D03*
X142420000Y-74650000D03*
X147500000Y-73380000D03*
X142420000Y-72110000D03*
X147500000Y-70840000D03*
X142420000Y-69570000D03*
X147500000Y-68300000D03*
X142420000Y-67030000D03*
X147500000Y-65760000D03*
X142420000Y-64490000D03*
X147500000Y-63220000D03*
M02*
