G04 #@! TF.GenerationSoftware,KiCad,Pcbnew,(6.0.11)*
G04 #@! TF.CreationDate,2023-02-08T16:01:18+00:00*
G04 #@! TF.ProjectId,StepperDemoPCB,53746570-7065-4724-9465-6d6f5043422e,rev?*
G04 #@! TF.SameCoordinates,Original*
G04 #@! TF.FileFunction,Copper,L1,Top*
G04 #@! TF.FilePolarity,Positive*
%FSLAX46Y46*%
G04 Gerber Fmt 4.6, Leading zero omitted, Abs format (unit mm)*
G04 Created by KiCad (PCBNEW (6.0.11)) date 2023-02-08 16:01:18*
%MOMM*%
%LPD*%
G01*
G04 APERTURE LIST*
G04 #@! TA.AperFunction,NonConductor*
%ADD10C,0.200000*%
G04 #@! TD*
%ADD11C,0.300000*%
G04 #@! TA.AperFunction,NonConductor*
%ADD12C,0.300000*%
G04 #@! TD*
G04 #@! TA.AperFunction,ComponentPad*
%ADD13C,7.500000*%
G04 #@! TD*
G04 #@! TA.AperFunction,ComponentPad*
%ADD14C,9.100000*%
G04 #@! TD*
G04 #@! TA.AperFunction,ComponentPad*
%ADD15C,4.500000*%
G04 #@! TD*
G04 #@! TA.AperFunction,ComponentPad*
%ADD16C,1.600000*%
G04 #@! TD*
G04 #@! TA.AperFunction,ComponentPad*
%ADD17C,1.400000*%
G04 #@! TD*
G04 #@! TA.AperFunction,ComponentPad*
%ADD18O,1.400000X1.400000*%
G04 #@! TD*
G04 #@! TA.AperFunction,ComponentPad*
%ADD19R,1.800000X1.800000*%
G04 #@! TD*
G04 #@! TA.AperFunction,ComponentPad*
%ADD20C,1.800000*%
G04 #@! TD*
G04 #@! TA.AperFunction,ComponentPad*
%ADD21R,1.700000X1.700000*%
G04 #@! TD*
G04 #@! TA.AperFunction,ComponentPad*
%ADD22O,1.700000X1.700000*%
G04 #@! TD*
G04 #@! TA.AperFunction,ComponentPad*
%ADD23R,3.200000X3.200000*%
G04 #@! TD*
G04 #@! TA.AperFunction,ComponentPad*
%ADD24O,3.200000X3.200000*%
G04 #@! TD*
G04 #@! TA.AperFunction,ComponentPad*
%ADD25R,3.000000X3.000000*%
G04 #@! TD*
G04 #@! TA.AperFunction,ComponentPad*
%ADD26C,3.000000*%
G04 #@! TD*
G04 #@! TA.AperFunction,ComponentPad*
%ADD27R,1.600000X1.600000*%
G04 #@! TD*
G04 #@! TA.AperFunction,ComponentPad*
%ADD28O,1.600000X1.600000*%
G04 #@! TD*
G04 #@! TA.AperFunction,ComponentPad*
%ADD29O,1.800000X1.800000*%
G04 #@! TD*
G04 #@! TA.AperFunction,Conductor*
%ADD30C,0.200000*%
G04 #@! TD*
G04 #@! TA.AperFunction,Conductor*
%ADD31C,0.250000*%
G04 #@! TD*
G04 APERTURE END LIST*
D10*
X34000000Y-102000000D02*
X206000000Y-102000000D01*
X206000000Y-102000000D02*
X206000000Y-35500000D01*
X206000000Y-35500000D02*
X34000000Y-35500000D01*
X34000000Y-35500000D02*
X34000000Y-102000000D01*
D11*
D12*
X168678571Y-18678571D02*
X168678571Y-17178571D01*
X168678571Y-17892857D02*
X169535714Y-17892857D01*
X169535714Y-18678571D02*
X169535714Y-17178571D01*
X170892857Y-18678571D02*
X170892857Y-17892857D01*
X170821428Y-17750000D01*
X170678571Y-17678571D01*
X170392857Y-17678571D01*
X170250000Y-17750000D01*
X170892857Y-18607142D02*
X170750000Y-18678571D01*
X170392857Y-18678571D01*
X170250000Y-18607142D01*
X170178571Y-18464285D01*
X170178571Y-18321428D01*
X170250000Y-18178571D01*
X170392857Y-18107142D01*
X170750000Y-18107142D01*
X170892857Y-18035714D01*
X171821428Y-18678571D02*
X171678571Y-18607142D01*
X171607142Y-18464285D01*
X171607142Y-17178571D01*
X172178571Y-17678571D02*
X172750000Y-17678571D01*
X172392857Y-18678571D02*
X172392857Y-17392857D01*
X172464285Y-17250000D01*
X172607142Y-17178571D01*
X172750000Y-17178571D01*
X174321428Y-17107142D02*
X173035714Y-19035714D01*
X175321428Y-17892857D02*
X174821428Y-17892857D01*
X174821428Y-18678571D02*
X174821428Y-17178571D01*
X175535714Y-17178571D01*
X176750000Y-17678571D02*
X176750000Y-18678571D01*
X176107142Y-17678571D02*
X176107142Y-18464285D01*
X176178571Y-18607142D01*
X176321428Y-18678571D01*
X176535714Y-18678571D01*
X176678571Y-18607142D01*
X176750000Y-18535714D01*
X177678571Y-18678571D02*
X177535714Y-18607142D01*
X177464285Y-18464285D01*
X177464285Y-17178571D01*
X178464285Y-18678571D02*
X178321428Y-18607142D01*
X178250000Y-18464285D01*
X178250000Y-17178571D01*
D13*
X40000000Y-94000000D03*
X40000000Y-44000000D03*
X195000000Y-94000000D03*
X195000000Y-44000000D03*
D14*
X66500000Y-68000000D03*
D15*
X51000000Y-52500000D03*
X82000000Y-52500000D03*
X51000000Y-83500000D03*
X82000000Y-83500000D03*
D16*
X97535000Y-90000000D03*
X92455000Y-90000000D03*
D17*
X169420000Y-74500000D03*
D18*
X174500000Y-74500000D03*
D19*
X47655000Y-92500000D03*
D20*
X50195000Y-92500000D03*
D16*
X135500000Y-60535000D03*
X135500000Y-55455000D03*
D21*
X200525000Y-59950000D03*
D22*
X200525000Y-62490000D03*
X200525000Y-65030000D03*
X200525000Y-67570000D03*
X200525000Y-70110000D03*
D21*
X187000000Y-88000000D03*
D16*
X131500000Y-60500000D03*
X131500000Y-55420000D03*
D17*
X175990000Y-88500000D03*
D18*
X170910000Y-88500000D03*
D23*
X98000000Y-65380000D03*
D24*
X98000000Y-80620000D03*
D23*
X125000000Y-65260000D03*
D24*
X125000000Y-80500000D03*
D25*
X105000000Y-87000000D03*
D26*
X110080000Y-87000000D03*
X115160000Y-87000000D03*
X120240000Y-87000000D03*
D19*
X83670000Y-92500000D03*
D20*
X86210000Y-92500000D03*
D23*
X98000000Y-45260000D03*
D24*
X98000000Y-60500000D03*
D25*
X145760000Y-88000000D03*
D26*
X150840000Y-88000000D03*
X155920000Y-88000000D03*
X161000000Y-88000000D03*
D25*
X197000000Y-85000000D03*
D26*
X197000000Y-79920000D03*
X197000000Y-74840000D03*
D23*
X116000000Y-65500000D03*
D24*
X116000000Y-80740000D03*
D23*
X125000000Y-45380000D03*
D24*
X125000000Y-60620000D03*
D23*
X107000000Y-45380000D03*
D24*
X107000000Y-60620000D03*
D17*
X165000000Y-77500000D03*
D18*
X165000000Y-82580000D03*
D19*
X83670000Y-42500000D03*
D20*
X86210000Y-42500000D03*
D17*
X138500000Y-91840000D03*
D18*
X138500000Y-86760000D03*
D17*
X150000000Y-63000000D03*
D18*
X155080000Y-63000000D03*
D27*
X185925000Y-63200000D03*
D28*
X183385000Y-63200000D03*
X180845000Y-63200000D03*
X178305000Y-63200000D03*
X175765000Y-63200000D03*
X173225000Y-63200000D03*
X170685000Y-63200000D03*
X168145000Y-63200000D03*
X165605000Y-63200000D03*
X163065000Y-63200000D03*
X163065000Y-70820000D03*
X165605000Y-70820000D03*
X168145000Y-70820000D03*
X170685000Y-70820000D03*
X173225000Y-70820000D03*
X175765000Y-70820000D03*
X178305000Y-70820000D03*
X180845000Y-70820000D03*
X183385000Y-70820000D03*
X185925000Y-70820000D03*
X180960000Y-74000000D03*
X183500000Y-74000000D03*
X186040000Y-74000000D03*
X188580000Y-74000000D03*
X188580000Y-81620000D03*
X186040000Y-81620000D03*
X183500000Y-81620000D03*
D27*
X180960000Y-81620000D03*
D23*
X107000000Y-65500000D03*
D24*
X107000000Y-80740000D03*
D23*
X116000000Y-45260000D03*
D24*
X116000000Y-60500000D03*
D17*
X174500000Y-79000000D03*
D18*
X174500000Y-84080000D03*
D19*
X47605000Y-42500000D03*
D20*
X50145000Y-42500000D03*
D16*
X90455000Y-85000000D03*
X95535000Y-85000000D03*
D19*
X147500000Y-81000000D03*
D29*
X142420000Y-79730000D03*
X147500000Y-78460000D03*
X142420000Y-77190000D03*
X147500000Y-75920000D03*
X142420000Y-74650000D03*
X147500000Y-73380000D03*
X142420000Y-72110000D03*
X147500000Y-70840000D03*
X142420000Y-69570000D03*
X147500000Y-68300000D03*
X142420000Y-67030000D03*
X147500000Y-65760000D03*
X142420000Y-64490000D03*
X147500000Y-63220000D03*
D30*
X96500000Y-85965000D02*
X95535000Y-85000000D01*
X96500000Y-86500000D02*
X96500000Y-85965000D01*
X97000000Y-87000000D02*
X96500000Y-86500000D01*
D31*
X93960000Y-91040000D02*
X93960000Y-88505000D01*
X91125000Y-93875000D02*
X93960000Y-91040000D01*
X90854009Y-94000000D02*
X90979009Y-93875000D01*
X93960000Y-88505000D02*
X90455000Y-85000000D01*
X51695000Y-94000000D02*
X90854009Y-94000000D01*
X50195000Y-92500000D02*
X51695000Y-94000000D01*
X90979009Y-93875000D02*
X91125000Y-93875000D01*
X166000000Y-93000000D02*
X177000000Y-93000000D01*
X161000000Y-88000000D02*
X166000000Y-93000000D01*
X177000000Y-93000000D02*
X188000000Y-93000000D01*
X176500000Y-93000000D02*
X177000000Y-93000000D01*
X188000000Y-93000000D02*
X193000000Y-88000000D01*
X176000000Y-92500000D02*
X176500000Y-93000000D01*
X176000000Y-88510000D02*
X176000000Y-92500000D01*
X175990000Y-88500000D02*
X176000000Y-88510000D01*
X173225000Y-79725000D02*
X181500000Y-88000000D01*
X173225000Y-70820000D02*
X173225000Y-79725000D01*
X181500000Y-88000000D02*
X187000000Y-88000000D01*
X193000000Y-88000000D02*
X201000000Y-88000000D01*
X182000000Y-84000000D02*
X189000000Y-84000000D01*
X189000000Y-84000000D02*
X193000000Y-88000000D01*
X102351041Y-90250000D02*
X117775000Y-90250000D01*
X100601041Y-92000000D02*
X102351041Y-90250000D01*
X95000000Y-92000000D02*
X100601041Y-92000000D01*
X94410000Y-91410000D02*
X95000000Y-92000000D01*
X94000000Y-84124009D02*
X94410000Y-84534009D01*
X94410000Y-84534009D02*
X94410000Y-91410000D01*
X94000000Y-48500000D02*
X94000000Y-84124009D01*
X98000000Y-45260000D02*
X97240000Y-45260000D01*
X97240000Y-45260000D02*
X94000000Y-48500000D01*
X202500000Y-86500000D02*
X201000000Y-88000000D01*
X202500000Y-67883299D02*
X202500000Y-86500000D01*
X200821701Y-66205000D02*
X202500000Y-67883299D01*
X200038299Y-66205000D02*
X200821701Y-66205000D01*
X199350000Y-65516701D02*
X200038299Y-66205000D01*
X199350000Y-64543299D02*
X199350000Y-65516701D01*
X200038299Y-63855000D02*
X199350000Y-64543299D01*
X201063604Y-63855000D02*
X200038299Y-63855000D01*
X201709302Y-63209302D02*
X201063604Y-63855000D01*
X201709302Y-58784302D02*
X201709302Y-63209302D01*
X201700000Y-58775000D02*
X201709302Y-58784302D01*
X173519009Y-58775000D02*
X201700000Y-58775000D01*
X169560000Y-62734009D02*
X173519009Y-58775000D01*
X169560000Y-63440000D02*
X169560000Y-62734009D01*
X147500000Y-70840000D02*
X151345000Y-66995000D01*
X166005000Y-66995000D02*
X169560000Y-63440000D01*
X151345000Y-66995000D02*
X166005000Y-66995000D01*
X86210000Y-92500000D02*
X88710000Y-90000000D01*
X88710000Y-90000000D02*
X92455000Y-90000000D01*
D30*
X100800000Y-85200000D02*
X108280000Y-85200000D01*
X100000000Y-86000000D02*
X100800000Y-85200000D01*
X108280000Y-85200000D02*
X110080000Y-87000000D01*
X100000000Y-87535000D02*
X100000000Y-86000000D01*
X97535000Y-90000000D02*
X100000000Y-87535000D01*
X98000000Y-84000000D02*
X100000000Y-86000000D01*
X97653503Y-83653503D02*
X98000000Y-84000000D01*
X97000000Y-87000000D02*
X97000000Y-85000000D01*
X97000000Y-85000000D02*
X97000000Y-83000000D01*
X96000000Y-67380000D02*
X98000000Y-65380000D01*
X97000000Y-83000000D02*
X96000000Y-82000000D01*
X95000000Y-91000000D02*
X95000000Y-89000000D01*
X95000000Y-89000000D02*
X97000000Y-87000000D01*
X96000000Y-82000000D02*
X96000000Y-67380000D01*
X95575000Y-91575000D02*
X95000000Y-91000000D01*
X100425000Y-91575000D02*
X95575000Y-91575000D01*
X105000000Y-87000000D02*
X100425000Y-91575000D01*
X99900000Y-79832994D02*
X99900000Y-81407006D01*
X99900000Y-81407006D02*
X97653503Y-83653503D01*
X99750660Y-79683654D02*
X99900000Y-79832994D01*
X101000000Y-78434314D02*
X99750660Y-79683654D01*
X107000000Y-71840000D02*
X101000000Y-77840000D01*
X101000000Y-77840000D02*
X101000000Y-78434314D01*
X107000000Y-65500000D02*
X107000000Y-71840000D01*
X117775000Y-90225000D02*
X143535000Y-90225000D01*
D31*
X136310000Y-77190000D02*
X124500000Y-89000000D01*
X112000000Y-87000000D02*
X112000000Y-50380000D01*
X114000000Y-89000000D02*
X112000000Y-87000000D01*
X116000000Y-45260000D02*
X124880000Y-45260000D01*
X124500000Y-89000000D02*
X114000000Y-89000000D01*
X112000000Y-50380000D02*
X107000000Y-45380000D01*
X106880000Y-45260000D02*
X107000000Y-45380000D01*
D30*
X143535000Y-90225000D02*
X145760000Y-88000000D01*
D31*
X138500000Y-91840000D02*
X140115000Y-90225000D01*
X140115000Y-90225000D02*
X143535000Y-90225000D01*
X115880000Y-45380000D02*
X116000000Y-45260000D01*
X98000000Y-45260000D02*
X106880000Y-45260000D01*
X142420000Y-77190000D02*
X136310000Y-77190000D01*
X124880000Y-45260000D02*
X125000000Y-45380000D01*
X107000000Y-45380000D02*
X115880000Y-45380000D01*
X169285000Y-74500000D02*
X169420000Y-74500000D01*
X169755000Y-69695000D02*
X176695000Y-69695000D01*
X180960000Y-82960000D02*
X182000000Y-84000000D01*
X165605000Y-70820000D02*
X167642500Y-72857500D01*
X167642500Y-72857500D02*
X169285000Y-74500000D01*
X176695000Y-69695000D02*
X177000000Y-70000000D01*
X167698491Y-72857500D02*
X169500000Y-71055991D01*
X177000000Y-81500000D02*
X179500000Y-84000000D01*
X180960000Y-81620000D02*
X180960000Y-82960000D01*
X169500000Y-71055991D02*
X169500000Y-69950000D01*
X169500000Y-69950000D02*
X169755000Y-69695000D01*
X179500000Y-84000000D02*
X182000000Y-84000000D01*
X177000000Y-70000000D02*
X177000000Y-81500000D01*
X167642500Y-72857500D02*
X167698491Y-72857500D01*
X174500000Y-74500000D02*
X175765000Y-73235000D01*
X175765000Y-73235000D02*
X175765000Y-70820000D01*
X174500000Y-74500000D02*
X174500000Y-79000000D01*
X167000000Y-77500000D02*
X163500000Y-81000000D01*
X170685000Y-70820000D02*
X170685000Y-76315000D01*
X165000000Y-77500000D02*
X167000000Y-77500000D01*
X169500000Y-77500000D02*
X167000000Y-77500000D01*
X170685000Y-76315000D02*
X169500000Y-77500000D01*
X163500000Y-81000000D02*
X147500000Y-81000000D01*
X143182588Y-75875000D02*
X141912588Y-75875000D01*
X167020000Y-69695000D02*
X165139009Y-69695000D01*
X168145000Y-70820000D02*
X167020000Y-69695000D01*
X158975991Y-76500000D02*
X148652412Y-76500000D01*
X164190000Y-71285991D02*
X158975991Y-76500000D01*
X148007412Y-77145000D02*
X144452588Y-77145000D01*
X141912588Y-75875000D02*
X140000000Y-73962412D01*
X148652412Y-76500000D02*
X148007412Y-77145000D01*
X144452588Y-77145000D02*
X143182588Y-75875000D01*
X140000000Y-73962412D02*
X140000000Y-70167588D01*
X164190000Y-70644009D02*
X164190000Y-71285991D01*
X149780000Y-63220000D02*
X150000000Y-63000000D01*
X165139009Y-69695000D02*
X164190000Y-70644009D01*
X147500000Y-63780000D02*
X147500000Y-63220000D01*
X141912588Y-68255000D02*
X143025000Y-68255000D01*
X143025000Y-68255000D02*
X147500000Y-63780000D01*
X147500000Y-63220000D02*
X149780000Y-63220000D01*
X140000000Y-70167588D02*
X141912588Y-68255000D01*
X164267208Y-68345000D02*
X164112208Y-68500000D01*
X167579188Y-68345000D02*
X164267208Y-68345000D01*
X157363604Y-70500000D02*
X155000000Y-70500000D01*
X171465000Y-67500000D02*
X169561396Y-67500000D01*
X155000000Y-70500000D02*
X150850000Y-74650000D01*
X168461396Y-68600000D02*
X167834188Y-68600000D01*
X167834188Y-68600000D02*
X167579188Y-68345000D01*
X159363604Y-68500000D02*
X157363604Y-70500000D01*
X169561396Y-67500000D02*
X168461396Y-68600000D01*
X175765000Y-63200000D02*
X171465000Y-67500000D01*
X164112208Y-68500000D02*
X159363604Y-68500000D01*
X150850000Y-74650000D02*
X142420000Y-74650000D01*
X168145000Y-63200000D02*
X165345000Y-66000000D01*
X149863604Y-66000000D02*
X147563604Y-68300000D01*
X165345000Y-66000000D02*
X149863604Y-66000000D01*
X147563604Y-68300000D02*
X147500000Y-68300000D01*
X183385000Y-70820000D02*
X186040000Y-73475000D01*
X186040000Y-73475000D02*
X186040000Y-74000000D01*
D30*
X135000000Y-84500000D02*
X134800520Y-84500000D01*
X140970000Y-78530000D02*
X135000000Y-84500000D01*
X132740520Y-86560000D02*
X132334314Y-86560000D01*
X147500000Y-78460000D02*
X145040000Y-78460000D01*
X134800520Y-84500000D02*
X132740520Y-86560000D01*
X145040000Y-78460000D02*
X144970000Y-78530000D01*
X112505000Y-89425000D02*
X110080000Y-87000000D01*
X129469314Y-89425000D02*
X112505000Y-89425000D01*
X107000000Y-60620000D02*
X107000000Y-65500000D01*
X144970000Y-78530000D02*
X140970000Y-78530000D01*
X132334314Y-86560000D02*
X129469314Y-89425000D01*
X132325000Y-89825000D02*
X142420000Y-79730000D01*
X107825000Y-89825000D02*
X132325000Y-89825000D01*
X98000000Y-65380000D02*
X98000000Y-60500000D01*
X105000000Y-87000000D02*
X107825000Y-89825000D01*
X121650000Y-86998960D02*
X127073960Y-81575000D01*
X142420000Y-64490000D02*
X139010000Y-64490000D01*
X139010000Y-64490000D02*
X136990000Y-64490000D01*
X125000000Y-60620000D02*
X125000000Y-65260000D01*
X121650000Y-87000000D02*
X121650000Y-86998960D01*
X131500000Y-60500000D02*
X125120000Y-60500000D01*
X125120000Y-60500000D02*
X125000000Y-60620000D01*
X127073960Y-81575000D02*
X131323960Y-81575000D01*
X136990000Y-64490000D02*
X136220000Y-65260000D01*
X120240000Y-87000000D02*
X121650000Y-87000000D01*
X136235000Y-76765000D02*
X139010000Y-73990000D01*
X136220000Y-65260000D02*
X125000000Y-65260000D01*
X131323960Y-81575000D02*
X136133960Y-76765000D01*
X139010000Y-73990000D02*
X139010000Y-64490000D01*
X136133960Y-76765000D02*
X136235000Y-76765000D01*
X120500000Y-81660000D02*
X120500000Y-70000000D01*
X163500000Y-64500000D02*
X154500000Y-64500000D01*
X147500000Y-65760000D02*
X147685000Y-65575000D01*
X164925000Y-65575000D02*
X167000000Y-63500000D01*
X138500000Y-58500000D02*
X137535000Y-58500000D01*
X164165000Y-63084365D02*
X164165000Y-63835000D01*
X138500000Y-58500000D02*
X118000000Y-58500000D01*
X166500000Y-61500000D02*
X165749365Y-61500000D01*
X147685000Y-65575000D02*
X164925000Y-65575000D01*
X137535000Y-58500000D02*
X135500000Y-60535000D01*
X154500000Y-64500000D02*
X148500000Y-58500000D01*
X165749365Y-61500000D02*
X164165000Y-63084365D01*
X164165000Y-63835000D02*
X163500000Y-64500000D01*
X148500000Y-58500000D02*
X138500000Y-58500000D01*
X115160000Y-87000000D02*
X120500000Y-81660000D01*
X120500000Y-70000000D02*
X116000000Y-65500000D01*
X118000000Y-58500000D02*
X116000000Y-60500000D01*
X116000000Y-60500000D02*
X116000000Y-65500000D01*
X167000000Y-63500000D02*
X167000000Y-62000000D01*
X167000000Y-62000000D02*
X166500000Y-61500000D01*
D31*
X197275000Y-63200000D02*
X200525000Y-59950000D01*
X185925000Y-63200000D02*
X197275000Y-63200000D01*
X182225000Y-64580000D02*
X180845000Y-63200000D01*
X198435000Y-64580000D02*
X182225000Y-64580000D01*
X200525000Y-62490000D02*
X198435000Y-64580000D01*
X202500000Y-63055000D02*
X202500000Y-58000000D01*
X181500000Y-56500000D02*
X169765000Y-56500000D01*
X169765000Y-56500000D02*
X163065000Y-63200000D01*
X200500000Y-56000000D02*
X182000000Y-56000000D01*
X200525000Y-65030000D02*
X202500000Y-63055000D01*
X202500000Y-58000000D02*
X200500000Y-56000000D01*
X182000000Y-56000000D02*
X181500000Y-56500000D01*
X167206396Y-69245000D02*
X164640000Y-69245000D01*
X199595000Y-68500000D02*
X169834188Y-68500000D01*
X167461396Y-69500000D02*
X167206396Y-69245000D01*
X169834188Y-68500000D02*
X168834188Y-69500000D01*
X164640000Y-69245000D02*
X163065000Y-70820000D01*
X168834188Y-69500000D02*
X167461396Y-69500000D01*
X200525000Y-67570000D02*
X199595000Y-68500000D01*
X200525000Y-70110000D02*
X186635000Y-70110000D01*
X186635000Y-70110000D02*
X185925000Y-70820000D01*
X183034009Y-75125000D02*
X184117500Y-75125000D01*
X179430000Y-71945000D02*
X180937500Y-71945000D01*
X178305000Y-70820000D02*
X179430000Y-71945000D01*
X182375000Y-74465991D02*
X183034009Y-75125000D01*
X182375000Y-73382500D02*
X182375000Y-74465991D01*
X193992500Y-85000000D02*
X197000000Y-85000000D01*
X184117500Y-75125000D02*
X193992500Y-85000000D01*
X180937500Y-71945000D02*
X182375000Y-73382500D01*
X185525000Y-75500000D02*
X192580000Y-75500000D01*
X192580000Y-75500000D02*
X197000000Y-79920000D01*
X183965991Y-72875000D02*
X183034009Y-72875000D01*
X184625000Y-74465991D02*
X184625000Y-73534009D01*
X183034009Y-72875000D02*
X182967004Y-72942004D01*
X185525000Y-75500000D02*
X184557995Y-74532995D01*
X182967004Y-72942004D02*
X180845000Y-70820000D01*
X184625000Y-73534009D02*
X183965991Y-72875000D01*
X184557995Y-74532995D02*
X184625000Y-74465991D01*
X131000000Y-41000000D02*
X51645000Y-41000000D01*
X51645000Y-41000000D02*
X50145000Y-42500000D01*
X135500000Y-45500000D02*
X131000000Y-41000000D01*
X135500000Y-55455000D02*
X135500000Y-45500000D01*
X131500000Y-45500000D02*
X127500000Y-41500000D01*
X127500000Y-41500000D02*
X87210000Y-41500000D01*
X131500000Y-55420000D02*
X131500000Y-45500000D01*
X87210000Y-41500000D02*
X86210000Y-42500000D01*
X167647792Y-69050000D02*
X167392792Y-68795000D01*
X173505000Y-68000000D02*
X169697792Y-68000000D01*
X159500000Y-69000000D02*
X153000000Y-75500000D01*
X152000000Y-75500000D02*
X151580000Y-75920000D01*
X164248604Y-69000000D02*
X159500000Y-69000000D01*
X164453604Y-68795000D02*
X164248604Y-69000000D01*
X169697792Y-68000000D02*
X168647792Y-69050000D01*
X151580000Y-75920000D02*
X147500000Y-75920000D01*
X153000000Y-75500000D02*
X152000000Y-75500000D01*
X168647792Y-69050000D02*
X167647792Y-69050000D01*
X167392792Y-68795000D02*
X164453604Y-68795000D01*
X178305000Y-63200000D02*
X173505000Y-68000000D01*
X147500000Y-73363604D02*
X147500000Y-73380000D01*
X168275000Y-68150000D02*
X168020584Y-68150000D01*
X157727208Y-69500000D02*
X151363604Y-69500000D01*
X159332208Y-67895000D02*
X157727208Y-69500000D01*
X168020584Y-68150000D02*
X167765584Y-67895000D01*
X151363604Y-69500000D02*
X147500000Y-73363604D01*
X167765584Y-67895000D02*
X159332208Y-67895000D01*
X173225000Y-63200000D02*
X168275000Y-68150000D01*
X148007412Y-72065000D02*
X145065000Y-72065000D01*
X143500000Y-70500000D02*
X143350000Y-70500000D01*
X145065000Y-72065000D02*
X143500000Y-70500000D01*
X143350000Y-70500000D02*
X142420000Y-69570000D01*
X159145812Y-67445000D02*
X159090812Y-67500000D01*
X166440000Y-67445000D02*
X159145812Y-67445000D01*
X159090812Y-67500000D02*
X152572412Y-67500000D01*
X142570000Y-69570000D02*
X142420000Y-69570000D01*
X152572412Y-67500000D02*
X148007412Y-72065000D01*
X170685000Y-63200000D02*
X166440000Y-67445000D01*
X148000000Y-59000000D02*
X145000000Y-59000000D01*
X163805000Y-65000000D02*
X154000000Y-65000000D01*
X145000000Y-64450000D02*
X142420000Y-67030000D01*
X145000000Y-59000000D02*
X145000000Y-64450000D01*
X154000000Y-65000000D02*
X148000000Y-59000000D01*
X165605000Y-63200000D02*
X163805000Y-65000000D01*
M02*
