%TF.GenerationSoftware,KiCad,Pcbnew,(6.0.11)*%
%TF.CreationDate,2023-02-08T16:01:08+00:00*%
%TF.ProjectId,StepperDemoPCB,53746570-7065-4724-9465-6d6f5043422e,rev?*%
%TF.SameCoordinates,Original*%
%TF.FileFunction,Drillmap*%
%TF.FilePolarity,Positive*%
%FSLAX45Y45*%
G04 Gerber Fmt 4.5, Leading zero omitted, Abs format (unit mm)*
G04 Created by KiCad (PCBNEW (6.0.11)) date 2023-02-08 16:01:08*
%MOMM*%
%LPD*%
G01*
G04 APERTURE LIST*
%ADD10C,0.100000*%
%ADD11C,0.200000*%
G04 APERTURE END LIST*
D10*
X3300000Y-3450000D02*
X20700000Y-3450000D01*
X20700000Y-3450000D02*
X20700000Y-10300000D01*
X20700000Y-10300000D02*
X3300000Y-10300000D01*
X3300000Y-10300000D02*
X3300000Y-3450000D01*
D11*
X3552619Y-10615476D02*
X3552619Y-10415476D01*
X3600238Y-10415476D01*
X3628809Y-10425000D01*
X3647857Y-10444048D01*
X3657381Y-10463095D01*
X3666905Y-10501190D01*
X3666905Y-10529762D01*
X3657381Y-10567857D01*
X3647857Y-10586905D01*
X3628809Y-10605952D01*
X3600238Y-10615476D01*
X3552619Y-10615476D01*
X3752619Y-10615476D02*
X3752619Y-10482143D01*
X3752619Y-10520238D02*
X3762143Y-10501190D01*
X3771667Y-10491667D01*
X3790714Y-10482143D01*
X3809762Y-10482143D01*
X3876428Y-10615476D02*
X3876428Y-10482143D01*
X3876428Y-10415476D02*
X3866905Y-10425000D01*
X3876428Y-10434524D01*
X3885952Y-10425000D01*
X3876428Y-10415476D01*
X3876428Y-10434524D01*
X4000238Y-10615476D02*
X3981190Y-10605952D01*
X3971667Y-10586905D01*
X3971667Y-10415476D01*
X4105000Y-10615476D02*
X4085952Y-10605952D01*
X4076428Y-10586905D01*
X4076428Y-10415476D01*
X4333571Y-10615476D02*
X4333571Y-10415476D01*
X4400238Y-10558333D01*
X4466905Y-10415476D01*
X4466905Y-10615476D01*
X4647857Y-10615476D02*
X4647857Y-10510714D01*
X4638333Y-10491667D01*
X4619286Y-10482143D01*
X4581190Y-10482143D01*
X4562143Y-10491667D01*
X4647857Y-10605952D02*
X4628810Y-10615476D01*
X4581190Y-10615476D01*
X4562143Y-10605952D01*
X4552619Y-10586905D01*
X4552619Y-10567857D01*
X4562143Y-10548810D01*
X4581190Y-10539286D01*
X4628810Y-10539286D01*
X4647857Y-10529762D01*
X4743095Y-10482143D02*
X4743095Y-10682143D01*
X4743095Y-10491667D02*
X4762143Y-10482143D01*
X4800238Y-10482143D01*
X4819286Y-10491667D01*
X4828810Y-10501190D01*
X4838333Y-10520238D01*
X4838333Y-10577381D01*
X4828810Y-10596429D01*
X4819286Y-10605952D01*
X4800238Y-10615476D01*
X4762143Y-10615476D01*
X4743095Y-10605952D01*
X4924048Y-10596429D02*
X4933571Y-10605952D01*
X4924048Y-10615476D01*
X4914524Y-10605952D01*
X4924048Y-10596429D01*
X4924048Y-10615476D01*
X4924048Y-10491667D02*
X4933571Y-10501190D01*
X4924048Y-10510714D01*
X4914524Y-10501190D01*
X4924048Y-10491667D01*
X4924048Y-10510714D01*
M02*
