G04 #@! TF.GenerationSoftware,KiCad,Pcbnew,(6.0.11)*
G04 #@! TF.CreationDate,2023-02-08T16:01:19+00:00*
G04 #@! TF.ProjectId,StepperDemoPCB,53746570-7065-4724-9465-6d6f5043422e,rev?*
G04 #@! TF.SameCoordinates,Original*
G04 #@! TF.FileFunction,Legend,Top*
G04 #@! TF.FilePolarity,Positive*
%FSLAX46Y46*%
G04 Gerber Fmt 4.6, Leading zero omitted, Abs format (unit mm)*
G04 Created by KiCad (PCBNEW (6.0.11)) date 2023-02-08 16:01:19*
%MOMM*%
%LPD*%
G01*
G04 APERTURE LIST*
%ADD10C,0.300000*%
%ADD11C,0.150000*%
%ADD12C,0.120000*%
%ADD13C,7.500000*%
%ADD14C,9.100000*%
%ADD15C,4.500000*%
%ADD16C,1.600000*%
%ADD17C,1.400000*%
%ADD18O,1.400000X1.400000*%
%ADD19R,1.800000X1.800000*%
%ADD20C,1.800000*%
%ADD21R,1.700000X1.700000*%
%ADD22O,1.700000X1.700000*%
%ADD23R,3.200000X3.200000*%
%ADD24O,3.200000X3.200000*%
%ADD25R,3.000000X3.000000*%
%ADD26C,3.000000*%
%ADD27R,1.600000X1.600000*%
%ADD28O,1.600000X1.600000*%
%ADD29O,1.800000X1.800000*%
G04 APERTURE END LIST*
D10*
X146821428Y-92392857D02*
X145321428Y-92892857D01*
X146821428Y-93392857D01*
X145392857Y-93821428D02*
X145321428Y-93964285D01*
X145321428Y-94250000D01*
X145392857Y-94392857D01*
X145535714Y-94464285D01*
X145607142Y-94464285D01*
X145750000Y-94392857D01*
X145821428Y-94250000D01*
X145821428Y-94035714D01*
X145892857Y-93892857D01*
X146035714Y-93821428D01*
X146107142Y-93821428D01*
X146250000Y-93892857D01*
X146321428Y-94035714D01*
X146321428Y-94250000D01*
X146250000Y-94392857D01*
X161821428Y-93214285D02*
X161821428Y-92500000D01*
X161107142Y-92428571D01*
X161178571Y-92500000D01*
X161250000Y-92642857D01*
X161250000Y-93000000D01*
X161178571Y-93142857D01*
X161107142Y-93214285D01*
X160964285Y-93285714D01*
X160607142Y-93285714D01*
X160464285Y-93214285D01*
X160392857Y-93142857D01*
X160321428Y-93000000D01*
X160321428Y-92642857D01*
X160392857Y-92500000D01*
X160464285Y-92428571D01*
X161821428Y-93714285D02*
X160321428Y-94214285D01*
X161821428Y-94714285D01*
X156750000Y-92357142D02*
X156821428Y-92214285D01*
X156821428Y-92000000D01*
X156750000Y-91785714D01*
X156607142Y-91642857D01*
X156464285Y-91571428D01*
X156178571Y-91500000D01*
X155964285Y-91500000D01*
X155678571Y-91571428D01*
X155535714Y-91642857D01*
X155392857Y-91785714D01*
X155321428Y-92000000D01*
X155321428Y-92142857D01*
X155392857Y-92357142D01*
X155464285Y-92428571D01*
X155964285Y-92428571D01*
X155964285Y-92142857D01*
X155321428Y-93071428D02*
X156821428Y-93071428D01*
X155321428Y-93928571D01*
X156821428Y-93928571D01*
X155321428Y-94642857D02*
X156821428Y-94642857D01*
X156821428Y-95000000D01*
X156750000Y-95214285D01*
X156607142Y-95357142D01*
X156464285Y-95428571D01*
X156178571Y-95500000D01*
X155964285Y-95500000D01*
X155678571Y-95428571D01*
X155535714Y-95357142D01*
X155392857Y-95214285D01*
X155321428Y-95000000D01*
X155321428Y-94642857D01*
X151750000Y-92357142D02*
X151821428Y-92214285D01*
X151821428Y-92000000D01*
X151750000Y-91785714D01*
X151607142Y-91642857D01*
X151464285Y-91571428D01*
X151178571Y-91500000D01*
X150964285Y-91500000D01*
X150678571Y-91571428D01*
X150535714Y-91642857D01*
X150392857Y-91785714D01*
X150321428Y-92000000D01*
X150321428Y-92142857D01*
X150392857Y-92357142D01*
X150464285Y-92428571D01*
X150964285Y-92428571D01*
X150964285Y-92142857D01*
X150321428Y-93071428D02*
X151821428Y-93071428D01*
X150321428Y-93928571D01*
X151821428Y-93928571D01*
X150321428Y-94642857D02*
X151821428Y-94642857D01*
X151821428Y-95000000D01*
X151750000Y-95214285D01*
X151607142Y-95357142D01*
X151464285Y-95428571D01*
X151178571Y-95500000D01*
X150964285Y-95500000D01*
X150678571Y-95428571D01*
X150535714Y-95357142D01*
X150392857Y-95214285D01*
X150321428Y-95000000D01*
X150321428Y-94642857D01*
X140857142Y-48809523D02*
X141142857Y-48904761D01*
X141619047Y-48904761D01*
X141809523Y-48809523D01*
X141904761Y-48714285D01*
X142000000Y-48523809D01*
X142000000Y-48333333D01*
X141904761Y-48142857D01*
X141809523Y-48047619D01*
X141619047Y-47952380D01*
X141238095Y-47857142D01*
X141047619Y-47761904D01*
X140952380Y-47666666D01*
X140857142Y-47476190D01*
X140857142Y-47285714D01*
X140952380Y-47095238D01*
X141047619Y-47000000D01*
X141238095Y-46904761D01*
X141714285Y-46904761D01*
X142000000Y-47000000D01*
X142571428Y-47571428D02*
X143333333Y-47571428D01*
X142857142Y-46904761D02*
X142857142Y-48619047D01*
X142952380Y-48809523D01*
X143142857Y-48904761D01*
X143333333Y-48904761D01*
X144761904Y-48809523D02*
X144571428Y-48904761D01*
X144190476Y-48904761D01*
X144000000Y-48809523D01*
X143904761Y-48619047D01*
X143904761Y-47857142D01*
X144000000Y-47666666D01*
X144190476Y-47571428D01*
X144571428Y-47571428D01*
X144761904Y-47666666D01*
X144857142Y-47857142D01*
X144857142Y-48047619D01*
X143904761Y-48238095D01*
X145714285Y-47571428D02*
X145714285Y-49571428D01*
X145714285Y-47666666D02*
X145904761Y-47571428D01*
X146285714Y-47571428D01*
X146476190Y-47666666D01*
X146571428Y-47761904D01*
X146666666Y-47952380D01*
X146666666Y-48523809D01*
X146571428Y-48714285D01*
X146476190Y-48809523D01*
X146285714Y-48904761D01*
X145904761Y-48904761D01*
X145714285Y-48809523D01*
X147523809Y-47571428D02*
X147523809Y-49571428D01*
X147523809Y-47666666D02*
X147714285Y-47571428D01*
X148095238Y-47571428D01*
X148285714Y-47666666D01*
X148380952Y-47761904D01*
X148476190Y-47952380D01*
X148476190Y-48523809D01*
X148380952Y-48714285D01*
X148285714Y-48809523D01*
X148095238Y-48904761D01*
X147714285Y-48904761D01*
X147523809Y-48809523D01*
X150095238Y-48809523D02*
X149904761Y-48904761D01*
X149523809Y-48904761D01*
X149333333Y-48809523D01*
X149238095Y-48619047D01*
X149238095Y-47857142D01*
X149333333Y-47666666D01*
X149523809Y-47571428D01*
X149904761Y-47571428D01*
X150095238Y-47666666D01*
X150190476Y-47857142D01*
X150190476Y-48047619D01*
X149238095Y-48238095D01*
X151047619Y-48904761D02*
X151047619Y-47571428D01*
X151047619Y-47952380D02*
X151142857Y-47761904D01*
X151238095Y-47666666D01*
X151428571Y-47571428D01*
X151619047Y-47571428D01*
X153809523Y-48904761D02*
X153809523Y-47571428D01*
X153809523Y-47761904D02*
X153904761Y-47666666D01*
X154095238Y-47571428D01*
X154380952Y-47571428D01*
X154571428Y-47666666D01*
X154666666Y-47857142D01*
X154666666Y-48904761D01*
X154666666Y-47857142D02*
X154761904Y-47666666D01*
X154952380Y-47571428D01*
X155238095Y-47571428D01*
X155428571Y-47666666D01*
X155523809Y-47857142D01*
X155523809Y-48904761D01*
X156761904Y-48904761D02*
X156571428Y-48809523D01*
X156476190Y-48714285D01*
X156380952Y-48523809D01*
X156380952Y-47952380D01*
X156476190Y-47761904D01*
X156571428Y-47666666D01*
X156761904Y-47571428D01*
X157047619Y-47571428D01*
X157238095Y-47666666D01*
X157333333Y-47761904D01*
X157428571Y-47952380D01*
X157428571Y-48523809D01*
X157333333Y-48714285D01*
X157238095Y-48809523D01*
X157047619Y-48904761D01*
X156761904Y-48904761D01*
X158000000Y-47571428D02*
X158761904Y-47571428D01*
X158285714Y-46904761D02*
X158285714Y-48619047D01*
X158380952Y-48809523D01*
X158571428Y-48904761D01*
X158761904Y-48904761D01*
X159714285Y-48904761D02*
X159523809Y-48809523D01*
X159428571Y-48714285D01*
X159333333Y-48523809D01*
X159333333Y-47952380D01*
X159428571Y-47761904D01*
X159523809Y-47666666D01*
X159714285Y-47571428D01*
X160000000Y-47571428D01*
X160190476Y-47666666D01*
X160285714Y-47761904D01*
X160380952Y-47952380D01*
X160380952Y-48523809D01*
X160285714Y-48714285D01*
X160190476Y-48809523D01*
X160000000Y-48904761D01*
X159714285Y-48904761D01*
X161238095Y-48904761D02*
X161238095Y-47571428D01*
X161238095Y-47952380D02*
X161333333Y-47761904D01*
X161428571Y-47666666D01*
X161619047Y-47571428D01*
X161809523Y-47571428D01*
X164857142Y-48904761D02*
X164857142Y-46904761D01*
X164857142Y-48809523D02*
X164666666Y-48904761D01*
X164285714Y-48904761D01*
X164095238Y-48809523D01*
X164000000Y-48714285D01*
X163904761Y-48523809D01*
X163904761Y-47952380D01*
X164000000Y-47761904D01*
X164095238Y-47666666D01*
X164285714Y-47571428D01*
X164666666Y-47571428D01*
X164857142Y-47666666D01*
X166571428Y-48809523D02*
X166380952Y-48904761D01*
X166000000Y-48904761D01*
X165809523Y-48809523D01*
X165714285Y-48619047D01*
X165714285Y-47857142D01*
X165809523Y-47666666D01*
X166000000Y-47571428D01*
X166380952Y-47571428D01*
X166571428Y-47666666D01*
X166666666Y-47857142D01*
X166666666Y-48047619D01*
X165714285Y-48238095D01*
X167523809Y-48904761D02*
X167523809Y-47571428D01*
X167523809Y-47761904D02*
X167619047Y-47666666D01*
X167809523Y-47571428D01*
X168095238Y-47571428D01*
X168285714Y-47666666D01*
X168380952Y-47857142D01*
X168380952Y-48904761D01*
X168380952Y-47857142D02*
X168476190Y-47666666D01*
X168666666Y-47571428D01*
X168952380Y-47571428D01*
X169142857Y-47666666D01*
X169238095Y-47857142D01*
X169238095Y-48904761D01*
X170476190Y-48904761D02*
X170285714Y-48809523D01*
X170190476Y-48714285D01*
X170095238Y-48523809D01*
X170095238Y-47952380D01*
X170190476Y-47761904D01*
X170285714Y-47666666D01*
X170476190Y-47571428D01*
X170761904Y-47571428D01*
X170952380Y-47666666D01*
X171047619Y-47761904D01*
X171142857Y-47952380D01*
X171142857Y-48523809D01*
X171047619Y-48714285D01*
X170952380Y-48809523D01*
X170761904Y-48904761D01*
X170476190Y-48904761D01*
X173523809Y-48904761D02*
X173523809Y-46904761D01*
X173523809Y-47666666D02*
X173714285Y-47571428D01*
X174095238Y-47571428D01*
X174285714Y-47666666D01*
X174380952Y-47761904D01*
X174476190Y-47952380D01*
X174476190Y-48523809D01*
X174380952Y-48714285D01*
X174285714Y-48809523D01*
X174095238Y-48904761D01*
X173714285Y-48904761D01*
X173523809Y-48809523D01*
X175619047Y-48904761D02*
X175428571Y-48809523D01*
X175333333Y-48714285D01*
X175238095Y-48523809D01*
X175238095Y-47952380D01*
X175333333Y-47761904D01*
X175428571Y-47666666D01*
X175619047Y-47571428D01*
X175904761Y-47571428D01*
X176095238Y-47666666D01*
X176190476Y-47761904D01*
X176285714Y-47952380D01*
X176285714Y-48523809D01*
X176190476Y-48714285D01*
X176095238Y-48809523D01*
X175904761Y-48904761D01*
X175619047Y-48904761D01*
X178000000Y-48904761D02*
X178000000Y-47857142D01*
X177904761Y-47666666D01*
X177714285Y-47571428D01*
X177333333Y-47571428D01*
X177142857Y-47666666D01*
X178000000Y-48809523D02*
X177809523Y-48904761D01*
X177333333Y-48904761D01*
X177142857Y-48809523D01*
X177047619Y-48619047D01*
X177047619Y-48428571D01*
X177142857Y-48238095D01*
X177333333Y-48142857D01*
X177809523Y-48142857D01*
X178000000Y-48047619D01*
X178952380Y-48904761D02*
X178952380Y-47571428D01*
X178952380Y-47952380D02*
X179047619Y-47761904D01*
X179142857Y-47666666D01*
X179333333Y-47571428D01*
X179523809Y-47571428D01*
X181047619Y-48904761D02*
X181047619Y-46904761D01*
X181047619Y-48809523D02*
X180857142Y-48904761D01*
X180476190Y-48904761D01*
X180285714Y-48809523D01*
X180190476Y-48714285D01*
X180095238Y-48523809D01*
X180095238Y-47952380D01*
X180190476Y-47761904D01*
X180285714Y-47666666D01*
X180476190Y-47571428D01*
X180857142Y-47571428D01*
X181047619Y-47666666D01*
D11*
X202761904Y-70452380D02*
X202428571Y-69976190D01*
X202190476Y-70452380D02*
X202190476Y-69452380D01*
X202571428Y-69452380D01*
X202666666Y-69500000D01*
X202714285Y-69547619D01*
X202761904Y-69642857D01*
X202761904Y-69785714D01*
X202714285Y-69880952D01*
X202666666Y-69928571D01*
X202571428Y-69976190D01*
X202190476Y-69976190D01*
X203571428Y-70404761D02*
X203476190Y-70452380D01*
X203285714Y-70452380D01*
X203190476Y-70404761D01*
X203142857Y-70309523D01*
X203142857Y-69928571D01*
X203190476Y-69833333D01*
X203285714Y-69785714D01*
X203476190Y-69785714D01*
X203571428Y-69833333D01*
X203619047Y-69928571D01*
X203619047Y-70023809D01*
X203142857Y-70119047D01*
X204000000Y-70404761D02*
X204095238Y-70452380D01*
X204285714Y-70452380D01*
X204380952Y-70404761D01*
X204428571Y-70309523D01*
X204428571Y-70261904D01*
X204380952Y-70166666D01*
X204285714Y-70119047D01*
X204142857Y-70119047D01*
X204047619Y-70071428D01*
X204000000Y-69976190D01*
X204000000Y-69928571D01*
X204047619Y-69833333D01*
X204142857Y-69785714D01*
X204285714Y-69785714D01*
X204380952Y-69833333D01*
X205238095Y-70404761D02*
X205142857Y-70452380D01*
X204952380Y-70452380D01*
X204857142Y-70404761D01*
X204809523Y-70309523D01*
X204809523Y-69928571D01*
X204857142Y-69833333D01*
X204952380Y-69785714D01*
X205142857Y-69785714D01*
X205238095Y-69833333D01*
X205285714Y-69928571D01*
X205285714Y-70023809D01*
X204809523Y-70119047D01*
X205571428Y-69785714D02*
X205952380Y-69785714D01*
X205714285Y-69452380D02*
X205714285Y-70309523D01*
X205761904Y-70404761D01*
X205857142Y-70452380D01*
X205952380Y-70452380D01*
X202952380Y-67857142D02*
X202904761Y-67904761D01*
X202761904Y-67952380D01*
X202666666Y-67952380D01*
X202523809Y-67904761D01*
X202428571Y-67809523D01*
X202380952Y-67714285D01*
X202333333Y-67523809D01*
X202333333Y-67380952D01*
X202380952Y-67190476D01*
X202428571Y-67095238D01*
X202523809Y-67000000D01*
X202666666Y-66952380D01*
X202761904Y-66952380D01*
X202904761Y-67000000D01*
X202952380Y-67047619D01*
X203238095Y-67285714D02*
X203619047Y-67285714D01*
X203380952Y-66952380D02*
X203380952Y-67809523D01*
X203428571Y-67904761D01*
X203523809Y-67952380D01*
X203619047Y-67952380D01*
X203952380Y-67952380D02*
X203952380Y-67285714D01*
X203952380Y-67476190D02*
X204000000Y-67380952D01*
X204047619Y-67333333D01*
X204142857Y-67285714D01*
X204238095Y-67285714D01*
X204714285Y-67952380D02*
X204619047Y-67904761D01*
X204571428Y-67809523D01*
X204571428Y-66952380D01*
X202333333Y-64928571D02*
X202666666Y-64928571D01*
X202809523Y-65452380D02*
X202333333Y-65452380D01*
X202333333Y-64452380D01*
X202809523Y-64452380D01*
X203238095Y-64785714D02*
X203238095Y-65452380D01*
X203238095Y-64880952D02*
X203285714Y-64833333D01*
X203380952Y-64785714D01*
X203523809Y-64785714D01*
X203619047Y-64833333D01*
X203666666Y-64928571D01*
X203666666Y-65452380D01*
X202166666Y-62952380D02*
X202166666Y-61952380D01*
X202166666Y-62428571D02*
X202738095Y-62428571D01*
X202738095Y-62952380D02*
X202738095Y-61952380D01*
X203357142Y-62952380D02*
X203261904Y-62904761D01*
X203214285Y-62857142D01*
X203166666Y-62761904D01*
X203166666Y-62476190D01*
X203214285Y-62380952D01*
X203261904Y-62333333D01*
X203357142Y-62285714D01*
X203500000Y-62285714D01*
X203595238Y-62333333D01*
X203642857Y-62380952D01*
X203690476Y-62476190D01*
X203690476Y-62761904D01*
X203642857Y-62857142D01*
X203595238Y-62904761D01*
X203500000Y-62952380D01*
X203357142Y-62952380D01*
X204119047Y-62952380D02*
X204119047Y-62285714D01*
X204119047Y-62380952D02*
X204166666Y-62333333D01*
X204261904Y-62285714D01*
X204404761Y-62285714D01*
X204500000Y-62333333D01*
X204547619Y-62428571D01*
X204547619Y-62952380D01*
X204547619Y-62428571D02*
X204595238Y-62333333D01*
X204690476Y-62285714D01*
X204833333Y-62285714D01*
X204928571Y-62333333D01*
X204976190Y-62428571D01*
X204976190Y-62952380D01*
X205833333Y-62904761D02*
X205738095Y-62952380D01*
X205547619Y-62952380D01*
X205452380Y-62904761D01*
X205404761Y-62809523D01*
X205404761Y-62428571D01*
X205452380Y-62333333D01*
X205547619Y-62285714D01*
X205738095Y-62285714D01*
X205833333Y-62333333D01*
X205880952Y-62428571D01*
X205880952Y-62523809D01*
X205404761Y-62619047D01*
X202452380Y-60404761D02*
X202595238Y-60452380D01*
X202833333Y-60452380D01*
X202928571Y-60404761D01*
X202976190Y-60357142D01*
X203023809Y-60261904D01*
X203023809Y-60166666D01*
X202976190Y-60071428D01*
X202928571Y-60023809D01*
X202833333Y-59976190D01*
X202642857Y-59928571D01*
X202547619Y-59880952D01*
X202500000Y-59833333D01*
X202452380Y-59738095D01*
X202452380Y-59642857D01*
X202500000Y-59547619D01*
X202547619Y-59500000D01*
X202642857Y-59452380D01*
X202880952Y-59452380D01*
X203023809Y-59500000D01*
X203357142Y-59785714D02*
X203595238Y-60452380D01*
X203833333Y-59785714D02*
X203595238Y-60452380D01*
X203500000Y-60690476D01*
X203452380Y-60738095D01*
X203357142Y-60785714D01*
X204214285Y-59785714D02*
X204214285Y-60452380D01*
X204214285Y-59880952D02*
X204261904Y-59833333D01*
X204357142Y-59785714D01*
X204500000Y-59785714D01*
X204595238Y-59833333D01*
X204642857Y-59928571D01*
X204642857Y-60452380D01*
X205547619Y-60404761D02*
X205452380Y-60452380D01*
X205261904Y-60452380D01*
X205166666Y-60404761D01*
X205119047Y-60357142D01*
X205071428Y-60261904D01*
X205071428Y-59976190D01*
X205119047Y-59880952D01*
X205166666Y-59833333D01*
X205261904Y-59785714D01*
X205452380Y-59785714D01*
X205547619Y-59833333D01*
D10*
X201785714Y-85678571D02*
X201785714Y-84178571D01*
X202142857Y-84178571D01*
X202357142Y-84250000D01*
X202500000Y-84392857D01*
X202571428Y-84535714D01*
X202642857Y-84821428D01*
X202642857Y-85035714D01*
X202571428Y-85321428D01*
X202500000Y-85464285D01*
X202357142Y-85607142D01*
X202142857Y-85678571D01*
X201785714Y-85678571D01*
X203285714Y-85678571D02*
X203285714Y-84678571D01*
X203285714Y-84178571D02*
X203214285Y-84250000D01*
X203285714Y-84321428D01*
X203357142Y-84250000D01*
X203285714Y-84178571D01*
X203285714Y-84321428D01*
X204000000Y-85678571D02*
X204000000Y-84678571D01*
X204000000Y-84964285D02*
X204071428Y-84821428D01*
X204142857Y-84750000D01*
X204285714Y-84678571D01*
X204428571Y-84678571D01*
X202464285Y-80535714D02*
X202392857Y-80607142D01*
X202178571Y-80678571D01*
X202035714Y-80678571D01*
X201821428Y-80607142D01*
X201678571Y-80464285D01*
X201607142Y-80321428D01*
X201535714Y-80035714D01*
X201535714Y-79821428D01*
X201607142Y-79535714D01*
X201678571Y-79392857D01*
X201821428Y-79250000D01*
X202035714Y-79178571D01*
X202178571Y-79178571D01*
X202392857Y-79250000D01*
X202464285Y-79321428D01*
X203321428Y-80678571D02*
X203178571Y-80607142D01*
X203107142Y-80464285D01*
X203107142Y-79178571D01*
X203892857Y-80678571D02*
X203892857Y-79178571D01*
X204035714Y-80107142D02*
X204464285Y-80678571D01*
X204464285Y-79678571D02*
X203892857Y-80250000D01*
X58071428Y-75607142D02*
X58285714Y-75678571D01*
X58642857Y-75678571D01*
X58785714Y-75607142D01*
X58857142Y-75535714D01*
X58928571Y-75392857D01*
X58928571Y-75250000D01*
X58857142Y-75107142D01*
X58785714Y-75035714D01*
X58642857Y-74964285D01*
X58357142Y-74892857D01*
X58214285Y-74821428D01*
X58142857Y-74750000D01*
X58071428Y-74607142D01*
X58071428Y-74464285D01*
X58142857Y-74321428D01*
X58214285Y-74250000D01*
X58357142Y-74178571D01*
X58714285Y-74178571D01*
X58928571Y-74250000D01*
X59571428Y-75678571D02*
X59571428Y-74678571D01*
X59571428Y-74178571D02*
X59500000Y-74250000D01*
X59571428Y-74321428D01*
X59642857Y-74250000D01*
X59571428Y-74178571D01*
X59571428Y-74321428D01*
X60142857Y-74678571D02*
X60928571Y-74678571D01*
X60142857Y-75678571D01*
X60928571Y-75678571D01*
X62071428Y-75607142D02*
X61928571Y-75678571D01*
X61642857Y-75678571D01*
X61500000Y-75607142D01*
X61428571Y-75464285D01*
X61428571Y-74892857D01*
X61500000Y-74750000D01*
X61642857Y-74678571D01*
X61928571Y-74678571D01*
X62071428Y-74750000D01*
X62142857Y-74892857D01*
X62142857Y-75035714D01*
X61428571Y-75178571D01*
X62785714Y-75535714D02*
X62857142Y-75607142D01*
X62785714Y-75678571D01*
X62714285Y-75607142D01*
X62785714Y-75535714D01*
X62785714Y-75678571D01*
X62785714Y-74750000D02*
X62857142Y-74821428D01*
X62785714Y-74892857D01*
X62714285Y-74821428D01*
X62785714Y-74750000D01*
X62785714Y-74892857D01*
X64642857Y-75678571D02*
X64642857Y-74178571D01*
X65500000Y-75678571D01*
X65500000Y-74178571D01*
X66214285Y-74892857D02*
X66714285Y-74892857D01*
X66928571Y-75678571D02*
X66214285Y-75678571D01*
X66214285Y-74178571D01*
X66928571Y-74178571D01*
X67571428Y-75678571D02*
X67571428Y-74178571D01*
X68071428Y-75250000D01*
X68571428Y-74178571D01*
X68571428Y-75678571D01*
X69214285Y-75250000D02*
X69928571Y-75250000D01*
X69071428Y-75678571D02*
X69571428Y-74178571D01*
X70071428Y-75678571D01*
X72500000Y-75678571D02*
X71642857Y-75678571D01*
X72071428Y-75678571D02*
X72071428Y-74178571D01*
X71928571Y-74392857D01*
X71785714Y-74535714D01*
X71642857Y-74607142D01*
X73000000Y-74178571D02*
X74000000Y-74178571D01*
X73357142Y-75678571D01*
X201857142Y-74250000D02*
X201714285Y-74178571D01*
X201500000Y-74178571D01*
X201285714Y-74250000D01*
X201142857Y-74392857D01*
X201071428Y-74535714D01*
X201000000Y-74821428D01*
X201000000Y-75035714D01*
X201071428Y-75321428D01*
X201142857Y-75464285D01*
X201285714Y-75607142D01*
X201500000Y-75678571D01*
X201642857Y-75678571D01*
X201857142Y-75607142D01*
X201928571Y-75535714D01*
X201928571Y-75035714D01*
X201642857Y-75035714D01*
X202571428Y-75678571D02*
X202571428Y-74178571D01*
X203428571Y-75678571D01*
X203428571Y-74178571D01*
X204142857Y-75678571D02*
X204142857Y-74178571D01*
X204500000Y-74178571D01*
X204714285Y-74250000D01*
X204857142Y-74392857D01*
X204928571Y-74535714D01*
X205000000Y-74821428D01*
X205000000Y-75035714D01*
X204928571Y-75321428D01*
X204857142Y-75464285D01*
X204714285Y-75607142D01*
X204500000Y-75678571D01*
X204142857Y-75678571D01*
D11*
X39238095Y-89702380D02*
X39238095Y-88702380D01*
X39238095Y-89178571D02*
X39809523Y-89178571D01*
X39809523Y-89702380D02*
X39809523Y-88702380D01*
X40714285Y-89035714D02*
X40714285Y-89702380D01*
X40476190Y-88654761D02*
X40238095Y-89369047D01*
X40857142Y-89369047D01*
X39238095Y-39702380D02*
X39238095Y-38702380D01*
X39238095Y-39178571D02*
X39809523Y-39178571D01*
X39809523Y-39702380D02*
X39809523Y-38702380D01*
X40190476Y-38702380D02*
X40809523Y-38702380D01*
X40476190Y-39083333D01*
X40619047Y-39083333D01*
X40714285Y-39130952D01*
X40761904Y-39178571D01*
X40809523Y-39273809D01*
X40809523Y-39511904D01*
X40761904Y-39607142D01*
X40714285Y-39654761D01*
X40619047Y-39702380D01*
X40333333Y-39702380D01*
X40238095Y-39654761D01*
X40190476Y-39607142D01*
X194238095Y-89702380D02*
X194238095Y-88702380D01*
X194238095Y-89178571D02*
X194809523Y-89178571D01*
X194809523Y-89702380D02*
X194809523Y-88702380D01*
X195238095Y-88797619D02*
X195285714Y-88750000D01*
X195380952Y-88702380D01*
X195619047Y-88702380D01*
X195714285Y-88750000D01*
X195761904Y-88797619D01*
X195809523Y-88892857D01*
X195809523Y-88988095D01*
X195761904Y-89130952D01*
X195190476Y-89702380D01*
X195809523Y-89702380D01*
X194238095Y-39702380D02*
X194238095Y-38702380D01*
X194238095Y-39178571D02*
X194809523Y-39178571D01*
X194809523Y-39702380D02*
X194809523Y-38702380D01*
X195809523Y-39702380D02*
X195238095Y-39702380D01*
X195523809Y-39702380D02*
X195523809Y-38702380D01*
X195428571Y-38845238D01*
X195333333Y-38940476D01*
X195238095Y-38988095D01*
X66190476Y-66492380D02*
X66190476Y-65492380D01*
X66523809Y-66206666D01*
X66857142Y-65492380D01*
X66857142Y-66492380D01*
X67857142Y-66492380D02*
X67285714Y-66492380D01*
X67571428Y-66492380D02*
X67571428Y-65492380D01*
X67476190Y-65635238D01*
X67380952Y-65730476D01*
X67285714Y-65778095D01*
X100833333Y-90452380D02*
X100500000Y-89976190D01*
X100261904Y-90452380D02*
X100261904Y-89452380D01*
X100642857Y-89452380D01*
X100738095Y-89500000D01*
X100785714Y-89547619D01*
X100833333Y-89642857D01*
X100833333Y-89785714D01*
X100785714Y-89880952D01*
X100738095Y-89928571D01*
X100642857Y-89976190D01*
X100261904Y-89976190D01*
X101738095Y-89452380D02*
X101261904Y-89452380D01*
X101214285Y-89928571D01*
X101261904Y-89880952D01*
X101357142Y-89833333D01*
X101595238Y-89833333D01*
X101690476Y-89880952D01*
X101738095Y-89928571D01*
X101785714Y-90023809D01*
X101785714Y-90261904D01*
X101738095Y-90357142D01*
X101690476Y-90404761D01*
X101595238Y-90452380D01*
X101357142Y-90452380D01*
X101261904Y-90404761D01*
X101214285Y-90357142D01*
X171793333Y-73032380D02*
X171460000Y-72556190D01*
X171221904Y-73032380D02*
X171221904Y-72032380D01*
X171602857Y-72032380D01*
X171698095Y-72080000D01*
X171745714Y-72127619D01*
X171793333Y-72222857D01*
X171793333Y-72365714D01*
X171745714Y-72460952D01*
X171698095Y-72508571D01*
X171602857Y-72556190D01*
X171221904Y-72556190D01*
X172745714Y-73032380D02*
X172174285Y-73032380D01*
X172460000Y-73032380D02*
X172460000Y-72032380D01*
X172364761Y-72175238D01*
X172269523Y-72270476D01*
X172174285Y-72318095D01*
X53261904Y-92452380D02*
X53261904Y-91452380D01*
X53500000Y-91452380D01*
X53642857Y-91500000D01*
X53738095Y-91595238D01*
X53785714Y-91690476D01*
X53833333Y-91880952D01*
X53833333Y-92023809D01*
X53785714Y-92214285D01*
X53738095Y-92309523D01*
X53642857Y-92404761D01*
X53500000Y-92452380D01*
X53261904Y-92452380D01*
X54309523Y-92452380D02*
X54500000Y-92452380D01*
X54595238Y-92404761D01*
X54642857Y-92357142D01*
X54738095Y-92214285D01*
X54785714Y-92023809D01*
X54785714Y-91642857D01*
X54738095Y-91547619D01*
X54690476Y-91500000D01*
X54595238Y-91452380D01*
X54404761Y-91452380D01*
X54309523Y-91500000D01*
X54261904Y-91547619D01*
X54214285Y-91642857D01*
X54214285Y-91880952D01*
X54261904Y-91976190D01*
X54309523Y-92023809D01*
X54404761Y-92071428D01*
X54595238Y-92071428D01*
X54690476Y-92023809D01*
X54738095Y-91976190D01*
X54785714Y-91880952D01*
X133432380Y-58161666D02*
X132956190Y-58495000D01*
X133432380Y-58733095D02*
X132432380Y-58733095D01*
X132432380Y-58352142D01*
X132480000Y-58256904D01*
X132527619Y-58209285D01*
X132622857Y-58161666D01*
X132765714Y-58161666D01*
X132860952Y-58209285D01*
X132908571Y-58256904D01*
X132956190Y-58352142D01*
X132956190Y-58733095D01*
X132432380Y-57304523D02*
X132432380Y-57495000D01*
X132480000Y-57590238D01*
X132527619Y-57637857D01*
X132670476Y-57733095D01*
X132860952Y-57780714D01*
X133241904Y-57780714D01*
X133337142Y-57733095D01*
X133384761Y-57685476D01*
X133432380Y-57590238D01*
X133432380Y-57399761D01*
X133384761Y-57304523D01*
X133337142Y-57256904D01*
X133241904Y-57209285D01*
X133003809Y-57209285D01*
X132908571Y-57256904D01*
X132860952Y-57304523D01*
X132813333Y-57399761D01*
X132813333Y-57590238D01*
X132860952Y-57685476D01*
X132908571Y-57733095D01*
X133003809Y-57780714D01*
X200191666Y-56632380D02*
X200191666Y-57346666D01*
X200144047Y-57489523D01*
X200048809Y-57584761D01*
X199905952Y-57632380D01*
X199810714Y-57632380D01*
X201191666Y-57632380D02*
X200620238Y-57632380D01*
X200905952Y-57632380D02*
X200905952Y-56632380D01*
X200810714Y-56775238D01*
X200715476Y-56870476D01*
X200620238Y-56918095D01*
X186666666Y-84682380D02*
X186666666Y-85396666D01*
X186619047Y-85539523D01*
X186523809Y-85634761D01*
X186380952Y-85682380D01*
X186285714Y-85682380D01*
X187095238Y-84777619D02*
X187142857Y-84730000D01*
X187238095Y-84682380D01*
X187476190Y-84682380D01*
X187571428Y-84730000D01*
X187619047Y-84777619D01*
X187666666Y-84872857D01*
X187666666Y-84968095D01*
X187619047Y-85110952D01*
X187047619Y-85682380D01*
X187666666Y-85682380D01*
X129432380Y-58126666D02*
X128956190Y-58460000D01*
X129432380Y-58698095D02*
X128432380Y-58698095D01*
X128432380Y-58317142D01*
X128480000Y-58221904D01*
X128527619Y-58174285D01*
X128622857Y-58126666D01*
X128765714Y-58126666D01*
X128860952Y-58174285D01*
X128908571Y-58221904D01*
X128956190Y-58317142D01*
X128956190Y-58698095D01*
X128432380Y-57793333D02*
X128432380Y-57126666D01*
X129432380Y-57555238D01*
X173283333Y-90777142D02*
X173235714Y-90824761D01*
X173092857Y-90872380D01*
X172997619Y-90872380D01*
X172854761Y-90824761D01*
X172759523Y-90729523D01*
X172711904Y-90634285D01*
X172664285Y-90443809D01*
X172664285Y-90300952D01*
X172711904Y-90110476D01*
X172759523Y-90015238D01*
X172854761Y-89920000D01*
X172997619Y-89872380D01*
X173092857Y-89872380D01*
X173235714Y-89920000D01*
X173283333Y-89967619D01*
X173664285Y-89967619D02*
X173711904Y-89920000D01*
X173807142Y-89872380D01*
X174045238Y-89872380D01*
X174140476Y-89920000D01*
X174188095Y-89967619D01*
X174235714Y-90062857D01*
X174235714Y-90158095D01*
X174188095Y-90300952D01*
X173616666Y-90872380D01*
X174235714Y-90872380D01*
X102172380Y-73738095D02*
X101172380Y-73738095D01*
X101172380Y-73500000D01*
X101220000Y-73357142D01*
X101315238Y-73261904D01*
X101410476Y-73214285D01*
X101600952Y-73166666D01*
X101743809Y-73166666D01*
X101934285Y-73214285D01*
X102029523Y-73261904D01*
X102124761Y-73357142D01*
X102172380Y-73500000D01*
X102172380Y-73738095D01*
X101267619Y-72785714D02*
X101220000Y-72738095D01*
X101172380Y-72642857D01*
X101172380Y-72404761D01*
X101220000Y-72309523D01*
X101267619Y-72261904D01*
X101362857Y-72214285D01*
X101458095Y-72214285D01*
X101600952Y-72261904D01*
X102172380Y-72833333D01*
X102172380Y-72214285D01*
X101052380Y-65641904D02*
X100052380Y-65641904D01*
X101052380Y-65070476D02*
X100480952Y-65499047D01*
X100052380Y-65070476D02*
X100623809Y-65641904D01*
X129172380Y-73618095D02*
X128172380Y-73618095D01*
X128172380Y-73380000D01*
X128220000Y-73237142D01*
X128315238Y-73141904D01*
X128410476Y-73094285D01*
X128600952Y-73046666D01*
X128743809Y-73046666D01*
X128934285Y-73094285D01*
X129029523Y-73141904D01*
X129124761Y-73237142D01*
X129172380Y-73380000D01*
X129172380Y-73618095D01*
X128600952Y-72475238D02*
X128553333Y-72570476D01*
X128505714Y-72618095D01*
X128410476Y-72665714D01*
X128362857Y-72665714D01*
X128267619Y-72618095D01*
X128220000Y-72570476D01*
X128172380Y-72475238D01*
X128172380Y-72284761D01*
X128220000Y-72189523D01*
X128267619Y-72141904D01*
X128362857Y-72094285D01*
X128410476Y-72094285D01*
X128505714Y-72141904D01*
X128553333Y-72189523D01*
X128600952Y-72284761D01*
X128600952Y-72475238D01*
X128648571Y-72570476D01*
X128696190Y-72618095D01*
X128791428Y-72665714D01*
X128981904Y-72665714D01*
X129077142Y-72618095D01*
X129124761Y-72570476D01*
X129172380Y-72475238D01*
X129172380Y-72284761D01*
X129124761Y-72189523D01*
X129077142Y-72141904D01*
X128981904Y-72094285D01*
X128791428Y-72094285D01*
X128696190Y-72141904D01*
X128648571Y-72189523D01*
X128600952Y-72284761D01*
X128052380Y-65521904D02*
X127052380Y-65521904D01*
X128052380Y-64950476D02*
X127480952Y-65379047D01*
X127052380Y-64950476D02*
X127623809Y-65521904D01*
X112266666Y-81652380D02*
X112266666Y-82366666D01*
X112219047Y-82509523D01*
X112123809Y-82604761D01*
X111980952Y-82652380D01*
X111885714Y-82652380D01*
X113171428Y-81985714D02*
X113171428Y-82652380D01*
X112933333Y-81604761D02*
X112695238Y-82319047D01*
X113314285Y-82319047D01*
X83725714Y-88992380D02*
X83725714Y-87992380D01*
X83963809Y-87992380D01*
X84106666Y-88040000D01*
X84201904Y-88135238D01*
X84249523Y-88230476D01*
X84297142Y-88420952D01*
X84297142Y-88563809D01*
X84249523Y-88754285D01*
X84201904Y-88849523D01*
X84106666Y-88944761D01*
X83963809Y-88992380D01*
X83725714Y-88992380D01*
X85249523Y-88992380D02*
X84678095Y-88992380D01*
X84963809Y-88992380D02*
X84963809Y-87992380D01*
X84868571Y-88135238D01*
X84773333Y-88230476D01*
X84678095Y-88278095D01*
X85868571Y-87992380D02*
X85963809Y-87992380D01*
X86059047Y-88040000D01*
X86106666Y-88087619D01*
X86154285Y-88182857D01*
X86201904Y-88373333D01*
X86201904Y-88611428D01*
X86154285Y-88801904D01*
X86106666Y-88897142D01*
X86059047Y-88944761D01*
X85963809Y-88992380D01*
X85868571Y-88992380D01*
X85773333Y-88944761D01*
X85725714Y-88897142D01*
X85678095Y-88801904D01*
X85630476Y-88611428D01*
X85630476Y-88373333D01*
X85678095Y-88182857D01*
X85725714Y-88087619D01*
X85773333Y-88040000D01*
X85868571Y-87992380D01*
X102172380Y-53618095D02*
X101172380Y-53618095D01*
X101172380Y-53380000D01*
X101220000Y-53237142D01*
X101315238Y-53141904D01*
X101410476Y-53094285D01*
X101600952Y-53046666D01*
X101743809Y-53046666D01*
X101934285Y-53094285D01*
X102029523Y-53141904D01*
X102124761Y-53237142D01*
X102172380Y-53380000D01*
X102172380Y-53618095D01*
X102172380Y-52094285D02*
X102172380Y-52665714D01*
X102172380Y-52380000D02*
X101172380Y-52380000D01*
X101315238Y-52475238D01*
X101410476Y-52570476D01*
X101458095Y-52665714D01*
X101052380Y-45521904D02*
X100052380Y-45521904D01*
X101052380Y-44950476D02*
X100480952Y-45379047D01*
X100052380Y-44950476D02*
X100623809Y-45521904D01*
X153026666Y-82652380D02*
X153026666Y-83366666D01*
X152979047Y-83509523D01*
X152883809Y-83604761D01*
X152740952Y-83652380D01*
X152645714Y-83652380D01*
X153979047Y-82652380D02*
X153502857Y-82652380D01*
X153455238Y-83128571D01*
X153502857Y-83080952D01*
X153598095Y-83033333D01*
X153836190Y-83033333D01*
X153931428Y-83080952D01*
X153979047Y-83128571D01*
X154026666Y-83223809D01*
X154026666Y-83461904D01*
X153979047Y-83557142D01*
X153931428Y-83604761D01*
X153836190Y-83652380D01*
X153598095Y-83652380D01*
X153502857Y-83604761D01*
X153455238Y-83557142D01*
X191802380Y-80283333D02*
X192516666Y-80283333D01*
X192659523Y-80330952D01*
X192754761Y-80426190D01*
X192802380Y-80569047D01*
X192802380Y-80664285D01*
X191802380Y-79902380D02*
X191802380Y-79283333D01*
X192183333Y-79616666D01*
X192183333Y-79473809D01*
X192230952Y-79378571D01*
X192278571Y-79330952D01*
X192373809Y-79283333D01*
X192611904Y-79283333D01*
X192707142Y-79330952D01*
X192754761Y-79378571D01*
X192802380Y-79473809D01*
X192802380Y-79759523D01*
X192754761Y-79854761D01*
X192707142Y-79902380D01*
X120172380Y-73858095D02*
X119172380Y-73858095D01*
X119172380Y-73620000D01*
X119220000Y-73477142D01*
X119315238Y-73381904D01*
X119410476Y-73334285D01*
X119600952Y-73286666D01*
X119743809Y-73286666D01*
X119934285Y-73334285D01*
X120029523Y-73381904D01*
X120124761Y-73477142D01*
X120172380Y-73620000D01*
X120172380Y-73858095D01*
X119172380Y-72429523D02*
X119172380Y-72620000D01*
X119220000Y-72715238D01*
X119267619Y-72762857D01*
X119410476Y-72858095D01*
X119600952Y-72905714D01*
X119981904Y-72905714D01*
X120077142Y-72858095D01*
X120124761Y-72810476D01*
X120172380Y-72715238D01*
X120172380Y-72524761D01*
X120124761Y-72429523D01*
X120077142Y-72381904D01*
X119981904Y-72334285D01*
X119743809Y-72334285D01*
X119648571Y-72381904D01*
X119600952Y-72429523D01*
X119553333Y-72524761D01*
X119553333Y-72715238D01*
X119600952Y-72810476D01*
X119648571Y-72858095D01*
X119743809Y-72905714D01*
X119052380Y-65761904D02*
X118052380Y-65761904D01*
X119052380Y-65190476D02*
X118480952Y-65619047D01*
X118052380Y-65190476D02*
X118623809Y-65761904D01*
X129172380Y-53738095D02*
X128172380Y-53738095D01*
X128172380Y-53500000D01*
X128220000Y-53357142D01*
X128315238Y-53261904D01*
X128410476Y-53214285D01*
X128600952Y-53166666D01*
X128743809Y-53166666D01*
X128934285Y-53214285D01*
X129029523Y-53261904D01*
X129124761Y-53357142D01*
X129172380Y-53500000D01*
X129172380Y-53738095D01*
X128172380Y-52833333D02*
X128172380Y-52166666D01*
X129172380Y-52595238D01*
X128052380Y-45641904D02*
X127052380Y-45641904D01*
X128052380Y-45070476D02*
X127480952Y-45499047D01*
X127052380Y-45070476D02*
X127623809Y-45641904D01*
X111172380Y-53738095D02*
X110172380Y-53738095D01*
X110172380Y-53500000D01*
X110220000Y-53357142D01*
X110315238Y-53261904D01*
X110410476Y-53214285D01*
X110600952Y-53166666D01*
X110743809Y-53166666D01*
X110934285Y-53214285D01*
X111029523Y-53261904D01*
X111124761Y-53357142D01*
X111172380Y-53500000D01*
X111172380Y-53738095D01*
X110172380Y-52833333D02*
X110172380Y-52214285D01*
X110553333Y-52547619D01*
X110553333Y-52404761D01*
X110600952Y-52309523D01*
X110648571Y-52261904D01*
X110743809Y-52214285D01*
X110981904Y-52214285D01*
X111077142Y-52261904D01*
X111124761Y-52309523D01*
X111172380Y-52404761D01*
X111172380Y-52690476D01*
X111124761Y-52785714D01*
X111077142Y-52833333D01*
X110052380Y-45641904D02*
X109052380Y-45641904D01*
X110052380Y-45070476D02*
X109480952Y-45499047D01*
X109052380Y-45070476D02*
X109623809Y-45641904D01*
X167372380Y-80206666D02*
X166896190Y-80540000D01*
X167372380Y-80778095D02*
X166372380Y-80778095D01*
X166372380Y-80397142D01*
X166420000Y-80301904D01*
X166467619Y-80254285D01*
X166562857Y-80206666D01*
X166705714Y-80206666D01*
X166800952Y-80254285D01*
X166848571Y-80301904D01*
X166896190Y-80397142D01*
X166896190Y-80778095D01*
X166467619Y-79825714D02*
X166420000Y-79778095D01*
X166372380Y-79682857D01*
X166372380Y-79444761D01*
X166420000Y-79349523D01*
X166467619Y-79301904D01*
X166562857Y-79254285D01*
X166658095Y-79254285D01*
X166800952Y-79301904D01*
X167372380Y-79873333D01*
X167372380Y-79254285D01*
X83725714Y-38992380D02*
X83725714Y-37992380D01*
X83963809Y-37992380D01*
X84106666Y-38040000D01*
X84201904Y-38135238D01*
X84249523Y-38230476D01*
X84297142Y-38420952D01*
X84297142Y-38563809D01*
X84249523Y-38754285D01*
X84201904Y-38849523D01*
X84106666Y-38944761D01*
X83963809Y-38992380D01*
X83725714Y-38992380D01*
X85249523Y-38992380D02*
X84678095Y-38992380D01*
X84963809Y-38992380D02*
X84963809Y-37992380D01*
X84868571Y-38135238D01*
X84773333Y-38230476D01*
X84678095Y-38278095D01*
X85630476Y-38087619D02*
X85678095Y-38040000D01*
X85773333Y-37992380D01*
X86011428Y-37992380D01*
X86106666Y-38040000D01*
X86154285Y-38087619D01*
X86201904Y-38182857D01*
X86201904Y-38278095D01*
X86154285Y-38420952D01*
X85582857Y-38992380D01*
X86201904Y-38992380D01*
X136937142Y-89466666D02*
X136984761Y-89514285D01*
X137032380Y-89657142D01*
X137032380Y-89752380D01*
X136984761Y-89895238D01*
X136889523Y-89990476D01*
X136794285Y-90038095D01*
X136603809Y-90085714D01*
X136460952Y-90085714D01*
X136270476Y-90038095D01*
X136175238Y-89990476D01*
X136080000Y-89895238D01*
X136032380Y-89752380D01*
X136032380Y-89657142D01*
X136080000Y-89514285D01*
X136127619Y-89466666D01*
X136032380Y-89133333D02*
X136032380Y-88514285D01*
X136413333Y-88847619D01*
X136413333Y-88704761D01*
X136460952Y-88609523D01*
X136508571Y-88561904D01*
X136603809Y-88514285D01*
X136841904Y-88514285D01*
X136937142Y-88561904D01*
X136984761Y-88609523D01*
X137032380Y-88704761D01*
X137032380Y-88990476D01*
X136984761Y-89085714D01*
X136937142Y-89133333D01*
X152373333Y-61532380D02*
X152040000Y-61056190D01*
X151801904Y-61532380D02*
X151801904Y-60532380D01*
X152182857Y-60532380D01*
X152278095Y-60580000D01*
X152325714Y-60627619D01*
X152373333Y-60722857D01*
X152373333Y-60865714D01*
X152325714Y-60960952D01*
X152278095Y-61008571D01*
X152182857Y-61056190D01*
X151801904Y-61056190D01*
X152706666Y-60532380D02*
X153325714Y-60532380D01*
X152992380Y-60913333D01*
X153135238Y-60913333D01*
X153230476Y-60960952D01*
X153278095Y-61008571D01*
X153325714Y-61103809D01*
X153325714Y-61341904D01*
X153278095Y-61437142D01*
X153230476Y-61484761D01*
X153135238Y-61532380D01*
X152849523Y-61532380D01*
X152754285Y-61484761D01*
X152706666Y-61437142D01*
X187707380Y-67771904D02*
X188516904Y-67771904D01*
X188612142Y-67724285D01*
X188659761Y-67676666D01*
X188707380Y-67581428D01*
X188707380Y-67390952D01*
X188659761Y-67295714D01*
X188612142Y-67248095D01*
X188516904Y-67200476D01*
X187707380Y-67200476D01*
X188707380Y-66200476D02*
X188707380Y-66771904D01*
X188707380Y-66486190D02*
X187707380Y-66486190D01*
X187850238Y-66581428D01*
X187945476Y-66676666D01*
X187993095Y-66771904D01*
X179404761Y-79143333D02*
X179452380Y-79000476D01*
X179452380Y-78762380D01*
X179404761Y-78667142D01*
X179357142Y-78619523D01*
X179261904Y-78571904D01*
X179166666Y-78571904D01*
X179071428Y-78619523D01*
X179023809Y-78667142D01*
X178976190Y-78762380D01*
X178928571Y-78952857D01*
X178880952Y-79048095D01*
X178833333Y-79095714D01*
X178738095Y-79143333D01*
X178642857Y-79143333D01*
X178547619Y-79095714D01*
X178500000Y-79048095D01*
X178452380Y-78952857D01*
X178452380Y-78714761D01*
X178500000Y-78571904D01*
X178452380Y-78238571D02*
X179452380Y-78000476D01*
X178738095Y-77810000D01*
X179452380Y-77619523D01*
X178452380Y-77381428D01*
X179452380Y-76476666D02*
X179452380Y-77048095D01*
X179452380Y-76762380D02*
X178452380Y-76762380D01*
X178595238Y-76857619D01*
X178690476Y-76952857D01*
X178738095Y-77048095D01*
X111172380Y-73858095D02*
X110172380Y-73858095D01*
X110172380Y-73620000D01*
X110220000Y-73477142D01*
X110315238Y-73381904D01*
X110410476Y-73334285D01*
X110600952Y-73286666D01*
X110743809Y-73286666D01*
X110934285Y-73334285D01*
X111029523Y-73381904D01*
X111124761Y-73477142D01*
X111172380Y-73620000D01*
X111172380Y-73858095D01*
X110505714Y-72429523D02*
X111172380Y-72429523D01*
X110124761Y-72667619D02*
X110839047Y-72905714D01*
X110839047Y-72286666D01*
X110052380Y-65761904D02*
X109052380Y-65761904D01*
X110052380Y-65190476D02*
X109480952Y-65619047D01*
X109052380Y-65190476D02*
X109623809Y-65761904D01*
X120172380Y-53618095D02*
X119172380Y-53618095D01*
X119172380Y-53380000D01*
X119220000Y-53237142D01*
X119315238Y-53141904D01*
X119410476Y-53094285D01*
X119600952Y-53046666D01*
X119743809Y-53046666D01*
X119934285Y-53094285D01*
X120029523Y-53141904D01*
X120124761Y-53237142D01*
X120172380Y-53380000D01*
X120172380Y-53618095D01*
X119172380Y-52141904D02*
X119172380Y-52618095D01*
X119648571Y-52665714D01*
X119600952Y-52618095D01*
X119553333Y-52522857D01*
X119553333Y-52284761D01*
X119600952Y-52189523D01*
X119648571Y-52141904D01*
X119743809Y-52094285D01*
X119981904Y-52094285D01*
X120077142Y-52141904D01*
X120124761Y-52189523D01*
X120172380Y-52284761D01*
X120172380Y-52522857D01*
X120124761Y-52618095D01*
X120077142Y-52665714D01*
X119052380Y-45521904D02*
X118052380Y-45521904D01*
X119052380Y-44950476D02*
X118480952Y-45379047D01*
X118052380Y-44950476D02*
X118623809Y-45521904D01*
X176777142Y-81706666D02*
X176824761Y-81754285D01*
X176872380Y-81897142D01*
X176872380Y-81992380D01*
X176824761Y-82135238D01*
X176729523Y-82230476D01*
X176634285Y-82278095D01*
X176443809Y-82325714D01*
X176300952Y-82325714D01*
X176110476Y-82278095D01*
X176015238Y-82230476D01*
X175920000Y-82135238D01*
X175872380Y-81992380D01*
X175872380Y-81897142D01*
X175920000Y-81754285D01*
X175967619Y-81706666D01*
X176872380Y-80754285D02*
X176872380Y-81325714D01*
X176872380Y-81040000D02*
X175872380Y-81040000D01*
X176015238Y-81135238D01*
X176110476Y-81230476D01*
X176158095Y-81325714D01*
X47660714Y-38992380D02*
X47660714Y-37992380D01*
X47898809Y-37992380D01*
X48041666Y-38040000D01*
X48136904Y-38135238D01*
X48184523Y-38230476D01*
X48232142Y-38420952D01*
X48232142Y-38563809D01*
X48184523Y-38754285D01*
X48136904Y-38849523D01*
X48041666Y-38944761D01*
X47898809Y-38992380D01*
X47660714Y-38992380D01*
X49184523Y-38992380D02*
X48613095Y-38992380D01*
X48898809Y-38992380D02*
X48898809Y-37992380D01*
X48803571Y-38135238D01*
X48708333Y-38230476D01*
X48613095Y-38278095D01*
X50136904Y-38992380D02*
X49565476Y-38992380D01*
X49851190Y-38992380D02*
X49851190Y-37992380D01*
X49755952Y-38135238D01*
X49660714Y-38230476D01*
X49565476Y-38278095D01*
X98833333Y-85452380D02*
X98500000Y-84976190D01*
X98261904Y-85452380D02*
X98261904Y-84452380D01*
X98642857Y-84452380D01*
X98738095Y-84500000D01*
X98785714Y-84547619D01*
X98833333Y-84642857D01*
X98833333Y-84785714D01*
X98785714Y-84880952D01*
X98738095Y-84928571D01*
X98642857Y-84976190D01*
X98261904Y-84976190D01*
X99690476Y-84785714D02*
X99690476Y-85452380D01*
X99452380Y-84404761D02*
X99214285Y-85119047D01*
X99833333Y-85119047D01*
X136252380Y-72871904D02*
X137061904Y-72871904D01*
X137157142Y-72824285D01*
X137204761Y-72776666D01*
X137252380Y-72681428D01*
X137252380Y-72490952D01*
X137204761Y-72395714D01*
X137157142Y-72348095D01*
X137061904Y-72300476D01*
X136252380Y-72300476D01*
X136347619Y-71871904D02*
X136300000Y-71824285D01*
X136252380Y-71729047D01*
X136252380Y-71490952D01*
X136300000Y-71395714D01*
X136347619Y-71348095D01*
X136442857Y-71300476D01*
X136538095Y-71300476D01*
X136680952Y-71348095D01*
X137252380Y-71919523D01*
X137252380Y-71300476D01*
D12*
X46000000Y-46500000D02*
X88000000Y-46500000D01*
X88000000Y-46500000D02*
X88000000Y-88500000D01*
X88000000Y-88500000D02*
X46000000Y-88500000D01*
X46000000Y-88500000D02*
X46000000Y-46500000D01*
X90685000Y-91390000D02*
X90685000Y-88610000D01*
X99305000Y-91390000D02*
X90685000Y-91390000D01*
X99305000Y-91390000D02*
X99305000Y-88610000D01*
X99305000Y-88610000D02*
X90685000Y-88610000D01*
X170340000Y-74500000D02*
X173500000Y-74500000D01*
X170340000Y-74500000D02*
G75*
G03*
X170340000Y-74500000I-920000J0D01*
G01*
X46365000Y-90955000D02*
X46365000Y-94045000D01*
X51915000Y-92500462D02*
G75*
G03*
X46365000Y-90955170I-2990000J462D01*
G01*
X46365000Y-94044830D02*
G75*
G03*
X51915000Y-92499538I2560000J1544830D01*
G01*
X51425000Y-92500000D02*
G75*
G03*
X51425000Y-92500000I-2500000J0D01*
G01*
X134110000Y-53685000D02*
X136890000Y-53685000D01*
X134110000Y-62305000D02*
X134110000Y-53685000D01*
X136890000Y-62305000D02*
X136890000Y-53685000D01*
X134110000Y-62305000D02*
X136890000Y-62305000D01*
X199195000Y-61220000D02*
X201855000Y-61220000D01*
X200525000Y-58620000D02*
X201855000Y-58620000D01*
X201855000Y-61220000D02*
X201855000Y-71440000D01*
X199195000Y-71440000D02*
X201855000Y-71440000D01*
X199195000Y-61220000D02*
X199195000Y-71440000D01*
X201855000Y-58620000D02*
X201855000Y-59950000D01*
X188330000Y-89210000D02*
X188330000Y-89330000D01*
X188330000Y-86670000D02*
X188330000Y-88000000D01*
X185670000Y-89330000D02*
X188330000Y-89330000D01*
X187000000Y-86670000D02*
X188330000Y-86670000D01*
X185670000Y-89210000D02*
X185670000Y-89330000D01*
X132890000Y-62270000D02*
X132890000Y-53650000D01*
X130110000Y-53650000D02*
X132890000Y-53650000D01*
X130110000Y-62270000D02*
X130110000Y-53650000D01*
X130110000Y-62270000D02*
X132890000Y-62270000D01*
X175070000Y-88500000D02*
X171910000Y-88500000D01*
X176910000Y-88500000D02*
G75*
G03*
X176910000Y-88500000I-920000J0D01*
G01*
X95280000Y-68130000D02*
X95280000Y-77870000D01*
X100720000Y-77870000D02*
X100720000Y-68130000D01*
X100720000Y-68130000D02*
X95280000Y-68130000D01*
X95280000Y-77870000D02*
X100720000Y-77870000D01*
X98000000Y-78780000D02*
X98000000Y-77870000D01*
X100720000Y-69555000D02*
X95280000Y-69555000D01*
X100720000Y-69795000D02*
X95280000Y-69795000D01*
X98000000Y-67220000D02*
X98000000Y-68130000D01*
X100720000Y-69675000D02*
X95280000Y-69675000D01*
X127720000Y-69675000D02*
X122280000Y-69675000D01*
X125000000Y-78660000D02*
X125000000Y-77750000D01*
X127720000Y-77750000D02*
X127720000Y-68010000D01*
X127720000Y-69435000D02*
X122280000Y-69435000D01*
X125000000Y-67100000D02*
X125000000Y-68010000D01*
X122280000Y-68010000D02*
X122280000Y-77750000D01*
X127720000Y-69555000D02*
X122280000Y-69555000D01*
X127720000Y-68010000D02*
X122280000Y-68010000D01*
X122280000Y-77750000D02*
X127720000Y-77750000D01*
X122780000Y-89540000D02*
X102460000Y-89540000D01*
X102460000Y-83190000D02*
X102460000Y-90810000D01*
X102460000Y-90810000D02*
X122780000Y-90810000D01*
X102460000Y-83190000D02*
X122780000Y-83190000D01*
X122780000Y-90810000D02*
X122780000Y-83190000D01*
X82380000Y-90955000D02*
X82380000Y-94045000D01*
X87930000Y-92500462D02*
G75*
G03*
X82380000Y-90955170I-2990000J462D01*
G01*
X82380000Y-94044830D02*
G75*
G03*
X87930000Y-92499538I2560000J1544830D01*
G01*
X87440000Y-92500000D02*
G75*
G03*
X87440000Y-92500000I-2500000J0D01*
G01*
X98000000Y-47100000D02*
X98000000Y-48010000D01*
X95280000Y-48010000D02*
X95280000Y-57750000D01*
X98000000Y-58660000D02*
X98000000Y-57750000D01*
X100720000Y-49555000D02*
X95280000Y-49555000D01*
X100720000Y-48010000D02*
X95280000Y-48010000D01*
X95280000Y-57750000D02*
X100720000Y-57750000D01*
X100720000Y-57750000D02*
X100720000Y-48010000D01*
X100720000Y-49675000D02*
X95280000Y-49675000D01*
X100720000Y-49435000D02*
X95280000Y-49435000D01*
X163540000Y-91810000D02*
X163540000Y-84190000D01*
X143220000Y-84190000D02*
X163540000Y-84190000D01*
X143220000Y-84190000D02*
X143220000Y-91810000D01*
X163540000Y-90540000D02*
X143220000Y-90540000D01*
X143220000Y-91810000D02*
X163540000Y-91810000D01*
X200810000Y-87540000D02*
X193190000Y-87540000D01*
X200810000Y-72300000D02*
X193190000Y-72300000D01*
X199540000Y-87540000D02*
X199540000Y-72300000D01*
X193190000Y-87540000D02*
X193190000Y-72300000D01*
X200810000Y-87540000D02*
X200810000Y-72300000D01*
X113280000Y-68250000D02*
X113280000Y-77990000D01*
X118720000Y-69915000D02*
X113280000Y-69915000D01*
X118720000Y-69675000D02*
X113280000Y-69675000D01*
X113280000Y-77990000D02*
X118720000Y-77990000D01*
X118720000Y-68250000D02*
X113280000Y-68250000D01*
X118720000Y-69795000D02*
X113280000Y-69795000D01*
X118720000Y-77990000D02*
X118720000Y-68250000D01*
X116000000Y-78900000D02*
X116000000Y-77990000D01*
X116000000Y-67340000D02*
X116000000Y-68250000D01*
X125000000Y-47220000D02*
X125000000Y-48130000D01*
X127720000Y-57870000D02*
X127720000Y-48130000D01*
X127720000Y-49675000D02*
X122280000Y-49675000D01*
X125000000Y-58780000D02*
X125000000Y-57870000D01*
X122280000Y-48130000D02*
X122280000Y-57870000D01*
X127720000Y-49555000D02*
X122280000Y-49555000D01*
X127720000Y-49795000D02*
X122280000Y-49795000D01*
X127720000Y-48130000D02*
X122280000Y-48130000D01*
X122280000Y-57870000D02*
X127720000Y-57870000D01*
X109720000Y-49675000D02*
X104280000Y-49675000D01*
X109720000Y-57870000D02*
X109720000Y-48130000D01*
X109720000Y-49555000D02*
X104280000Y-49555000D01*
X109720000Y-48130000D02*
X104280000Y-48130000D01*
X104280000Y-48130000D02*
X104280000Y-57870000D01*
X104280000Y-57870000D02*
X109720000Y-57870000D01*
X107000000Y-47220000D02*
X107000000Y-48130000D01*
X109720000Y-49795000D02*
X104280000Y-49795000D01*
X107000000Y-58780000D02*
X107000000Y-57870000D01*
X165000000Y-78420000D02*
X165000000Y-81580000D01*
X165920000Y-77500000D02*
G75*
G03*
X165920000Y-77500000I-920000J0D01*
G01*
X82380000Y-40955000D02*
X82380000Y-44045000D01*
X82380000Y-44044830D02*
G75*
G03*
X87930000Y-42499538I2560000J1544830D01*
G01*
X87930000Y-42500462D02*
G75*
G03*
X82380000Y-40955170I-2990000J462D01*
G01*
X87440000Y-42500000D02*
G75*
G03*
X87440000Y-42500000I-2500000J0D01*
G01*
X138500000Y-90920000D02*
X138500000Y-87760000D01*
X139420000Y-91840000D02*
G75*
G03*
X139420000Y-91840000I-920000J0D01*
G01*
X150920000Y-63000000D02*
X154080000Y-63000000D01*
X150920000Y-63000000D02*
G75*
G03*
X150920000Y-63000000I-920000J0D01*
G01*
X161735000Y-64360000D02*
X161735000Y-69660000D01*
X161735000Y-69660000D02*
X187255000Y-69660000D01*
X187255000Y-64360000D02*
X161735000Y-64360000D01*
X187255000Y-69660000D02*
X187255000Y-68010000D01*
X187255000Y-66010000D02*
X187255000Y-64360000D01*
X187255000Y-66010000D02*
G75*
G03*
X187255000Y-68010000I0J-1000000D01*
G01*
X179630000Y-78810000D02*
G75*
G03*
X179630000Y-76810000I0J1000000D01*
G01*
X179630000Y-80460000D02*
X189910000Y-80460000D01*
X189910000Y-80460000D02*
X189910000Y-75160000D01*
X179630000Y-75160000D02*
X179630000Y-76810000D01*
X189910000Y-75160000D02*
X179630000Y-75160000D01*
X179630000Y-78810000D02*
X179630000Y-80460000D01*
X109720000Y-69915000D02*
X104280000Y-69915000D01*
X104280000Y-68250000D02*
X104280000Y-77990000D01*
X104280000Y-77990000D02*
X109720000Y-77990000D01*
X109720000Y-77990000D02*
X109720000Y-68250000D01*
X109720000Y-69675000D02*
X104280000Y-69675000D01*
X107000000Y-78900000D02*
X107000000Y-77990000D01*
X107000000Y-67340000D02*
X107000000Y-68250000D01*
X109720000Y-68250000D02*
X104280000Y-68250000D01*
X109720000Y-69795000D02*
X104280000Y-69795000D01*
X118720000Y-49555000D02*
X113280000Y-49555000D01*
X118720000Y-48010000D02*
X113280000Y-48010000D01*
X116000000Y-47100000D02*
X116000000Y-48010000D01*
X113280000Y-48010000D02*
X113280000Y-57750000D01*
X118720000Y-49675000D02*
X113280000Y-49675000D01*
X118720000Y-57750000D02*
X118720000Y-48010000D01*
X116000000Y-58660000D02*
X116000000Y-57750000D01*
X113280000Y-57750000D02*
X118720000Y-57750000D01*
X118720000Y-49435000D02*
X113280000Y-49435000D01*
X174500000Y-79920000D02*
X174500000Y-83080000D01*
X175420000Y-79000000D02*
G75*
G03*
X175420000Y-79000000I-920000J0D01*
G01*
X46315000Y-40955000D02*
X46315000Y-44045000D01*
X51865000Y-42500462D02*
G75*
G03*
X46315000Y-40955170I-2990000J462D01*
G01*
X46315000Y-44044830D02*
G75*
G03*
X51865000Y-42499538I2560000J1544830D01*
G01*
X51375000Y-42500000D02*
G75*
G03*
X51375000Y-42500000I-2500000J0D01*
G01*
X97305000Y-83610000D02*
X88685000Y-83610000D01*
X88685000Y-86390000D02*
X88685000Y-83610000D01*
X97305000Y-86390000D02*
X97305000Y-83610000D01*
X97305000Y-86390000D02*
X88685000Y-86390000D01*
X137800000Y-70260000D02*
X139640000Y-70260000D01*
X143041000Y-70840000D02*
X146435000Y-70840000D01*
X137800000Y-73959000D02*
X139640000Y-73959000D01*
X143041000Y-65760000D02*
X146435000Y-65760000D01*
X143041000Y-73725000D02*
X143041000Y-73034000D01*
X143041000Y-75920000D02*
X146435000Y-75920000D01*
X143041000Y-68300000D02*
X146435000Y-68300000D01*
X143041000Y-68645000D02*
X143041000Y-67954000D01*
X143041000Y-78460000D02*
X146435000Y-78460000D01*
X143041000Y-73380000D02*
X146435000Y-73380000D01*
X137800000Y-82330000D02*
X143041000Y-82330000D01*
X143041000Y-63565000D02*
X143041000Y-61890000D01*
X143041000Y-76265000D02*
X143041000Y-75574000D01*
X143041000Y-82330000D02*
X143041000Y-80654000D01*
X143041000Y-66105000D02*
X143041000Y-65414000D01*
X137800000Y-61890000D02*
X143041000Y-61890000D01*
X137800000Y-82330000D02*
X137800000Y-61890000D01*
X143041000Y-81000000D02*
X146450000Y-81000000D01*
X143041000Y-71185000D02*
X143041000Y-70494000D01*
X139640000Y-82330000D02*
X139640000Y-61890000D01*
X143041000Y-63220000D02*
X146435000Y-63220000D01*
X143041000Y-78805000D02*
X143041000Y-78114000D01*
%LPC*%
D13*
X40000000Y-94000000D03*
X40000000Y-44000000D03*
X195000000Y-94000000D03*
X195000000Y-44000000D03*
D14*
X66500000Y-68000000D03*
D15*
X51000000Y-52500000D03*
X82000000Y-52500000D03*
X51000000Y-83500000D03*
X82000000Y-83500000D03*
D16*
X97535000Y-90000000D03*
X92455000Y-90000000D03*
D17*
X169420000Y-74500000D03*
D18*
X174500000Y-74500000D03*
D19*
X47655000Y-92500000D03*
D20*
X50195000Y-92500000D03*
D16*
X135500000Y-60535000D03*
X135500000Y-55455000D03*
D21*
X200525000Y-59950000D03*
D22*
X200525000Y-62490000D03*
X200525000Y-65030000D03*
X200525000Y-67570000D03*
X200525000Y-70110000D03*
D21*
X187000000Y-88000000D03*
D16*
X131500000Y-60500000D03*
X131500000Y-55420000D03*
D17*
X175990000Y-88500000D03*
D18*
X170910000Y-88500000D03*
D23*
X98000000Y-65380000D03*
D24*
X98000000Y-80620000D03*
D23*
X125000000Y-65260000D03*
D24*
X125000000Y-80500000D03*
D25*
X105000000Y-87000000D03*
D26*
X110080000Y-87000000D03*
X115160000Y-87000000D03*
X120240000Y-87000000D03*
D19*
X83670000Y-92500000D03*
D20*
X86210000Y-92500000D03*
D23*
X98000000Y-45260000D03*
D24*
X98000000Y-60500000D03*
D25*
X145760000Y-88000000D03*
D26*
X150840000Y-88000000D03*
X155920000Y-88000000D03*
X161000000Y-88000000D03*
D25*
X197000000Y-85000000D03*
D26*
X197000000Y-79920000D03*
X197000000Y-74840000D03*
D23*
X116000000Y-65500000D03*
D24*
X116000000Y-80740000D03*
D23*
X125000000Y-45380000D03*
D24*
X125000000Y-60620000D03*
D23*
X107000000Y-45380000D03*
D24*
X107000000Y-60620000D03*
D17*
X165000000Y-77500000D03*
D18*
X165000000Y-82580000D03*
D19*
X83670000Y-42500000D03*
D20*
X86210000Y-42500000D03*
D17*
X138500000Y-91840000D03*
D18*
X138500000Y-86760000D03*
D17*
X150000000Y-63000000D03*
D18*
X155080000Y-63000000D03*
D27*
X185925000Y-63200000D03*
D28*
X183385000Y-63200000D03*
X180845000Y-63200000D03*
X178305000Y-63200000D03*
X175765000Y-63200000D03*
X173225000Y-63200000D03*
X170685000Y-63200000D03*
X168145000Y-63200000D03*
X165605000Y-63200000D03*
X163065000Y-63200000D03*
X163065000Y-70820000D03*
X165605000Y-70820000D03*
X168145000Y-70820000D03*
X170685000Y-70820000D03*
X173225000Y-70820000D03*
X175765000Y-70820000D03*
X178305000Y-70820000D03*
X180845000Y-70820000D03*
X183385000Y-70820000D03*
X185925000Y-70820000D03*
X180960000Y-74000000D03*
X183500000Y-74000000D03*
X186040000Y-74000000D03*
X188580000Y-74000000D03*
X188580000Y-81620000D03*
X186040000Y-81620000D03*
X183500000Y-81620000D03*
D27*
X180960000Y-81620000D03*
D23*
X107000000Y-65500000D03*
D24*
X107000000Y-80740000D03*
D23*
X116000000Y-45260000D03*
D24*
X116000000Y-60500000D03*
D17*
X174500000Y-79000000D03*
D18*
X174500000Y-84080000D03*
D19*
X47605000Y-42500000D03*
D20*
X50145000Y-42500000D03*
D16*
X90455000Y-85000000D03*
X95535000Y-85000000D03*
D19*
X147500000Y-81000000D03*
D29*
X142420000Y-79730000D03*
X147500000Y-78460000D03*
X142420000Y-77190000D03*
X147500000Y-75920000D03*
X142420000Y-74650000D03*
X147500000Y-73380000D03*
X142420000Y-72110000D03*
X147500000Y-70840000D03*
X142420000Y-69570000D03*
X147500000Y-68300000D03*
X142420000Y-67030000D03*
X147500000Y-65760000D03*
X142420000Y-64490000D03*
X147500000Y-63220000D03*
M02*
