M48
; DRILL file {KiCad (6.0.11)} date Wed Feb  8 16:01:13 2023
; FORMAT={-:-/ absolute / inch / decimal}
; #@! TF.CreationDate,2023-02-08T16:01:13+00:00
; #@! TF.GenerationSoftware,Kicad,Pcbnew,(6.0.11)
; #@! TF.FileFunction,Plated,1,2,PTH
FMAT,2
INCH
; #@! TA.AperFunction,Plated,PTH,ComponentDrill
T1C0.0276
; #@! TA.AperFunction,Plated,PTH,ComponentDrill
T2C0.0315
; #@! TA.AperFunction,Plated,PTH,ComponentDrill
T3C0.0354
; #@! TA.AperFunction,Plated,PTH,ComponentDrill
T4C0.0394
; #@! TA.AperFunction,Plated,PTH,ComponentDrill
T5C0.0598
; #@! TA.AperFunction,Plated,PTH,ComponentDrill
T6C0.0630
; #@! TA.AperFunction,Plated,PTH,ComponentDrill
T7C0.1614
; #@! TA.AperFunction,Plated,PTH,ComponentDrill
T8C0.1693
; #@! TA.AperFunction,Plated,PTH,ComponentDrill
T9C0.3543
%
G90
G05
T1
X5.4528Y-3.4157
X5.4528Y-3.6157
X5.9055Y-2.4803
X6.1055Y-2.4803
X6.4961Y-3.0512
X6.4961Y-3.2512
X6.6701Y-2.9331
X6.7287Y-3.4843
X6.8701Y-2.9331
X6.8701Y-3.1102
X6.8701Y-3.3102
X6.9287Y-3.4843
T2
X3.5612Y-3.3465
X3.64Y-3.5433
X3.7612Y-3.3465
X3.84Y-3.5433
X5.1772Y-2.1819
X5.1772Y-2.3819
X5.3346Y-2.1833
X5.3346Y-2.3833
X6.4199Y-2.4882
X6.4199Y-2.7882
X6.5199Y-2.4882
X6.5199Y-2.7882
X6.6199Y-2.4882
X6.6199Y-2.7882
X6.7199Y-2.4882
X6.7199Y-2.7882
X6.8199Y-2.4882
X6.8199Y-2.7882
X6.9199Y-2.4882
X6.9199Y-2.7882
X7.0199Y-2.4882
X7.0199Y-2.7882
X7.1199Y-2.4882
X7.1199Y-2.7882
X7.1244Y-2.9134
X7.1244Y-3.2134
X7.2199Y-2.4882
X7.2199Y-2.7882
X7.2244Y-2.9134
X7.2244Y-3.2134
X7.3199Y-2.4882
X7.3199Y-2.7882
X7.3244Y-2.9134
X7.3244Y-3.2134
X7.4244Y-2.9134
X7.4244Y-3.2134
T3
X1.8742Y-1.6732
X1.8762Y-3.6417
X1.9742Y-1.6732
X1.9762Y-3.6417
X3.2941Y-1.6732
X3.2941Y-3.6417
X3.3941Y-1.6732
X3.3941Y-3.6417
T4
X5.6071Y-2.539
X5.6071Y-2.639
X5.6071Y-2.739
X5.6071Y-2.839
X5.6071Y-2.939
X5.6071Y-3.039
X5.6071Y-3.139
X5.8071Y-2.489
X5.8071Y-2.589
X5.8071Y-2.689
X5.8071Y-2.789
X5.8071Y-2.889
X5.8071Y-2.989
X5.8071Y-3.089
X5.8071Y-3.189
X7.3622Y-3.4646
X7.8947Y-2.3602
X7.8947Y-2.4602
X7.8947Y-2.5602
X7.8947Y-2.6602
X7.8947Y-2.7602
T5
X4.1339Y-3.4252
X4.3339Y-3.4252
X4.5339Y-3.4252
X4.7339Y-3.4252
X5.7386Y-3.4646
X5.9386Y-3.4646
X6.1386Y-3.4646
X6.3386Y-3.4646
X7.7559Y-2.9465
X7.7559Y-3.1465
X7.7559Y-3.3465
T6
X3.8583Y-1.7819
X3.8583Y-2.3819
X3.8583Y-2.574
X3.8583Y-3.174
X4.2126Y-1.7866
X4.2126Y-2.3866
X4.2126Y-2.5787
X4.2126Y-3.1787
X4.5669Y-1.7819
X4.5669Y-2.3819
X4.5669Y-2.5787
X4.5669Y-3.1787
X4.9213Y-1.7866
X4.9213Y-2.3866
X4.9213Y-2.5693
X4.9213Y-3.1693
T7
X2.0079Y-2.0669
X2.0079Y-3.2874
X3.2283Y-2.0669
X3.2283Y-3.2874
T8
X1.5748Y-1.7323
X1.5748Y-3.7008
X7.6772Y-1.7323
X7.6772Y-3.7008
T9
X2.6181Y-2.6772
T0
M30
